<?xml version="1.0" standalone="no"?>
<!DOCTYPE svg PUBLIC "-//W3C//DTD SVG 1.1//EN" "http://www.w3.org/Graphics/SVG/1.1/DTD/svg11.dtd" >
<svg xmlns="http://www.w3.org/2000/svg" xmlns:xlink="http://www.w3.org/1999/xlink" version="1.1">
<metadata>
Created by FontForge 20170910 at Wed Jun  6 04:46:58 2007
 By Jimmy Wärting
Copyright (c) Volker Busse, 2004. All rights reserved.
</metadata>
<defs>
<font id="Telegraphem" horiz-adv-x="585" >
  <font-face 
    font-family="Telegraphem"
    font-weight="400"
    font-stretch="normal"
    units-per-em="1000"
    panose-1="2 0 5 6 0 0 0 2 0 4"
    ascent="800"
    descent="-200"
    x-height="826"
    cap-height="826"
    bbox="-173 -192 1097 1144"
    underline-thickness="46"
    underline-position="-116"
    unicode-range="U+0020-2122"
  />
<missing-glyph 
 />
    <glyph glyph-name=".notdef" 
 />
    <glyph glyph-name="quotedbl" unicode="&#x22;" 
d="M135 681c9 -15 15 -26 16 -34c0 -12 -2 -22 -5 -29c0 -19 17 -42 17 -46v-120c-1 -3 -1 -6 -1 -11c0 -14 5 -21 15 -21c41 0 51 40 51 72v53c0 20 0 30 -1 30c0 66 45 78 45 122c0 9 -2 18 -6 25c0 3 2 6 6 11c-13 18 -42 106 -63 106c-77 0 -114 -85 -114 -112
c7 -11 20 -26 40 -46zM358 658c0 -10 25 -32 25 -107c0 -3 -15 -19 -15 -40c0 -15 20 -33 20 -56v-9c-1 -3 -1 -5 -1 -8c0 -11 11 -24 28 -24s36 29 36 45c0 2 -22 57 -22 117c0 39 39 133 61 174c-14 33 -30 78 -68 78c-70 0 -14 -48 -74 -70c-38 -14 -38 -21 -38 -32
s48 -50 48 -68z" />
    <glyph glyph-name="numbersign" unicode="#" 
d="M69 413l61 -9c12 -3 22 -3 29 -4l-5 -13l-21 -50l-20 -1c-71 -5 -66 -14 -77 -45v-6c0 -29 16 -50 56 -57l-34 -64c-7 -11 -11 -26 -13 -46c-13 -88 -29 -68 -29 -86c0 -7 0 -14 3 -18l1 -3c12 -32 48 -48 76 -53h8c36 0 35 55 35 81v9l10 79l31 102h116l-4 -16l-41 -79
c-7 -11 -12 -26 -14 -46c-13 -94 -29 -67 -29 -88c0 -3 1 -7 2 -12l3 -6c8 -28 48 -50 75 -53h9c36 0 35 59 35 82v8l10 79l36 128c9 15 28 13 39 13c5 0 9 0 12 -1l19 -4c17 0 80 27 80 54c0 3 -5 8 -16 15l-94 29c12 39 10 58 15 66l14 25l63 9c8 2 13 6 14 12
c0 4 -3 9 -10 16l-35 38c-2 1 -4 2 -5 3l13 21l26 75l24 64c16 67 31 60 31 95c0 19 -9 43 -25 55c-3 3 -7 5 -11 6c30 0 -56 37 -56 -117v-17c0 -9 -4 -17 -11 -24l-20 -13c-7 -6 -10 -13 -10 -22v-26c0 -56 -29 -69 -31 -74l-1 -25l-37 13c-15 0 -51 -12 -65 -12h-6h-9
l-17 2l25 49l26 75l24 64c16 70 32 59 32 93c0 15 -10 44 -24 56c-4 4 -8 7 -12 8c28 0 -57 39 -57 -121v-17c0 -9 -4 -16 -11 -21l-19 -12c-7 -6 -10 -13 -10 -22v-26c0 -58 -29 -70 -32 -76l-2 -45l-83 -2c-31 9 -50 14 -55 14c-20 -8 -53 -31 -53 -53
c0 -25 26 -46 51 -53zM254 332h-37l2 8c19 49 12 57 17 73c10 0 21 -2 34 -6h8c13 0 36 16 65 16c5 0 11 -2 20 -5l1 -1c-2 -7 -4 -17 -6 -28l-21 -56z" />
    <glyph glyph-name="dollar" unicode="$" 
d="M90 430c24 -62 117 -67 117 -111c0 -3 -1 -6 -2 -10c0 -21 4 -104 4 -124c0 -40 -1 -110 -28 -110c0 4 -64 0 -64 57c0 11 2 25 7 40c0 11 -6 17 -17 17s-21 -13 -28 -40c0 -38 121 -181 154 -223c0 3 12 76 36 76c51 0 31 -97 80 -97c6 0 13 3 22 9c-3 25 -5 42 -5 53
c0 82 152 111 152 202c0 71 -158 158 -158 241c0 39 13 69 39 89c12 0 59 -31 71 -31c27 0 41 25 41 54c0 70 -83 70 -83 108c-99 79 20 124 -50 124c-71 0 -28 -108 -97 -108c-24 0 -34 20 -34 47v14c1 3 1 5 1 8v6c0 21 -6 43 -26 43c-15 0 -22 -16 -22 -49v-11
c0 -9 1 -19 1 -32c0 -112 -135 -37 -135 -151c0 -27 8 -57 24 -91zM233 240c0 13 -2 42 -2 53c0 21 12 31 35 31c70 0 85 -83 85 -161c0 -50 -4 -116 -47 -116c3 0 -77 3 -77 38v75c0 33 2 60 6 80zM235 417c0 19 12 84 12 104c0 9 -1 18 -3 29c0 6 10 12 29 17
c28 0 58 -11 58 -34c9 -76 13 -117 13 -125c0 -40 -13 -64 -25 -64c-68 0 -84 22 -84 73zM112 453v11c-11 19 -17 31 -17 36c0 39 55 56 78 56c15 0 28 -6 38 -17c-1 -11 -2 -19 -2 -24c0 -18 7 -79 7 -97c-8 -15 -16 -25 -23 -29c-41 0 -81 28 -81 64zM371 206
c0 34 9 53 28 57c48 -61 67 -16 67 -84c0 -40 -15 -74 -67 -105h-11c-14 15 -21 35 -21 62c0 14 4 56 4 70z" />
    <glyph glyph-name="percent" unicode="%" 
d="M-12 466c0 -33 18 -41 18 -61v-6c0 -2 0 -4 -1 -6v-12c0 -57 81 -83 119 -83c33 0 106 8 106 99c0 16 -6 47 -6 64c19 39 29 65 29 79c0 94 -147 116 -154 116c-3 0 -6 0 -13 -1c-38 -24 -75 -88 -92 -116l-8 -16c0 -13 2 -45 2 -57zM292 323
c-31 -43 -260 -219 -260 -410c0 -17 9 -25 27 -25c21 0 33 9 38 27v13c-1 3 -1 5 -1 7c1 -9 3 -12 8 -8c40 26 208 437 383 659v12c10 13 56 40 64 45v12c43 41 43 34 43 57c0 31 -26 47 -78 47c-40 -16 -80 -101 -155 -219c0 -8 18 -36 18 -46c-36 -58 -48 -83 -56 -102
l-7 -19c-5 -12 -11 -26 -24 -50zM339 225v-11c16 -20 18 -23 18 -30v-6c0 -8 -1 -28 -1 -37c0 -13 2 -25 5 -37c0 -5 -7 -20 -7 -27c0 -83 108 -72 118 -72c63 0 119 109 119 111c-5 3 -7 7 -7 12v5c-1 -1 0 2 1 7c2 6 4 13 6 22l5 27c2 9 3 16 3 19
c0 115 -128 132 -197 132c-25 -36 -49 -56 -49 -71c0 -5 3 -20 3 -27c-11 -11 -17 -16 -17 -17zM396 214c0 62 55 87 73 87c20 0 40 -40 53 -69c26 -69 32 -78 32 -87c1 -2 1 -5 1 -8c-1 2 -1 2 -1 -1c-3 -13 -22 -107 -92 -107c-29 0 -47 12 -54 35v18
c-11 13 -17 29 -17 48c0 16 5 52 5 68v16zM65 434c0 60 13 99 39 118c7 0 11 2 11 5c6 -5 14 -8 23 -8s32 3 40 3c7 0 11 -4 11 -12c0 -7 -2 -25 -2 -33c0 -25 22 -50 22 -85c0 -37 -3 -62 -31 -77c-11 0 -21 2 -29 6c-9 0 -33 -11 -45 -11c-26 21 -39 52 -39 94z" />
    <glyph glyph-name="ampersand" unicode="&#x26;" 
d="M458 41c17 -11 37 -17 60 -17h6c13 1 25 6 35 15c5 6 8 12 10 18v7c0 6 -2 13 -5 20c-6 7 -17 16 -33 26c-16 11 -27 21 -32 26l-35 40c-1 1 -1 2 -1 4c0 5 8 15 24 28c16 14 25 35 27 63c0 16 -5 28 -15 37c-10 7 -22 10 -35 10c-9 -1 -18 -5 -27 -14l-24 -38
c-3 -6 -6 -9 -10 -9c-2 1 -4 3 -7 8l-13 23c-1 5 -9 10 -24 18l-30 18c-23 18 -35 41 -38 69c0 13 5 20 14 21h18c10 1 16 9 19 22l17 69c5 11 7 21 7 31c0 5 -1 9 -2 13c-13 39 -35 66 -66 82l-58 24c-10 2 -20 3 -31 3c-27 0 -52 -9 -75 -28c-11 -9 -21 -22 -30 -41
s-13 -36 -13 -49c0 -7 1 -14 4 -21l35 -105c0 -13 -5 -23 -14 -30l-39 -20c-7 -4 -17 -15 -28 -33l-23 -42c-7 -12 -10 -26 -10 -41v-11c0 -18 2 -35 5 -50l17 -45l14 -35c5 -12 14 -22 27 -31l33 -23c20 -13 32 -21 37 -22c21 -3 38 -3 53 -4l49 -3c21 1 40 5 58 14l39 26
c17 9 34 14 51 14c3 0 8 -1 14 -2zM188 102l-42 27c-26 17 -39 37 -39 60l2 64c2 13 8 24 19 35l45 32c5 5 10 7 17 7c12 0 26 -8 41 -23l59 -58l37 -49c3 -6 4 -13 4 -20c0 -19 -12 -33 -35 -43l-46 -21c-21 -9 -36 -13 -47 -13c-4 0 -9 1 -15 2zM267 529
c0 -34 -33 -49 -62 -49h-7c-21 4 -31 20 -31 47c0 17 4 33 11 46c9 16 21 24 36 24c14 -2 26 -10 37 -25c8 -12 13 -26 16 -43z" />
    <glyph glyph-name="quotesingle" unicode="'" 
d="M330 477c7 7 11 13 11 17c1 12 2 19 2 26c0 14 -3 47 -3 62c0 23 4 43 11 61c7 13 11 37 18 66c5 29 13 53 18 66c-3 2 -12 16 -27 41c-10 19 -22 28 -36 28c-4 -4 -14 -8 -17 -12c-25 0 -46 -6 -63 -17c-27 -27 -40 -48 -40 -63c8 -11 14 -18 17 -23v-29
c9 -15 17 -27 23 -34c0 -16 -6 -55 -6 -69c9 -17 13 -28 13 -33c0 -3 0 -5 -1 -7c-7 -14 -11 -29 -11 -46c0 -28 11 -45 33 -52c7 -1 10 -1 13 -1c17 0 32 6 45 19z" />
    <glyph glyph-name="parenleft" unicode="(" 
d="M148 371c1 -7 1 -12 1 -15v-30c-1 -5 -1 -8 -1 -11v-15c0 -14 2 -26 5 -37c9 -28 18 -54 26 -81l3 -11c2 -3 5 -6 8 -9l11 -9c8 -5 14 -12 14 -17c3 -20 10 -41 19 -65l28 -67c1 -7 2 -10 2 -11c0 -7 -2 -20 -2 -25c0 -9 2 -16 5 -21c6 -11 14 -17 25 -17
c10 0 26 -3 48 -8c20 -6 36 -9 48 -9c7 3 19 13 34 29c1 3 2 5 2 6c0 5 -7 13 -7 17c-40 55 -77 102 -109 143c-2 2 -3 8 -3 19c0 13 -8 28 -23 44c-8 8 -13 15 -15 22c0 19 -2 34 -5 47c0 3 -11 7 -11 12c-1 10 -1 20 -1 30v30c-1 25 -4 44 -11 59c0 6 4 16 12 29
c0 34 -10 74 -30 121c3 7 11 19 23 40c10 15 16 28 18 40c13 17 24 31 34 40c0 3 6 14 6 17c2 7 11 19 26 34c13 13 19 27 19 41c40 36 61 56 68 63c24 25 36 51 36 80c-11 17 -25 26 -42 26c-22 0 -54 -18 -95 -54h-12c-16 -15 -31 -34 -45 -59c-20 -37 -32 -58 -36 -63
v-17c-15 -33 -25 -56 -28 -68c0 -4 -11 -8 -11 -11c-7 -47 -17 -79 -29 -98c-1 -3 -2 -6 -2 -9c0 -7 3 -22 3 -29c0 -4 0 -7 -1 -8c-13 -25 -19 -38 -19 -41c0 -5 5 -17 14 -34c1 -1 1 -5 1 -10v-13c-1 -4 -1 -8 -1 -11v-6z" />
    <glyph glyph-name="parenright" unicode=")" 
d="M340 365c0 -11 6 -36 6 -47c0 -4 0 -8 -1 -11c-7 -12 -10 -30 -10 -53v-27c0 -9 -1 -20 -2 -28c-15 -21 -28 -36 -40 -47c-1 -4 -2 -12 -3 -28c-1 -15 -4 -24 -9 -28c-19 -22 -34 -38 -44 -48c-16 -18 -28 -37 -36 -56c-1 -3 -9 -9 -23 -18c-9 -7 -15 -14 -16 -22v-4
c0 -2 0 -4 -1 -7v-12c0 -17 4 -26 12 -28c14 0 49 11 63 11c37 59 68 99 92 120c11 17 18 29 23 35c0 23 2 38 6 45c13 25 27 46 39 63c2 8 3 19 3 34v1c0 13 1 23 3 29c12 11 18 29 18 52c-1 7 -2 14 -2 15c0 13 4 32 12 55c8 24 12 43 12 56c0 14 -4 27 -11 40
c-6 7 -9 17 -9 29v4c0 3 0 6 1 9v14c0 6 0 12 -1 18c-13 28 -24 50 -32 63c-1 3 -1 6 -1 9v12c0 2 0 5 1 8v13c0 7 -2 14 -6 21c-34 29 -51 69 -51 121c-15 21 -29 36 -40 46v11c-10 13 -25 25 -44 36c-17 9 -29 15 -38 19l-15 8h-17c-24 -14 -36 -34 -36 -60
c0 -21 10 -41 29 -61c17 -16 35 -30 52 -46c23 -23 42 -44 57 -68c5 -15 7 -29 7 -40c23 -57 40 -99 45 -126c5 -21 8 -44 8 -68v-32c-1 -6 -1 -11 -1 -15v-17z" />
    <glyph glyph-name="asterisk" unicode="*" 
d="M77 385c32 5 54 8 65 8c20 0 35 -5 46 -14c1 -6 1 -11 1 -14c0 -10 -3 -22 -8 -37c-9 -13 -21 -27 -32 -40c-17 -25 -26 -39 -26 -44c0 -15 17 -29 52 -43c8 11 38 30 46 40c20 41 37 61 50 61c7 0 15 -8 24 -24c11 -21 19 -34 23 -37c43 -13 70 -27 80 -40
c3 -1 5 -1 8 -1c15 0 24 6 28 18c1 6 2 12 2 18c0 22 -14 45 -43 69c-7 12 -12 21 -17 28c-1 7 -1 11 -1 12c0 21 12 35 35 40c7 4 16 25 24 29c7 0 14 -4 21 -12c8 -7 12 -11 13 -11c13 0 26 2 39 6c23 7 34 11 35 12c12 0 18 7 18 22c0 7 -2 13 -7 17c-11 9 -25 13 -42 13
c-11 0 -25 -1 -45 -4s-35 -4 -44 -4c-25 8 -38 16 -40 23c-5 13 -7 25 -7 35c0 9 2 17 7 23c6 9 19 22 40 38c20 15 33 29 40 42c-4 4 -11 13 -22 29c-9 14 -17 23 -24 28h-11c-21 -19 -44 -34 -69 -45c-9 0 -22 -5 -38 -16s-27 -16 -32 -16c-17 0 -28 12 -34 37
c-12 19 -25 30 -39 35c-36 0 -63 -16 -81 -47c-1 -3 -2 -5 -2 -6c0 -15 6 -26 19 -33c39 -19 66 -44 81 -75c1 -3 1 -6 1 -9c0 -13 -8 -26 -23 -37c-2 -1 -5 -1 -8 -1c-5 0 -16 4 -33 13c-11 5 -22 8 -33 8c-14 0 -50 -8 -65 -8l-11 -6c-5 -3 -9 -7 -11 -12
c-2 -7 -3 -13 -3 -19c0 -21 8 -37 25 -49h28z" />
    <glyph glyph-name="plus" unicode="+" 
d="M243 495c0 -31 -14 -47 -41 -47c-9 0 -23 4 -42 13c-18 9 -29 14 -32 14c-9 0 -29 -15 -32 -18h-18c-21 -9 -31 -27 -31 -55c0 -7 1 -13 2 -19c5 -11 13 -19 23 -24c7 -1 14 -2 22 -2c13 0 45 5 58 5c9 0 16 -1 23 -3c11 0 34 4 42 4c25 0 44 -29 44 -56
c-9 -57 -14 -96 -17 -119c6 -1 16 -6 29 -13s25 -11 34 -11c12 5 22 18 29 40c1 9 2 16 2 23c0 20 -5 39 -14 58c-2 4 -3 8 -3 13c0 11 8 23 23 37c23 21 35 35 38 36s9 1 18 1c15 0 54 -3 69 -3c27 0 50 6 68 19c0 30 -21 49 -63 58c-4 0 -8 -6 -13 -6c-11 0 -40 -5 -52 -5
c-9 0 -17 1 -23 4c-15 6 -29 19 -42 39c-15 21 -22 39 -22 53c0 13 5 25 14 35c0 13 4 45 4 57c0 18 -9 29 -27 34c-40 0 -67 -25 -80 -74c0 -7 -2 -13 -6 -17v-17c11 -18 16 -36 16 -54z" />
    <glyph glyph-name="comma" unicode="," 
d="M292 219c-21 0 -41 -5 -60 -14c-22 -11 -35 -26 -39 -45c-1 -7 -2 -13 -2 -21c0 -9 2 -33 2 -42c16 -15 30 -28 47 -41c17 -16 26 -32 26 -47s-14 -35 -42 -62c-17 -17 -26 -33 -26 -49c0 -3 1 -6 2 -13c5 -17 17 -25 36 -25c-1 0 2 1 8 2c27 8 42 16 47 23v12
c3 7 13 16 28 26c18 12 30 20 35 25c1 1 1 4 1 7c0 4 -3 15 -3 20c0 1 1 4 2 7c19 29 29 48 29 55c0 11 -6 37 -6 48c1 1 16 31 17 46c-8 17 -14 31 -17 41c-20 31 -48 47 -85 47z" />
    <glyph glyph-name="hyphen" unicode="-" 
d="M519 464c-19 13 -34 22 -46 29c-5 3 -9 4 -14 4c-13 0 -46 -10 -62 -10c-8 5 -18 7 -31 7c-12 0 -29 -2 -49 -7c-22 -3 -39 -5 -50 -5c-12 0 -31 1 -55 4c-25 1 -43 3 -55 3c-23 0 -42 -3 -58 -8c-37 -13 -56 -34 -56 -62c0 -43 12 -68 36 -76c7 -3 38 -4 94 -4
c20 0 52 1 95 2c44 1 75 3 96 3c9 -1 20 -2 32 -2c30 0 61 5 94 14c34 13 51 36 51 68c0 12 -4 24 -11 35c-5 3 -9 5 -11 5z" />
    <glyph glyph-name="hyphen" unicode="&#x2010;" 
d="M519 464c-19 13 -34 22 -46 29c-5 3 -9 4 -14 4c-13 0 -46 -10 -62 -10c-8 5 -18 7 -31 7c-12 0 -29 -2 -49 -7c-22 -3 -39 -5 -50 -5c-12 0 -31 1 -55 4c-25 1 -43 3 -55 3c-23 0 -42 -3 -58 -8c-37 -13 -56 -34 -56 -62c0 -43 12 -68 36 -76c7 -3 38 -4 94 -4
c20 0 52 1 95 2c44 1 75 3 96 3c9 -1 20 -2 32 -2c30 0 61 5 94 14c34 13 51 36 51 68c0 12 -4 24 -11 35c-5 3 -9 5 -11 5z" />
    <glyph glyph-name="period" unicode="." 
d="M282 224c-24 -5 -49 -32 -70 -52c-13 -15 -20 -27 -20 -38c0 -13 11 -39 33 -76v-18c10 -10 17 -15 22 -16c6 -1 16 -4 30 -8c15 -5 25 -8 31 -8c5 0 9 1 14 3l39 21c16 10 24 20 24 31c5 27 7 44 7 56c0 13 -2 27 -7 42c-12 42 -46 63 -103 63z" />
    <glyph glyph-name="slash" unicode="/" 
d="M126 161c-11 -19 -16 -37 -16 -55c0 -17 -5 -33 -16 -48c-5 -5 -15 -18 -31 -34c-9 -12 -14 -28 -14 -49v-35c1 -16 6 -24 14 -24c9 3 14 17 18 28c30 31 49 56 56 75c0 22 2 39 6 52c17 17 30 31 41 39v17c8 11 14 18 17 23c2 16 3 30 3 41c1 17 12 37 34 59
c29 28 46 45 49 50c5 8 8 20 8 37v7c0 3 0 6 -1 9v17c0 21 3 31 31 57c15 14 23 25 25 34c16 37 37 75 63 114c28 71 45 120 58 155c43 32 65 75 65 129c0 8 -1 16 -2 25c-14 7 -29 10 -45 10c-11 0 -21 -1 -30 -4c-4 -2 -7 -8 -8 -17c-1 -12 -3 -20 -3 -23
c-5 -6 -16 -16 -35 -29c-14 -12 -24 -23 -29 -34c-1 -3 -1 -9 -1 -18v-19c0 -5 1 -11 1 -15v-5c-1 -27 -8 -47 -22 -58c-25 -16 -38 -29 -41 -40c-4 -18 -8 -37 -11 -57c-3 -11 -12 -25 -25 -40c-17 -20 -28 -33 -32 -40c-1 -6 -2 -11 -2 -14c0 -5 2 -19 2 -23
c0 -9 -2 -16 -6 -21c-4 -8 -7 -15 -10 -20l-7 -14v-6c0 -1 0 -4 1 -7v-15c0 -11 -2 -19 -7 -24c-13 -9 -22 -22 -33 -38c-3 -3 -10 -20 -25 -48c-1 -7 -3 -17 -4 -34c-1 -13 -3 -23 -7 -29c-8 -13 -18 -28 -29 -41z" />
    <glyph glyph-name="zero" unicode="0" 
d="M320 0c1 0 3 0 4 1s2 1 3 0c1 1 1 1 2 1l2 1h1c2 1 3 1 4 1h2h1l2 -1l1 -1l-1 -2c1 1 3 2 4 3l7 3c1 1 3 2 5 3c1 1 1 1 2 1l2 1c1 1 2 1 3 1h1c1 0 3 -1 4 -1h3h3c2 1 4 1 6 2h1c1 1 2 1 4 2l1 1c5 2 9 3 12 4h2c2 1 4 3 5 4l4 4c3 2 5 4 7 5l2 2c2 3 4 5 5 7l2 3h2h2h2
c1 0 2 0 3 1c2 1 4 2 7 3l1 1c2 2 4 3 5 4c3 1 5 2 7 2c1 0 1 0 2 1h3h2l3 2c3 3 6 6 7 8c1 3 2 5 2 6l5 12v2c1 2 1 4 1 5c1 1 1 1 1 2c1 3 1 5 2 8c1 1 1 2 1 3v2c1 1 1 2 1 3c1 1 1 3 2 5v3c0 2 0 4 1 5c1 2 1 4 2 6c0 1 0 2 1 3c1 3 3 7 4 10l3 3c1 2 2 4 2 6l1 3
c0 1 0 2 1 3c1 5 5 7 10 10v41v1l1 2c1 1 1 1 1 2l4 3c3 3 4 5 5 6s1 1 1 2l1 3c1 2 1 4 1 5v3c1 1 1 2 1 3c1 7 2 14 2 21c0 3 0 8 -1 13v2c0 1 0 1 -1 2c0 3 0 6 -1 10v8v2c0 5 0 10 -1 15v3c-1 3 -1 5 -1 7v9c-1 1 -1 1 -2 1c-1 3 -3 5 -4 8s-1 5 -2 6c-1 3 -1 6 -1 9
c0 1 0 2 1 3c2 5 4 10 5 14c1 1 1 3 2 4c2 5 3 10 3 13c1 1 1 1 1 2v1c-1 1 -1 1 -1 2c-1 3 -2 5 -3 8s-3 5 -4 6l-4 13v3v4c1 2 1 5 2 8l2 7v1c1 4 2 7 3 10c0 1 0 2 1 3c1 3 1 6 1 8l-5 12l5 9c-2 5 -4 10 -6 14c-1 1 -1 3 -1 4l-1 2c0 1 0 3 -1 4v2v2h-1c-1 3 -1 6 -1 9
c-3 11 -6 21 -8 32v4c-1 3 -1 6 -2 9c-1 7 -1 13 -1 19c-1 6 -1 12 -2 18v16v4v6c-1 9 -1 17 -1 26c-1 1 -1 2 -2 3c-1 3 -2 5 -3 7c0 1 0 2 -1 3s-1 2 -1 3l-1 4c-1 2 -1 4 -2 5c0 1 0 1 -1 1c-1 3 -1 6 -1 9v1v8l-8 4l-8 33l-9 8l-5 5c-2 2 -4 4 -5 6l-5 5c-1 2 -3 4 -4 5
l-3 3l-5 5l-1 1c-1 2 -3 4 -5 6c-1 2 -2 4 -3 5c-3 1 -7 3 -10 4c-3 2 -5 4 -7 6c-1 1 -2 1 -3 2c-2 1 -4 2 -5 4c-2 1 -4 1 -5 2h-2c-1 1 -2 1 -3 1s-1 0 -2 1h-3l-5 1h-1c-3 1 -5 1 -8 1c-5 1 -12 1 -19 2c-8 0 -15 0 -22 1h-5c-1 1 -2 1 -3 1h-3c-5 0 -10 0 -14 1h-1
l-1 1h-8c-1 1 -3 1 -4 1c-1 1 -2 1 -4 1c-3 1 -7 3 -10 4c-2 1 -4 1 -5 2l-5 2c-1 1 -3 1 -4 1s-3 0 -4 1h-1c-3 -2 -7 -4 -10 -6h-2c-1 0 -2 0 -3 -1s-2 -1 -3 -1c-9 -3 -21 -4 -35 -4c-3 -3 -9 -7 -18 -11c-1 -1 -2 -1 -3 -2c-1 0 -2 0 -3 -1c-1 0 -1 0 -2 -1
c-3 0 -5 0 -6 -1v-1l-1 -1c0 -1 -1 -3 -2 -4l-3 -3c-3 -3 -6 -7 -11 -12c-2 -1 -4 -3 -6 -4l-3 -3c-3 -3 -5 -4 -6 -5h-1c-1 -1 -2 -3 -3 -6c-1 -2 -1 -5 -2 -9c-1 -1 -1 -2 -2 -3h-1c-1 -3 -2 -6 -2 -8v-2c0 -1 1 -3 2 -4l-9 -12c-1 -1 -1 -2 -2 -4c0 -1 0 -1 -1 -2l-4 -4
c-1 -2 -2 -3 -2 -4v-2l1 -1c-1 -1 -4 -5 -10 -13c-3 -5 -6 -7 -10 -7c-7 -17 -12 -28 -12 -37c2 -1 3 -4 4 -7v-2v-3c1 -3 2 -4 4 -4v-16c-2 -2 -5 -8 -8 -18c-3 -7 -8 -11 -13 -11v-21l5 -12c1 -1 1 -1 2 -1c6 -3 9 -8 10 -13v-1c-8 -4 -12 -24 -17 -25v-86l-3 -12l1 -1
c1 -1 2 -4 3 -7v-3c0 -3 -1 -5 -4 -5l3 -12l-8 -8c2 -3 4 -6 5 -10v-2c0 -3 -2 -5 -5 -5c5 -11 8 -19 8 -24v-17l-8 -16c-2 -5 -4 -10 -5 -17v-2c-1 -3 -1 -6 -1 -9v-2l-1 -1v-1v-1v-3c0 -5 1 -14 2 -23v-6c0 -11 1 -20 2 -25c0 -1 0 -3 1 -6v-3l1 -1c1 -4 2 -10 3 -17
c3 -12 7 -22 11 -29v-12c2 -2 4 -5 5 -8v-3c1 0 1 0 1 -1c1 -2 1 -4 2 -6v-1v-4v-1l1 -3v-1c1 -3 2 -4 3 -5c10 -11 18 -17 24 -17v-1c1 -1 2 -2 3 -4l2 -2v-1l3 -5c1 -1 2 -3 3 -5l4 -3l1 -1c3 -4 6 -8 7 -12l1 -2v-2v-1v-1c1 -1 1 -1 1 -2c8 -8 17 -15 28 -20l6 -3h4
c3 -1 7 -2 11 -3l3 -2c1 -1 3 -1 4 -2c7 -3 14 -5 22 -6c1 0 3 0 5 -1c5 -1 10 -2 17 -3c5 -1 11 -1 17 -2h7c2 0 4 0 6 -1h13h15l2 -2c1 -1 2 -1 3 -2c1 0 3 0 4 -1l4 -1h4c3 -1 5 -2 6 -4zM283 123l-16 3s-1 1 -2 3c-1 1 -2 1 -3 2c-3 3 -6 7 -8 11c0 0 -1 0 -4 1
c-1 1 -4 1 -9 2c-1 0 -3 0 -5 1s-4 2 -5 3h-2c0 1 -1 1 -2 2v3v1h-9c-1 0 -2 1 -3 2l-7 7l-3 2l-2 2l-2 2c-3 2 -6 4 -10 5h-2l-3 3c-1 2 -3 4 -4 5c0 1 0 1 -1 2l-2 2c-1 1 -1 1 -2 1c-1 3 -2 5 -3 7l-4 6l-1 2l-4 41c0 11 1 24 2 43c2 19 3 34 3 43v9c0 3 0 5 -1 7v4
c0 2 0 4 -1 5c-1 11 -3 21 -6 32v-1c-1 0 -2 4 -4 12v5c0 5 1 9 4 12v58v10c-1 12 -2 22 -5 30c-1 0 -1 0 -1 1v4c0 11 5 23 9 35c0 10 0 20 1 29v6c1 5 1 10 2 15c1 9 3 17 6 24c1 2 1 4 1 5c1 2 1 3 2 4c1 2 1 3 1 4c1 1 1 2 2 3s1 3 2 4l7 12v9c3 0 5 2 5 6c0 5 2 9 5 11
c2 3 5 7 8 14l3 9h1c1 0 2 0 3 1c2 1 5 2 9 4c2 1 4 2 5 3l2 1l1 1c1 1 3 2 5 3c3 1 7 3 12 5c1 1 3 1 4 2l2 1h16c5 0 10 0 14 1s7 1 10 1c1 1 3 1 4 1l2 1l4 -1c1 -1 1 -1 2 -1c3 0 5 0 8 -1h4c6 -1 12 -1 19 -1h20l3 8h9l37 -25v-3c1 -2 2 -5 4 -8c0 -1 0 -1 1 -2l2 -2
l4 -4l2 -2c1 -1 1 -2 2 -3s1 -1 1 -2s0 -1 1 -2c3 -3 4 -5 5 -8l1 -1c1 -1 1 -3 1 -4c1 0 2 0 3 -1s2 -1 2 -2c3 -3 5 -6 7 -11c1 -1 1 -3 2 -5c2 -3 3 -6 4 -9h1l2 -2c1 -1 2 -1 3 -2c3 -12 5 -23 7 -33c4 -20 7 -36 9 -49c0 -1 0 -3 1 -4l-1 -1c-1 -1 -1 -2 -1 -3
c-1 -5 -2 -11 -2 -19v-17c0 -4 0 -8 -1 -11c0 -2 0 -4 -1 -7c-1 -1 -1 -3 -2 -4c0 -1 0 -2 -1 -3l-8 -3l8 -5v-6c0 -1 0 -3 -1 -5v-13c0 -1 0 -2 -1 -3c0 -3 0 -6 -1 -8v-13l-1 -1v-2c-1 -3 -1 -5 -2 -7c0 -3 0 -5 -1 -8c-1 -10 -1 -22 -1 -35c-1 -2 -1 -4 -1 -7
c0 -1 0 -2 -1 -3v-5c0 -2 0 -4 -1 -6v-5v-4c0 -1 0 -3 -1 -4v-19v-25l-12 -12l4 -12v-49c-1 -3 -2 -5 -3 -8l-2 -7l-1 -2c-1 -1 -1 -2 -1 -3v-1c-1 -1 -2 -3 -3 -4l-2 -2c-1 0 -3 0 -4 -1v-17c-11 -11 -17 -18 -19 -22l-1 -1v-1c-2 -2 -4 -4 -5 -6l-4 -4c-1 -1 -1 -1 -1 -2
l-1 -2l-2 -2c-1 -1 -1 -1 -1 -2c-3 -3 -5 -5 -7 -6l-12 -5h-41l-1 -1c-1 -1 -3 -1 -4 -2c-2 0 -4 0 -6 -1c-1 -1 -3 -1 -4 -1l-5 -1c-4 -1 -8 -1 -11 -1h-18z" />
    <glyph glyph-name="one" unicode="1" 
d="M375 0c7 1 10 2 11 2l-6 -2c5 1 13 2 21 2c7 0 13 1 18 3c3 3 23 9 30 21l9 8c5 12 8 38 8 79l-8 4c-3 7 -5 15 -5 22v9c-3 5 -4 21 -4 48l4 13l-4 5v8l4 5v8l-4 5c-1 16 -1 33 -1 53c0 21 0 45 1 70c3 63 4 103 4 120l-8 13v21c4 6 3 35 8 35c-2 9 -3 19 -3 30
c0 6 1 20 3 41c0 9 1 18 1 23c0 8 -1 13 -1 20c3 6 5 15 5 26l8 13c-5 2 -8 9 -8 21l8 5c-4 1 -6 4 -6 10c0 11 4 16 11 16c-1 5 -2 11 -2 19c0 7 1 16 1 23c0 9 -1 17 -4 23c-32 3 -73 4 -125 4l-13 -4l-18 -17l-9 -5l-13 -8c0 -3 -4 -9 -13 -18c-18 -7 -35 -20 -50 -39
l-41 -48c-4 -19 -19 -28 -31 -39c-7 0 -14 -3 -20 -9l-14 -12c-3 -11 -5 -21 -5 -31c1 -3 4 -11 7 -20c3 -11 5 -16 6 -19l13 -9c5 -3 10 -4 14 -4c3 0 3 1 6 1l19 3c2 3 17 17 45 43c19 18 32 34 38 49c36 17 63 30 79 39c-1 1 -1 2 -1 3c0 9 9 14 9 18l8 9c5 3 10 4 15 4
c3 0 6 -1 8 -4c-7 -11 -11 -17 -13 -17c-3 -9 -5 -22 -5 -39c-5 -15 -8 -34 -8 -57l3 -5c3 -8 5 -28 5 -61c-1 -3 -9 -7 -9 -14c0 -1 0 -2 1 -3c-8 -8 -12 -14 -13 -17c4 -3 6 -7 6 -12c0 -7 -2 -10 -6 -10c5 -9 8 -23 8 -43c7 -5 5 -23 8 -26c-5 -15 -8 -34 -8 -57
c7 -5 4 -22 8 -26c0 -1 -4 -4 -12 -9c-8 -7 -8 -13 -13 -44c-1 -7 -1 -13 -1 -18v-11l-3 -5c-3 -12 -4 -24 -4 -37s1 -26 4 -37l-5 -13l-13 -9v-30c-9 -23 -13 -42 -13 -57l4 -4v-9l13 -13c2 -2 7 -4 15 -7c5 -1 7 -3 7 -6z" />
    <glyph glyph-name="two" unicode="2" 
d="M440 0h47c7 0 14 4 21 4c3 8 13 16 16 24v48l-9 12l-3 8v12c-11 12 -18 19 -25 24c-4 0 -14 4 -19 4c-15 -5 -38 -9 -69 -10s-52 -3 -63 -6l-4 -4h-8l-8 -5l-16 9c-15 0 -57 -4 -72 -4l-4 -5c-2 0 -7 1 -14 4h-3c-3 0 -6 -1 -11 -4l-8 12c0 12 -8 37 -8 49l8 12
c26 41 45 64 56 71l4 9h5c9 8 15 14 19 15h4c0 9 24 21 24 25l4 7h2c11 0 13 12 17 12h1c11 6 18 10 20 12l4 4c13 13 24 23 32 29l3 11v8l9 9c6 1 12 1 17 1c6 0 10 1 11 2c10 7 17 11 20 12l12 8c1 1 12 12 35 33c13 12 23 22 28 31l9 12c-6 5 -9 12 -9 20l9 4l-9 8
c5 0 7 3 7 8s2 8 5 8v12c3 5 5 10 5 16c0 5 1 7 4 7l3 20c1 5 1 10 1 15s0 8 -1 10l-3 7c-6 11 -9 18 -9 21l-3 4l3 3c-11 7 -19 26 -24 29v8l5 3c-1 1 -1 2 -1 5c0 7 5 16 5 21v3c-5 5 -12 12 -23 21c-11 10 -18 18 -21 23l-16 7v8c-5 5 -20 0 -20 9c-24 7 -45 11 -64 11
l-12 12c-17 7 -34 10 -53 10c-11 0 -18 -1 -27 -2l-4 -8c-2 1 -5 1 -8 1c-5 0 -8 0 -10 -1c-7 -3 -12 -4 -14 -4l-4 -3c-24 -7 -40 -12 -48 -16c-4 -5 -21 -10 -24 -17c-3 1 -5 1 -8 1h-7c-5 0 -8 0 -9 -1v-4c0 -7 -12 -9 -12 -12c-5 -5 -7 -14 -7 -28
c-8 -8 -12 -13 -12 -15h-5l-20 -21l-12 -23v-28l-8 -12v-36l5 -12c11 -11 22 -19 31 -24c24 -7 40 -11 52 -12c11 5 19 9 24 12v60c0 1 1 3 4 7c1 1 1 3 1 5s0 3 -1 4c9 8 16 23 21 28v20c1 5 15 13 15 16l8 4l4 3c27 19 32 27 51 28c9 1 15 3 17 5c2 -1 7 -2 15 -3
c5 -1 8 -3 9 -6l4 9l33 -13c9 -4 16 -7 23 -8l16 -3c11 -9 19 -13 24 -16l8 -8c-1 -1 -1 -2 -1 -4c0 -7 7 -11 7 -12s-1 -3 -2 -4l8 -5c0 -13 1 -19 4 -19v-68c-11 -35 -23 -56 -36 -64c-5 -13 -14 -23 -25 -28c-1 -17 -16 -28 -27 -36c-5 -5 -15 -3 -20 -7
c-9 -3 -27 -10 -48 -21l-28 -28l-7 -3c0 -9 -17 -12 -17 -21c-3 -3 -9 -5 -21 -10c-9 -3 -13 -6 -14 -9l-5 -9h-8v-8c-16 -5 -27 -11 -32 -16c-7 -13 -11 -26 -16 -31l-7 -4c-9 -13 -16 -21 -21 -24v-16c-5 -16 -15 -36 -31 -57c-8 -11 -15 -19 -21 -23
c-10 -30 -15 -69 -15 -116c2 -1 3 -7 3 -20c13 -4 21 -9 24 -16c193 -9 291 -12 296 -12c5 3 19 12 28 12l8 -12h28z" />
    <glyph glyph-name="three" unicode="3" 
d="M110 0h37c17 12 28 19 29 20c3 1 7 2 13 2s11 1 14 2c15 9 26 14 33 17v8c5 3 11 21 12 21l13 7c1 -1 2 -1 4 -1c8 0 17 6 20 6v3c22 13 41 22 57 25c3 9 17 12 20 16l5 12c0 1 2 11 7 29l13 4c3 0 13 5 18 5l2 -1c13 11 22 21 28 28v9c11 11 17 20 17 28c5 3 9 16 16 16
c0 11 7 26 20 45l4 4l5 9l12 4c-10 4 -15 9 -15 16c0 6 6 14 19 24c13 11 19 20 19 25c0 6 -6 11 -19 16l4 4c-2 0 -3 3 -3 8c0 6 1 9 3 9c-3 9 -4 20 -4 32l-4 12c-5 5 -10 23 -17 24v9c-1 4 -16 17 -16 24c-9 6 -14 12 -16 17h-8c0 8 -10 16 -13 20l-12 4
c-23 8 -42 12 -57 12l-3 8c1 1 16 9 16 12h8c0 9 12 12 12 17c4 8 10 12 17 12l15 16l9 17v24c5 4 21 7 24 12l15 11c5 3 8 9 9 18c9 4 8 25 17 28v21c-6 7 -12 13 -17 16c-16 5 -28 11 -36 12c-3 -1 -7 -1 -10 -1h-11c-11 0 -23 1 -39 2c-32 1 -53 3 -62 3l-4 4
c-8 0 -29 8 -37 8l-4 4c-9 2 -18 3 -29 3c-13 0 -31 -2 -56 -6c-24 -3 -42 -5 -54 -5c-5 5 -12 8 -20 8c-9 0 -28 8 -33 8c-16 -5 -28 -8 -36 -8c-3 -9 -4 -31 -4 -65c4 -5 11 -21 16 -24v-8c5 -3 26 -4 62 -4l12 4h28l13 -4c4 -2 9 -3 14 -3c10 0 22 3 35 9
c14 7 24 10 31 10c11 -3 21 -5 30 -5c10 0 23 2 40 6c21 4 34 6 41 7c15 -5 27 -8 36 -8v-9c-8 -3 -16 -16 -24 -16c-14 -14 -25 -23 -33 -28c0 -9 -12 -20 -12 -24h-4v-4c0 -6 -3 -9 -10 -10s-11 -4 -11 -7c-7 -3 -17 -9 -30 -17c-15 -8 -23 -14 -30 -15v-9
c-11 0 -16 -12 -21 -12l-4 -4c-7 -2 -15 -7 -24 -16l-12 -9c-9 -16 -16 -27 -25 -36c0 -14 1 -24 4 -29l4 -3v-9c8 -8 14 -12 17 -12l20 -12h36c9 5 21 23 29 28v8h8l4 9c6 1 15 5 27 11c10 5 19 8 27 8c9 0 20 -8 29 -8l3 1c8 -8 15 -12 20 -12c7 -13 12 -22 17 -29v-8
l3 -4v-8l9 -9c0 -8 -9 -15 -9 -16c0 -3 1 -7 1 -14c0 -5 -1 -12 -1 -23c0 -17 1 -29 4 -36c-5 -13 -7 -21 -7 -24c-9 -14 -13 -25 -13 -33c-16 -8 -26 -13 -33 -20l-16 -5l-8 -7v-2c0 -8 -12 -18 -12 -23c-15 -3 -34 -21 -45 -24c-15 -11 -40 -23 -74 -38
c-35 -15 -59 -28 -72 -39c-13 0 -23 -2 -29 -5l-4 -4c-9 0 -28 -3 -29 -3l-12 -9l-3 -8h-9c0 -14 -3 -21 -8 -21c11 -27 17 -42 20 -49z" />
    <glyph glyph-name="four" unicode="4" 
d="M269 0c2 0 4 0 7 1c2 1 4 1 5 1c7 1 12 2 17 3c1 0 1 0 2 1c5 0 9 0 13 1h3c1 0 3 0 4 1h6c-2 -1 -4 -1 -5 -2h-4l-7 -2l-2 -1c3 1 7 1 10 2l5 1h4h4h5c5 1 9 1 12 1c4 0 7 0 10 1h13c5 0 10 0 17 -1c3 0 5 0 8 -1h10h7c6 -1 12 -1 18 -2h6c7 -1 14 -1 21 -1
c4 -1 8 -1 12 -2h6c5 0 9 0 14 -1h10c5 -1 9 -1 13 -1h15c2 0 4 0 6 1h9l22 20c1 7 2 13 3 18c1 1 1 2 1 3c0 2 0 3 1 4c1 6 1 11 2 14s1 6 1 9v3l-8 16l-17 9l-2 -1c-7 -2 -14 -3 -20 -4s-11 -1 -16 -1h-8c-6 0 -12 1 -17 3c-1 1 -2 1 -3 1l-3 1c-3 1 -7 3 -10 4l-5 13v120
c-2 2 -4 5 -6 8v3l-1 3c0 3 1 5 4 7c0 0 1 0 2 1c3 1 6 3 10 4c3 1 6 1 11 2c1 1 2 1 3 1c6 1 12 1 19 1l25 -13h9l10 2c1 1 3 1 5 1c1 0 1 0 2 1h4h7l9 9l4 12c-1 1 -1 1 -1 2s0 2 -1 3c0 1 0 2 -1 4v8v5c-1 11 -1 24 -1 40l-17 13h-86l-4 1l-9 3c-3 3 -6 5 -9 8v9
c5 1 9 5 10 11c1 5 3 8 4 11s2 5 3 6l4 9c-1 1 -1 1 -1 2c-2 8 -4 15 -6 22l-2 5c-1 2 -1 4 -1 6c-1 4 -2 8 -3 11c-1 1 -1 3 -1 4c-1 2 -1 3 -2 4s-1 3 -1 4c1 3 1 6 2 9c1 0 1 0 1 1l3 24c1 6 2 12 3 19v6c1 2 1 4 1 7v6c1 9 1 18 1 27v15c-1 7 -1 14 -1 21
c-1 3 -1 5 -1 7v7c-1 2 -1 4 -1 5v4l-8 12l-4 13h1l3 3c1 1 1 2 2 3l1 2c1 1 1 3 2 5v1c0 3 1 6 3 7c1 2 3 3 5 4l-1 1v12c0 2 0 4 1 6c1 3 2 6 3 10c0 2 0 4 1 5l1 3v3v2c1 3 1 6 2 7c0 3 0 6 1 9v4l-8 9v54l-5 12l-8 4l-3 2c-5 3 -11 6 -18 8c-1 1 -3 1 -5 1
c-5 1 -10 1 -15 1c-1 -1 -2 -1 -3 -1s-1 0 -2 -1s-2 -1 -3 -1c-1 -1 -2 -1 -3 -2l-6 -2c-1 0 -2 0 -2 -1h-6l-37 -37v-8l-2 -1l-4 -3l-4 -5c-1 -1 -3 -3 -5 -4l-21 -21c-3 -3 -6 -5 -8 -7c-1 -1 -2 -1 -3 -2c-5 -5 -9 -8 -12 -11c0 -1 0 -2 -1 -3c0 -2 0 -4 -1 -5v-3
c-1 -1 -1 -2 -2 -3v-1c-3 -6 -6 -12 -9 -17c-1 -1 -1 -3 -1 -4l-1 -1l-5 -11c-1 -1 -1 -2 -2 -2c-1 -2 -1 -4 -2 -5s-1 -3 -1 -4l-3 -3c-5 -5 -10 -9 -15 -14h-2l-12 -13c-9 -8 -16 -15 -22 -20c-5 -8 -9 -15 -14 -20l-3 -5l-8 -7v-9h-8v-8c-10 -9 -17 -17 -22 -22h-1l-2 -3
c-10 -22 -25 -45 -45 -69l-50 -56c0 -2 0 -4 -1 -6s-1 -3 -2 -4l-1 -2c-3 -2 -4 -3 -4 -4c-7 -7 -22 -10 -22 -13l-3 -12v-9l-9 -4s0 -1 1 -2v-3c0 -4 -1 -7 -2 -8l-3 -12l-2 -1l-1 -2c-4 -5 -7 -12 -8 -21v-3c-1 -1 -1 -3 -1 -4v-14l3 -13c12 -11 20 -16 25 -21
c12 -1 19 -3 26 -4l70 -4c2 -2 5 -3 8 -4h3c3 0 6 0 7 1c8 1 12 2 12 3h-1c3 3 7 5 10 8h2c5 4 9 7 13 9h25l1 -2c2 -5 6 -7 12 -8c5 -1 8 -3 9 -5c1 -1 2 -1 3 -2h37c6 1 10 1 13 1c3 1 5 1 7 1c1 1 2 1 3 1s1 0 2 1h7c1 1 2 1 3 1h2c2 1 4 1 7 1h5c1 1 5 1 9 2h8
c3 0 6 0 9 -1c3 0 6 -1 9 -2c1 0 3 0 4 -1l8 -9c0 -1 0 -4 -1 -8v-9c-1 -3 -1 -6 -1 -9s0 -6 -1 -11c0 -4 0 -9 -1 -15c-1 -5 -1 -10 -2 -15v-30c1 -1 1 -3 1 -5l1 -1l-3 -6l-1 -5c0 -1 0 -2 -1 -3c0 0 0 -1 -1 -2v-2l-1 -4c-1 -3 -1 -6 -1 -7l-9 -9h-37
c-11 -1 -21 -1 -31 -1h-12c-23 -1 -42 -1 -57 -2l-12 -5l-4 -4c-2 -2 -3 -4 -4 -6c0 -1 0 -1 -1 -2v-8h1c-3 -13 -5 -30 -5 -51l8 -8l22 -8l1 -1h27l1 1h11c3 -1 5 -1 7 -1l1 -1h2l2 -1c1 0 2 0 2 -1h3zM228 344c-29 7 -50 13 -63 17l-12 -8c-9 0 -15 -1 -20 -4l-5 8
c1 1 6 7 11 19c1 3 3 5 4 7l4 3c3 5 7 8 10 9v12c9 9 13 17 13 25l17 14c7 7 13 15 16 23l12 13v8c11 0 18 11 21 12c4 8 7 16 10 24c2 8 4 15 7 22h13v2c3 2 5 4 7 7l4 4c3 3 6 5 9 8l8 4c0 1 0 2 1 3l1 1c2 3 5 7 8 12l1 1c3 5 5 9 7 14c0 1 0 2 1 3l2 8c1 0 2 0 3 1l1 1
c1 1 2 3 2 6c0 4 1 6 3 7c1 1 3 1 4 1l3 12v2c2 3 6 8 13 15h4l6 3c1 0 2 0 3 1l1 2c1 1 2 1 3 1c3 1 6 2 9 2l8 -13c0 -3 0 -7 -1 -14v-4c-1 -7 -2 -15 -3 -25v-9c0 -1 0 -1 -1 -2c0 -3 0 -5 -1 -7c0 -3 0 -6 -1 -9v-28c1 -1 1 -3 1 -5l1 -1v-8l5 -13l-2 -7l-1 -1
c-1 -3 -1 -6 -2 -9c0 -1 0 -1 -1 -2c0 -1 0 -2 -1 -4l-1 -8v-1l-1 -4c0 -1 0 -3 -1 -5l-1 -1v-2c-1 -3 -1 -7 -2 -10v-7c0 -1 0 -3 1 -4v-2c1 -1 1 -2 1 -3c1 -1 2 -3 3 -4v-9c0 -5 0 -13 1 -24v-2c1 -3 1 -5 1 -7c1 -7 1 -12 1 -16s0 -8 -1 -13c-1 -1 -1 -2 -1 -3
s0 -3 -1 -5v-3c-2 -3 -4 -7 -6 -10c-1 -1 -1 -2 -2 -3l-1 -1l-11 -4c-2 0 -4 0 -6 -1h-3c-3 -1 -5 -1 -7 -2c-2 0 -4 0 -7 -1h-3l-15 -2h-19c-3 -1 -7 -1 -10 -1h-5c-10 -1 -19 -2 -27 -3l-8 -1c-4 -1 -8 -1 -12 -2zM297 1h2c2 1 4 1 6 1c-4 -1 -7 -1 -10 -2c1 0 1 0 2 1z
M305 2c0 0 1 0 2 1h-2v-1z" />
    <glyph glyph-name="five" unicode="5" 
d="M146 0c5 1 11 2 12 2l-1 -1c9 3 20 4 35 4l4 3c21 7 44 12 55 25l16 -3c5 0 15 8 22 8c27 16 48 26 62 29c4 3 9 8 15 15c9 11 17 13 33 13c7 0 12 1 15 2c23 17 38 31 47 41c0 7 8 15 8 23v2c5 3 14 13 17 13l3 12v9l5 4v9l8 4c0 8 4 29 4 38l5 13c3 0 4 3 4 8s1 8 4 8
c5 17 8 31 8 42l5 4c3 4 4 10 4 17c0 5 1 8 4 8c3 7 4 17 4 28c0 13 -8 44 -25 94l-4 4v9c-9 12 -16 22 -21 29c-33 20 -58 34 -75 46c-24 5 -41 8 -51 8l-9 8c-13 5 -28 7 -45 7c-13 0 -32 -2 -57 -6l-32 -3c-9 -1 -17 -1 -24 -1c-11 -7 -20 -11 -26 -13l-4 -4h-22
c0 7 -8 20 -8 20v18l-4 12l-4 5c-3 5 -4 11 -4 20l4 13l4 4c3 5 4 21 4 50c5 6 8 16 8 30c9 4 16 7 22 8l21 5l12 4c8 1 16 3 23 3c8 0 15 -2 24 -3l12 -4c12 0 34 -5 42 -5c9 4 18 9 25 9h4l13 -4c62 3 109 6 142 8l13 9c3 7 4 20 4 37c-1 2 -6 8 -14 18c-4 5 -9 9 -15 11
c-2 -1 -6 -1 -11 -1h-7h-4c-5 0 -8 -1 -11 -3c-7 -3 -33 -4 -76 -4c-5 5 -14 7 -26 7c-17 0 -26 0 -28 1l-13 -8c-17 0 -45 2 -85 5c-39 3 -68 5 -87 5c-27 0 -49 -2 -67 -6c-5 -9 -8 -23 -8 -42l-5 -4c-3 -16 -5 -33 -5 -52c0 -15 0 -34 3 -57c4 -32 6 -51 7 -59l-5 -12
l-4 -5l4 -4c-5 -8 -3 -30 -8 -34c2 0 3 -3 4 -8v-3c0 -3 -1 -5 -4 -5v-9l4 -3c-3 -7 -4 -21 -4 -42c5 -25 10 -43 13 -55c11 -13 20 -21 25 -25c8 0 20 -5 25 -5c-1 1 -1 2 -1 3c0 9 13 7 13 14h8v8c29 20 54 33 77 38c1 5 17 9 20 17c30 0 53 2 68 5c8 8 13 12 16 12h9
l8 -4c5 0 24 -4 29 -4c5 -6 19 -9 42 -9c13 -12 21 -19 26 -21v-9c5 -1 9 -16 12 -16c0 -3 2 -8 6 -14c7 -11 10 -14 11 -15c5 -28 8 -49 8 -63l-4 -9c-2 -13 -8 -28 -18 -45c-11 -17 -17 -31 -20 -43l-8 -8l-9 -5l-4 -3c-7 -3 -14 -14 -23 -14l-2 1c-3 -5 -17 -14 -17 -17
c-11 -3 -21 -17 -29 -18c-5 -1 -18 -16 -21 -16c-16 -8 -29 -12 -38 -12c-9 -4 -14 -6 -17 -6c-1 0 -3 1 -4 2c-9 -7 -18 -11 -25 -12h-4l-12 -9c-35 -3 -60 -4 -77 -4l-8 -5c-7 -3 -20 -4 -37 -4c0 -12 -17 -16 -17 -21c-5 -6 -7 -12 -7 -18s2 -12 7 -19c3 -7 9 -14 17 -22
l8 -3c14 -14 34 -24 59 -30zM154 0l3 1h-1c-1 0 -1 0 -2 -1z" />
    <glyph glyph-name="six" unicode="6" 
d="M279 0h2c6 1 10 1 12 1h3c2 1 3 1 4 1l-2 -1h-2h-1c-1 -1 -1 -1 -2 -1h-1c7 1 14 2 20 3c13 2 23 3 30 4c1 1 1 1 2 0c4 1 7 2 10 2c2 1 4 1 5 2h2c1 1 1 1 2 1s2 0 3 1c3 1 5 2 8 3c1 1 3 1 4 1l1 1c2 1 3 1 4 1s1 0 2 1h2l8 4c1 1 2 1 3 1l6 3c1 0 2 0 3 1h2
c1 1 3 1 4 2h2c1 1 1 1 2 1h2h4c3 1 7 1 10 1l20 21v3l1 1c0 1 1 2 2 3l1 1l1 2c1 1 1 2 2 3s1 1 1 2c5 4 10 9 17 14c1 1 3 4 5 8l1 1v1c2 3 4 7 7 13v1l1 2c1 1 1 2 1 3c1 1 2 3 3 4c1 2 3 4 4 6c2 2 4 4 7 6v6c0 3 1 8 2 15c0 2 0 4 1 7c0 1 1 3 1 6c0 1 0 3 1 5v4v9
c0 5 0 8 -1 11v3l3 2c3 2 6 5 7 9c1 5 3 8 5 9h1l3 9c1 2 1 3 2 4l3 9c0 1 0 2 1 3v1l-4 12l-5 21c0 3 0 5 1 6c1 3 1 7 2 10c1 7 2 13 3 18c0 3 0 6 1 9c0 3 0 7 1 10v5c0 3 0 5 1 8v8l-9 24l-8 13l-4 12l-8 5c-7 11 -13 21 -18 30c-1 4 -3 8 -4 11l-3 9v2v1l-4 3l-2 2
c-1 1 -3 2 -4 3l-3 2c-2 1 -4 2 -7 4h-1v1c-1 0 -2 0 -3 1l-2 2l-2 1c-2 1 -4 1 -5 2l-1 1l-2 3v1l-2 4l-2 6l-1 2l-1 1l-2 1l-2 1c-1 0 -1 0 -1 1h-2c0 3 -1 5 -2 7c-1 1 -3 3 -6 4c-1 0 -2 0 -3 1h-2l-12 8l-17 17h-4c-2 1 -4 2 -5 4l-2 2c-5 3 -9 5 -10 6
c-7 0 -13 1 -18 2h-2c-1 1 -1 1 -2 1c-3 1 -5 3 -8 4l-3 1c-5 2 -12 3 -19 4h-6h-7c-1 -1 -4 -1 -7 -1c-1 -1 -1 -1 -2 -1h-4c-2 -1 -4 -1 -7 -2h-4c-2 -1 -4 -1 -7 -1h-6c-1 0 -1 0 -2 -1h-6c-3 -1 -6 -1 -8 -2c-7 -1 -12 -1 -16 -1h-8h-1c-3 1 -7 1 -10 2c2 3 5 6 8 10
c1 1 2 3 2 4c2 1 3 2 4 3l11 11c1 1 1 1 1 2c1 1 1 2 2 3c2 3 4 6 6 8c1 4 3 7 6 10c1 1 1 2 2 3l6 6l2 2c1 3 3 7 8 16l3 6c0 1 0 3 1 4v4v2l13 13l4 4c4 3 7 6 10 9c2 1 4 3 5 4s1 1 2 1l2 1l2 2h1v1c1 1 2 1 3 1c1 1 2 2 3 2l2 2l5 5l1 1h1l4 12l6 6l2 2c1 1 1 1 1 2l2 2
c1 2 2 4 3 5s1 1 1 2l1 2c0 1 0 1 1 2v2h8h7c2 -1 4 -1 7 -1h3l1 -1h11h5c5 1 10 2 13 5c3 1 5 3 7 5l17 9c3 0 6 0 10 1c3 1 5 1 8 2h1c1 0 2 0 3 1c1 0 2 0 3 1s2 1 3 1c5 3 10 5 15 8c2 1 4 1 6 2c3 1 5 3 8 4l5 13v16l-34 33h-5c-3 -1 -6 -1 -10 -1h-6h-2
c-9 -1 -17 -2 -22 -2l-1 -2l-1 -1c-2 -3 -5 -5 -9 -7h-2c-3 -1 -6 -3 -7 -4v-3c-1 0 -1 0 -2 -1h-2c-2 -1 -4 -1 -6 -2h-2c-1 -1 -3 -1 -6 -2l-1 -1h-2c-3 -1 -5 -1 -6 -2c-1 0 -3 0 -4 -1c-2 0 -4 -2 -6 -2l-5 -2l-3 -4c-1 -1 -3 -2 -4 -3c-3 -3 -6 -4 -11 -5h-3l-10 -8
l-3 -1c-1 -1 -3 -3 -5 -4c-5 -3 -11 -6 -16 -9l-4 -2c-3 -2 -7 -4 -11 -5l-2 -2c-4 -4 -8 -7 -11 -9l-2 -1h-2c-4 -2 -8 -4 -13 -6c-3 -1 -7 -3 -11 -4c-6 -3 -12 -6 -17 -9l-9 -6l-7 -13l-5 -12v-8c-8 -9 -12 -14 -12 -17h-8l-3 -9l-2 -4c-1 0 -1 -1 -2 -2l-3 -4v-1
c-5 -5 -10 -9 -15 -13l-2 -5c-4 -13 -6 -23 -7 -28l-32 -33v-8l-25 -25c-5 -9 -8 -16 -10 -22c-2 -5 -4 -9 -6 -12v-1v-1l-1 -1l-1 -3c-1 -3 -2 -7 -3 -11c-1 -5 -3 -12 -5 -21c-5 -15 -8 -25 -8 -31l9 -8l-12 -63c-3 0 -4 -1 -4 -2v-2l1 -2c1 -2 1 -4 1 -5v-1
c0 -1 0 -1 1 -2v-1l1 -1v-12l3 -9c0 -9 -1 -14 -3 -17l-9 -12v-49l4 -8v-1l1 -2v-1c1 -1 1 -2 1 -3v-2c1 -1 1 -2 1 -3c1 -7 1 -15 2 -26v-16l1 -2c1 -2 2 -4 3 -5v-1l1 -5l1 -2v-2l1 -1v-1l2 -8c1 -3 2 -5 3 -6l13 -9v-2c1 -3 2 -8 5 -15c5 -7 7 -14 7 -21v-3
c9 -12 15 -20 20 -25c3 -2 6 -3 10 -4c3 -1 6 -3 7 -6v-2c1 0 3 0 5 -1s4 -2 7 -3l4 -2l13 -11c1 0 2 0 3 -1c6 -2 12 -4 17 -5c2 0 4 0 5 -1c4 -1 8 -2 13 -3c9 -1 17 -2 24 -2c5 -7 11 -12 18 -17c6 -5 12 -8 19 -10c6 -3 13 -5 20 -6zM296 123l-4 5h-3c-4 1 -8 2 -11 3
h-2l-9 3c-7 1 -14 3 -21 6c-2 1 -4 1 -6 2c-5 2 -9 4 -14 7c-3 0 -32 15 -38 25l-1 -1c-3 0 -7 4 -11 11v2l-16 4l-9 24v12c-1 31 -7 51 -16 59v20c9 10 15 19 16 26l-3 12c0 13 1 24 2 34c1 3 1 5 1 6c1 2 1 4 2 5c1 3 2 6 3 8c1 1 2 1 3 2c2 2 3 4 4 5c3 4 7 7 10 9v1l3 3
c1 1 2 3 3 4l1 1l5 4c15 7 26 12 32 17c6 3 12 6 18 7c1 1 3 1 4 1c2 1 4 2 6 2c1 1 1 1 2 1l6 1h2c2 0 4 0 6 1h6h4c4 -1 9 -1 15 -2c3 -1 6 -1 7 -2c2 0 4 0 7 -1c1 1 3 1 4 0c3 -1 6 -1 9 -1h3c1 0 1 0 2 -1c5 0 9 0 13 -1h7c1 0 1 0 2 -1h17h4c1 1 2 1 3 1h3l32 -17v-2
v-2c1 -1 1 -2 2 -3l2 -2l2 -2c1 -2 2 -5 3 -8v-2h1h1l4 -4l5 -5c1 -3 2 -5 3 -6l5 -5c2 -2 4 -4 6 -5c0 -1 0 -2 1 -4c0 -1 0 -2 1 -3l1 -4c1 -2 2 -4 3 -5c1 -2 1 -4 1 -6c0 -1 0 -2 1 -3v-3l4 -13c0 -11 0 -20 1 -29c1 -3 1 -5 1 -8c1 -1 1 -1 1 -2v-4v-3c1 -3 3 -7 4 -10
l1 -2c-3 -1 -5 -4 -5 -8v-3v-11c0 -4 0 -7 -1 -10c-1 -1 -1 -3 -2 -4v-1c0 -6 -1 -11 -2 -15v-2c-1 -3 -2 -5 -3 -6c-1 -2 -3 -4 -5 -5c0 -1 -1 -1 -2 -1v-17c-6 -5 -10 -10 -13 -14l-2 -2c-1 -1 -1 -3 -2 -4c0 -1 0 -2 -1 -3c0 -1 -1 -2 -2 -4c-2 -2 -5 -5 -9 -10
c-1 -1 -2 -1 -3 -2l-8 -4c-1 -1 -2 -1 -3 -1c-1 -1 -2 -1 -3 -2c-11 -6 -20 -11 -25 -16c-1 0 -2 0 -3 1h-2c-4 0 -8 -1 -12 -3l-2 -2h-1c-4 -1 -8 -3 -11 -4h-6l-12 -9h-17z" />
    <glyph glyph-name="seven" unicode="7" 
d="M253 0c5 3 9 4 12 4c-3 -1 -6 -3 -9 -4c25 5 43 8 55 8l5 13c5 11 8 20 8 25l-5 4c8 28 12 44 13 47l9 3c8 17 12 32 12 47l13 8c0 13 1 20 4 21c3 7 4 14 4 21c0 6 -1 14 -4 25l-4 5c5 13 8 30 8 50c8 7 20 31 29 38v67l8 13l5 12l8 4c5 8 10 12 17 12v13l5 12
c2 2 3 6 3 11c0 4 2 6 5 6v18c8 3 9 16 12 29v25l5 13c8 3 12 19 16 20c3 10 4 24 4 43l5 4c3 7 4 32 4 75l-4 4c3 1 4 8 4 22l4 12l12 8v55c-16 16 -17 11 -26 15c-2 1 -4 2 -7 2h-4l-13 8h-37l-13 -8h-8c-23 0 -70 3 -143 8l-4 -5c-101 9 -152 13 -155 13l-22 -13v-28
c3 -1 5 -9 5 -22l-5 -12l-3 -4c-4 -11 -6 -22 -6 -33c0 -14 6 -47 6 -59l-5 -13c-5 -3 -8 -10 -8 -21l13 -8v-35l3 -12c9 0 13 -5 13 -16c3 -3 17 -7 17 -8s12 -1 37 -1l13 9l12 12v8c11 4 11 21 18 21c-4 21 -10 40 -18 55c6 15 9 27 9 36v6l13 12h4c39 13 67 21 84 26
c3 4 9 6 19 6c9 0 13 2 14 6h30l4 -8c3 0 4 -1 8 -1c11 0 25 1 46 2h15c17 0 29 -2 36 -5l-4 -13c-1 -1 -6 -17 -13 -17v-16c-5 -17 -8 -27 -8 -30l-4 -8c0 -3 -5 -14 -5 -17l-8 -12l8 -9v-4c-4 -3 -6 -5 -6 -7c0 -3 6 -8 6 -13v-2c-5 -1 -15 -12 -16 -12
c-3 -9 -9 -17 -17 -25c-5 -17 -8 -26 -8 -29c-5 -6 -12 -17 -22 -33c-8 -13 -15 -22 -20 -26v-13l-9 -12v-38l-4 -12l-38 -38c-3 -7 -4 -21 -4 -42c-5 -5 -8 -16 -8 -33c-9 -9 -14 -13 -17 -13c-7 -17 -10 -31 -13 -38c0 -7 -8 -18 -8 -21c-3 -6 -9 -13 -17 -21
c-12 -17 -18 -27 -21 -34c-1 -17 -4 -42 -4 -75c-7 -8 -12 -14 -13 -17l4 -13c11 -11 18 -17 22 -20l12 -5c11 -4 21 -7 30 -8z" />
    <glyph glyph-name="eight" unicode="8" 
d="M315 0h17h9c4 1 10 1 15 2c6 1 12 1 17 1h5h7l1 1h7c1 2 4 4 7 7l2 2l1 1l2 2v2c1 1 1 1 1 2h8l6 6l1 1l5 5c1 1 3 2 4 3l1 1c1 1 3 2 4 3s2 3 4 5l7 5h1l1 1c3 3 5 5 8 7l3 1c3 3 6 5 9 7c1 0 2 0 3 1v1l3 4c1 3 3 5 5 8c1 3 3 5 4 6c3 4 6 7 9 10v12l8 33l21 21v8
c1 1 2 1 3 2l1 2c1 1 1 3 2 6c1 2 1 4 1 6v5c1 2 1 5 1 8v3l1 5c1 1 1 1 1 2c1 2 1 4 1 6c1 1 1 3 2 5l1 3v1c1 4 3 8 4 13v2v2c0 2 0 4 1 6c0 3 0 6 1 7v6v4c0 1 0 2 -1 3v3c0 1 0 2 -1 3v4c0 1 0 2 -1 3l-1 4v1l-9 4v8h-1c-1 1 -2 3 -3 4l-2 5l-1 4c-1 2 -1 4 -2 6
s-3 3 -5 4l-1 1v7c0 2 0 4 -1 5v4c0 1 0 3 -1 4v4c-1 1 -1 2 -1 3v3c-1 1 -1 3 -1 4c-1 1 -1 2 -1 3c0 2 0 4 -1 6s-1 4 -2 7c-1 1 -1 2 -1 4c-1 0 -2 1 -4 4c-1 2 -2 4 -4 6l-2 3c-1 1 -2 1 -3 2c-1 3 -2 5 -3 7c-1 1 -1 3 -1 4v3h-4c-1 0 -1 0 -2 1c-3 1 -5 2 -7 5
c-3 3 -6 5 -7 6v17l-4 12l-20 20l-13 5l-8 12l3 6l3 3l4 4c2 3 4 5 7 7c1 1 2 1 3 2s3 1 4 2l1 1l8 20v15c-1 9 -1 17 -2 23c-1 2 -1 4 -1 5c-1 1 -1 2 -1 3v1l-1 2v1c4 3 7 7 10 10l1 1c1 2 1 4 2 5l1 1l3 3c2 1 4 3 6 4c1 0 1 0 1 1l2 2c1 0 1 0 2 1c4 1 7 3 9 4l5 13
c-1 0 -3 0 -4 1l-1 1l-1 2l-2 4v1v2c-1 4 -2 7 -3 11c-1 0 -1 0 -2 1v1v8c-1 5 -1 10 -2 13v3l-1 2c-1 1 -1 2 -1 3v12l-2 5c-1 1 -1 2 -2 3c-2 4 -4 8 -6 11c0 1 0 2 -1 3c-1 3 -1 5 -1 7c-1 1 -3 2 -4 3c-1 2 -3 3 -4 4c-1 3 -2 5 -3 8l-5 18l-25 25h-8c-3 2 -5 4 -6 6
l-3 3l-3 3c-2 1 -4 3 -5 4c-3 1 -8 4 -15 7c-1 1 -3 2 -5 3c-5 2 -10 5 -16 9l-2 2c-1 1 -2 1 -3 2l-4 1c-3 2 -5 4 -8 5c-1 0 -1 0 -2 1s-3 1 -4 1c-1 1 -1 1 -2 1l-2 1c-1 1 -3 1 -4 2h-3c-1 1 -2 1 -3 1h-2h-4c-1 1 -1 1 -2 1h-1h-2c-3 1 -5 1 -7 2h-2s-1 0 -2 1h-3
c-1 1 -3 1 -4 1c-4 1 -8 1 -13 1c-8 0 -17 -1 -26 -4c-3 -1 -6 -1 -9 -2c-1 0 -3 0 -5 -1c-1 -1 -3 -1 -4 -2c-2 -1 -4 -1 -6 -2c-3 -1 -6 -3 -9 -4l-2 -1c-3 -1 -5 -2 -8 -3l-22 -12l-14 -7c-5 -3 -10 -5 -15 -7l-20 -21v-2c-1 -5 -3 -9 -7 -12c-5 -3 -9 -7 -13 -11v-17
l-5 -5c-11 -17 -16 -41 -16 -72v-13v-9c1 -2 1 -4 1 -7s0 -6 1 -10v-3c1 -10 1 -19 2 -26v-11c3 -5 8 -12 13 -20c1 -3 3 -5 4 -7c3 -4 5 -8 7 -12c0 -1 0 -1 1 -2l25 -25v-1h1c1 -1 1 -3 2 -4v-3s0 -1 1 -2v-4v-4v-3l3 -3l-1 -1c-1 0 -1 -1 -2 -2c-1 0 -2 -1 -3 -3v-2
c-3 -3 -5 -5 -7 -5h-2v-8l-2 -1c-1 -1 -1 -1 -2 -1c-1 -1 -2 -1 -3 -2c-13 -8 -22 -15 -27 -20c-9 -21 -20 -35 -29 -46l-3 -12v-8l-21 -21c-7 -32 -12 -59 -15 -80v-3v-9c-1 -5 -1 -10 -1 -13v-6c2 -6 4 -12 7 -19c1 -1 2 -3 3 -6c5 -13 8 -24 10 -33v-1c1 -1 1 -2 1 -4v-9
v-2c1 -2 2 -3 4 -4c3 -7 5 -14 7 -20c1 -3 2 -5 3 -8v-1c1 -1 1 -3 2 -4l37 -40c13 -15 21 -27 24 -34l17 -8h8l3 -4l1 -1c3 -3 6 -4 9 -5c5 -3 8 -5 11 -6c3 0 5 0 8 -1h2c1 -1 3 -1 4 -2c1 0 3 0 4 -1c1 0 1 0 2 -1h5c1 -1 2 -1 3 -1s2 0 3 -1c2 -1 4 -1 5 -2
c4 -1 8 -3 11 -4h1c5 -2 10 -3 14 -4h1l1 -1l5 -1l4 -2c1 -1 2 -1 2 -1h2h2h2l2 1l12 8c2 -1 4 -3 6 -4c1 0 2 0 3 -1l8 -2c2 -1 4 -3 7 -4c1 0 2 0 3 -1h2zM282 98l-12 9h-2c-2 0 -4 0 -7 1h-4c-3 1 -6 1 -10 2c-3 1 -5 1 -7 2s-4 2 -7 3c-1 0 -3 0 -4 1l-2 2
c-6 3 -12 6 -17 9c-3 2 -5 4 -8 6h-1c0 1 -1 1 -2 2c-9 8 -26 23 -49 46l-8 12v1c-1 1 -2 4 -4 7c-1 3 -2 4 -2 5v1l1 2l1 1l-4 8l-4 12v10c0 3 0 7 1 11v4c2 11 4 20 7 29c1 1 1 4 1 7v2c-1 4 -1 7 -2 10c-1 5 -2 9 -3 13v9c3 5 4 11 4 17v3l21 21h8v2c1 1 2 3 3 4
c2 3 5 6 9 11c0 3 3 6 8 9h1c5 3 8 6 8 11h1c3 1 6 1 9 2c5 1 10 1 16 2h11h4c1 0 2 0 3 -1c7 -1 12 -4 17 -8c2 -1 4 -2 5 -3h1c1 0 1 0 2 1l3 1c4 2 8 3 11 3c1 0 1 0 1 -1h2l3 3c1 0 3 0 5 1h4c7 0 11 1 11 4c1 2 5 5 12 9l2 2l4 2l2 -2l8 -8l1 -1h2c1 -1 3 -1 4 -2h2
c3 -1 5 -3 8 -6l1 -1l4 -4c1 -1 3 -1 5 -1l4 -6c4 -5 9 -11 14 -18c5 -5 10 -10 16 -15c1 -1 2 -1 2 -2c1 -1 1 -2 2 -3c5 -4 10 -8 15 -13l3 -3c2 -1 4 -3 5 -4c5 -4 10 -9 17 -14c0 -13 -1 -25 -2 -37c-1 -11 -2 -21 -3 -31c-4 -19 -9 -38 -14 -56c-1 -3 -3 -6 -4 -9
c-1 -1 -1 -2 -1 -3c-2 -1 -4 -3 -5 -4s-3 -3 -5 -4l-3 -3l-2 -1c-1 -1 -1 -2 -2 -3s-1 -3 -2 -4c-1 -3 -2 -7 -2 -10l-5 -4l-2 -2l-5 -7l-1 -2c-2 -2 -3 -4 -3 -5l-13 -9h-9c-1 -1 -2 -1 -3 -1c-4 -1 -8 -2 -12 -4c-1 0 -4 -1 -5 -2c-3 -1 -5 -1 -6 -2c-1 0 -2 -1 -5 -1
c0 -1 -1 -1 -2 -1s-3 0 -4 -1h-7l-12 -13h-17zM286 526c-1 0 -3 2 -6 3c-1 1 -3 1 -6 2c-3 0 -5 0 -8 1c0 0 -1 0 -2 1c-5 0 -10 0 -16 1c-7 1 -14 1 -23 1c-2 1 -4 3 -6 4l-3 2c-1 2 -3 3 -5 4c-1 1 -2 1 -3 2v8l-8 4c-6 11 -10 17 -12 20l3 9v2l1 1v3c-1 2 -1 4 -2 6v1
c-1 2 -1 4 -2 5c-2 5 -3 10 -4 14v5l-5 12c-1 1 -1 2 -1 3v4v8c0 4 0 9 1 15v2c1 1 1 2 1 3c1 3 1 5 1 7c2 4 4 9 5 14l1 2c1 3 2 6 3 10c1 1 2 3 3 4l3 6h1c1 1 1 2 2 2c6 4 11 8 14 11l1 1c7 0 18 -6 19 -6h20c0 1 0 3 1 4c1 3 4 4 9 5c1 1 1 1 2 1h1l3 1l2 2l1 1l1 2l1 1
h45c1 -1 2 -1 3 -2s2 -1 3 -1l2 -2c5 -2 8 -4 10 -5l2 -1l1 -1c2 -2 3 -4 4 -5c3 -1 5 -2 8 -3h5l3 -9h9c3 -5 5 -9 8 -14c2 -1 4 -3 5 -5c0 -1 0 -1 1 -2c0 -1 0 -1 1 -2l1 -2c3 -3 5 -6 7 -7h1v-26c-1 -11 -1 -19 -1 -26c0 -3 0 -5 -1 -7c0 -3 0 -6 -1 -9c0 -3 0 -6 -1 -7
v-16c1 -1 1 -1 1 -2v-3c1 -2 2 -3 3 -4c-7 -6 -11 -12 -13 -17c-1 -2 -2 -4 -3 -5v-2c-1 -1 -2 -1 -3 -1c-1 -1 -3 -1 -4 -2l-13 -8c-4 -3 -8 -5 -12 -6c-5 -3 -9 -5 -14 -8c-1 1 -3 1 -6 1h-11h-4c-3 0 -4 0 -5 1l-1 1c1 -1 1 -3 1 -4v-1v-1v-1h-8h-7h-4zM304 533l-1 2
l1 -1v-1z" />
    <glyph glyph-name="nine" unicode="9" 
d="M122 0h29l2 2l2 2c1 1 3 1 5 2l6 2c1 1 1 1 2 1h1c5 2 9 4 12 5l1 1c1 1 2 1 3 2h1c1 1 3 2 6 2c3 1 5 2 7 3l9 3c4 1 7 3 10 4c1 1 2 1 3 1h1c3 1 7 2 10 3c1 0 2 0 3 1c2 1 4 1 5 1c1 1 3 1 4 1c1 1 2 1 3 1h13l12 5c5 4 9 8 12 13c4 3 7 6 10 9c4 5 8 8 11 11l2 2
c1 1 2 1 3 2h7c2 1 4 1 7 2c2 1 4 1 5 2c2 1 4 1 6 1l9 8v3c0 2 0 5 1 9c1 2 1 4 1 5c1 1 1 2 1 3l2 2l5 6c1 1 1 2 2 3c1 2 3 5 4 8c1 2 3 4 4 6c1 0 3 1 5 3c3 2 6 5 10 9c1 1 1 2 2 3l3 4c1 1 1 1 2 1l2 2c2 1 4 2 5 3h1h2h1l17 17c0 3 1 6 4 10v1c1 1 1 2 2 3l1 1
c0 1 0 1 1 2c1 3 1 4 2 5c0 1 0 1 1 2l1 3c1 3 1 6 1 8v3l25 34h4c2 1 4 2 5 3s3 2 5 3l1 1c2 2 4 4 7 6c5 3 10 5 15 7c3 7 6 13 8 18c2 3 3 5 3 8c0 1 0 3 1 4l1 2c1 1 1 3 1 4c1 2 1 5 1 8s1 7 2 11l-8 4l5 27v1c1 1 1 2 1 3v2c1 2 1 4 1 5c1 1 1 3 1 4c1 3 1 7 1 10v3
c-1 3 -1 5 -1 7c0 1 0 1 -1 2c-1 2 -1 4 -2 7l-2 4l9 12c1 1 1 3 2 4s1 2 1 4c1 2 3 4 4 6c1 1 2 3 3 4l6 6c1 2 3 4 4 6l1 1c3 3 5 6 6 9s2 5 2 6v2c-1 1 -1 1 -1 2s0 2 -1 3c0 2 0 4 -1 5l-1 2v3c0 1 0 2 -1 3v3c-2 11 -3 24 -3 39v3c0 3 0 5 -1 7c0 5 0 11 -1 16
c-1 3 -1 5 -1 8l-1 6s0 1 -1 2v5v3c-1 1 -1 2 -1 3c-1 0 -1 1 -1 2c-1 1 -1 3 -1 4l-5 4c-1 1 -1 2 -2 3c-1 2 -2 4 -3 7l-1 1v1l-2 2c-2 3 -4 5 -6 8c-1 1 -2 3 -3 4c-1 5 -2 9 -3 14c-1 1 -1 3 -2 4c-1 3 -1 6 -2 8l-1 2v1v16l-2 1c0 1 -1 3 -2 4c-1 3 -1 6 -2 9
c-1 1 -1 3 -2 5c-1 3 -1 5 -2 7c-2 5 -4 8 -5 10l-2 2l-3 9c-3 1 -6 3 -9 5c-2 3 -5 6 -8 9c0 1 0 1 -1 1c-1 2 -3 4 -4 6c-1 3 -2 5 -3 7l-1 1c-1 1 -3 4 -6 7l-2 2c-3 3 -6 7 -11 12l-3 3c-3 3 -5 6 -7 9c-1 1 -1 2 -2 3s-2 3 -2 5l-8 5l-4 8c-1 1 -3 3 -6 4l-6 4h-2l-1 1
c-3 1 -6 3 -8 4l-2 3v1h-10c-3 1 -6 1 -8 2c-1 1 -3 1 -4 1l-1 1l-2 1l-1 1c-2 0 -3 1 -4 2c-2 1 -4 1 -5 2h-2c-4 1 -8 2 -13 2l-5 8c-4 2 -8 3 -13 4c-1 1 -2 1 -3 1l-7 1h-6c-4 0 -9 0 -14 -1c-3 -1 -6 -1 -9 -2c-3 0 -5 0 -7 -1l-2 -1h-2c-1 0 -2 0 -3 -1h-3s-1 0 -2 -1
h-7h-11h-8h-2h-4l-1 1c-3 -1 -5 -2 -7 -3c-1 -1 -3 -1 -4 -1c-1 -1 -3 -1 -4 -2c-13 -5 -24 -9 -33 -12c-1 0 -3 0 -4 -1h-3c-1 -1 -1 -1 -2 -1h-1l-1 -1l-4 -2c-1 -1 -3 -2 -4 -2c-5 -2 -9 -3 -13 -3l-25 -25v-9c-5 0 -14 -13 -23 -13h-2c0 -9 -4 -17 -12 -25
c-3 -9 -4 -16 -5 -20c-5 -16 -8 -27 -8 -34c-9 -33 -14 -61 -17 -85v-5c0 -1 0 -3 -1 -4v-18v-10c0 -10 1 -19 3 -27c1 -1 1 -3 1 -5c1 -2 1 -4 2 -5c3 -7 6 -13 9 -18c1 -1 1 -2 2 -3c6 -12 11 -22 14 -29c-1 -1 -1 -3 -1 -4v-6c1 -1 1 -3 2 -4l3 -6v-1l8 -8l17 -9
c-1 -1 -1 -3 -1 -4v-4v-3c0 -1 0 -1 1 -2v-2c1 -1 1 -2 1 -3c1 0 1 -1 1 -2c1 -1 1 -3 2 -4l9 -21l12 -9h8c1 -1 3 -2 4 -3c3 -1 6 -3 9 -5h2l4 -2l2 -2c2 -1 3 -3 4 -4c5 0 9 -1 13 -4c3 -1 5 -2 6 -2s3 1 6 2c5 -5 13 -8 24 -10c1 -1 3 -1 5 -1c1 -1 3 -1 4 -1
c5 -1 12 -1 19 -1h12c1 -2 3 -4 4 -5l9 -6c2 -1 4 -3 5 -4s2 -1 3 -1l4 -2c1 0 2 0 2 -1c1 0 3 0 4 -1h8h4h4c1 1 3 1 4 1c1 1 3 1 6 1l1 1l8 9l9 13l4 8l13 4c0 1 1 1 2 2l6 3c1 0 2 0 3 1c1 0 2 0 3 1h4c3 1 7 1 10 1l9 8l8 17c3 3 7 5 10 8c7 5 14 10 21 14c3 3 6 5 9 7
c5 3 9 6 14 8c3 1 6 3 9 5l1 -1c1 -1 1 -2 2 -4v-3c1 -2 1 -5 1 -9l-1 -2c-1 -1 -2 -3 -3 -6c-1 -1 -1 -2 -1 -3l-1 -4c-1 -1 -1 -1 -1 -2c0 0 0 -1 -1 -2c0 -3 -1 -7 -2 -11v-1c0 -1 0 -2 -1 -3v-1c-1 -2 -1 -4 -2 -6c0 -1 0 -2 -1 -3c0 -2 0 -4 -1 -6l-1 -3
c0 -1 0 -2 -1 -3c0 -1 0 -2 -1 -3c0 -1 0 -3 -1 -4l-1 -3l-1 -1v-2l-4 -3c-1 -1 -2 -1 -3 -2c-3 -2 -4 -4 -5 -6c-1 -1 -1 -2 -1 -3c-2 0 -4 -1 -6 -2l-4 -4c0 -1 0 -1 -1 -2l-1 -1c-1 -1 -1 -2 -1 -3c-3 -3 -5 -5 -6 -5h-1l-1 -1l-3 -6l-2 -3l-6 -9c-1 -1 -2 -3 -3 -4
s-2 -3 -3 -4c-2 -5 -4 -8 -7 -10l-2 -2c-3 -5 -11 -7 -23 -7l-8 -7c-3 -3 -5 -5 -7 -6h-1h-1v-1c0 -4 -1 -8 -4 -12c-3 -2 -4 -5 -5 -8v-1v-3h1c-2 -1 -4 -2 -7 -3c-1 -1 -2 -3 -3 -4l-3 -3c-2 -1 -3 -2 -4 -2h-3c-2 -1 -5 -2 -8 -3h-2c-1 -1 -3 -2 -4 -3l-4 -4
c-4 -2 -7 -3 -9 -3c-3 -3 -7 -6 -11 -9l-6 -6l-1 -1l-2 -1l-2 -2l-5 -5l-7 -7c-1 -1 -3 -3 -5 -4l-6 -7l-9 -3c-1 -1 -1 -1 -2 -1c-1 -1 -3 -1 -4 -2l-10 -5c-3 -2 -6 -4 -9 -5l-21 -21c-11 -5 -24 -8 -37 -8c-27 -17 -47 -28 -59 -33c-3 -5 -4 -17 -4 -34
c10 -11 16 -18 17 -23v-2l13 -13l8 -4zM272 450h-7c-5 0 -11 1 -15 1l-15 3c-3 1 -7 2 -10 3s-5 1 -8 2c-5 1 -10 3 -15 5c-9 5 -19 10 -30 16c-1 1 -3 4 -7 7l-3 3c-1 3 -2 7 -2 10h-2l-1 1l-1 1l-1 1c-1 1 -1 2 -2 3c-6 10 -13 22 -18 24c-1 9 -3 19 -4 29v2v2
c-1 10 -4 20 -9 29v1l-1 1v1v3c0 3 1 7 2 10l3 9l1 1v1c1 3 2 6 3 7h8c4 1 8 4 11 7c0 1 0 1 1 2c0 1 0 1 1 2l2 2c4 6 7 14 9 25l1 4c9 9 15 16 22 21c1 0 2 2 4 5l2 2c3 2 7 4 10 5c9 4 14 7 17 10c1 1 2 3 3 4s1 1 1 2v1h5c2 0 5 0 9 1c1 1 3 1 4 1c1 1 3 1 6 1l1 1
c0 1 1 2 2 4l3 3l2 3c1 1 2 2 3 2c1 1 1 3 2 4l1 1h92l2 -3v-1l2 -1c1 0 2 0 3 -1c1 0 3 0 4 -1s3 -1 5 -1h2c2 0 4 0 5 -1c3 0 5 0 8 -1c4 -1 7 -1 10 -2h2c1 -1 1 -1 2 -1l13 -8c0 -1 0 -3 1 -4c2 -3 6 -8 11 -13h9v-1v-3c1 -1 1 -3 2 -4c0 -1 0 -3 1 -4s1 -3 1 -4v-1v-1
l1 -1c0 -2 0 -4 1 -5c1 -3 3 -7 4 -10l1 -4c1 -4 3 -7 4 -10c1 -1 2 -2 2 -3c1 -3 3 -5 6 -7c1 0 1 0 2 -1s3 -2 4 -3h1v-26v-15v-12c1 -7 2 -13 3 -19l-12 -15v-1l-4 -12l-2 -6c-1 -3 -1 -5 -2 -7v-9l-3 -3c-3 -2 -5 -4 -6 -7c-1 -2 -2 -4 -3 -5s-2 -3 -3 -5s-1 -4 -2 -5
l-13 -12l-8 -5c-2 -1 -4 -2 -5 -3c-3 -2 -6 -4 -8 -7c-1 -1 -3 -1 -4 -2c-7 -1 -15 -2 -22 -2c-4 -1 -8 -1 -12 -2c-3 0 -5 0 -7 -1h-4c-2 0 -4 0 -5 -1h-5c-2 0 -4 0 -7 -1c-1 0 -3 0 -4 -1h-5c-1 0 -3 0 -4 -1h-5c-3 0 -5 0 -6 -1c-3 0 -5 0 -6 -1c-7 -1 -13 -1 -18 -2h-4
h-3z" />
    <glyph glyph-name="colon" unicode=":" 
d="M240 506c17 -8 27 -13 35 -17c8 0 20 2 36 6c15 3 26 5 33 5c16 9 26 16 29 23c0 4 5 14 5 17c15 12 22 27 22 45c0 30 -15 55 -44 76c-17 11 -35 17 -56 17c-52 0 -99 -39 -116 -91c0 -42 15 -69 45 -81h11zM269 323h-17c-17 -5 -30 -17 -38 -34c-5 -11 -9 -28 -13 -52
c0 -9 2 -19 5 -29l12 -29c5 -7 13 -13 26 -19c19 -9 30 -14 31 -15c13 0 26 2 39 6c21 7 33 10 36 11c13 5 24 15 33 30c5 13 10 27 13 38c1 7 2 11 2 14c0 7 -3 18 -10 34c-7 15 -10 26 -10 33c-1 1 -6 7 -17 18c-15 0 -26 -2 -34 -6c-7 0 -22 7 -27 7c-3 0 -6 0 -8 -1
c-3 -4 -11 -6 -23 -6z" />
    <glyph glyph-name="semicolon" unicode=";" 
d="M260 185c-12 -17 -41 -36 -62 -52c-7 -6 -10 -14 -10 -23c0 -16 7 -32 21 -47l36 -39c16 -18 24 -35 24 -51c0 -10 2 -23 -33 -53c-17 -15 -25 -26 -25 -33c0 -5 1 -9 3 -12c4 -10 12 -15 25 -15h1c35 0 53 34 56 58c5 11 10 18 17 21l27 8c10 3 16 10 18 20c1 3 1 5 1 8
v23c-1 3 -1 6 -1 8v8c0 11 2 20 6 27c11 17 17 32 17 45c2 7 3 15 3 22c0 11 -3 21 -9 30c-7 13 -19 24 -38 33c-16 5 -32 14 -48 19c-4 1 -7 2 -10 2c-9 -1 -16 -4 -19 -7zM381 373c7 15 11 27 11 35c3 11 4 20 4 28c0 13 -3 26 -10 41c-16 23 -31 36 -45 39
c-28 7 -42 10 -47 10c-10 0 -19 -3 -28 -10c-24 -15 -41 -22 -52 -22c0 -8 -11 -16 -11 -17c0 -13 -4 -26 -12 -41c0 -37 12 -61 36 -74c2 0 11 -4 27 -11c16 -15 29 -23 40 -23c19 0 35 4 48 12c6 3 19 14 39 33z" />
    <glyph glyph-name="less" unicode="&#x3c;" 
d="M517 180l-33 -46l-1 -2c-9 7 -21 16 -41 28c-19 11 -32 21 -41 28c-13 0 -30 6 -52 19c-23 13 -40 21 -51 22c-13 13 -22 21 -29 25c-18 4 -30 6 -36 6c-11 0 -39 -4 -50 -4s-20 2 -28 7c-64 34 -101 53 -110 56c-11 31 -15 57 -16 77c11 53 21 79 30 79
c17 3 60 22 131 58c84 42 135 77 153 105c55 25 111 37 168 37c2 0 10 -15 23 -45c6 -17 13 -29 22 -38c-5 -7 -11 -10 -19 -10c-9 0 -25 7 -46 21c-24 -36 -51 -56 -81 -61c-16 -3 -27 -3 -36 -3c-15 -3 -24 -10 -26 -22l-4 4c-50 -33 -75 -55 -75 -66v-2
c0 -4 -8 -14 -23 -31c-17 -19 -26 -33 -26 -43c0 -7 4 -14 13 -23c8 -7 15 -11 22 -18c81 -74 125 -111 134 -111c5 0 24 -7 57 -20c28 -11 50 -18 65 -25z" />
    <glyph glyph-name="equal" unicode="=" 
d="M482 552c-28 9 -44 14 -47 14c-2 0 -6 0 -11 -1c-19 -7 -46 -10 -83 -10h-42c-15 0 -31 -1 -46 -3c-12 11 -27 16 -46 16c-15 0 -48 -4 -62 -4c-16 0 -48 12 -60 12c-18 0 -29 -8 -33 -24c-6 -15 -9 -29 -9 -42c0 -23 9 -38 27 -43c5 -1 7 -2 8 -2c4 0 10 2 18 6
c9 4 15 7 18 8h70c19 0 62 -2 81 -2c28 0 55 3 79 8c11 0 37 -18 40 -18h20c3 -1 6 -1 8 -1h11c43 0 78 8 105 24c9 5 14 14 14 29c0 20 -11 30 -33 31c-15 1 -24 1 -27 2zM384 370c-26 0 -45 2 -57 6c-6 2 -14 3 -25 3c-9 0 -22 -1 -39 -4c-17 -2 -29 -3 -38 -3
c-13 0 -42 7 -54 7c-9 0 -28 -2 -36 -2c-19 0 -33 5 -43 15c-32 -6 -48 -21 -48 -44c0 -5 6 -21 19 -47c3 0 7 -2 12 -6c73 0 126 6 161 17c5 1 10 2 17 2c16 0 37 -6 63 -19c4 0 28 11 40 11c23 -9 45 -14 67 -14c8 0 16 1 25 3c47 0 75 17 86 52c0 9 -6 17 -18 23h-16
c-26 12 -43 18 -52 18c-3 0 -6 -1 -13 -2c-17 -11 -34 -16 -51 -16z" />
    <glyph glyph-name="greater" unicode="&#x3e;" 
d="M69 180l33 -46l1 -2c9 7 21 16 41 28c19 11 32 21 41 28c13 0 31 6 53 19s39 21 50 22c13 13 22 21 29 25c17 4 29 6 36 6c11 0 39 -4 50 -4s20 2 28 7c63 34 100 53 110 56c10 29 15 55 15 77c-11 53 -21 79 -30 79c-17 3 -61 22 -130 58c-84 42 -135 77 -153 105
c-55 25 -111 37 -168 37c-3 0 -10 -15 -23 -45c-7 -17 -14 -29 -23 -38c5 -7 12 -10 20 -10c9 0 25 7 46 21c24 -36 51 -56 80 -61c17 -3 28 -3 37 -3c15 -3 24 -10 26 -22l3 4c51 -33 76 -55 76 -66v-2c0 -4 8 -14 23 -31c17 -19 26 -33 26 -43c0 -7 -4 -14 -13 -23
c-8 -7 -15 -11 -22 -18c-81 -74 -126 -111 -134 -111c-5 0 -24 -7 -57 -20c-28 -11 -52 -18 -65 -25z" />
    <glyph glyph-name="question" unicode="?" 
d="M71 561c14 -41 30 -62 47 -62c2 0 4 1 6 2c47 15 71 61 71 138c0 13 0 22 -1 26c24 33 56 50 96 50c17 0 32 -3 43 -9c52 -11 83 -41 94 -92c1 -7 2 -16 2 -27c0 -21 -4 -47 -13 -77c-9 -15 -36 -35 -79 -60c-34 -21 -51 -43 -51 -67c0 -9 3 -36 3 -45c0 -3 -1 -7 -2 -14
c-11 -21 -17 -39 -22 -50c0 -12 9 -24 28 -37c19 0 30 5 35 14c20 57 36 98 47 127c34 37 51 55 52 56c19 15 35 37 52 62c9 14 23 40 43 79v18c-5 9 -7 16 -7 21c-8 66 -23 111 -46 134c-3 1 -9 29 -18 34c-35 17 -61 31 -76 42c-2 0 -27 -13 -31 -13h-13c-8 0 -21 1 -34 1
c-45 0 -80 -10 -103 -30h-19c-75 -57 -112 -116 -112 -175c0 -16 3 -31 8 -46zM253 92c-8 -13 -12 -25 -12 -37c0 -15 8 -28 24 -37h23c9 -10 19 -15 30 -15c17 0 26 10 27 29s2 31 5 37l-6 5c0 9 11 34 11 42c0 7 -4 13 -11 16c-7 1 -12 2 -15 2c-33 0 -59 -14 -76 -42z
" />
    <glyph glyph-name="at" unicode="@" 
d="M-15 372c0 -41 21 -72 29 -83c0 -38 8 -67 23 -87c62 -61 114 -99 155 -114c24 -9 49 -13 75 -13c43 0 85 8 126 25c47 9 77 22 92 39c0 33 7 62 21 89c17 33 31 56 42 72c6 25 10 44 11 57c19 33 29 56 29 69c-3 9 -4 18 -4 26c0 15 5 28 15 37c1 7 2 10 2 11
c0 11 -4 29 -13 53c-5 14 -8 29 -8 45c0 8 2 32 2 41c-43 35 -81 60 -115 74c-39 24 -66 43 -85 58c-13 -2 -33 -3 -61 -3c-25 0 -47 -1 -60 -4c-22 -11 -37 -21 -46 -29c-33 -5 -61 -19 -86 -44c-47 -39 -74 -62 -81 -70v-23c-11 -18 -18 -31 -22 -39v-23
c-12 -22 -18 -36 -18 -41c-15 -63 -23 -104 -23 -123zM57 303c0 13 4 25 13 36s14 17 14 18c-3 12 -5 22 -8 31c-3 14 -5 24 -5 30c0 14 4 26 13 37c3 10 5 24 5 43c0 23 3 40 10 53c7 11 21 23 41 36c5 5 13 14 22 28c7 11 16 19 25 24h11c7 2 27 24 34 29c18 0 32 2 41 5
c41 23 70 35 85 35l12 -12c9 -6 25 -12 48 -17c22 -6 38 -12 49 -17c5 -6 11 -12 18 -18c17 -25 26 -44 28 -57c7 -29 15 -53 24 -69c1 -12 1 -23 2 -34c0 -12 11 -34 11 -45c0 -4 -3 -12 -8 -24l-42 -71c-17 -27 -35 -46 -56 -55h-11c-15 7 -23 17 -23 29c2 10 7 26 14 48
c7 21 12 37 14 49c0 8 11 32 11 40c5 19 8 37 8 55c0 36 -10 65 -30 88c-11 0 -28 2 -49 6c-21 5 -38 7 -49 7c-2 1 -5 1 -9 1c-13 0 -14 -11 -19 -14c-9 0 -27 7 -34 7c-1 0 -3 0 -6 -1c-20 -19 -31 -29 -34 -31c-12 -9 -25 -14 -40 -14c-7 0 -18 -11 -18 -18
c0 -19 -2 -48 -6 -86c-1 -39 -4 -66 -4 -85c0 -32 3 -61 10 -87c6 -11 16 -21 29 -29c41 -11 74 -18 97 -22h51c3 1 6 1 9 1s31 -4 83 -13c9 -5 14 -13 14 -24c0 -5 -1 -8 -3 -10c-6 -21 -17 -34 -33 -41c-28 -12 -50 -20 -63 -25c-24 -9 -49 -14 -74 -14
c-21 5 -36 8 -47 11c-66 30 -110 55 -132 74c-9 8 -16 22 -23 41c-13 41 -20 65 -20 71zM187 398c14 35 23 62 28 80c1 5 7 10 19 17c11 7 18 14 21 23c11 19 29 29 52 29c10 0 19 -2 28 -6c35 -28 59 -51 75 -68v-24c-17 -19 -31 -31 -40 -40v-23c-24 -43 -40 -76 -52 -97
c-9 -11 -17 -19 -23 -23c-9 0 -15 -1 -22 -1c-38 0 -61 13 -70 40c-3 40 -9 65 -16 76c0 3 -2 9 -2 12c0 1 1 3 2 5z" />
    <glyph glyph-name="A" unicode="A" 
d="M500 0l10 2l30 10c1 1 4 11 4 24c0 5 0 9 -1 11l-1 8c0 2 0 3 -1 4l-1 6l-3 9l-2 4v3c0 5 -6 10 -7 10l-3 9c-1 1 -6 19 -9 28l-5 12c0 1 0 2 -1 3v1c-3 3 1 2 -2 5v2c-1 5 -2 10 -2 15v9c0 3 0 4 -1 5v2c-3 4 1 5 -2 8v2l-1 4c-1 1 -1 2 -1 3l-1 2l-5 26l-5 4
c0 3 -3 8 -3 11v18l-8 5h1l2 1l2 3v2c1 1 1 3 1 6c0 5 -7 11 -8 14v1c0 1 0 2 -1 3v3c0 7 -2 10 -2 17v25c-3 3 -5 7 -8 10l-7 8c-5 7 -10 12 -13 13l-1 31c-3 3 -2 7 -3 8v12c-11 9 -17 16 -17 23v2l1 1c0 2 0 3 1 4v2c1 4 1 7 2 11v7c0 4 0 7 -1 10v3c-1 3 -1 5 -2 8v2
c0 1 0 2 -1 3l-1 4c-3 5 -2 8 -7 37v11l-5 8l-2 3l-1 1v3c-1 3 -3 17 -4 18v16l-4 4c-5 8 -6 17 -9 20v5c0 3 -1 10 -2 13v2l-1 2c-1 1 -1 3 -1 4v8l-13 8v2c1 1 1 5 1 11v6c-1 3 -2 11 -2 14l-1 9c-3 1 -1 25 -5 29v11l-2 4c-6 3 -3 28 -18 33l-2 1c-1 1 -1 1 -2 4l-1 6
c0 9 -10 23 -13 28l-7 1c-1 0 -2 0 -3 1h-2c-3 1 -7 1 -11 1h-8l-8 -1c-7 -1 -9 -5 -16 -9l-2 -1l-2 -2c-1 -1 -3 -1 -4 -2l-4 -3l-3 -2v-3c-1 -1 -1 -2 -1 -4l-4 -5c-1 -1 -3 -7 -3 -8l-1 -3c0 -1 0 -2 -1 -3v-3c0 -1 0 -1 -1 -2v-2c-1 -4 -2 -7 -2 -9l-7 -8l-6 -53
c-3 -7 -7 -29 -11 -38l-9 -4v-37l-1 -1l-1 -3c-1 -2 -2 -5 -2 -10v-6l-21 -22v-37l-1 -2c-1 -3 -1 -7 -2 -12v-23c-1 -2 -2 -4 -3 -7v-1c-3 -4 1 -4 -2 -7v-14l-8 -12l-9 -5c0 -4 -4 -12 -4 -21l1 -3c-21 -18 -21 -35 -21 -67l-8 -15c1 -3 2 -4 3 -5v-1c0 -3 -4 -6 -4 -9
l1 -2c-9 -4 -10 -19 -15 -23l-2 -2c3 -1 4 -4 5 -9v-2c0 -4 -1 -6 -4 -6l-5 -12c-5 -12 -11 -25 -11 -42v-12c0 -1 0 -2 1 -3v-2c1 -3 1 -6 1 -9v-12l1 -3c-2 -1 -4 -2 -5 -4c-2 -3 -11 -36 -16 -36v-17l-12 -9c-1 0 -1 -1 -1 -2l-1 -2c-3 -11 -6 -37 -14 -46h-1l5 -7
c-4 0 -6 -5 -7 -8l-1 -3c-3 -4 -4 -6 -5 -6l-4 -13v-8l30 -30c11 -5 21 -7 61 -7c6 5 11 8 16 11l1 1c1 1 2 1 3 1l21 20v29c1 0 1 0 2 1l1 2c1 1 1 5 4 8v16c3 5 4 3 8 6h1v29c3 0 4 1 4 4v3c-1 1 -2 1 -2 2v1l-1 4c-1 1 -1 2 -1 3c0 3 1 8 4 11l2 2c2 3 3 6 3 9v2l12 8h4
c15 3 35 3 48 3h4c16 1 30 2 39 2l9 4c3 1 5 2 8 3l11 3c3 1 7 1 12 1h5c3 0 5 -1 8 -2l2 -1h7c1 0 5 -1 10 -2h2c3 -1 5 -1 8 -2h5l13 -9c-1 -1 -1 -1 -1 -2c0 -5 1 -9 4 -13l2 -3c3 -7 7 -9 7 -10v-33l-4 -12c-3 -7 0 -6 -3 -9v-3c0 -1 0 -1 -1 -2v-2v-3v-6v-4
c0 -2 0 -4 1 -6c1 -5 2 -10 2 -15v-11c1 -3 3 -10 4 -13l9 -10l12 -9l3 -1c3 -1 8 -3 15 -4h20c14 -1 22 -3 24 -5zM289 281c-4 3 -9 0 -10 3h-3c-7 1 -11 2 -13 3l-7 1c-2 0 -3 0 -3 1h-4l-8 1c-4 2 -7 8 -9 17v4c-1 2 -1 5 -1 8v8l9 7c0 16 -1 33 3 46l1 4c3 7 2 13 5 21
l3 11l3 9l9 17v24c3 8 1 32 4 35l2 9l1 5c2 10 9 34 14 37l4 10c0 15 1 18 12 37l-1 2c0 1 -1 3 -1 4v3c0 3 1 5 3 6l1 1l1 -2v-12c0 -7 0 -14 3 -15l2 -2c1 -3 3 -5 4 -6l1 -2c2 -4 4 -7 6 -10h2c0 -9 3 -14 3 -21l2 -1c3 -3 3 -8 4 -11v-3l-1 -5c3 0 3 -2 6 -5v-2
c0 -3 -1 -7 -6 -10l8 -4l2 -11c1 -4 2 -6 3 -6v-3c1 -4 1 -8 2 -12v-11c1 0 1 -2 1 -5v-6c1 -1 1 -1 1 -2v-9c1 -1 1 -2 1 -4v-3c3 -3 3 -11 3 -14l1 -4c1 -1 2 -3 2 -5l1 -21l13 -17v-40l7 -9c0 -8 2 -11 5 -20l-5 -13h-24c-7 -7 -13 -3 -20 -7h-30c-3 -1 -5 -1 -7 -1h-5z
" />
    <glyph glyph-name="B" unicode="B" 
d="M315 0h3c1 1 1 1 2 1l1 1c1 1 1 1 2 1h-1l-1 1h43c15 9 28 20 40 33c3 4 5 8 8 11h3c1 0 3 0 5 1c1 0 3 0 4 1c2 1 4 2 7 3c1 1 1 1 2 1c5 3 10 6 16 9l1 1c3 2 5 4 7 5l4 8l12 8c1 2 1 4 1 6c1 1 1 2 1 3c5 11 10 20 14 28l1 2v3c1 1 1 3 1 4v4c1 1 1 3 1 5v4
c0 1 0 2 1 3v2c1 0 1 0 1 1c1 3 3 5 4 8c1 1 1 2 2 3l4 5c1 1 2 3 2 5v1l-1 2v1h2c2 2 4 5 6 9v1c0 1 0 2 1 3s3 4 4 4l1 1l1 1h2c1 3 1 5 2 7v4c0 1 0 1 1 2v2c1 1 1 3 1 5v3c1 3 1 5 1 8c1 3 1 5 1 8c1 1 1 1 1 2c-1 1 -1 2 -2 4c0 1 0 2 -1 4v5v19l-5 5c-2 2 -5 5 -8 9
l-5 4c-2 3 -3 6 -3 8v2v17l-7 16l1 2c1 2 1 6 2 11v7l4 12l-7 5c-1 1 -5 4 -10 9c-3 3 -7 7 -13 12l-7 7c-3 2 -5 4 -7 5v1c-3 4 -6 8 -9 11c-1 3 -2 5 -3 8l-1 4c-5 5 -10 10 -14 13c-3 2 -5 4 -7 5c-1 1 -2 1 -3 2l-2 1l-2 2h-1c-1 1 -2 1 -3 1v2c-1 0 -1 0 -1 1
c-1 1 -2 3 -3 4l-1 1l-2 3c0 1 -1 3 -1 6c0 1 0 2 1 3c2 2 4 4 5 7c1 1 1 3 2 5v4c4 2 8 4 11 5c4 3 7 5 10 8c3 2 6 4 9 5c4 5 8 9 13 13c1 1 2 2 2 3l5 6l5 5c4 7 8 14 13 21c0 1 0 2 1 3c0 1 0 3 1 5c1 5 1 9 2 13c2 13 4 24 5 35c1 7 2 14 3 20c0 4 0 8 1 11v6
c0 3 0 7 1 10v13l-9 5l4 12c-4 6 -8 12 -11 17c-1 1 -1 3 -2 5c-1 3 -3 5 -4 6s-1 3 -2 4l-1 6v2v8l-7 5c-1 1 -2 3 -3 4l-1 1c-1 3 -1 5 -1 7l-5 3c-1 2 -3 4 -5 6c0 1 -1 1 -2 2s-1 2 -1 3l-3 6c-5 1 -10 3 -13 4c-5 2 -9 4 -12 5l-5 5l-2 2l-1 2v2c-9 8 -15 13 -18 15
l-1 1h-1c-3 1 -5 1 -8 1l-4 1h-1c-1 1 -2 1 -3 1h-2c-1 1 -2 1 -3 1l-3 1c-3 1 -6 1 -9 1c-1 1 -1 1 -4 1c0 1 -1 1 -2 1h-1l-1 1c-1 1 -3 2 -5 3c-1 1 -2 1 -3 2s-2 1 -3 1l-5 1h-1h-2h-2c-7 2 -10 5 -11 8h-227c-17 -13 -29 -21 -36 -24v-12l15 -17v-39
c11 -7 19 -12 26 -13c9 0 14 -2 15 -7v-1l9 -12l-1 -1c-5 -3 -8 -10 -8 -19l9 -12c-2 0 -4 0 -5 -1s-1 -1 -1 -2v-1v-2c1 -3 5 -7 6 -10v-1c-1 -1 -1 -2 -2 -3c-6 -8 -11 -14 -16 -19l-1 -1c-1 0 -1 0 -2 -1c2 -2 3 -7 4 -14v-7c1 -3 4 -6 9 -11c2 -3 4 -5 5 -6l2 -4l1 -1
v-2v-36l-12 -16l-9 -25l4 -12c0 -1 0 -2 1 -4v-2v-8v-3c1 -2 2 -3 4 -3c1 -3 2 -10 3 -21v-11l-8 -17l-4 -12c2 -3 3 -14 4 -31v-17c3 -2 4 -7 5 -15v-6l-9 -16l-1 -1v-1c-1 -5 -2 -18 -2 -38l-9 -9c3 -9 4 -17 5 -25v-5c0 -11 -2 -23 -5 -43s-4 -33 -4 -44c1 -2 2 -6 3 -11
v-3c0 -2 0 -4 1 -7v-11l-24 -17c0 -11 -1 -17 -4 -20h-1c0 -3 0 -8 -1 -15v-8v-10v-4v-5v-2c1 -5 3 -9 6 -13v-7l2 -2c1 -1 3 -2 4 -3c5 -3 9 -6 14 -8v-1c5 -3 10 -5 13 -7c1 0 3 0 6 1h5h39c8 0 17 0 28 -1h14h25c3 1 6 1 9 1c5 1 11 2 16 3h1c1 1 3 1 5 2l3 1l2 1l1 -1
c1 0 2 0 3 -1c1 0 3 0 5 -1h3c1 0 1 0 2 -1l5 -1h3c1 -1 3 -1 5 -1h11h5h2c1 1 3 1 4 1h2l2 1zM246 118l-4 7h-28c-3 2 -5 4 -8 6c-1 1 -2 3 -4 4c-1 2 -3 4 -6 7l-6 6c-1 2 -3 4 -4 6v8c3 0 5 3 5 8v3c-1 1 -1 2 -2 3l-2 2c1 0 1 0 2 1l1 2c1 1 1 3 1 6c0 5 2 7 7 7l-5 8
l-1 1v18v39v12c-1 9 -2 18 -3 25v3c-1 3 -1 6 -1 9c-1 1 -1 1 -1 2c-1 1 -1 3 -1 4v1v32l7 9c2 2 3 5 3 10c0 3 1 6 2 10v12c0 3 1 6 2 9l1 3l4 4h2c1 0 3 0 4 1c2 1 3 2 4 3c2 1 4 2 7 4l1 1l1 1c1 1 1 1 2 1c1 1 1 2 2 3l6 3c3 1 6 2 8 3h4h3c4 -1 10 -2 17 -3
c8 -2 14 -3 17 -3h6c1 1 1 1 2 1l3 2c1 0 3 -1 6 -3s7 -5 11 -10l5 -1c1 -1 3 -1 4 -2c7 -3 12 -4 16 -5h3l1 -1l1 -1c2 -1 5 -1 10 -2h8l21 -13c0 -1 0 -2 1 -4c0 -3 0 -6 1 -9v-1c0 -1 0 -3 1 -4v-4c1 -3 3 -6 5 -9l3 -6c2 -2 4 -5 5 -8l2 -6c1 -1 2 -3 3 -5
c1 -1 1 -2 1 -3c1 -2 1 -4 2 -6c1 -1 1 -2 2 -4c1 -3 1 -6 2 -9c0 -1 0 -1 1 -1v-6c1 -5 1 -9 1 -14v-6l-1 -8l-1 -9c-1 -2 -1 -4 -2 -6s-1 -4 -2 -5v-12c0 -1 0 -2 1 -3c2 -3 3 -6 4 -9v-1c1 -2 1 -4 1 -5s0 -3 -1 -4v-1v-2v-1v-6v-2l3 -3v-1l-1 -2c-1 -1 -2 -3 -3 -5
l-2 -2c-1 -2 -2 -4 -2 -5l-1 -1l-4 -3l-3 -3l-3 -3h-1c-1 -1 -2 -2 -3 -2l-3 -3l-1 -1c-1 -1 -1 -3 -2 -4c-2 -2 -4 -4 -5 -6c0 -1 0 -2 -1 -3c-1 -3 -1 -6 -1 -9c-1 -1 -2 -1 -3 -2s-2 -1 -3 -2h-2c-5 -1 -8 -3 -9 -6v-2v-1v-2h-2c-1 0 -3 0 -6 -1h-2c-1 0 -1 0 -2 -1
c-2 -1 -5 -1 -8 -2h-15c-7 -1 -13 -1 -19 -1c-1 0 -2 0 -4 -1l-9 -1c-6 -1 -11 -2 -16 -3c-3 -1 -7 -2 -10 -3l2 2c-1 1 -1 1 -2 1s-2 0 -4 -1c-2 0 -5 0 -8 -1c-1 -1 -1 -1 -2 -1zM319 506c-5 0 -9 0 -12 1c-4 1 -7 4 -8 7l-17 4h-3c-1 0 -1 0 -2 -1l-9 -3
c-1 -1 -2 -1 -2 -1c-5 -4 -9 -6 -12 -7l-12 8c-3 1 -6 1 -10 1c-1 0 -3 0 -4 1h-5h-11h-3c-5 1 -8 1 -11 2c1 2 1 4 2 6v2c0 1 0 1 1 2v6v5v4l-3 12c-1 1 -1 3 -2 4c-1 2 -1 4 -1 5c-2 6 -3 13 -4 20c0 1 0 2 -1 3c-1 5 -1 10 -1 17v10v13v4c1 9 1 18 2 27v5v8l1 14
c1 5 1 8 1 11v9v5c-1 7 -2 13 -4 18v1h12c2 0 4 0 7 1h2c3 1 6 3 10 4c1 0 2 0 3 1s3 1 4 2l1 1l6 3c9 0 16 0 22 -1c3 -1 5 -1 7 -1c1 -1 2 -1 3 -1h1l3 -1c1 -1 1 -1 1 -2c3 -2 5 -4 8 -6c1 -1 3 -3 5 -4c3 -1 5 -3 8 -4h2h7c5 1 12 3 17 3c1 0 3 0 4 1h5c1 -1 1 -1 2 -1
c1 -1 2 -1 2 -2l2 -1h2c2 -1 4 -3 6 -4c1 0 1 0 2 -1s1 -1 1 -2c1 -1 3 -1 4 -2l4 -3c5 -3 11 -6 16 -9c1 -1 3 -1 4 -2s3 -1 5 -2h3l24 -24l-4 -12c0 -1 0 -3 1 -4c0 -3 0 -6 1 -10v-2c0 -3 2 -7 2 -8l2 -5l1 -1l2 -2v-45c-7 -6 -12 -12 -17 -18c-3 -3 -5 -7 -7 -10
c-1 -2 -2 -4 -2 -5c-1 -1 -1 -2 -2 -3l-3 -6v-1c0 -1 0 -1 -1 -1c0 -1 0 -2 -1 -3v-1c-7 -5 -14 -8 -19 -11l-1 -1c-1 0 -2 0 -3 -1c-2 -1 -4 -3 -6 -4l-2 -2l-1 -2v-8h-25z" />
    <glyph glyph-name="C" unicode="C" 
d="M296 0c8 1 12 2 13 2c-3 -1 -4 -1 -4 -2c2 1 11 2 26 3c10 1 19 2 26 5l3 4c5 0 14 4 21 4c3 9 18 7 19 8l9 12l3 4l9 5v7c18 8 32 12 43 12v8c11 0 13 8 17 12c5 5 7 14 7 25l12 3l13 33c4 9 7 17 8 23c-3 6 -5 13 -5 20l9 9l1 12l2 7c6 11 9 28 9 49l-9 12l-3 3v9
l-9 12c-21 3 -38 4 -51 4s-22 -1 -29 -4l-8 -12c-8 -8 -4 -27 -12 -32c3 -3 5 -8 5 -17l-5 -7c3 -2 5 -8 5 -17l-5 -7c3 -2 5 -8 5 -17c-6 -11 -9 -21 -9 -31c-13 -15 -22 -24 -28 -28l-8 -5l-7 5c-5 -5 -14 -7 -26 -7c-11 0 -18 -1 -20 -3c-2 -1 -12 -3 -29 -6h-6
c-7 0 -13 1 -16 4c-4 0 -11 6 -15 6c-2 0 -4 -1 -5 -3c-7 3 -12 6 -15 9l-10 7l-3 12c-28 11 -41 18 -44 21c-3 11 -3 24 -12 24v31l7 12c-5 3 -8 12 -11 28v7c0 7 1 13 4 17c5 0 9 13 12 13c-7 13 -11 19 -12 20l7 4c-5 35 -11 61 -12 80v20l5 12c-3 2 -4 5 -4 10s1 7 4 7
c-3 5 -5 11 -5 19l5 12l-5 4c4 7 6 16 6 25c0 7 -2 18 -6 34c-2 11 -3 21 -3 31v7l3 12l5 3v12l16 17c-1 1 -2 3 -2 6c0 1 1 3 2 8c3 7 4 11 4 14l4 4c15 8 27 12 35 12l9 12c0 3 1 6 4 10v6v4c5 3 12 12 16 12c5 1 17 3 34 8c13 3 23 4 30 4l4 -8h36c14 -4 22 -8 24 -12
l12 -12l9 -12v-8l4 -4v-8h1c4 0 8 -2 12 -5l11 -11c-1 -1 -1 -2 -1 -3c0 -5 4 -12 4 -19v-2c3 -5 4 -18 4 -40c3 -5 12 -11 12 -16c1 -1 4 -1 9 -1c11 0 24 2 35 2c4 0 7 0 9 -1c2 3 7 5 15 8c5 2 8 6 8 11c0 25 -1 43 -3 53c-9 0 -8 16 -12 16c0 3 2 7 7 18c1 3 2 6 2 8
c0 3 -1 3 -1 6c-5 5 -8 16 -8 32l-13 8c-2 0 -7 4 -15 13l-4 3l-12 9c-15 11 -27 18 -36 23c-2 7 -21 9 -21 17c-27 13 -58 19 -92 19c-9 5 -16 7 -20 8c-33 -5 -53 -8 -60 -8l-13 -7c-9 -9 -15 -14 -19 -17c-15 0 -27 -3 -36 -8l-12 -4c-14 -18 -26 -29 -37 -32l-20 -20
c-12 -20 -14 -62 -23 -77c-3 -8 -5 -33 -5 -75l9 -9l-9 -11c-3 -4 -4 -18 -4 -41l4 -12l5 -4c3 -3 4 -13 4 -32c-10 -7 -15 -14 -16 -20v-24c2 -7 3 -21 3 -40l-3 -4c-6 -31 -9 -55 -9 -70v-6l-3 -4c2 -5 3 -20 3 -44c-4 -4 -1 -21 -8 -24c-3 -9 -4 -37 -4 -84l4 -13
c3 -1 6 -7 13 -15c5 -5 7 -9 7 -12c18 -19 29 -31 32 -37c16 -7 31 -16 47 -27c9 -5 21 -16 38 -29c11 0 28 -4 36 -4c8 -5 21 -6 38 -7c19 -1 30 -3 34 -5z" />
    <glyph glyph-name="D" unicode="D" 
d="M268 0h4h1h2c2 1 4 1 5 2s2 1 3 2c4 2 7 3 9 4l12 4l4 8l1 1c1 0 3 0 5 1h4c5 0 9 1 10 2c1 -1 3 -2 6 -3c4 -1 9 -2 10 -2s2 0 3 -1v-1l1 -1c1 -1 3 -1 4 -2h2c1 0 1 0 2 -1c1 0 3 0 5 -1h11c1 1 6 5 14 13c2 2 4 4 6 5c3 1 5 2 8 2v8c1 0 3 0 5 1c1 1 2 1 3 1h2
c8 2 17 3 26 3l16 11c1 1 3 1 5 2c1 1 3 2 4 3l5 5l10 10c1 2 3 4 4 6c3 2 5 4 7 7c0 1 0 2 1 3l4 5h1c3 3 5 5 6 8c1 1 1 3 1 4c5 14 10 27 13 40c1 5 2 9 3 14c2 8 4 15 5 22c1 3 1 7 2 11c1 2 1 4 1 5c1 5 1 10 1 15l3 12h1c1 0 2 1 3 2c1 2 2 5 3 8v2v3v2l1 2
c1 1 3 2 4 2c0 3 0 8 1 15c1 5 1 11 1 16v4c1 5 1 9 1 13c0 2 0 4 1 6c0 3 0 6 1 9v5l-1 1c-2 1 -4 3 -5 5c-3 5 -6 10 -8 14c0 1 0 1 -1 2s-1 2 -1 3l-1 3l17 16l4 24l-4 8l-1 1l-1 4c0 1 0 3 -1 4v3c0 1 0 3 -1 4c-1 8 -1 16 -1 25l-1 1l-3 6c-1 2 -1 4 -2 5s-1 2 -1 2
c0 1 0 1 -1 2l-1 4v6v4c0 1 0 1 1 2c0 1 0 2 1 3l-1 1c-1 3 -3 5 -5 6l-1 1v1l-2 3v5c0 1 0 2 1 3l8 4c1 1 1 3 1 5v4c0 1 0 3 1 4c1 2 1 4 1 5l2 2h1h1c-1 2 -1 4 -2 6s-1 4 -1 6v1c0 1 0 1 -1 2l-1 13c0 5 0 10 -1 14v2c0 3 0 6 -1 7v1c-3 0 -5 0 -7 1c0 1 0 1 -1 2
s-2 3 -3 5s-1 3 -2 4c-2 3 -3 4 -4 4v1l1 5c1 3 1 7 2 10c1 1 1 1 1 2l3 15c1 4 1 8 2 12l-1 1v2c-1 3 -1 6 -2 9s-1 5 -1 7v8v5c-14 13 -23 23 -28 28v1c1 1 2 1 2 2c2 3 4 5 5 6v1c0 2 -1 4 -2 7c-1 1 -1 2 -1 3l-4 12l-2 2c-2 1 -4 2 -5 3h-1l-11 7c-1 1 -3 1 -4 2
c-3 1 -5 3 -8 4l-2 2l-3 2v2c-2 1 -4 1 -5 2c-2 1 -3 3 -4 4c-2 3 -3 7 -3 11l-21 19h-3h-3c-1 1 -2 1 -3 1l-1 1c-3 1 -6 3 -7 6c-1 0 -1 0 -2 1c0 1 0 2 -1 3h-3c-2 0 -4 0 -5 1c-3 1 -7 1 -11 2c-3 1 -7 2 -12 3c-3 1 -6 1 -10 2s-9 2 -15 4l-8 4h-2h-2c-2 1 -4 1 -5 1
c-1 1 -2 1 -3 1c-2 1 -4 1 -5 1c-2 1 -4 1 -5 1c-4 1 -8 1 -11 2h-2h-6l-4 1c-2 1 -5 1 -8 2c-3 0 -4 1 -7 1c-2 0 -5 0 -8 1c-3 0 -6 1 -6 1h-2h-28l-4 8c-1 -1 -3 -1 -4 -1l-9 -1h-2c-1 -1 -2 -1 -3 -1h-1l-12 -3l-1 -1c-9 -3 -19 -5 -28 -7c-1 0 -3 -1 -4 -1s-3 0 -5 1
h-4c-9 1 -21 2 -36 2l-12 -8v-24c5 -9 10 -16 13 -23l1 -1c4 -7 7 -11 11 -16l8 -12l-2 -2c-3 -4 -4 -8 -5 -13c0 -1 -1 -3 -1 -4v-3c0 -1 1 -4 2 -8v-2c0 -2 0 -4 1 -5v-4v-7c-2 -7 -3 -18 -3 -32v-16c-1 -3 -1 -7 -2 -10c0 -1 0 -2 -1 -3v-11c0 -8 1 -16 3 -24l6 -9
c1 -3 1 -6 2 -9v-3c-5 -8 -7 -17 -7 -26v-5c1 -7 3 -14 7 -21h2c3 -1 4 -5 5 -12v-3l-3 -8c-1 -1 -1 -2 -2 -3l-3 -9v-3l-1 -1c-1 -3 -1 -7 -1 -11v-6v-8v-5v-2l1 -1v-3v-7c1 -8 2 -12 2 -16v-2c-7 -11 -11 -19 -12 -24c1 -2 1 -4 1 -6c0 -1 0 -2 1 -3c1 -7 1 -15 2 -25v-14
l-13 -16v-40c-3 -5 -6 -12 -8 -23v-2c-2 -10 -4 -17 -7 -20c1 -3 2 -6 2 -9v-3c0 -3 -1 -7 -2 -12c1 -1 2 -5 3 -13v-6c-1 -5 -1 -12 -1 -22v-9c-1 -6 -1 -11 -2 -14l-9 -16l-12 -8c-1 1 -3 1 -5 1c-5 0 -12 -2 -23 -5l-12 -15v-21c-7 -7 -11 -13 -12 -16l1 -1
c1 -2 3 -5 4 -8v-3c0 -1 -1 -2 -2 -3v-1h-2h-1v-3v-3c1 -2 1 -4 2 -5c1 -3 1 -6 2 -8v-1l10 -10l4 -4c6 -5 11 -8 15 -10h128v-1h17c1 0 2 0 3 -1c2 0 3 -1 4 -2c2 -1 3 -3 4 -4v-1h2h7h6c1 0 4 0 7 1h5c1 0 3 0 6 -1h2l1 -1c2 0 4 -1 6 -2h2zM288 124c-1 0 -2 0 -3 1l-6 2
c-1 1 -4 2 -7 2c-5 2 -11 4 -16 5l-1 1h-1c-3 1 -5 1 -8 1c0 1 -1 1 -2 1c-3 1 -5 1 -7 2l-5 1l-12 9v14v9c1 4 1 8 2 12v3c1 1 1 1 1 2l1 3v65c0 1 0 2 -1 3v2c-1 1 -1 1 -1 2c-1 2 -1 5 -2 8c-1 1 -1 2 -2 3v2v2v3v5c1 1 1 3 1 5h1c0 1 0 2 -1 3v5c0 1 0 3 -1 5
c0 5 0 10 -1 15v20c-1 6 -1 12 -1 19c0 6 0 12 -1 18v37c0 3 0 5 -1 8c1 5 1 9 0 14c0 17 0 33 -1 48v4c-1 19 -3 35 -5 50c0 20 2 36 7 48h-1c-2 0 -3 2 -4 5v2c0 5 1 8 4 9h1l-7 8c1 5 2 11 3 19c0 4 0 9 1 14v13v13v22c1 13 1 23 2 31c0 3 0 5 1 8l5 12h104l9 -6h1
c1 -1 3 -2 4 -2c1 -1 3 -1 4 -2c1 -2 3 -4 5 -5c1 -1 1 -1 2 -1v-1l3 -3l3 1c1 0 3 0 4 -1h1h2c3 -1 5 -1 8 -1h5l1 1l6 -5l3 -5c3 -3 5 -5 8 -7c1 -1 2 -3 3 -4c2 -3 4 -5 6 -7c4 -5 7 -9 10 -12v-2c0 -1 0 -1 1 -2c0 -1 0 -1 1 -2l3 -3c3 -2 5 -4 5 -6l1 -1v-1l1 -1v-2
c0 -1 0 -1 1 -2s1 -3 1 -5v-1l3 -9c0 -1 1 -2 4 -3v-15v-8c1 -1 1 -3 1 -5c1 -5 1 -9 2 -12v-4v-3c0 -1 0 -1 1 -2l3 -6c1 -2 3 -4 5 -6v-1l-1 -1c-1 -1 -2 -2 -3 -4l-1 -2c-3 -5 -4 -8 -4 -11c1 0 1 0 2 -1c2 -1 3 -3 4 -6l1 -1v-5c1 -1 1 -3 1 -4c1 -3 3 -6 4 -7l4 -12
v-25l-4 -12v-51v-9c-1 -5 -1 -9 -1 -12v-8c-1 -5 -1 -9 -1 -14c-1 -2 -1 -4 -1 -6v-4l-9 -4v-8l9 -4v-8c-4 0 -6 -2 -7 -6v-2v-3l1 -3l1 -1c1 -1 3 -1 5 -1l-12 -12l-5 -12v-20c-1 -10 -1 -18 -2 -25c-1 -5 -1 -8 -2 -10v-1v-44c-1 -1 -1 -1 -2 -1l-2 -1l-3 -3l-1 -2l-1 -1
v-2v-1l-3 -13c-3 -3 -5 -6 -8 -9c-3 -2 -6 -3 -8 -3c0 -1 0 -1 -1 -2s-2 -1 -3 -2l-5 -5l-11 -11l-2 -2c-2 -1 -3 -3 -4 -4c-3 -3 -5 -6 -8 -8l-2 -2l-2 -1c-1 -1 -1 -1 -1 -2c-3 -3 -6 -5 -9 -6c-1 0 -1 0 -2 -1h-2c-2 -1 -4 -1 -5 -1c-1 -1 -2 -1 -3 -1l-2 -1h-1h-2
c-3 -1 -5 -1 -7 -2c-1 0 -1 0 -2 -1c-3 0 -6 -1 -7 -2c-5 -1 -9 -2 -13 -3l-1 -1c-1 0 -1 0 -2 -1h-3c-3 -1 -5 -2 -7 -2h-1z" />
    <glyph glyph-name="E" unicode="E" 
d="M345 0c8 1 12 2 12 4c3 0 7 1 12 2c6 1 10 2 13 2l3 8c2 2 4 3 6 3c5 0 18 -11 18 -11c4 0 11 1 20 1c8 0 17 -1 32 -1h11c17 0 30 1 39 4l8 4c-1 3 -2 5 -2 6c0 7 14 11 14 18c3 12 4 22 4 29c-4 8 -9 17 -9 24v4c-9 15 -18 24 -27 28l-9 4h-16c-5 -3 -11 -4 -16 -4
c-15 -3 -31 -5 -49 -5c-3 0 -27 2 -70 3c-5 1 -10 1 -14 1h-12c-17 0 -31 -1 -40 -3l-5 -4c-11 0 -28 4 -36 4l-12 -8h-36l-4 4c-9 0 -18 3 -28 8l-8 12v28l4 12c1 7 1 16 1 28c0 11 1 19 3 24l8 9v32l4 4c-3 6 -4 13 -4 20l4 4c-11 23 -7 39 -11 64c0 3 -1 3 -1 6
c0 5 1 8 4 11v12c6 8 23 12 52 12l8 -8c13 5 26 7 39 7c11 0 26 -2 47 -6c21 -3 36 -4 45 -4s17 1 26 3c8 13 17 25 17 40v4l7 12c-8 5 -12 10 -12 17c-10 10 -18 16 -24 19c-17 3 -30 4 -43 4s-22 -1 -29 -4c-3 -5 -14 -7 -33 -7c-56 0 -89 1 -100 4l-12 8l-4 12l8 12l-8 8
c0 1 1 5 3 10l2 4l-1 2c3 13 4 25 5 38v6c0 11 -2 20 -5 29c0 18 4 83 4 96c4 1 6 5 6 12s2 12 6 13h36c15 5 36 8 61 8h11c11 -1 20 -1 28 -1h22c13 0 21 0 24 1c0 -5 5 -8 15 -8h45l12 -9c13 0 44 5 57 5l3 -5l3 -1c9 0 22 10 25 10l9 24c-2 1 -3 5 -3 12c0 5 1 8 3 8v4
l-4 8v4c-8 8 -12 16 -12 24c-3 1 -7 2 -14 5c-5 1 -7 2 -7 3c-23 -6 -52 -9 -87 -9h-19c-7 0 -16 0 -27 1c-21 1 -35 2 -46 2c-45 0 -82 -6 -111 -18h-16c0 6 -5 9 -16 9c-20 -8 -20 -9 -35 -11c-7 -1 -11 -1 -14 -1c-13 -11 -21 -17 -28 -21c-3 -4 -4 -15 -4 -32l-8 -4
c5 -3 7 -8 7 -15v-6c0 -8 3 -12 9 -12c1 -7 1 -13 1 -19v-31c0 -3 0 -7 -1 -10c0 -8 5 -24 5 -28l3 -4c-2 -15 -3 -29 -3 -42c0 -15 1 -28 3 -39c0 -17 -3 -50 -3 -61c-3 -7 -5 -29 -5 -64l-8 -8c-5 -16 -8 -39 -8 -69c5 -3 8 -8 8 -16l-8 -8v-88l-4 -5v-96l-8 -8
c0 -3 -1 -4 -1 -7c0 -8 1 -17 4 -26c3 -15 5 -24 5 -28c12 -16 22 -37 37 -44h72l16 8c13 -3 42 -4 82 -5c35 0 61 -4 79 -11z" />
    <glyph glyph-name="F" unicode="F" 
d="M97 0h9c11 0 33 4 44 4c11 17 20 27 25 32c1 1 2 4 5 9s5 7 6 8c-8 5 -7 25 -11 32v12l8 13l4 3v9l-12 12c0 8 -4 32 -4 41c3 0 5 1 5 2c0 3 -5 12 -5 13c1 1 1 4 1 7c0 9 -5 23 -5 26c1 1 2 3 2 4s-1 4 -2 8c-1 1 -1 2 -1 5s2 5 5 7l4 12v12c-7 7 -10 29 -16 29
c-3 9 -4 17 -4 24v4l16 25v16c8 8 13 12 16 12c8 0 28 -4 37 -4c3 5 16 11 19 16h13l12 -4c15 -7 23 -11 28 -12c15 0 29 4 41 12c9 7 16 12 20 16v53c-11 10 -16 17 -16 20c-37 6 -63 9 -76 9h-5c-9 0 -23 1 -43 1c-19 0 -33 1 -42 2l-4 9l-4 3l-5 9v3l-3 9l3 3l-3 5
c-5 11 -7 25 -8 42v28c0 7 0 12 -1 15l-3 3c0 5 1 11 3 19c1 3 1 6 1 10s0 7 -1 8c6 5 9 13 9 25l12 8l16 16h37c11 6 24 9 39 9c9 0 24 -2 43 -6c20 -1 34 -4 43 -4h8c3 0 5 0 8 1l12 -12h45l8 -9c0 -9 3 -18 8 -28c-4 -6 -6 -13 -6 -21c0 -5 1 -10 3 -16l7 -12l20 -19
c5 0 12 -1 25 -2c7 -1 12 -2 17 -2c3 0 2 1 5 1c8 1 14 3 18 6l9 16c0 11 2 23 3 40c3 17 4 30 4 37l5 9c-12 3 -13 16 -17 28c11 17 17 39 17 65l-5 12l-19 20l-25 8c-85 -4 -148 -7 -191 -8l-12 8c-4 0 -8 1 -13 1c-19 0 -45 -4 -80 -13c-19 2 -36 3 -52 3
c-17 0 -34 -1 -49 -3c-11 -5 -25 -11 -29 -20l-12 -36l5 -5c-3 -5 -5 -11 -5 -19l5 -5c5 -15 7 -34 7 -57c4 -11 6 -24 6 -39c0 -10 -1 -24 -3 -42c-2 -19 -3 -32 -3 -40l5 -4c3 -13 4 -29 4 -48c-15 -21 -23 -32 -24 -33c1 -21 3 -54 3 -97l5 -4c-7 0 -4 -17 -8 -17l3 -4
c-2 -4 -3 -13 -3 -28c1 -19 4 -58 8 -77c-6 -18 -12 -31 -17 -40c3 -7 4 -17 4 -28s-3 -26 -7 -47c-3 -19 -5 -34 -5 -43l-4 -4l12 -12c0 -5 2 -12 5 -23c5 -13 6 -21 7 -26l5 -12c7 -3 18 -4 31 -4z" />
    <glyph glyph-name="G" unicode="G" 
d="M443 -106c7 1 12 2 13 2c-1 0 -2 0 -3 -1c21 5 36 7 43 7c17 18 26 30 28 37c-11 5 -11 20 -12 32l8 4c-5 11 -7 28 -7 51s-2 40 -5 51v12l-5 12l5 4v8l-5 5c3 9 5 19 5 28c-3 1 -5 8 -5 20c6 11 9 19 9 24v70c-5 3 -8 19 -12 20c0 12 20 25 20 33l-8 8v69l-4 4
c3 1 5 2 5 5c0 4 -11 17 -10 20v28c-5 0 -7 5 -7 16c-9 0 -25 8 -34 9c-48 3 -108 3 -183 3c-9 -5 -15 -7 -20 -8c-8 -13 -13 -23 -16 -28c2 -2 4 -5 5 -9l4 -12c1 -8 5 -16 12 -20c-2 -3 -3 -5 -3 -6c0 -4 6 -8 6 -12v-2l5 -4c9 -5 16 -7 20 -8c1 -1 2 -2 4 -2c1 0 3 1 6 2
c4 3 7 4 10 4l13 8c17 0 29 -1 36 -4c5 4 21 9 24 16h5c3 0 7 0 12 -1c6 0 10 -2 12 -7v-33l-4 -4c5 -16 8 -46 8 -90c-5 -19 -8 -43 -8 -72c-8 -3 -18 -12 -25 -12l-12 -9v-8l-8 -4l-4 -8c-8 0 -19 -12 -24 -12c-11 -5 -18 -9 -20 -12c-5 -2 -10 -3 -15 -3
c-16 0 -45 10 -59 10c-3 9 -21 9 -24 12h-5l-12 5c-14 14 -23 25 -28 33c-5 11 -7 19 -8 24l-4 4v8l-16 16c-3 9 -4 20 -4 33c0 12 3 34 7 62c3 21 5 39 5 52v8l-8 12l-5 4v16l5 5c-3 24 -5 60 -5 109l5 12c-3 1 -4 5 -4 12v13c0 2 0 3 -1 4c8 15 15 24 21 28l4 13v16l12 37
c3 1 4 4 4 10s2 11 5 14l-5 4c5 3 8 8 8 17c12 4 34 11 45 15l8 9l-1 2c0 7 10 11 10 18c17 -7 29 -12 36 -17h4c9 4 21 7 25 12c4 -5 20 -11 20 -19c21 -11 39 -19 48 -20v-9c8 -8 14 -12 17 -12c16 -24 20 -33 20 -49c-3 -9 -4 -21 -4 -36l4 -5c5 -3 12 -4 21 -4
c3 1 8 2 14 2c5 0 10 1 14 2l12 8c0 7 5 15 5 22l-1 3l-4 8c2 0 3 3 4 8v3c0 4 -1 6 -4 6c5 10 10 15 13 15c-6 3 -9 10 -9 21c0 5 -8 10 -8 17c-7 0 -13 3 -19 8c-9 7 -13 11 -13 12v16c2 2 3 9 3 20l-3 12h-3c-11 0 -11 12 -18 12v9c-5 3 -18 12 -29 12h-7
c-13 7 -21 11 -25 12c-13 3 -29 4 -50 4s-44 -1 -72 -4l-3 -4c-5 -3 -15 -4 -29 -4l-12 -8c-13 -11 -22 -19 -29 -24c-5 0 -14 -5 -21 -5l-8 -8v-8c-7 -5 -24 -24 -32 -27c-8 -4 -16 -18 -25 -18c0 -3 -3 -13 -3 -16l-9 -12c0 -5 0 -14 -3 -29c-1 -5 -2 -11 -2 -15
s1 -8 2 -13l-9 -4c4 0 6 -3 6 -9c0 -5 2 -7 6 -7c0 -16 -3 -73 -3 -90l3 -4c3 -4 4 -18 4 -41l-4 -3c3 -5 4 -17 4 -37l5 -4l-5 -5c-5 -13 -7 -38 -7 -77l-9 -4c0 -5 9 -15 9 -20l7 -8c-8 -15 -13 -24 -16 -28c12 -31 18 -68 18 -110c0 -13 -1 -27 -2 -42l-4 -12l4 -3v-17
c20 -20 31 -33 33 -40v-8c9 -9 32 -16 37 -21l3 -8l21 -21h8c11 -3 16 -6 21 -7h12c13 0 31 -1 54 -4c21 -3 40 -4 53 -4h11c9 12 15 20 20 24c6 0 11 7 16 20l12 9h17l8 -5v-33c-5 -17 -7 -29 -8 -36l-4 -3c0 -7 -6 -18 -6 -26c0 -1 0 -2 1 -3l5 -12c5 -9 9 -14 12 -17
c10 -5 18 -11 24 -16h17zM450 -106c1 1 2 1 3 1c-1 -1 -2 -1 -3 -1z" />
    <glyph glyph-name="H" unicode="H" 
d="M463 0c9 3 15 4 18 4c-3 -1 -6 -3 -9 -4c31 10 51 20 58 29c3 5 4 14 4 29l8 13l-8 3c8 3 4 22 12 25c-4 11 -6 21 -6 29c0 3 1 7 2 12c-11 11 -17 20 -20 29l4 5l-9 8c3 8 4 18 4 30v11c-3 24 -4 38 -4 37h-8c0 8 -9 14 -9 19v2l-3 4c2 5 3 20 3 46l5 3c3 10 4 27 4 50
l-4 12l-8 9c-3 6 -5 13 -5 20l5 13l3 4v5c0 9 5 21 5 28v4c-8 3 -3 22 -8 25c-4 12 -6 26 -6 43c0 9 1 23 3 43c2 19 3 33 3 42l8 9v99c8 8 5 25 12 29c-5 12 -11 20 -12 24l-5 8c-11 0 -21 13 -28 13h-24l-9 -8c-3 -9 -4 -19 -4 -29c5 -9 7 -17 7 -26c0 -7 -1 -13 -3 -19
v-9c0 -8 9 -25 9 -33c-4 -47 -5 -85 -5 -113v-24l5 -12l-5 -8c3 -3 5 -9 5 -17l-5 -12l5 -8v-4l-5 -8v-13c-9 0 -20 -4 -25 -4c-3 1 -10 12 -21 12c-15 6 -28 12 -37 17h-25l-12 -4c-13 -3 -22 -5 -25 -5c-3 3 -7 5 -11 5c-5 0 -8 1 -9 4h-49c-11 0 -17 0 -20 1
c-26 1 -47 6 -63 16l-17 16v37l4 4c0 28 3 51 4 71c-5 11 1 21 -6 30c-2 4 -3 7 -3 9c0 1 0 1 1 2l4 8c3 9 3 36 4 45c7 4 11 17 12 17c0 11 2 17 5 17c0 8 -8 28 -8 32l-22 22c-9 2 -24 3 -45 3c-3 -7 -16 -12 -16 -20v-25l-5 -4c3 0 4 -3 4 -8c0 -6 -1 -9 -4 -9
c-5 -22 -8 -36 -8 -41c6 -9 10 -21 12 -37c1 -17 2 -28 5 -33l-4 -5c-4 -11 -6 -23 -6 -36s2 -24 6 -33l-5 -5c-5 -14 -8 -33 -8 -57l8 -13l5 -4c3 -5 4 -19 4 -42l-4 -12l-5 -8c3 0 4 -3 4 -9c0 -5 -1 -8 -4 -8v-8l5 -4c-1 -2 -1 -5 -1 -8c0 -4 1 -9 3 -14
c4 -11 6 -19 6 -24l-21 -20v-21c-8 -6 -3 -26 -8 -29c1 -1 1 -3 1 -7v-9c0 -3 1 -5 3 -5c-3 -4 -4 -16 -4 -37l-4 -4c8 -16 12 -35 12 -58l-4 -7c-5 -26 -8 -61 -8 -104c1 -4 12 -24 12 -33h8c17 -8 35 -12 52 -12c12 0 22 2 31 7c5 11 8 25 8 42l5 12c-3 13 -5 44 -5 95
c-8 4 -12 18 -16 21v9l4 3v9l12 8v25c-2 1 -3 6 -3 16l-13 13l4 4l-4 4c-6 8 -9 22 -9 41l5 12l4 5v17l4 12l12 8l21 4c7 1 36 2 95 9c28 3 52 4 73 4h19l12 8c1 -1 4 -1 10 -1c5 0 15 1 28 2h7c12 0 22 -2 29 -6c0 -1 -1 -4 -3 -11l-1 -2c0 -2 1 -3 4 -3
c-8 -5 -5 -29 -12 -33v-58l4 -4c-4 -5 -7 -13 -9 -24c-1 -12 -4 -19 -8 -21c3 -5 4 -17 4 -34l9 -12c-7 -5 -11 -12 -14 -22c-3 -12 -5 -20 -8 -23c10 -8 11 -36 13 -41c-5 -23 -8 -52 -8 -88l17 -12c5 -3 22 -1 29 -4z" />
    <glyph glyph-name="I" unicode="I" 
d="M240 0c29 0 52 1 68 4c7 4 12 7 17 8c12 5 20 11 24 20c5 13 8 32 8 57l-8 12l-5 4v16l5 4l-5 4l5 4c0 5 1 12 1 19c0 11 -1 20 -2 35c-3 27 -4 42 -4 47l5 7c-3 3 -5 9 -5 17c4 1 6 2 6 5c0 4 -6 12 -6 16v12c-2 1 -3 7 -3 19l3 5l-3 3c5 10 8 17 8 21
c-5 13 -3 47 -8 60c-9 3 -12 18 -16 21v7l19 21c4 11 6 24 6 39c0 9 -1 21 -3 38s-3 31 -3 40l5 3c5 12 8 34 8 65c5 13 8 24 8 32l-24 24l3 5l13 7c0 2 1 7 2 14c1 6 3 9 6 10c3 5 4 16 4 33l4 12l-4 4c0 10 -7 22 -20 37c-3 -1 -4 -2 -5 -2c-2 0 -4 1 -5 2c-3 2 -6 3 -7 3
c-15 4 -26 6 -31 9l-5 3c-3 -1 -8 -2 -14 -2c-5 0 -10 1 -14 2l-4 -3c-13 -6 -23 -9 -28 -9l-21 -20v-16c-2 -12 -3 -31 -3 -57l3 -3c6 -11 9 -25 9 -41l-9 -8c-3 -9 -4 -18 -4 -29c0 -15 4 -46 4 -60l-3 -3c1 -2 3 -5 4 -10v-2c0 -3 -1 -5 -4 -5l2 -6c1 -2 3 -5 4 -10
c2 -5 5 -8 9 -8v-28l5 -4c-4 -1 -5 -7 -5 -12l-1 -7c0 -3 -1 -4 -2 -5c-6 -9 -9 -19 -9 -32l-3 -9c4 -4 6 -11 6 -22c0 -9 2 -17 6 -22l3 -4c-5 -17 -7 -35 -7 -54c0 -15 1 -29 4 -46l-9 -9c-1 -16 -3 -37 -3 -65c8 -3 7 -19 12 -24c-8 -15 -12 -38 -12 -68
c8 -3 7 -24 12 -28l-9 -8c6 -3 9 -9 9 -17l-9 -8l9 -4c0 -2 -3 -9 -9 -20v-8l9 -4l-9 -4z" />
    <glyph glyph-name="J" unicode="J" 
d="M253 0c17 3 26 4 27 4l-14 -3c31 5 73 7 126 7c5 4 16 13 17 13c21 15 38 23 49 31c1 3 2 6 4 9l8 11c5 8 9 15 9 19c13 8 21 15 26 22l5 4l8 5v9c9 3 13 12 13 26c8 11 12 18 13 21l-8 5c5 3 8 10 8 21l-8 5l8 5c0 11 5 36 5 41c0 7 8 23 8 32c-1 3 -1 10 -2 19
c-1 6 -3 11 -6 16s-5 18 -5 39c3 3 5 9 5 18c-3 9 -6 21 -7 36c0 3 -1 6 -1 9c0 9 1 19 2 30c1 10 1 18 1 23v14c-9 0 -13 6 -13 18v13l-4 13l4 9c-3 9 -4 40 -4 91l4 13l5 5c0 13 -2 23 -5 29l-4 5v8c3 1 4 2 4 5c0 4 -4 10 -4 13s1 4 4 5v8c5 3 11 13 18 13l4 13
c-12 18 -19 31 -22 40l5 13l-5 8c-5 5 -21 8 -21 13h-49c-10 -5 -17 -7 -21 -8l-8 -9v-39l3 -13c7 -3 11 -23 18 -26c-5 -18 -8 -44 -8 -78c4 -18 6 -41 6 -68c0 -9 -1 -25 -2 -46c-1 -10 -1 -19 -1 -26v-19c0 -21 2 -39 5 -55c-14 -29 -21 -58 -21 -87l3 -13l5 -4
c0 -13 -18 -19 -21 -26c0 -5 1 -10 1 -17c0 -8 -1 -17 -2 -28c-3 -24 -4 -37 -4 -42l-8 -8v-18c-28 -33 -49 -52 -62 -57h-30l-13 -4l-5 -4c-7 -3 -14 -4 -20 -4c-12 0 -19 6 -52 23c-13 7 -22 13 -27 20l-5 8c-9 7 -16 13 -21 18l-9 44l4 3c-3 2 -4 10 -4 23l4 13v8
c-3 5 -4 18 -4 39l4 5c3 6 5 20 5 43c-7 9 -10 15 -13 18c-9 5 -18 8 -30 9c-3 1 -7 1 -10 1h-23c-20 -1 -31 -2 -34 -2c-3 -3 -7 -6 -16 -13c-5 -3 -8 -8 -10 -13v-35l-8 -4c5 -3 8 -10 8 -22l-8 -4c5 -3 8 -9 10 -16c2 -9 3 -14 3 -14v-10c-3 -8 -7 -30 -8 -39l8 -13v-8
l5 -5c2 -11 3 -28 3 -52c3 -1 5 -8 5 -21c13 -8 30 -32 39 -35c0 -7 9 -11 9 -18c13 -17 23 -31 30 -39c3 -9 22 -4 22 -13c39 -17 73 -26 100 -26z" />
    <glyph glyph-name="K" unicode="K" 
d="M499 0c8 1 13 2 16 2h3l-2 -2c14 4 22 8 24 12l9 8c2 8 3 19 3 34l5 13c-9 13 -17 22 -21 29l-9 4c-5 17 -11 29 -12 37c-8 4 -8 22 -13 25c0 1 1 3 1 4c0 9 -10 15 -13 22c-5 4 -13 15 -26 33c-11 15 -20 25 -28 30c3 6 4 12 4 18c0 8 -1 18 -4 27l-21 22h-4l-4 8l-17 4
l-8 21c0 17 -1 28 -4 33l-5 4v8l-8 5v8c-6 7 -12 16 -17 29c-11 0 -17 4 -17 12l-3 5v8l-5 4v8l-8 5v8c-6 6 -9 12 -9 17c-7 8 -12 14 -16 17v8c13 13 24 23 33 29l5 13l8 4c16 8 38 26 67 54c0 9 8 16 8 21c13 7 32 16 37 25v5c15 16 22 20 38 20c21 25 37 50 50 75v13
c-3 8 -22 8 -25 17c-3 0 -4 1 -7 1c-2 0 -6 -1 -12 -2c-9 -3 -15 -4 -18 -4c-9 -6 -38 -25 -46 -33c-11 -11 -21 -18 -30 -21c-10 -20 -27 -39 -52 -56l-60 -44v-8c-28 -23 -35 -29 -50 -37c-7 -4 -11 -8 -13 -13c-14 0 -21 -3 -21 -9c-19 -5 -33 -10 -41 -13l-9 13
c-3 5 -1 21 -4 34v42l4 12l4 8c-3 3 -4 8 -4 17l4 8c-3 1 -4 6 -4 17l4 8l-4 5v70c-7 8 -12 14 -16 17c-15 5 -30 8 -47 8c-5 -4 -21 -11 -25 -16v-17l-4 -12c-5 -3 -8 -9 -8 -17l8 -13l4 -8c3 -5 5 -19 5 -42c-6 -5 -9 -16 -9 -33v-9c3 -12 5 -25 5 -42v-12
c0 -3 0 -8 -1 -14v-26c0 -17 2 -31 5 -43l3 -5c3 -4 5 -16 5 -37c-7 -3 -10 -10 -11 -19c-2 -13 -4 -20 -6 -23c-1 -1 -1 -2 -1 -4c0 -5 1 -10 5 -21l-4 -8c-3 -11 -4 -21 -4 -32c0 -5 2 -20 3 -41c1 -9 2 -18 2 -26c0 -5 -1 -10 -1 -14c-6 -3 -5 -25 -13 -25
c-2 -5 -3 -21 -3 -50l3 -13l-3 -3v-9l-5 -4c3 -5 5 -17 5 -38l-5 -13l-4 -3c-5 -11 -8 -28 -8 -50c5 -3 8 -11 8 -22c-5 -3 -8 -9 -8 -20c9 -9 17 -14 20 -17c27 -13 48 -19 63 -19c11 0 19 2 26 6c9 7 15 12 20 17c3 15 5 35 5 58c3 1 5 3 5 6l-1 3c-1 3 -2 5 -2 6s0 1 1 2
c6 10 10 16 13 17v16l-4 5c-6 8 -9 19 -9 33l-3 4v42c-7 7 -4 26 -9 33c-11 11 -16 19 -16 22c21 27 25 31 25 54c-3 3 -5 10 -5 21l5 12c0 5 -1 13 -4 22c-1 7 -2 11 -2 13c0 3 0 6 1 7l-4 8l4 12l8 13h9c11 12 19 20 25 25v9l13 8l12 -8c3 -11 13 -25 13 -34l4 -4
c-1 -1 -1 -2 -1 -4c0 -1 0 -4 1 -8l4 -9c11 -11 17 -18 17 -20c3 -7 9 -14 17 -22l8 -12v-8l4 -5c0 -8 8 -25 8 -33l5 -4c-1 -1 -1 -2 -1 -3c0 -5 9 -11 9 -16v-2l12 -12l5 -13v-9c9 -10 15 -18 16 -25c0 -4 4 -18 4 -25l5 -3v-9c17 -22 25 -39 25 -50v-13l8 -4
c9 -17 16 -28 21 -33c8 -28 14 -50 21 -63h8l4 -9c28 -9 46 -15 59 -20zM516 0h-1h1z" />
    <glyph glyph-name="L" unicode="L" 
d="M504 0h5c8 0 16 8 20 8c4 9 8 13 12 13c1 0 2 0 2 -1h2c0 12 1 19 4 21c-3 19 -4 72 -4 165l4 13l4 4c-5 0 -3 16 -8 16v16l4 4c3 5 4 16 4 33c-11 16 -17 25 -20 28c-1 -1 -2 -1 -3 -1c-4 0 -8 3 -13 9c-11 2 -23 3 -36 3s-24 -1 -33 -3c-3 -5 -13 -15 -16 -20v-44
c2 -2 3 -6 3 -12v-1c0 -7 2 -11 5 -12l-5 -4c-3 -10 -5 -21 -6 -34v-14c0 -5 0 -11 1 -18c1 -15 2 -25 2 -32l3 -12c-1 0 -4 -1 -7 -1c-4 0 -8 1 -12 3c-16 7 -26 9 -29 10c-7 -1 -24 -1 -48 -1c-21 -1 -38 -3 -49 -6c-7 1 -18 2 -33 2h-30c-17 0 -30 2 -39 5
c-3 9 -5 16 -8 21c5 5 8 13 9 24c2 15 3 23 4 24l-5 5c0 14 -1 23 -3 28l-9 8v17c3 1 4 5 4 12s2 11 5 12v52l-5 4c0 3 6 13 6 18l-1 3l-5 12l5 4c-3 3 -5 9 -5 20c3 5 5 10 5 17c0 5 1 7 3 7c-5 11 -8 28 -8 49c3 0 4 1 4 4v3c-3 3 -2 5 -3 6s-1 2 -1 3v12l-4 12
c8 16 14 28 17 37v12l-5 13l-3 7c-1 3 -1 6 -1 9v23c0 4 0 9 1 14c2 23 3 37 3 44c0 12 -1 23 -3 32l-5 3c5 11 8 24 8 38l-3 7v5l-5 8c0 9 -4 19 -4 24c-9 12 -17 20 -24 24c-3 2 -8 4 -17 5c-6 1 -10 4 -12 7h-44l-20 -20c0 -20 -4 -40 -13 -60c7 -27 11 -67 12 -120
c2 -56 5 -96 9 -120l4 -4c-11 -38 -16 -65 -16 -80l4 -5c-1 -28 -4 -66 -4 -122l4 -12l-4 -4c3 -3 4 -9 4 -20l-4 -4v-77l-4 -12l4 -4c0 -21 -8 -38 -24 -49c0 -10 7 -38 20 -84c4 -3 19 -17 24 -17h93l12 8h25l12 -8h36l4 4c6 2 15 3 27 3s19 0 26 1c1 -3 6 -7 16 -10
c11 -2 16 -4 17 -6c11 0 30 2 58 5c16 3 30 4 42 4c8 0 14 0 17 -1h1l30 -8c5 -3 9 -4 13 -4zM487 6c1 -1 3 -1 4 -2l-30 8l12 8z" />
    <glyph glyph-name="M" unicode="M" 
d="M69 0l16 6h1l-2 -3c9 3 20 4 33 5c17 1 29 4 36 9l-1 2c0 8 10 14 10 27s-2 21 -5 22c-3 17 -4 40 -4 72l-4 9c-1 0 -1 1 -1 3c0 8 5 19 5 22v13c-3 3 -4 8 -4 16l4 13c-3 3 -4 8 -4 15c0 5 1 7 4 7c3 10 4 20 4 29c0 12 -3 22 -8 29c-5 12 -7 26 -8 43
c-1 19 -3 31 -5 37c-3 8 -5 15 -5 21c0 11 5 33 5 45v3l4 8c-5 0 -1 18 -8 18c1 1 1 2 1 4c0 3 0 5 -1 6c-3 4 -4 7 -4 10l-5 5v13l5 12l4 9l-4 4c-3 9 -5 24 -5 43c1 -1 2 -1 3 -1c4 0 9 3 14 9c15 0 24 -2 26 -5c-1 -1 -1 -2 -1 -3c0 -7 5 -10 5 -15v-3l5 -4v-8l3 -5v-8
l9 -4c3 -15 4 -35 4 -59l5 -13l4 -5c3 -12 5 -22 5 -30c0 -5 0 -9 -1 -12c11 -12 17 -19 17 -21l8 -5c6 -9 9 -27 9 -54c5 0 8 -6 8 -17c13 -9 23 -16 30 -22h38c12 11 19 17 26 22c3 5 12 14 12 17c6 13 9 29 9 48v6c-1 7 -1 14 -1 21v16c0 10 0 16 1 19l9 12v21
c11 11 16 38 21 43c3 5 4 17 4 38l8 4v21l5 5l16 4c6 7 10 12 13 13c3 5 4 14 4 29l18 -8v-55l-5 -4c3 -8 6 -18 7 -30v-18c0 -3 0 -7 -1 -12c-1 -7 -1 -12 -1 -17v-13l-10 -8c0 -35 -1 -56 -3 -63c-12 -5 -18 -12 -18 -19c0 -5 7 -14 20 -25c14 -11 21 -19 21 -25
c0 -7 -7 -12 -20 -16l-8 -9v-21l5 -9l-5 -3c0 -1 -1 -23 -3 -68c0 -7 -1 -13 -1 -20c0 -17 1 -35 4 -48c-5 -5 -7 -22 -12 -26c0 1 0 -1 -1 -6l-3 -21v-8c0 -9 1 -15 4 -20h4c0 -9 8 -16 8 -21h8v-8l10 -9c8 -3 18 -4 29 -4c12 0 25 1 42 4l9 4c-1 2 -2 4 -2 7c0 4 3 6 10 6
c1 2 2 7 3 14c1 5 3 7 6 7c2 12 3 24 3 37c0 20 -4 47 -12 82l9 4c-6 5 -9 10 -9 15v44l-8 13v153l-4 4c-3 11 -5 38 -5 80l9 13c-6 6 -9 16 -9 30c-5 7 -14 24 -17 25c3 28 4 70 4 127c5 2 7 6 7 13s2 11 6 13c-3 7 -5 18 -6 35c0 17 -2 30 -7 37v13c0 8 -17 8 -17 13
c-13 0 -32 16 -44 16h-15l-17 -4v-2c1 0 1 -1 1 -2c0 -7 -9 -14 -9 -17c-9 -22 -13 -43 -13 -64l-8 -8c0 -13 -13 -42 -13 -55c0 -7 -4 -18 -4 -21h-8c0 -12 -3 -18 -10 -18c-2 0 -3 0 -3 1c0 -9 -5 -21 -5 -26l-8 -12l4 -5c-5 -17 -8 -41 -8 -72l-9 -12l-4 -13
c-7 -3 -12 -19 -17 -22l-8 -3c-13 9 -26 16 -35 20l-3 13c-11 11 -17 38 -22 43c0 7 9 18 9 21l-9 12c-1 1 -4 8 -10 20c-4 8 -6 14 -6 18c-12 6 -18 13 -18 22l-8 8v43l-9 13v8l-4 4c1 1 1 4 1 7s0 6 -1 8c-3 5 -4 10 -4 15l-5 4v9c-11 11 -20 27 -25 46l-4 5
c-39 12 -61 18 -65 18c-7 0 -11 -1 -15 -2l-5 -4l-13 -9c0 -8 -4 -33 -4 -41l9 -9l13 -9c2 -5 3 -19 3 -42l-8 -13c-4 -12 -6 -25 -6 -39c1 0 5 -29 11 -88c-6 -11 -9 -35 -9 -72l-9 -13c5 -4 7 -11 7 -21s-2 -17 -7 -21c6 -3 9 -10 9 -22c-7 -7 -5 -30 -13 -33
c-3 -5 -4 -16 -4 -34c12 -17 18 -30 21 -38l-4 -4c0 -4 -3 -11 -9 -22l-4 -4c2 0 4 -3 5 -9v-2c0 -4 -2 -6 -5 -6c0 -3 1 -8 4 -15c1 -2 1 -5 1 -9c0 -3 0 -5 -1 -6l-4 -3c-5 -41 -8 -69 -8 -86c-6 -16 -9 -35 -10 -56l-3 -58c8 -3 12 -18 17 -21l8 -4c0 -7 18 -6 18 -13z
M77 0c2 1 4 2 7 3c-2 -1 -4 -2 -7 -3z" />
    <glyph glyph-name="N" unicode="N" 
d="M66 0h49l12 8c11 7 17 12 21 16l16 12l4 5c0 3 1 6 4 11c1 1 1 3 1 6c0 1 0 2 -1 3l-4 12l-4 4c-5 5 -8 12 -8 20c8 4 12 18 16 21c-3 3 -4 6 -4 10v3c0 3 1 4 4 4v15l-4 5v48l4 12l-4 5c0 9 1 15 4 20c-7 13 -15 30 -24 37c0 8 3 15 8 20l8 4c3 4 4 10 4 17s1 11 4 12
c-9 5 -11 21 -16 24c0 8 -4 25 -4 33c0 1 1 2 1 5s-1 4 -1 8v3c0 4 1 7 4 8c5 8 8 22 8 41c-5 2 -7 6 -7 13v6c0 6 -3 9 -9 9c0 5 -1 13 -4 25c-1 6 -2 10 -2 13c0 5 1 7 2 11l-5 12l9 9l-4 8c2 6 3 13 3 21v10l-3 29l4 5c-3 0 -5 1 -5 4c0 1 0 2 1 3c1 4 2 6 5 6
c0 0 2 -1 3 -1c7 0 14 -13 22 -13c1 0 1 0 2 1c3 -8 16 -22 16 -29v-44l21 -21c8 -15 13 -27 20 -32c0 -15 2 -29 7 -44l5 -17c2 -5 4 -11 5 -16l8 -9v-16c13 -13 23 -22 28 -28c-1 -1 -1 -2 -1 -4c0 -7 7 -12 7 -13s0 -3 -1 -4l7 -4v-8c7 -5 11 -10 13 -13v-16l12 -8
c3 -5 4 -13 4 -24l8 -12l29 -29c0 -11 -2 -17 -5 -20c8 -5 12 -10 12 -17c0 -13 2 -22 5 -28v-12c2 -7 8 -37 16 -45c3 -5 6 -19 11 -42c4 -15 10 -27 18 -36l20 -12c11 0 33 -3 45 -3l8 -5c5 5 21 7 24 12v8c13 11 21 20 24 25v16l5 12l8 4l-8 5c0 8 3 15 8 20
c-11 19 -16 48 -16 89l-4 5c0 3 4 10 4 17v3l-4 12l4 4c1 5 -1 18 3 21c-2 4 -3 15 -3 32l-4 12l4 5c-3 4 -5 10 -6 17c-1 5 -2 7 -3 7c6 55 9 93 9 114c-3 1 -4 8 -4 21c-3 3 -13 10 -13 15c3 7 5 15 5 24c0 3 -3 17 -9 41v9c1 4 3 19 8 40c1 16 4 26 4 37l5 4v78l-5 3
c0 26 2 45 5 58c-3 5 -25 8 -66 8l-12 -17c3 -17 4 -31 4 -40v-16c-5 -27 -8 -45 -8 -53c-3 -3 -4 -5 -4 -6l4 -11c3 -21 5 -38 5 -50c0 -7 0 -12 -1 -15l-8 -24l4 -8v-5l-4 -7c3 -5 4 -16 4 -33l4 -5l-4 -3c-6 -17 -9 -36 -9 -57c0 -9 1 -25 4 -50c1 -7 1 -14 1 -21v-27
l4 -4c0 -7 -4 -19 -4 -20l4 -4c0 -7 -4 -20 -4 -21c2 -2 4 -5 5 -10v-2c0 -3 -2 -4 -5 -4v-16h-16v20l-9 12l-3 8v13l-9 12c-5 13 -9 23 -12 28l-4 4c0 7 -9 11 -9 18l1 3c-13 13 -21 23 -24 32c-1 4 -4 9 -8 16c-3 6 -5 10 -5 12c-9 12 -13 22 -16 29v8l-17 12
c0 18 -2 39 -7 62h-8l2 5c0 4 -8 9 -8 13c0 1 0 1 1 2l-7 12l-43 43c-14 19 -23 37 -27 55v12l-8 12v29l-8 12l-4 4v7v7c-3 6 -4 11 -4 14h-9c0 7 -8 20 -8 21l-8 8c-61 13 -98 20 -110 20c-7 -4 -15 -16 -20 -16c-5 -5 -2 -16 -9 -16c3 -5 5 -18 5 -37l28 -28v-131l-8 -12
v-28l8 -8v-29c-8 -5 -12 -13 -12 -24c-5 -20 -8 -46 -8 -82l12 -16v-29l-4 -3c0 -9 -8 -29 -8 -37c3 -9 5 -19 5 -28c0 -7 -1 -18 -4 -35c-1 -8 -2 -16 -2 -23c0 -5 0 -9 1 -12l-8 -8v-29l4 -4c-3 -5 -4 -19 -4 -44l-8 -9v-20l8 -21v-27l-5 -13c0 -4 1 -11 4 -21
c1 -6 2 -10 2 -13s-1 -3 -1 -6c12 -5 21 -11 28 -17z" />
    <glyph glyph-name="O" unicode="O" 
d="M327 0c4 1 7 2 10 3l-6 -3c4 1 8 3 12 5c1 0 2 0 3 1c8 3 16 6 23 9c5 2 9 4 14 5c7 3 13 6 17 9c6 3 10 5 13 8c3 1 5 3 7 5l6 3c2 1 4 2 5 3c3 1 5 3 6 4l7 4l2 1c8 4 15 8 21 11c1 1 3 1 4 2l2 3v1c1 1 1 1 1 2c1 4 3 8 4 11c1 1 1 3 1 5c1 3 1 5 2 7c0 1 0 2 1 3
c1 5 1 9 1 13l8 33c3 1 6 4 9 7l2 3c1 1 2 1 3 2s1 1 2 1l5 12c-1 1 -2 1 -3 2s-1 3 -2 5v8v1c0 2 0 3 1 4c1 2 2 4 4 5l-5 12l21 20c1 3 1 5 2 7l1 2c0 1 0 2 1 3c1 4 1 8 1 11v4c-1 3 -1 6 -2 9l-6 39v2c-1 5 -1 10 -1 13l4 13h-1h-1l-1 1l-1 1c-3 2 -5 5 -6 9
c-1 1 -1 3 -1 4c-1 3 -4 6 -5 6l3 12v8l9 4v11c1 2 1 4 1 5l1 2c0 1 1 2 2 3c-1 1 -1 1 -1 2c-2 5 -5 9 -9 13l-2 2c-2 3 -3 6 -4 7v4c1 1 1 2 1 4v2v3c0 1 0 3 1 4c0 4 0 9 1 14v15l9 8l-1 1l-1 2c-1 3 -3 5 -4 7l-1 2v2c-1 1 -1 2 -1 3c-1 3 -1 6 -1 9v7l-8 16v1
c0 1 0 3 1 4v6v5c-1 1 -1 3 -1 5l-1 5v4c-1 1 -1 1 -1 2v2l-1 4c-1 1 -1 2 -1 3v2c-1 3 -1 6 -1 9v5v5v1c1 1 1 2 1 3v50c-1 1 -1 1 -2 1c-1 1 -1 3 -1 5c0 1 0 1 -1 2v2c0 1 0 3 -1 4c0 1 0 1 -1 2c0 2 0 3 -1 4c-1 2 -1 4 -1 5l-3 6l-1 1l-4 21h-1c-1 1 -1 2 -2 3v2v1
c0 3 -1 5 -2 8c0 1 0 3 -1 4c-1 2 -1 4 -2 5c-1 2 -3 3 -4 4l-1 1c0 2 0 4 -1 7c0 1 0 1 -1 2s-1 2 -2 3s-1 3 -2 4l-2 4v1l-6 5c-2 3 -4 5 -5 7c0 1 0 1 -1 2v1v1l-8 9c-1 1 -1 2 -2 3l-2 3c-1 3 -2 5 -3 6c-1 3 -1 4 -2 5v3l-15 17c-4 2 -8 4 -12 5c-4 2 -8 4 -12 5
c-2 2 -4 2 -6 4c-3 2 -6 4 -9 5l-3 1c-5 -1 -9 -1 -13 -1h-13h-12c-9 1 -20 1 -34 2c-3 0 -6 0 -10 1h-3c-2 1 -4 1 -5 0c-2 1 -4 1 -6 1c-2 1 -4 1 -5 0c-2 1 -4 1 -6 1h-4c-1 1 -2 1 -3 1c-5 0 -9 0 -13 1h-9h-9c-17 -1 -33 -4 -47 -8l-9 -3c-2 -1 -4 -2 -5 -3
s-3 -1 -5 -2c-1 -1 -2 -1 -3 -2l-12 -13c-5 -8 -9 -15 -14 -21l-3 -3c-4 -5 -8 -9 -12 -12v-4c0 -3 -1 -8 -2 -13c-1 -1 -1 -1 -1 -2c-1 -4 -2 -8 -2 -11v-1v-1l1 -1l-21 -21c-9 -12 -15 -20 -20 -25l4 -57c-1 -3 -4 -9 -7 -17c-2 -6 -5 -10 -9 -12v-24c2 0 3 -1 4 -4
c1 -1 1 -2 1 -3v-1c1 -1 1 -2 2 -3v-1l2 -6v-1c1 -1 1 -2 2 -2h1c0 -5 -1 -10 -2 -13v-1c-1 -1 -1 -2 -2 -2l-8 -9v-30c0 -6 0 -11 1 -16c1 -13 1 -23 2 -32c-1 -3 -1 -7 -2 -10v-3c-1 -3 -1 -6 -2 -10c-1 -5 -1 -10 -2 -16v-5v-3c0 -4 -1 -7 -1 -11v-12v-4v-7
c1 -3 1 -6 2 -10v-5c1 -8 1 -15 1 -22v-9l1 -2v-6c-3 -1 -5 -2 -6 -4l-2 -2c-1 -1 -1 -3 -2 -6l-1 -2c-1 -2 -2 -4 -3 -5l-1 -1l-1 -1h-1v-74l8 -17v-4c1 -9 8 -22 9 -29v-3l8 -17v-13c1 -7 1 -12 2 -16v-1c1 -1 1 -2 2 -3l12 -12h2c1 0 1 0 2 -1c3 -1 5 -3 7 -6
c3 -3 5 -5 6 -5c1 -3 3 -6 4 -8l1 -2l2 -1c3 -3 4 -5 5 -6c1 -3 2 -6 2 -9c1 -1 1 -1 1 -2l1 -6v-3h4c3 0 6 -1 8 -4c2 -2 3 -4 4 -7v-2l2 -1c3 -3 7 -4 12 -5c2 -1 4 -1 5 -2c1 0 2 0 2 -1l2 -2l2 -2l12 -3c1 -1 2 -1 3 -1s2 0 3 -1c2 0 3 0 4 -1c2 -1 4 -1 6 -2
c1 0 3 0 5 -1h1c1 -1 2 -1 3 -1c1 -1 2 -1 3 -1h2c2 -1 4 -1 6 -2h4h2c1 -1 3 -1 4 -1c2 -1 4 -1 7 -1h1h2l6 1c1 0 3 0 4 1h6h16h12h3c1 0 2 0 3 -1h4c1 0 1 0 2 -1c3 -1 6 -1 9 -2l7 -3c3 -1 5 -2 7 -3c1 -1 2 -1 3 -2l6 -2l1 -1c1 -1 2 -1 3 -2s1 -1 1 -2zM265 127h-2
c-2 1 -5 3 -9 5c-1 1 -2 3 -5 4s-6 3 -9 5c-1 1 -2 1 -4 2s-4 3 -6 4c-4 2 -9 5 -14 8l-6 3c-4 3 -8 5 -11 7c-2 2 -4 4 -7 5c-2 1 -4 3 -6 5c-6 4 -11 8 -15 13l-1 1c-1 3 -1 7 -1 10c-1 2 -1 4 -1 6v6c0 2 0 4 -1 6v6c-1 5 -1 9 -1 14c-1 3 -1 5 -1 8c-1 11 -1 22 -1 31
v16v21c0 5 0 10 1 15l1 1l-8 13v1c1 1 7 10 8 14l-8 9v12v1c-1 4 -4 12 -4 17v3c-2 0 -3 0 -4 1l-1 1v2v1v3c1 5 2 7 4 8v2c-1 2 -2 4 -3 5v2v4v3v3c1 2 2 4 4 6c0 11 0 21 1 28v4l3 9v9c-1 15 -4 25 -8 30l-1 2v1v1c0 2 0 5 1 9l1 1c2 4 3 7 3 8v10v4c1 3 1 5 2 7
s1 11 2 28v26l8 12v13l12 37l13 20v9l1 1l3 3l2 1c3 2 6 4 11 7c1 0 1 0 2 1h1c6 3 11 7 14 11c1 1 1 2 2 2v2h1c2 1 4 1 7 2s6 1 9 2h3c1 1 2 1 3 1h3c1 0 2 0 3 1h6c1 0 3 0 4 1l15 1h13c11 0 21 -1 30 -2h4c1 -1 2 -1 3 -1h3c1 -1 2 -1 3 -1h2l4 8h33c1 -3 3 -5 5 -7
l1 -2c1 -1 3 -2 6 -3h2h3l1 -1l2 -1c1 -1 2 -3 3 -5l1 -2c1 -1 1 -2 2 -3l4 -4c1 -1 1 -1 1 -2l1 -1c0 -1 0 -1 1 -2l1 -3c2 -2 4 -4 6 -5c1 -1 1 -1 1 -2l2 -1l1 -1l2 -2c1 -1 2 -1 3 -2l-1 -1v-2v-3v-6c0 -1 0 -3 1 -5c0 -1 0 -3 1 -4c0 -1 0 -2 1 -3v-2c1 -1 1 -1 1 -2
l1 -1c2 0 4 -1 6 -3v-1c1 -1 1 -2 2 -3s3 -3 4 -5l7 -8c0 -1 0 -1 1 -2s4 -3 5 -3v-20l8 -21v-91l-4 -20l-4 -12l4 -12l-4 -13l4 -12l-4 -12c0 -5 0 -11 -1 -16l-1 -8v-4c-1 -3 -1 -5 -2 -8c0 -3 0 -5 -1 -7l-1 -7l-3 -12c-1 -2 -2 -5 -3 -8l8 -5l-8 -3v-11
c-1 -4 -1 -8 -1 -12v-6c-1 -11 -1 -24 -2 -38c-1 -9 -1 -17 -2 -24v-14v-8v-19l-1 -2c-1 -1 -1 -2 -1 -3c-1 -1 -1 -2 -2 -3s-1 -3 -2 -4c-2 -4 -4 -7 -5 -9c0 -1 0 -3 -1 -4v-4l-8 -12l-1 -2c0 -1 0 -1 -1 -2c-2 -2 -4 -5 -7 -8c-1 -1 -3 -3 -4 -5c-2 -2 -3 -4 -4 -7v-5
l-1 -1c-1 -1 -2 -2 -3 -2c-1 -1 -4 -3 -8 -5l-1 -1l-5 -3c-5 -3 -9 -5 -11 -8c-4 0 -9 0 -15 -1h-5c-1 0 -2 0 -3 -1c-4 0 -9 0 -14 -1h-15c-1 0 -2 0 -3 -1c-3 1 -5 1 -8 0c-7 0 -14 0 -20 -1h-23zM154 414l-1 1h1v-1z" />
    <glyph glyph-name="P" unicode="P" 
d="M100 0h4c8 0 21 1 34 4h5c1 1 1 1 2 1h3c1 1 1 1 2 1h1h6c1 0 2 0 3 1h2c3 1 5 1 8 1l13 12c0 2 0 5 1 8c0 1 1 3 2 5s1 4 2 6l1 5l1 1c0 1 0 3 1 4c2 5 3 9 4 12v1h-2c-1 1 -3 3 -4 6c-1 1 -1 2 -1 3v2c-2 7 -4 10 -5 10v25c-3 1 -4 1 -5 2s-1 3 -1 4v1c0 1 0 2 1 3
c0 1 1 2 2 3l3 2h-5c-1 1 -2 1 -3 2s-1 2 -2 3s-2 3 -3 5v7l-12 17v20c2 4 3 8 4 12c1 3 1 5 2 7c0 1 0 2 1 3c0 2 0 4 1 6v6l-4 12c-3 0 -6 1 -8 2l-1 1l-3 3l-1 3v4v4v8c2 1 3 2 4 4l1 1c1 2 1 4 2 6c1 5 3 9 6 9l-4 13v3c-1 1 -1 3 -1 5c-1 1 -1 1 -1 2s0 2 -1 3l-2 5
c-1 1 -1 3 -1 4c-1 1 -1 1 -1 2c-1 1 -1 3 -2 4v3v2c1 1 1 1 2 1c1 1 2 2 3 2c1 1 1 1 2 1v1c0 1 -1 2 -4 3l-2 1l-1 2v2v2v2c3 1 6 1 9 2l9 3c1 1 2 1 3 2h1l1 1h2c3 1 7 2 10 3c1 1 1 1 2 1h1h10l14 1h3h4c5 1 9 1 12 2c4 1 7 2 10 3s5 1 8 2c1 0 3 0 5 1c1 1 2 1 3 2l5 2
l6 -3l12 -3c6 -1 12 -2 19 -2c2 0 4 0 7 -1h11h15c1 -1 2 -1 3 -1l2 -1h2c1 0 1 0 2 -1h3h1c2 0 4 0 7 -1h1c1 0 1 0 2 -1h3h3c2 0 4 0 5 1h3c1 1 2 1 3 1c5 1 9 2 12 3h2h4l46 46c5 2 9 4 13 7c1 1 1 1 2 1c1 1 2 2 3 2c1 1 3 2 4 2c4 3 8 5 11 8l4 4c2 3 5 7 8 11
c1 1 2 3 3 5c4 5 8 10 11 15l3 5c3 5 6 10 8 14c1 1 3 1 5 2l1 1c1 2 3 4 5 6l2 2l3 3c2 1 4 1 5 2s3 1 4 1v61l4 8v54h-1l-1 1c-1 1 -1 2 -1 3s0 2 -1 3v14v1c1 6 2 12 3 19c0 1 0 1 1 2v6s0 1 1 2l1 6c0 1 0 3 1 5c0 1 0 3 1 6v7v6c-1 3 -1 5 -1 6v3c0 1 0 1 -1 2v2
c-1 1 -1 2 -1 3l-1 2v1l-12 12h-1h-1l-1 1c-4 1 -8 4 -13 7c-3 3 -4 3 -5 4c-4 2 -8 4 -13 6h-1c0 1 -1 1 -2 1c-2 1 -4 1 -6 2h-3c0 1 0 1 -1 2c0 1 0 2 -1 3s-2 3 -4 5l-4 4c-1 1 -1 1 -2 1l-3 4c-1 1 -3 3 -3 4c-1 2 -2 4 -2 6c0 1 0 2 -1 3s-2 3 -4 6l-1 1
c-1 3 -2 6 -2 8v2h-2c-1 0 -1 0 -2 1s-3 1 -4 2s-3 2 -4 3l-5 6l-1 -1h-8c-2 0 -5 0 -8 1h-1l-1 1c-6 3 -11 4 -14 5c-3 2 -5 3 -4 3h-13l-12 4l-12 -4c-7 1 -12 2 -17 3c-6 1 -11 2 -16 3c-1 1 -3 1 -4 1h-3c-4 1 -8 1 -11 1h-67c-15 1 -29 1 -42 2h-15c-3 1 -6 1 -9 1
l-13 1h-9c-15 1 -28 3 -39 4l-1 -1l-3 -3l-2 -2l-4 -2c-1 -1 -3 -1 -4 -2s-2 -1 -3 -1c-3 -2 -6 -4 -7 -5v-1l-1 -1c0 -1 0 -3 -1 -4c0 -2 0 -4 -1 -6c-1 -5 -1 -8 -1 -9c-7 -3 -10 -20 -13 -20c-3 -5 -5 -10 -6 -17c0 -1 0 -1 -1 -2c-1 -5 -1 -11 -1 -18l8 -5v-5l-1 -1
c-1 -2 -3 -5 -4 -10l-2 -2c-1 -1 -1 -1 -1 -2l3 -3c3 -3 6 -6 8 -9c1 -1 3 -2 4 -3s1 -2 2 -3c2 -3 3 -5 4 -7l1 -1c1 -1 1 -2 2 -3c0 -4 0 -7 -1 -10c0 -1 0 -2 -1 -3v-2l-1 -3v-2l-2 -2l-2 -3l-5 -29c3 -2 4 -7 5 -15v-5v-9l-1 -3l-1 -4c-4 -18 -6 -43 -7 -76v-6
c-1 -39 -6 -68 -13 -89l5 -8c-3 -12 -4 -27 -5 -45v-17l3 -3h1c1 -2 3 -4 4 -7c1 -1 1 -1 1 -2c1 -1 1 -2 2 -3s2 -1 2 -1c3 -5 4 -12 4 -21l-4 -13l-8 -4c-3 -22 -6 -40 -7 -54c0 -1 0 -3 -1 -5v-11c2 -10 3 -23 3 -39v-15c-2 -7 -4 -13 -6 -18v-2c-1 -3 -2 -7 -2 -10v-3
l-4 -95l4 -12l21 -21c4 0 9 -1 14 -4h1c1 -1 3 -1 4 -2c3 -1 6 -2 7 -2h3zM187 442c-1 0 -2 1 -3 2l-3 4c-2 3 -4 4 -7 5c-1 1 -3 1 -4 1h-16l4 13c0 2 0 4 1 7v1c1 1 1 3 2 4c1 2 1 4 1 7l2 2c1 3 3 7 6 12h-1l-3 3l-1 1c-1 4 -2 9 -3 16v2v1c-1 3 -1 5 -2 8v3
c-1 3 -2 5 -3 6l-1 1c-1 1 -1 3 -2 4v5v5c-1 11 -5 23 -5 35v6v8l-3 12v8l-9 4l-4 13v1c0 1 1 3 2 7c1 5 2 9 2 12l6 6c4 5 6 8 6 10c0 1 1 4 4 7l2 2c1 1 1 2 2 3l5 6v7l6 6c3 3 5 5 7 8c1 2 2 4 3 5s3 3 3 4l2 2l12 5h3c1 1 2 1 3 2c1 0 5 5 8 6c2 2 4 3 6 4l5 -1
c1 0 2 0 3 -1c5 -1 10 -1 14 -1c2 -1 4 -1 7 -1h9l4 -8h29l12 8c1 -1 3 -1 4 -2c1 0 2 0 3 -1c4 -1 8 -2 13 -3c13 -3 27 -6 43 -9c6 -1 12 -2 17 -3c3 0 5 0 6 -1c8 -1 17 -1 26 -2l12 -9l3 -2l1 -2c3 -4 5 -9 8 -15l3 -9l2 -5c1 -4 3 -7 5 -10c1 -1 2 -3 3 -4s1 -3 1 -4
c2 -2 4 -4 7 -6h1l16 -49c0 -9 0 -18 -1 -26v-6c-1 -5 -1 -10 -2 -15c-1 -1 -1 -3 -1 -4c-1 0 -2 0 -3 -1h-1c-1 -1 -1 -1 -2 -1l-2 -2c-1 -2 -3 -3 -5 -4s-4 -1 -6 -1h-1h-1l-2 -1c-1 0 -1 -1 -2 -2l-2 -2v-2c-1 -1 -1 -3 -2 -4v-1c-1 -3 -4 -3 -4 -3c-1 -1 -1 -1 -1 -2
c-1 -2 -1 -4 -2 -6c-3 -10 -6 -18 -9 -24c-1 -5 -2 -8 -3 -10l-1 -2l-1 -1c-1 -1 -2 -1 -3 -2c-1 0 -1 0 -2 -1c-4 -2 -8 -4 -11 -5c-2 -1 -4 -1 -5 -1s-3 -2 -8 -6l-1 -1l-2 -2l-3 -3c-2 -1 -4 -2 -7 -3c-1 -1 -1 -1 -2 -1h-1l-1 -1h-2c0 -1 -1 -1 -2 -1h-2
c-1 0 -1 0 -2 -1h-3c-8 -1 -17 -2 -27 -3h-12h-13h-14c-4 1 -8 1 -13 1h-10l-1 1h-8c-9 0 -14 -1 -18 -1l-5 -7c-1 0 -1 0 -2 -1c-11 -1 -20 -2 -29 -3h-2c-5 -1 -9 -1 -14 -1h-6z" />
    <glyph glyph-name="Q" unicode="Q" 
d="M392 -153h4h8c2 0 4 0 5 1c8 1 15 2 22 3c7 2 13 5 19 8l3 -1c4 0 8 2 13 5h1l1 1c4 2 8 3 11 3v9h1c1 1 3 1 4 1c2 2 3 6 3 12v3v1c1 1 1 2 2 3l3 3c3 3 5 6 8 9c8 8 18 18 29 30v21l1 25c1 1 1 3 1 4v12c1 5 1 10 1 15c1 9 1 15 1 18l-4 13h-2c-1 1 -1 2 -2 3l-11 10
l-1 2c-1 1 -1 1 -2 1l-3 2c-1 1 -2 1 -3 2c-2 1 -4 1 -5 1c-5 -1 -9 -3 -13 -5l-1 -1l-3 -2c-1 -1 -3 -1 -4 -1s-1 0 -2 -1c-3 -1 -5 -2 -6 -2l-12 -13v-21l-2 -2s0 -1 -1 -2s-1 -1 -1 -2l-1 -4v-5v-6l-4 -12l-13 -12c-2 -3 -4 -6 -7 -8h-1h-46h-7l-3 1c-2 1 -4 3 -5 4l-4 4
c0 1 0 2 -1 3s-3 2 -4 5c-1 2 -1 5 -1 8v3l4 4l2 1l1 1c1 1 1 2 2 2c1 1 1 2 2 2c1 1 1 2 1 3c1 1 1 2 2 3c2 3 4 5 6 6l1 1c2 1 3 1 4 2c3 0 6 2 8 7v2c1 2 2 4 3 5l1 2l1 1v4c1 1 1 2 1 3l1 1l2 4c1 3 3 5 5 8l3 3l5 6l1 1c2 1 4 3 6 4l9 10c7 5 13 13 17 14h8v8l5 5
c3 4 6 7 7 9c1 1 1 2 1 3l12 16v29l1 1c1 3 2 5 2 8c0 1 0 2 -1 3c-1 2 -1 3 -2 4v1l1 1c1 2 1 4 2 6l2 7l1 4c1 3 2 6 2 9c1 2 2 3 3 4l2 2l4 42c-1 1 -1 2 -1 3c-1 2 -1 4 -1 5s0 2 -1 3v5c0 2 0 4 -1 6v27v9c-3 1 -6 2 -7 3s-2 3 -3 5v3l-3 14l5 16c0 2 1 5 2 9
c1 3 1 5 2 7v2l-1 3l-8 17c0 1 0 3 -1 4c0 3 0 5 -1 7s-2 4 -3 5v2c-1 1 -1 3 -1 4c-1 3 -2 6 -2 7c1 2 2 4 3 7v4v1c1 6 2 12 2 19c0 3 0 7 -1 12v2c-2 5 -1 11 -1 17v1c0 1 0 2 -1 3c1 1 1 2 0 3c0 4 -1 7 -1 11v2c0 1 0 1 -1 2v4v8c0 1 0 2 1 3c1 2 2 4 2 5c1 1 1 3 2 5
s1 4 1 5l1 3c3 9 5 13 6 16l3 8c0 1 0 1 -1 2v2c0 1 0 1 -1 2v3c0 1 0 3 -1 4v21c-2 1 -4 1 -6 2l-3 3c-1 1 -1 3 -2 5c-1 4 -3 7 -4 8l-2 2c0 6 0 11 1 15c2 9 6 15 11 20l1 1l2 1h2v1c1 2 1 4 2 6l1 5v4v13l-3 13l-8 8l-3 3c-1 2 -3 4 -4 5s-1 2 -2 3l-1 2l-2 3
c-1 1 -1 2 -2 3v2c1 1 1 3 1 5v2c-1 1 -1 3 -1 4v2l-1 1v7v2l1 2c-1 0 -1 1 -2 4s-1 7 -1 13l-1 1l-1 1l-3 3c-1 1 -2 1 -3 2c-3 1 -5 6 -5 8v2c-9 2 -16 4 -21 6c-2 1 -3 1 -4 1c-2 1 -3 1 -4 1l-1 1c-1 1 -2 1 -3 1l-3 3c-1 0 -3 1 -4 2c-1 0 -1 0 -2 1l-3 3
c-3 1 -5 3 -6 4s-2 1 -3 2c-2 -1 -3 -2 -4 -2h-1h-2c-1 0 -1 0 -2 1l-1 1c-1 0 -2 0 -3 1h-2c-1 1 -2 1 -3 1l-2 1h-1l-13 9h-1c-2 1 -4 1 -6 2h-3h-3c-2 0 -4 0 -6 1l-1 1h-2l-2 -1h-1h-1h-2h-14c-1 1 -2 1 -3 1h-6c-1 1 -2 1 -3 1l-6 1h-2c-1 1 -1 1 -2 1h-6
c-1 1 -3 1 -4 1h-4c-1 1 -2 1 -3 1h-2c-1 0 -2 0 -3 1h-5c-1 0 -1 0 -2 1h-4c-2 0 -4 0 -6 1h-4c-5 0 -9 0 -12 -1h-3c-3 -1 -5 -1 -7 -2c-1 0 -2 0 -3 -1s-2 -1 -3 -2s-3 -1 -4 -2h-2l-1 -1c-1 -1 -4 -1 -7 -1s-6 0 -9 -1h-3h-3c-2 0 -4 0 -6 -1c-3 0 -7 0 -11 -1
c-1 0 -1 0 -2 -1c-1 0 -2 0 -3 -1c-1 0 -3 0 -4 -1c-5 -5 -16 -11 -33 -17v-8c-15 -5 -28 -15 -38 -30l-10 -13c-2 -3 -4 -6 -6 -7c-1 -9 -2 -17 -3 -24c-1 -5 -1 -9 -2 -13c-3 -31 -4 -54 -4 -71v-8v-3c1 -13 2 -25 3 -36v-4c0 -5 0 -10 1 -15v-11v-15l5 -12
c-6 -2 -9 -6 -10 -11l-3 -14c-1 -6 -3 -12 -4 -17v-3c-2 -9 -4 -17 -5 -24c-1 -12 -2 -22 -3 -30v-4c0 -3 0 -5 1 -7c1 -1 1 -2 1 -3c1 -3 2 -7 3 -10l5 -11c1 -1 1 -1 1 -2l1 -3v-2l-9 -5c5 -6 8 -10 9 -12v-1v-57l-9 -4c-1 -5 -2 -13 -3 -22v-11l3 -13l-3 -8v-42
c-1 -1 -1 -3 -2 -4l-1 -1c-1 -4 -1 -9 -2 -15v-8v-13l1 -1c3 -2 5 -6 7 -11c2 -3 4 -6 5 -8h1c1 -1 2 -1 3 -1c-1 -1 -1 -3 -1 -6v-4c1 -5 2 -9 4 -12l2 -4l3 -4c2 -2 4 -4 5 -7l3 -13c0 -3 0 -7 1 -10s2 -7 3 -10l3 -9c1 -1 1 -1 1 -2c1 -2 1 -4 1 -6c1 -1 1 -2 1 -3l2 -2
c5 -7 9 -12 14 -16c16 -4 28 -7 37 -8h3h5c4 -4 11 -9 20 -15l7 -4c1 0 1 0 2 -1c5 -3 10 -7 13 -10c3 -1 7 -3 12 -4h2c1 -1 2 -1 3 -1l1 -1h4l8 -1c6 -1 11 -1 16 -2h1h4c1 -1 3 -1 4 -1c1 -1 2 -1 3 -2l12 -12v-1c1 -1 1 -3 1 -4s0 -2 1 -3c0 -3 0 -7 1 -10
c0 -7 0 -14 1 -23v-22l5 -12c9 -9 16 -18 22 -25l4 -4c0 -1 1 -2 2 -3c1 0 1 0 1 -1c1 -3 3 -5 5 -6c3 -4 5 -7 7 -10l1 -1c3 -1 6 -2 10 -3h4c4 -1 8 -1 12 -1c5 0 9 0 14 1h4c2 0 4 0 5 1c2 0 5 0 8 1c1 0 1 0 2 1h3zM350 166v79h-1l-1 1c-1 1 -1 3 -2 5v15l-4 13l4 13
c-1 1 -1 2 -1 3c-1 7 -3 14 -5 20c-3 9 -5 17 -7 22c-1 1 -1 3 -2 4v2l-1 1v1l-2 1c-1 1 -3 2 -4 4l-1 2c-1 4 -2 10 -2 18l-3 13l-14 11c-4 2 -7 4 -10 7l-1 1c-1 2 -1 4 -1 6c-2 1 -4 1 -6 2c-4 3 -7 5 -10 6c-2 1 -4 3 -6 4c-1 0 -4 2 -5 2l-6 3c-1 1 -3 2 -4 3h-10
c-1 1 -3 1 -4 1h-3c-3 1 -6 1 -10 2s-8 1 -12 2h-4c-5 1 -8 1 -11 1c-11 0 -21 -2 -29 -6h-37c-2 7 -4 13 -5 18v7c2 0 4 0 5 1l1 2v2c0 -1 -1 3 -4 10l-1 2v2c0 2 1 4 4 6l-5 12c0 4 5 14 5 17l-5 8c0 12 1 39 4 86c1 21 2 40 2 57v9l-1 1v7v3v12c1 1 1 1 2 1l2 2
c13 6 21 9 24 9c13 5 27 15 42 30h9c1 0 3 0 6 1c1 1 1 1 2 1c2 1 4 2 6 4l1 1c5 4 10 7 14 8l4 1h9c2 1 4 1 7 1h5c5 1 10 1 15 2h4h2c3 0 7 0 10 1h10v-2c0 -1 0 -1 1 -2s3 -4 5 -7l6 -6c1 -1 1 -1 2 -1c4 0 7 -1 10 -2l2 -1c1 -1 3 -2 5 -3c3 -1 5 -1 8 -2
c4 -2 8 -3 11 -4h3h6c3 0 6 0 7 1c1 -1 2 -1 3 -2l2 -5c1 -1 1 -3 2 -4c1 -3 3 -4 6 -5v-13c3 -8 5 -16 7 -23c1 -1 1 -3 1 -5l2 -7v-2c1 -1 1 -1 1 -2c1 -1 1 -3 1 -5c1 -2 1 -4 2 -6c1 -1 1 -3 1 -6c1 -3 1 -5 2 -7l4 -12l-1 -2v-1c-1 -2 -1 -4 -1 -6v-3v-5
c0 -3 0 -7 1 -10c1 -1 1 -2 1 -3v-2c1 -1 1 -3 1 -5c1 -1 2 -3 3 -4l4 -9c0 -7 0 -14 -1 -21c0 -6 0 -13 -1 -20c-1 -1 -1 -3 -1 -4c-1 -7 -2 -16 -3 -25c-1 -3 -1 -7 -2 -10v-7l4 -58l-1 -1c-2 -3 -4 -7 -6 -10c0 -1 0 -2 -1 -3v-1v-1v-27c0 -7 0 -14 -1 -21
c0 -9 0 -18 -1 -27c-1 -3 -1 -6 -1 -9c-1 -12 -2 -23 -3 -33c0 -1 0 -2 -1 -3c-1 -7 -1 -14 -2 -21c-1 -3 -2 -7 -3 -10c-1 -1 -1 -3 -1 -4v-49l-4 -13h-2l-1 -1c-1 -1 -2 -1 -3 -2l-2 -2l-5 -5h-1c-1 -1 -2 -1 -3 -1l-1 -1c-1 -1 -1 -2 -2 -3l-3 -3c-2 -4 -5 -6 -9 -7h-3
h-3zM242 117c-5 0 -9 1 -14 2c-6 2 -11 5 -16 8c-1 1 -3 3 -4 3l-3 4c-3 0 -6 2 -9 5c-3 4 -6 6 -9 7h-2c-7 9 -12 16 -17 20l-1 1c-1 2 -1 4 -2 5c-1 2 -2 4 -3 7c-1 5 -2 10 -2 13v4h-1c-1 0 -3 2 -4 5h-1c0 1 0 2 -1 2c-2 3 -4 5 -6 5v6c-1 3 -1 6 -1 9c-1 1 -1 2 -1 3v1
c-1 1 -1 3 -1 4l-1 2c-1 1 -1 2 -2 3v2v2c0 1 1 3 2 5l-8 5c1 3 1 5 2 8c0 1 0 1 1 2c1 2 1 4 1 5l1 1l2 7l3 12v2c1 1 1 3 1 4l1 1c3 3 6 5 10 8c9 7 20 12 31 16c6 1 13 3 20 5c3 1 7 1 10 1c1 0 3 0 4 1h5c2 0 4 0 6 1h9l8 -8c2 -3 4 -5 5 -8l4 -4h2h1c3 -1 5 -3 6 -7
l1 -2c2 -2 5 -3 8 -3h2v-17c1 -2 1 -4 1 -5v-4c1 -1 1 -3 1 -4c1 -3 1 -6 2 -8l1 -1v-32c1 -16 1 -28 2 -36c1 -5 1 -9 2 -10v-2l-1 -2c-1 -1 -1 -2 -2 -3l-2 -2l-1 -1c-1 -1 -1 -2 -2 -3s-1 -3 -1 -4l-8 -4c0 -1 0 -3 -1 -4c0 -1 0 -1 -1 -2s-2 -3 -3 -5v-1
c0 -2 0 -4 -1 -5l-1 -1l-1 -4v-3l-1 -1c-1 -1 -4 -2 -7 -5c-2 -3 -4 -4 -7 -5c-1 -1 -1 -1 -2 -1h-4z" />
    <glyph glyph-name="R" unicode="R" 
d="M89 0h38h3h3c2 1 4 1 7 2l5 2c5 2 9 3 11 4h1l3 3c1 1 2 1 2 1c3 2 6 4 9 7c4 2 6 3 7 4v1v35c-1 0 -1 0 -2 1l-1 2v4c-1 1 -1 2 -1 3v4v8c2 2 4 5 5 8l1 3c0 2 0 4 1 5v4v4c0 1 0 3 -1 4v1c-1 2 -1 4 -1 5c-1 1 -1 1 -1 2v2v5c0 2 0 4 -1 5v3c0 1 0 2 -1 2v2
c-1 2 -1 3 -2 4l-3 9c-1 5 -2 9 -3 13c-1 1 -1 3 -1 4v5c-1 5 -1 10 -2 15v22l-8 12l-5 8v30l5 13l8 13l-8 8v13l8 4c1 3 1 7 2 10v4c1 1 1 3 1 4l1 7v7c1 6 1 12 1 19l8 9c20 -5 37 -10 50 -13c5 -1 10 -2 14 -3c2 -1 4 -1 6 -2c2 0 4 0 5 -1c3 -1 6 -1 8 -2c2 0 4 0 5 -1
c4 -1 7 -2 10 -3h3h4h1l13 -9c7 -9 12 -15 17 -18c1 -1 3 -2 4 -3l4 -13v-9h1c1 -1 1 -3 2 -4c4 -5 6 -10 6 -13v-4c0 -3 1 -6 2 -8c1 -1 1 -3 1 -4c1 -1 2 -3 3 -6c2 -4 4 -8 6 -13l3 -6l1 -1v-38c1 -1 1 -3 2 -4l2 -2l4 -2c1 -1 1 -1 2 -1c1 -1 1 -3 2 -4c0 -1 0 -2 1 -3
v-1h9v-5l1 -4l2 -1c2 -3 3 -5 4 -6v-1c-1 -1 -2 -3 -3 -4l3 -4l4 -4c1 0 1 0 1 -1l2 -2c0 -1 1 -3 2 -4s2 -3 3 -5c1 -1 1 -2 2 -4s3 -4 4 -7c0 -1 0 -2 1 -3s1 -1 1 -2s0 -3 1 -4l1 -3v-46l13 -22l1 -1c1 0 1 -1 1 -2c1 -1 1 -3 1 -5s0 -4 1 -6v-7l18 -12h39h15h5l2 1
c3 0 6 0 8 1s4 1 6 1c1 1 3 1 5 1c1 1 3 1 5 2c4 1 7 2 9 3c3 2 5 4 8 5c1 1 3 2 4 3c0 1 0 1 1 1c1 1 3 2 4 3s2 3 3 4v4c0 4 1 7 2 9l2 2c1 1 2 2 4 2c-1 2 -2 4 -3 7c0 2 -1 4 -2 5l-3 9v1c-1 1 -1 1 -1 2c-1 2 -1 4 -2 5c-1 3 -1 5 -2 8v1c-2 3 -4 5 -7 7
c-5 6 -9 11 -12 15c0 1 0 1 -1 2l-2 2l-2 3c-2 3 -4 5 -5 8v1c-2 2 -5 4 -8 7l-5 4l-2 2c-1 1 -2 1 -3 2c-5 3 -8 5 -10 8c-1 1 -1 2 -2 3v43c-1 1 -1 1 -2 1c-5 5 -9 10 -12 13c-3 4 -6 7 -9 10s-7 6 -10 9s-6 6 -9 8l-5 5v8l-13 13c0 4 0 9 -1 14c-1 4 -2 8 -2 11v4l-9 5
c0 3 0 6 -1 9v3l-1 6c0 3 0 5 -1 8s-3 7 -4 12c-1 2 -1 4 -1 5c-3 1 -7 9 -15 14c-1 1 -1 1 -2 1l-2 2c-1 1 -1 2 -2 3c0 1 0 1 -1 2c-1 3 -3 5 -4 7l5 12c7 5 13 8 19 11h4h2c2 1 4 1 7 2h6l13 9l16 4l7 7c3 3 6 7 9 10l1 1l2 2l4 4c1 2 3 4 4 6c1 1 2 3 3 4l8 4l13 22v38
l4 12l22 13l-5 43c0 1 0 2 1 4c1 1 1 1 1 2c0 2 0 4 1 6v2c0 1 0 3 1 4v6c0 2 0 4 1 6v11c-1 1 -3 3 -4 5l-3 6l-2 2l-1 2c-2 4 -3 7 -4 10c-1 1 -1 3 -2 5v1l-1 5v2l-5 13v1v2c0 1 0 1 -1 2v3c-1 1 -1 3 -2 5l-1 1c0 2 -1 4 -2 7c0 1 0 2 -1 3s-1 1 -1 2v9h-1l-3 2
c-2 1 -4 3 -5 4c-3 3 -6 7 -9 11c-3 5 -5 10 -7 16v13l-5 5c-8 7 -16 14 -23 20l-3 3l-7 6l-5 8l-2 -1h-5h-6h-6h-2v1l-9 9h-13c-1 0 -2 0 -3 1h-4c-7 1 -15 3 -22 6s-15 5 -22 8c-1 1 -1 1 -2 1c-1 2 -3 4 -6 5h-7c-1 1 -4 1 -8 2c-1 1 -3 1 -4 1h-2h-3c-2 1 -4 1 -5 1
c-3 0 -7 0 -10 1l-8 1c-1 0 -2 0 -3 1c-5 1 -9 1 -13 1l-10 1c-1 0 -2 0 -4 1c-5 1 -9 1 -13 1h-2c-14 1 -27 2 -40 3h-13h-16l-17 -1c-6 -1 -12 -1 -17 -2c-3 0 -5 0 -8 -1c-2 -1 -5 -1 -8 -1c-2 -1 -4 -1 -7 -2s-7 -1 -10 -2c-2 -1 -4 -1 -7 -1c-5 -1 -10 -3 -15 -4
l-12 -9c-6 -12 -18 -24 -28 -36c-3 -1 -4 -4 -4 -4l-2 -4v-2v-21l8 -9c7 -9 13 -14 17 -16l4 -60c3 -13 5 -25 6 -35c0 -1 0 -2 1 -3c1 -7 1 -14 2 -19v-6c-1 -2 -2 -4 -3 -7v-2v-4v-7c1 -1 2 -1 3 -1c2 -7 4 -14 5 -19c1 -1 1 -2 2 -3v-1c3 -6 5 -11 6 -15l-1 -1v-1
c0 -1 0 -2 -1 -3c-2 -7 -3 -20 -3 -38l5 -13c-8 -5 -14 -30 -22 -30v-38l9 -8v-38l-9 -13c0 -2 0 -5 1 -9v-9v-19c0 -6 0 -11 1 -15c1 -3 2 -6 3 -8c-1 -3 -2 -7 -3 -11v-3c0 -1 0 -2 -1 -3v-1c-1 -8 -2 -16 -3 -23c-1 -11 -2 -20 -2 -27c-1 -9 -2 -21 -3 -34v-6
c0 -1 0 -3 -1 -4v-48c-6 -2 -6 -14 -8 -21v-2c-1 -1 -1 -1 -1 -2h-1c-1 -1 -1 -3 -2 -7c0 -1 0 -3 -1 -6v-30v-17v-7c1 -2 1 -5 2 -8c1 -5 2 -8 3 -10v-1l12 -12c1 -1 2 -1 3 -1s1 0 2 -1c5 -1 9 -1 13 -2c1 0 3 -1 6 -2s6 -3 9 -6zM203 449c-2 3 -6 5 -11 7l-5 2
c-1 0 -3 0 -5 1l-6 1c-1 0 -2 0 -3 1h-5h-6h-10l-12 10v3c0 1 0 3 -1 4c0 4 -1 7 -2 8l-1 1v16v10v7c0 4 0 7 1 10v4c1 2 1 4 1 5c1 2 1 4 1 6l1 2c5 3 8 18 17 25l-5 13c0 13 1 23 4 31l1 1c1 2 3 4 4 6c1 3 1 7 1 14v8v3l-1 6v2c-1 7 -2 13 -3 18v3c-1 6 -1 11 -1 14l13 8
l5 -2c1 -1 3 -1 5 -2c3 -1 6 -1 9 -2h2c2 -1 4 -1 5 -1s2 0 3 -1h3h6c0 2 1 4 4 6l3 3c1 1 1 1 2 1l4 4c2 2 3 4 4 7l8 -4c1 -1 2 -1 3 -2l3 -1h1c1 0 2 0 3 -1c2 0 4 0 6 -1h5h8h8c7 1 13 1 19 1h20l7 3c3 1 7 3 11 4l1 1c3 1 5 2 7 3c1 0 3 0 4 1c1 0 3 0 5 -1
c1 0 3 0 5 -1c3 -1 4 -1 5 -2h6l13 -8l22 -22l1 -1c1 -1 2 -1 3 -2s3 -1 5 -2c7 -3 10 -5 11 -8h21c1 -3 3 -6 4 -9c0 -1 0 -3 1 -4s1 -2 2 -3v-2l1 -5c1 -2 1 -4 1 -6l13 -13v-25l13 -9c0 -1 0 -2 -1 -3c-1 -5 -7 -14 -8 -22v-3v-1c-1 -1 -1 -2 -1 -3s0 -2 -1 -3
c-5 -9 -10 -17 -13 -25c-1 -2 -3 -4 -4 -6c-3 -5 -6 -9 -8 -14c-3 -5 -5 -9 -7 -13c-1 0 -1 0 -1 -1l-1 -2c-1 -1 -2 -3 -3 -4c-2 -2 -5 -4 -10 -6h-3c-4 -1 -9 -3 -14 -6c-1 -1 -3 -1 -6 -2c0 -3 -2 -6 -5 -9l-1 -1c-1 -1 -1 -1 -1 -2v-1l-1 -1v-2v-2h-1c-3 0 -10 0 -19 -1
h-4c-1 -1 -3 -1 -5 -1c-3 0 -5 0 -7 -1c-1 0 -2 0 -3 -1l-4 -1l-3 -1h-2l-1 -1c-1 -1 -1 -1 -2 -1s-2 0 -3 -1c-1 1 -3 1 -5 0c-2 0 -4 0 -7 -1h-12h-38h-19l-2 -1h-16h-14c-3 -1 -5 -1 -8 -1h-4z" />
    <glyph glyph-name="S" unicode="S" 
d="M223 0h78l4 8c8 0 15 -3 20 -8h37c14 5 21 7 21 8c3 1 7 2 12 2c4 0 7 1 8 2l13 8c15 15 27 24 32 29c8 3 19 12 26 12c13 21 20 35 21 36c1 5 3 11 6 16c5 7 8 11 9 14l8 5l5 12c2 5 3 21 3 49l5 5c-3 3 -5 9 -5 20l5 4c-1 3 -2 9 -2 18c0 4 1 9 1 13v7
c0 11 -1 17 -4 24l-8 8l-8 4v9l-8 12c-8 8 -13 12 -16 12c-3 6 -5 13 -5 20c-21 21 -34 35 -45 46c-14 0 -35 20 -45 20l-4 5c-3 2 -7 3 -14 3h-1c-7 0 -12 1 -15 3l-14 10c-7 5 -13 8 -18 8c-33 19 -58 32 -73 41c-15 13 -25 24 -34 28l-12 9v3c0 7 -12 9 -12 14
c-5 6 -7 11 -8 16v9l3 3c-8 8 -12 15 -12 21c3 7 4 20 4 37l5 12l3 5l-3 12l2 2l4 6c1 1 2 3 2 6v2c7 1 17 18 36 25l17 16h8l12 4c7 3 14 5 21 5c19 7 32 11 37 11s11 -1 17 -3c3 -5 20 -10 20 -17h21c8 -8 17 -12 28 -12c10 -11 16 -21 17 -29v-8c9 -10 16 -17 20 -20
l13 -5c7 -3 16 -4 25 -4c4 3 11 12 16 12c0 3 1 7 4 12c1 1 1 3 1 6c0 1 0 2 -1 3l-4 13l4 3l-8 17v9l-4 3v9c-9 9 -13 14 -13 16c-30 33 -60 55 -90 65c0 6 -6 9 -17 9c-9 4 -34 6 -41 13c-28 3 -49 4 -68 4h-12c-3 0 -7 0 -10 -1l-13 -3c-3 -9 -9 -13 -16 -13l-4 -9
c-12 -3 -29 -4 -33 -12c-3 0 -7 -1 -12 -3c-2 -1 -4 -2 -6 -2s-4 1 -7 2c-3 -7 -12 -14 -12 -17v-9c-5 -1 -14 -12 -17 -12c-9 -16 -17 -27 -24 -33c-5 -27 -11 -48 -16 -61l-4 -4c0 -18 -2 -28 -5 -29c3 -6 5 -20 5 -42l16 -36c5 -10 9 -18 13 -25c-1 -1 -1 -3 -1 -5
c0 -3 1 -5 3 -7c6 -7 9 -11 10 -13c23 -20 40 -34 49 -45c11 -5 18 -8 20 -8c15 -11 24 -18 29 -25h9v-8c7 0 13 -2 19 -7c5 -3 8 -6 13 -9c11 -5 18 -8 21 -8c20 -12 33 -19 41 -26c10 -10 24 -19 42 -27c7 -3 15 -7 22 -11l23 -11l3 -8c9 -3 12 -14 17 -29v-4l-4 -8v-54
l4 -12l-4 -4v-8c-5 -7 -22 -40 -33 -45c-5 -3 -16 -1 -21 -4c-11 -7 -19 -11 -25 -13h-90c-1 0 -5 3 -13 10c-5 5 -10 7 -15 7c-27 27 -44 48 -50 65v17h-8c0 5 -12 11 -12 16c-8 4 -19 6 -34 6c-9 0 -27 -1 -52 -6l-13 -12l-4 -12c3 -8 12 -22 12 -29l5 -8v-12l-5 -5
c3 -1 5 -5 5 -11s1 -9 3 -9v-4c11 -6 17 -12 17 -17c1 -4 12 -15 12 -20c17 -20 28 -35 33 -46c24 -13 41 -22 53 -29l5 -8c7 -3 12 -6 17 -7z" />
    <glyph glyph-name="T" unicode="T" 
d="M291 0h24c23 9 39 19 48 20c0 5 12 11 12 16c0 13 1 20 3 21c-5 6 -7 19 -8 40c-1 20 -4 33 -7 40l-4 4c-9 27 -14 60 -16 100l-6 73c-1 16 -2 24 -2 25l12 12c0 8 1 13 4 16c-9 3 -4 20 -12 20c-1 0 -1 1 -1 2s0 3 1 4l2 5c-1 1 -2 2 -3 2l-3 -1c-5 5 -3 17 -8 21
c5 16 7 35 7 58c0 17 -2 37 -3 58c-9 21 -13 37 -16 49l8 12l4 7c-3 3 -4 9 -4 18s1 19 4 31c0 12 1 19 3 20c-2 1 -3 8 -3 21l12 7c5 2 14 3 26 3c10 0 17 1 22 2l12 12h12c10 -5 18 -8 24 -9c9 -8 13 -13 13 -15c0 -9 12 -24 12 -29c0 -13 1 -22 4 -28v-16c5 0 8 -6 8 -17
c8 0 27 -7 32 -7l12 7c3 5 12 12 12 17l4 12c-3 9 -4 23 -4 40c4 5 6 11 6 20c0 8 2 12 6 13c-5 19 -8 47 -8 84l-4 12l-8 12c-5 0 -11 2 -18 5c-8 4 -14 6 -18 7h-4c-7 -5 -22 -2 -24 -8c-44 3 -169 5 -384 5c-5 -6 -11 -9 -19 -9l-8 -12c0 -10 2 -24 7 -42s8 -32 8 -42
c6 -9 9 -20 9 -33c2 -2 3 -9 3 -20c-2 -1 -3 -7 -3 -20c2 -2 3 -7 3 -16c11 -15 18 -28 21 -37c5 0 15 -3 20 -3l12 8l9 7c-3 17 -5 42 -5 73c0 7 8 19 8 22h1l2 1c4 0 9 -1 17 -2c3 0 4 -1 5 -1c5 0 9 1 12 4c13 -4 27 -6 40 -6c11 0 23 2 36 6v-28l4 -4l-4 -4
c3 -3 4 -10 4 -20c-3 -3 -4 -9 -4 -20l4 -4l-4 -4c3 -3 4 -10 4 -20v-37c0 -7 -1 -13 -4 -16l4 -8c0 -7 -1 -13 -4 -16c3 -3 4 -10 4 -20l-4 -4c-3 -21 -4 -53 -4 -97c0 -43 -1 -76 -4 -96c-8 -4 -12 -21 -16 -21c-3 -13 -5 -26 -5 -39c0 -8 1 -21 2 -38c1 -16 3 -28 3 -36
c-3 -9 -6 -18 -8 -25l-4 -19c5 -8 7 -32 12 -41c-5 -4 -7 -21 -12 -24v-20l-8 -4l8 -12c5 -9 11 -15 20 -20h52z" />
    <glyph glyph-name="U" unicode="U" 
d="M312 0l12 4c32 11 57 17 73 20c15 10 25 17 28 21l12 8c8 14 15 23 21 28h16c3 8 16 15 16 20v17c11 9 18 17 21 24c-1 1 -1 2 -1 5c0 8 4 16 4 23l5 5l-5 3c0 7 5 18 5 21c-3 9 -5 20 -5 32l5 8c-3 12 -5 30 -5 53l5 8c5 17 7 30 7 40l-7 4c-3 19 -5 45 -5 78l5 12l7 3
c-3 3 -5 8 -5 16c0 5 -2 8 -7 8c-2 13 -3 29 -3 50l3 12c-2 2 -3 9 -3 20c-1 1 -3 5 -8 9c-1 3 -2 4 -2 5c0 4 13 14 13 19l5 7c-3 11 -7 25 -12 41c9 17 15 27 19 32l-7 8c5 10 7 30 7 61l5 4c-3 7 -5 24 -5 49c-8 8 -12 13 -12 16c-7 6 -16 12 -27 17h-45
c-8 -11 -15 -18 -20 -21l-13 -17v-48c7 -3 10 -17 13 -17l3 -15l-3 -4c9 -81 15 -142 20 -183c-5 -9 -7 -20 -7 -31c0 -12 2 -25 7 -38c-1 -3 -2 -6 -2 -7c0 -2 1 -4 2 -7c3 -4 4 -7 4 -10l-4 -4c-1 -1 -2 -6 -3 -13c-1 -5 -2 -7 -5 -7c0 -30 3 -52 8 -65c0 -14 1 -24 4 -29
c-3 -1 -4 -7 -4 -19l-8 -9c1 -1 1 -4 1 -8s0 -7 -1 -9c-3 -7 -4 -12 -4 -15l-8 -4c-3 -4 -4 -18 -4 -41l-9 -12h-8l-4 -8c-8 -3 -20 -17 -28 -21c-13 -5 -31 -7 -55 -8c-23 0 -42 -2 -55 -7c-16 9 -25 17 -28 20c-3 1 -7 2 -12 2c-4 0 -7 1 -8 2l-16 17v7l-24 24
c0 3 1 2 1 5c0 8 -6 17 -6 20l-4 8c-11 35 -16 76 -16 121c-3 1 -4 8 -4 21c3 1 4 4 4 11c0 5 1 10 4 13l-4 4c-5 14 -7 33 -7 58v15c0 15 1 28 1 39c0 15 -1 27 -2 34l4 12h8c3 3 4 13 4 28c-3 6 -4 26 -4 61c3 8 4 17 4 28c11 11 19 25 24 41l-3 4c2 1 3 7 3 20
c0 3 9 13 9 17v12l-9 12l-24 24c-24 7 -44 11 -57 12c-10 -5 -17 -8 -20 -8l-12 -7l-4 -13c-3 -5 -4 -14 -4 -25l-4 -12c5 -29 8 -70 8 -121l4 -12l-4 -4c5 -31 8 -54 8 -69c5 -9 8 -21 8 -37l-8 -4c-3 -12 -4 -33 -4 -62c0 -28 -1 -50 -4 -63l-4 -5c0 -5 0 -16 3 -33
c1 -8 2 -15 2 -20c0 -4 -1 -8 -1 -11l-4 -12v-44l8 -13v-20l-4 -4c-4 -11 -6 -23 -6 -36s2 -24 6 -33l4 -4v-8l4 -4v-8c8 -7 13 -12 16 -16v-8c5 0 11 -13 16 -13c0 -12 16 -32 17 -37h16c11 -10 20 -16 28 -19c3 -7 13 -10 16 -17c7 0 16 -4 21 -4l3 -8c1 0 2 -1 5 -1
c5 0 13 1 24 2h8c8 0 13 -2 16 -5c12 0 29 4 37 4l12 -5c5 -1 8 -4 8 -7z" />
    <glyph glyph-name="V" unicode="V" 
d="M267 0c7 1 12 2 12 2l-5 -2c3 1 6 1 9 1c17 2 34 1 47 3l12 8c8 13 15 21 20 25c3 17 5 42 5 75c9 22 15 43 20 63c2 1 5 5 8 13c1 6 4 10 9 12c-3 1 -5 2 -5 5c0 4 3 9 10 15v25l3 12l5 5l-5 12v13c-2 3 -3 9 -3 20v12c11 27 17 49 17 65c0 9 -2 18 -5 27
c22 23 33 46 33 71c3 7 4 17 4 29l4 13l4 3c-3 5 -4 12 -4 21l9 8c-4 12 -5 20 -5 25v5c9 12 13 26 13 41c0 5 4 18 4 21c5 3 8 16 8 41c8 3 9 14 9 21c5 0 9 4 10 11c1 9 3 13 6 14l12 9l-12 12v12l4 5c-3 7 -4 14 -4 20v5c-8 8 -15 12 -20 12l-5 8l-3 -1c-7 0 -22 9 -38 9
h-4c-9 0 -12 -8 -17 -8l-8 5c-7 -12 -13 -19 -17 -22v-16l5 -4l-5 -5v-45c-5 -5 -3 -27 -8 -34c14 -7 21 -16 21 -28l-8 -4c0 -7 -3 -19 -8 -34c-7 -19 -8 -29 -9 -33l4 -4c-1 -1 -1 -3 -1 -4c0 -11 5 -18 5 -21l-21 -21c0 -11 -3 -17 -9 -17l5 -7c-3 -3 -6 -17 -7 -17
s-2 -4 -4 -13c0 -1 -1 -3 -1 -4c0 -3 1 -5 4 -8l-9 -13l-12 -12c-3 -5 -4 -18 -4 -37l4 -5v-33c-3 -5 -4 -14 -4 -25c-7 -20 -11 -36 -12 -41c-8 -3 -14 -12 -18 -25c-7 -18 -11 -28 -12 -29s-1 -2 -1 -4c0 -3 0 -5 1 -6v-3c0 -3 -1 -4 -4 -4h-8c0 5 -1 9 -4 14
c-1 3 -2 5 -2 7c0 0 1 1 2 4c-19 28 -32 47 -38 58v8l-12 13v17l4 12l8 4c-5 34 -8 55 -8 64v2l4 9l-4 12l-25 25c-3 4 -4 15 -4 33c-3 1 -4 8 -4 21c-15 11 -26 18 -33 21v25l8 4c5 8 3 34 8 42c-5 53 -8 91 -8 116l-8 12l8 5v12l-8 13c-4 9 -9 11 -37 20l-5 5
c-9 0 -31 5 -39 5c-7 0 -13 -2 -20 -5l-12 -9c-1 -9 -2 -17 -2 -24c0 -19 5 -37 14 -55c6 -10 9 -28 9 -54c4 -15 6 -24 6 -29c0 -3 -1 -6 -2 -9c5 0 7 -4 7 -12c0 -5 2 -8 6 -8v-5l4 -8v-4c9 -9 14 -16 17 -20v-50c3 -21 6 -39 7 -54l5 -37v-13c8 -15 12 -26 12 -34l5 -3
v-9c5 -2 8 -6 9 -11l3 -14c5 -17 8 -31 8 -42l5 -3c6 -13 9 -30 9 -49c0 -14 -5 -50 -5 -66c0 -13 3 -26 8 -39l8 -4v-9l5 -3v-9l4 -4c0 -5 -4 -16 -4 -21c2 0 3 -3 4 -8v-3c0 -3 -1 -5 -4 -5v-9l4 -4c0 -12 8 -30 8 -38l8 -8v-4c11 -11 17 -18 22 -25c4 -5 13 -8 28 -8z
M271 0h3h-3z" />
    <glyph glyph-name="W" unicode="W" 
d="M391 0c8 4 13 6 15 6c11 9 18 17 21 22l-1 1v3c0 9 9 21 9 25l4 7c1 2 2 7 3 14c1 4 3 6 6 6c4 15 7 26 8 33c3 1 4 4 4 9s1 7 3 7v16l9 13c3 3 6 11 7 22c1 12 3 19 5 21c3 15 4 29 4 38s-1 17 -4 23c2 0 3 3 4 8v3c0 3 -1 5 -4 5c1 2 3 8 6 17c2 6 5 10 10 11l-4 5
c3 1 4 4 4 9s1 7 4 7v8l-4 4v8l4 4v8c-3 2 -5 4 -5 7c0 2 2 5 5 9c-5 3 -1 20 -8 20l4 4v69l4 3c-3 5 -4 12 -4 21l4 12l4 4c0 27 -3 58 -8 97c5 17 10 31 13 36c5 17 7 39 7 68c-5 1 -7 3 -7 7c0 1 3 8 3 9c0 3 -1 4 -3 5c8 3 7 20 12 24l3 4c-2 5 -3 11 -3 20l3 4
c-7 1 -19 16 -28 16c-11 6 -17 9 -20 9h-4c-17 -3 -28 -4 -37 -5l-12 -7l-7 -21c0 -33 1 -56 3 -69l-3 -3c6 -9 9 -39 15 -45c0 -11 -12 -37 -12 -44c3 -6 4 -22 4 -49l8 -8c-5 0 -4 -16 -12 -16c-2 -7 -3 -30 -3 -69l-5 -12c5 -10 8 -38 8 -84l-3 -12l3 -4
c-8 -20 -12 -35 -12 -45l-8 -3l8 -12c-8 -15 -15 -25 -20 -29l5 -12c-6 -11 -9 -18 -9 -21l-8 5c0 9 -12 16 -12 20l-8 13v36c-5 8 -8 18 -8 31l-8 5c-3 9 -4 23 -4 40l4 8c-5 11 -7 27 -8 48s-3 37 -4 45v16l-4 12l-9 8c-12 9 -22 13 -27 16c-10 0 -18 -7 -25 -20
c0 0 -3 -20 -16 -32v-29l-4 -3c4 -9 6 -22 6 -38v-11c-2 -19 -3 -32 -3 -41c0 -3 1 -4 1 -7c-8 -7 -8 -25 -16 -29v-19l-8 -12c0 -19 -8 -34 -25 -45h-7c-5 18 -7 31 -8 40c-9 4 -12 19 -16 20v5c0 6 -1 12 -4 17s-5 10 -8 15c2 8 3 17 3 28v12l-3 37l-9 3c4 1 6 4 6 10
c0 10 -3 15 -9 15c3 20 3 37 3 48l9 12c-1 3 -2 5 -2 6s1 4 2 8c3 5 4 8 4 10l3 4c-3 21 -3 50 -3 89l-4 4c0 11 1 17 4 20c-3 3 -5 7 -5 11c0 3 2 5 5 5v8l-4 4c0 11 1 18 4 20l-4 12c10 14 15 27 15 39c0 5 -1 9 -3 14v16c-9 12 -18 21 -29 28c-5 -1 -9 -1 -14 -1h-10
c-8 0 -13 0 -16 1l-12 8c-8 -8 -16 -12 -24 -12c-4 -10 -6 -21 -6 -34c0 -15 6 -48 6 -62l7 -5l-15 -7l12 -5c0 -20 -1 -32 -4 -36c5 -11 7 -18 7 -20l-7 -12l7 -4c4 -37 5 -68 5 -91v-18l7 -16v-125l-3 -4c-3 -11 -4 -24 -4 -39c0 -13 1 -35 6 -63c4 -28 6 -50 6 -63
c8 -3 7 -21 16 -21c1 -1 2 -3 3 -6l2 -9c0 -7 3 -12 7 -12c5 -17 8 -26 8 -29l4 -4c5 -14 8 -32 8 -53l9 -12c2 -2 4 -5 5 -8l6 -12c5 -9 9 -16 13 -20v-8l7 -8c9 -3 22 -4 37 -4c3 12 21 17 24 24v24c8 4 12 19 16 20v9l4 3v9l4 4v8c-2 1 -4 3 -6 5c0 1 8 5 8 8
c0 1 -1 2 -2 3c11 12 19 20 24 24l-1 1v3c0 9 9 21 9 25h9c8 -16 7 -44 12 -53l3 -8c7 -20 12 -32 13 -41c10 -18 17 -33 20 -44c9 -12 17 -20 24 -24zM404 5c1 1 1 1 2 1h1c-1 0 -1 0 -2 -1h-1z" />
    <glyph glyph-name="X" unicode="X" 
d="M483 0c13 5 22 7 25 7l2 -1h1l-1 -1c3 1 29 13 29 15c1 3 2 9 5 16c1 5 2 8 3 8s2 7 2 21l-10 13v9l-3 4c0 12 -4 22 -13 31l-5 17c-9 9 -17 15 -21 22v4l-5 5l-13 26v21c-17 17 -30 31 -35 39v10l-4 3v5c0 9 -5 23 -5 31v2v2c-1 1 -12 3 -12 4c1 1 1 2 4 5
c-11 0 -14 8 -18 13v4c-5 9 -13 18 -22 26l-8 4v9c-13 13 -21 26 -26 35c-3 5 -5 16 -5 35l5 13l4 4v9l4 4v9l18 17c0 5 8 12 8 17c20 15 33 27 40 35c0 9 17 31 17 39c10 3 7 26 13 26v23c6 0 9 5 9 16c11 13 20 20 26 23l13 3l5 13c2 5 3 19 3 44l10 13l2 -1
c5 0 14 10 14 10v5c0 9 5 22 5 31v3c-8 0 -18 19 -26 22h-39c-9 -13 -16 -25 -23 -36l-16 -25c-9 0 -17 -13 -22 -13v-9c-3 -10 -4 -20 -4 -30v-2c0 -8 -10 -11 -10 -18l1 -2l-5 -13h-8l-22 -21c-8 -15 -14 -24 -17 -31c-11 -38 -19 -66 -26 -83l-9 -9h-9c0 1 1 2 1 5
c0 8 -6 17 -6 24l1 2l4 4l-8 18c-3 6 -5 13 -5 21h-8c-6 23 -12 36 -18 39c0 9 -8 23 -8 31c-9 0 -19 13 -27 13c-3 7 -13 14 -13 18l-4 13v8c-4 0 -7 3 -9 8c-1 2 -2 4 -2 5s1 2 2 5v4l-4 4c-3 14 -10 30 -22 48c-12 8 -21 15 -26 22c-12 3 -28 4 -52 4c-3 0 -9 -4 -18 -13
l-8 -8l-5 -13v-9l5 -5v-8l5 -5c18 -37 34 -63 47 -78c-1 -3 -2 -5 -2 -6c0 -3 1 -6 3 -9c3 -5 4 -11 4 -16l3 -3v-10c9 -9 15 -13 18 -13c0 -5 7 -18 22 -39v-8l4 -5c-1 0 -1 -1 -1 -3c0 -7 6 -15 6 -18c9 -9 16 -19 21 -27v-17l13 -13l9 -13c3 -10 4 -26 4 -48l5 -4
c3 -5 4 -17 4 -35l-13 -13c0 -8 -9 -17 -9 -26l-13 -13c-7 -24 -12 -36 -13 -36v1c-9 -17 -16 -28 -21 -34l-9 -5v-3c0 -9 -10 -16 -10 -21l1 -2c-12 -12 -18 -25 -18 -39l-13 -9c-11 -7 -18 -13 -21 -17v-3c0 -7 -7 -10 -7 -13c0 -1 1 -3 2 -6c-7 -7 -11 -13 -13 -17
l-21 -22c1 -3 2 -5 2 -6c0 -4 -12 -10 -12 -19l1 -1c-11 -18 -17 -31 -17 -39l-5 -13l31 -31c17 -4 33 -6 48 -6c23 0 45 5 65 14h4v10c10 3 15 26 22 26c3 3 5 8 7 17c1 6 3 9 6 9c3 10 4 27 4 52l5 13l17 17l5 13v9c9 3 13 13 13 30c5 4 14 13 17 13c-1 1 -1 3 -1 6
c0 9 5 22 5 25l13 8v18c7 15 13 22 18 22c5 -11 8 -20 8 -27v-13c5 -3 8 -12 9 -25c1 -11 4 -17 9 -17l4 -18l9 -5c9 -13 15 -22 17 -29c3 -5 4 -17 4 -36c9 -16 13 -28 13 -35h5l13 -26v-21c9 -7 13 -25 17 -26v-10c7 -7 17 -11 31 -14c17 -2 27 -4 30 -7z" />
    <glyph glyph-name="Y" unicode="Y" 
d="M271 0c11 1 17 2 17 4h45c13 9 20 13 22 13c2 4 3 15 3 33l4 12l8 5c-3 3 -5 6 -5 9c0 4 5 11 5 15h-8c-3 9 -8 17 -8 25c0 2 0 4 1 5c2 1 3 7 3 20l-3 5l3 3c-4 3 -1 17 -8 17c5 17 8 29 8 37l-3 5c-3 4 -5 15 -5 32c-3 3 -4 10 -4 22c6 22 9 36 9 41c-6 7 -9 13 -9 16
c-3 7 -21 12 -21 13c-1 1 -1 2 -1 5c0 9 6 19 6 24l16 17c6 15 9 26 9 33l3 4c5 9 8 28 12 33c7 5 8 23 13 26c0 1 4 13 4 16c20 27 33 46 38 58v8l24 25v9h9l-4 8c3 8 12 16 12 25h8v17c7 0 12 12 13 12v17l13 8c-3 3 -4 9 -4 20l4 5l-4 8l12 12l4 9l8 4l5 12
c0 9 -5 22 -5 29c-9 4 -7 22 -12 25h-8l-13 9c-5 0 -14 -4 -21 -4c-1 -3 -8 -5 -20 -5c0 -10 -21 -13 -21 -20v-21l-4 -9c6 -6 11 -16 16 -29c-10 -5 -17 -7 -20 -8v-8c-7 -4 -13 -10 -17 -17l-4 -12l4 -4c-7 -8 -12 -12 -17 -13l-8 -4c0 -7 -5 -13 -14 -19s-14 -11 -15 -14
l-4 -13c0 -3 -1 -10 -4 -19c-1 -5 -2 -8 -2 -10c0 -3 1 -5 2 -8c-9 -3 -12 -21 -17 -21c-5 -17 -10 -28 -13 -37h-8v12c-13 19 -21 33 -24 42v9l3 3c-5 3 -8 8 -8 17l5 4c-12 7 -14 21 -17 33c3 3 4 5 4 7c0 1 -10 5 -10 12l1 2c-5 0 -17 4 -20 4l-13 13l-8 12v12
c-5 17 -8 28 -8 34l-8 8v34l-9 12c-9 9 -14 13 -16 13l-25 25c-17 0 -30 1 -37 3l-9 -3c-5 0 -23 -5 -30 -5c-8 -8 -12 -14 -12 -17c3 -2 4 -7 4 -16l-4 -9l9 -8c-1 -3 -2 -5 -2 -7s1 -4 3 -7c1 -7 2 -12 2 -15l5 -4v-8c8 -4 12 -10 12 -17l22 -21c-1 -1 -2 -3 -2 -4
c0 -2 2 -6 5 -12c12 -25 19 -41 22 -50v-17l7 -8c3 -6 5 -13 5 -20c20 -32 36 -54 45 -67v-17l9 -4c5 -13 11 -24 12 -29l4 -9v-4c1 0 2 -1 3 -4l7 -9c4 -5 8 -7 11 -7c4 -18 7 -32 8 -42c9 0 13 -5 13 -16c-5 -34 -8 -81 -8 -142c-8 -3 -7 -25 -13 -28v-25l4 -5v-2
c0 -7 -5 -15 -5 -20c0 -1 0 -1 1 -2c-5 -7 -7 -19 -12 -22c-9 -36 -14 -57 -14 -63c0 -9 2 -17 5 -24l-4 -8l13 -12c3 -2 6 -4 11 -6l27 -8c3 -1 6 -2 7 -3z" />
    <glyph glyph-name="Z" unicode="Z" 
d="M91 0c3 0 6 0 9 1l-3 -1c1 1 3 1 4 1c7 1 13 1 16 2c10 1 20 1 29 2c17 1 32 1 47 1c29 0 55 -1 80 -6l12 8c5 1 9 2 14 2h31c5 0 10 0 15 -1c16 -1 30 -2 39 -2h11c3 0 5 0 8 1l16 16h8c16 -9 27 -17 35 -20c11 -3 21 -4 32 -4c9 0 15 1 19 4l9 8c8 18 12 44 12 79l4 7
c-3 2 -4 7 -4 16c-4 13 -16 19 -24 24c-5 3 -13 12 -16 12c-93 0 -171 -6 -233 -19l-4 -5c-7 3 -26 5 -56 5l-12 7v9l9 3c-1 3 -2 5 -2 7s1 5 2 8c2 6 3 10 3 13c9 11 20 21 20 32c13 13 23 27 28 43c8 8 12 13 12 16c9 12 35 61 40 63c-1 3 -2 5 -2 7c0 1 1 4 2 7
c3 6 4 11 4 14l3 4v7c13 16 25 28 32 37h8l8 11v4c19 29 26 75 35 115l8 8c9 0 15 16 16 16c11 5 18 7 20 7l-2 6c0 3 6 4 6 11v3l4 4v16l7 8c11 40 19 71 24 91c5 0 7 2 7 7v5c0 5 3 8 9 8v27l4 8l-4 4c2 0 3 1 3 4v2c-1 4 -2 6 -2 7c-1 1 -1 2 -1 3v16l-3 3
c-48 9 -84 12 -107 12l-12 9c-9 0 -25 -1 -49 -2c-10 -1 -19 -1 -27 -1h-21c-19 1 -34 3 -45 6c-33 -1 -75 -3 -135 -3l-20 -21v-27l4 -12c6 -7 11 -15 14 -25l6 -22c3 -5 12 -13 12 -16c9 -5 16 -7 19 -8h9l3 8c7 1 15 10 19 10c2 0 4 -1 5 -2c4 0 8 1 13 1
c11 0 38 -7 47 -7c3 0 7 1 11 2l4 4c15 5 26 8 31 8l5 4c39 0 66 5 83 15c8 0 14 -2 19 -7c3 -6 5 -13 5 -20c-4 -3 -7 -10 -9 -22c-1 -11 -5 -17 -12 -17c0 -7 -3 -14 -3 -21l-4 -11c-5 -4 -13 -12 -16 -12v-2c0 -5 -3 -9 -8 -14c0 -7 -8 -17 -8 -20c-3 -9 -8 -16 -13 -21
l-11 -11l-7 -4l-21 -39c-5 -4 -10 -13 -15 -26c-5 -12 -9 -19 -12 -22v-3c0 -7 -5 -15 -5 -22c0 -1 0 -1 1 -2l-16 -16c0 -5 -4 -12 -11 -20c-6 -13 -11 -22 -16 -27v-8c-8 -3 -12 -17 -16 -20c-3 -8 -7 -21 -15 -34c-8 -15 -12 -26 -13 -34l-12 -11l-8 -12v-24
c-11 -5 -16 -10 -16 -16v-31l-7 -4c-7 -23 -12 -38 -16 -47l-12 -9c0 -12 -11 -20 -20 -28v-7h-8l5 -4c0 -17 -3 -27 -9 -31c6 -9 9 -19 9 -32c8 -11 14 -18 19 -20z" />
    <glyph glyph-name="bracketleft" unicode="[" 
d="M148 279c1 -7 1 -13 1 -16v-30c-1 -4 -1 -8 -1 -11v-15c0 -14 2 -26 5 -37c9 -28 18 -53 26 -81l3 -11c2 -3 5 -6 8 -9l11 -9c8 -4 14 -12 14 -17c3 -20 10 -41 19 -65l28 -67c1 -6 2 -10 2 -11c0 -7 -2 -20 -2 -25c0 -8 2 -15 5 -21c6 -11 14 -16 25 -16
c10 0 26 -3 48 -9c20 -6 36 -9 48 -9c7 3 19 13 34 29c1 3 2 5 2 6c0 5 -7 13 -7 17c-32 43 -69 91 -109 143c-2 3 -3 9 -3 19c0 13 -8 28 -23 44c-8 8 -13 15 -15 22c0 19 -2 34 -5 47c0 3 -11 7 -11 12c-1 11 -1 21 -1 30v30c-1 25 -4 45 -11 60c0 5 4 15 12 28
c0 34 -10 74 -30 121c3 7 11 19 23 40c10 15 16 28 18 40c13 17 24 31 34 40c0 4 6 14 6 17c2 7 11 19 26 34c13 13 19 27 19 41l67 63c25 25 37 51 37 80c-11 17 -26 26 -43 26c-21 0 -53 -18 -94 -54h-12c-16 -14 -31 -34 -45 -59c-20 -37 -32 -58 -36 -63v-16
c-16 -35 -26 -57 -29 -69c0 -4 -10 -8 -10 -11c-7 -47 -17 -79 -29 -98c-1 -3 -2 -6 -2 -9c0 -7 3 -22 3 -29c0 -3 0 -6 -1 -8c-13 -24 -19 -38 -19 -41c0 -5 5 -17 14 -34c1 -1 1 -4 1 -10v-13c-1 -4 -1 -8 -1 -11v-5z" />
    <glyph glyph-name="backslash" unicode="\" 
d="M459 85c11 -18 16 -36 16 -53c0 -19 5 -35 15 -49c6 -7 17 -18 32 -33c9 -13 13 -29 13 -49v-38l1 1c-1 -15 -5 -23 -14 -23c-5 2 -9 6 -11 12l-7 16c-31 31 -50 56 -57 75c0 23 -2 40 -6 52c-8 11 -32 30 -40 39v18c-8 9 -14 17 -18 23c-1 13 -3 24 -3 33c0 1 1 5 1 8
c-1 19 -13 38 -34 58c-27 25 -40 38 -40 39c-11 13 -17 30 -17 49v16c0 5 1 9 1 12v4c-1 19 -12 39 -33 60c-13 13 -21 23 -23 31c-18 38 -39 76 -64 114c-15 35 -33 87 -57 156c-43 32 -65 75 -65 129c0 8 1 16 2 25c13 7 28 10 45 10c10 0 20 -1 30 -4
c7 -16 10 -30 11 -41c5 -5 16 -15 35 -28c14 -12 24 -23 29 -34v-18v1v-11v-28c0 -27 7 -47 22 -59c25 -16 38 -29 41 -40c4 -18 8 -37 11 -58c3 -11 11 -24 24 -39c19 -21 29 -36 32 -40c2 -5 3 -9 3 -14s-2 -19 -2 -24c0 -9 2 -15 6 -20c8 -16 13 -27 17 -35
c0 -7 -2 -22 -2 -27c0 -12 3 -20 8 -24c13 -11 24 -23 33 -38c3 -3 10 -20 25 -49l3 -33c1 -13 3 -23 8 -29c12 -20 22 -32 29 -43z" />
    <glyph glyph-name="bracketright" unicode="]" 
d="M340 272c0 -9 6 -37 6 -46c0 -5 0 -9 -1 -12c-7 -12 -10 -29 -10 -52v-27c0 -11 -1 -21 -2 -29c-15 -21 -28 -36 -40 -47c-1 -3 -2 -12 -3 -27s-4 -25 -9 -29c-19 -22 -34 -38 -44 -48c-16 -17 -28 -36 -36 -56c-1 -3 -9 -9 -23 -18c-9 -7 -15 -14 -16 -22v-4
c0 -2 0 -4 -1 -7v-12c0 -16 4 -25 12 -28c14 0 49 11 63 11c37 59 68 100 92 121c11 17 18 28 23 34c0 23 2 38 6 45c13 25 27 47 39 64c2 7 3 18 3 33v1c0 13 1 23 3 29c12 11 18 29 18 52c-1 7 -2 13 -2 16c0 13 4 31 12 54c8 25 12 43 12 56c0 14 -4 27 -11 40
c-6 7 -9 17 -9 29v4c0 3 0 6 1 9v14c0 6 0 12 -1 18c-13 29 -24 50 -32 63c-1 3 -1 6 -1 9v12c0 3 0 5 1 8v13c0 7 -2 15 -6 22c-34 28 -51 68 -51 120c-15 21 -29 36 -40 46v11c-10 13 -25 25 -44 36c-17 9 -29 15 -38 20l-15 7h-17c-24 -14 -36 -34 -36 -60
c0 -21 10 -41 29 -61c17 -16 35 -30 52 -46c23 -23 42 -44 57 -68c5 -15 7 -29 7 -40c23 -57 40 -99 45 -126c5 -21 8 -44 8 -68v-31c-1 -7 -1 -12 -1 -16v-17z" />
    <glyph glyph-name="asciicircum" unicode="^" 
d="M175 509c-25 23 -40 35 -46 35c-2 0 -3 -1 -3 -2c0 3 1 8 3 13c17 21 28 37 32 46c0 7 4 18 12 32c9 14 13 24 13 30c8 9 13 14 16 19c1 7 2 12 2 15c0 5 -2 24 -2 29c0 7 2 15 5 22c20 43 32 66 35 70c21 8 40 12 57 12c31 -8 52 -20 61 -36l30 -70
c25 -51 45 -79 60 -84c16 -37 24 -74 24 -109c0 -7 -10 -14 -29 -22c-19 -9 -28 -16 -28 -23l-11 8c-7 7 -11 14 -11 22c0 7 3 15 9 24c-17 11 -28 28 -32 49l-6 28c-1 0 -6 8 -15 23c-10 15 -16 23 -17 23l-3 -1c-5 0 -13 5 -23 14c-13 11 -20 16 -21 16s-2 -1 -3 -2
c-3 -5 -16 -19 -40 -43c-24 -25 -36 -40 -36 -43c0 -6 -6 -22 -17 -48s-16 -42 -16 -47z" />
    <glyph glyph-name="underscore" unicode="_" 
d="M124 -30c-32 0 -44 10 -63 10c-6 0 -24 -3 -55 -10c-1 -3 -17 -8 -22 -17c0 -7 4 -22 4 -27s-1 -9 -4 -13c-2 -7 -3 -13 -3 -18c0 -17 5 -31 14 -44c16 -8 29 -12 38 -12c17 0 40 5 70 16c12 1 19 1 26 1c12 0 30 -1 53 -3c25 -3 42 -3 54 -3c11 0 19 0 22 1h39
c11 9 25 14 40 16l40 6c7 0 18 -6 32 -18c3 0 11 6 22 18l48 3c21 1 37 3 48 8c15 0 26 -2 33 -6c14 0 24 7 30 21c6 15 11 27 14 36c0 23 -16 37 -49 42h-76c-34 0 -63 -2 -86 -7c-3 0 -8 0 -12 -1h-13c-16 0 -28 4 -35 12c-23 -4 -58 -6 -105 -6s-80 -2 -104 -5z" />
    <glyph glyph-name="grave" unicode="`" 
d="M375 598c2 5 3 8 3 11v3c-9 17 -17 35 -24 51c-9 19 -14 36 -15 53c-5 41 -11 72 -17 93c-4 1 -12 6 -24 14c-13 9 -22 14 -28 14c-3 0 -6 -1 -9 -3c-3 -7 -5 -10 -8 -13c-17 -7 -29 -17 -36 -30c-7 -19 -10 -31 -10 -38c0 -5 1 -10 4 -15c7 -4 13 -7 17 -10l10 -18
c9 -7 18 -12 25 -15c8 -22 13 -38 16 -48c12 -9 19 -16 20 -22v-4c-1 -15 5 -24 10 -35c7 -11 17 -17 28 -17h7c17 5 27 15 31 29z" />
    <glyph glyph-name="a" unicode="a" 
d="M500 0l10 2l30 10c1 1 1 3 1 4c1 1 1 1 1 2c1 5 2 11 2 18c0 4 0 8 -1 11l-1 8c0 2 0 3 -1 4l-1 6v1l-3 8c-1 1 -1 2 -2 4v3c0 1 0 2 -1 3c-1 3 -2 5 -4 6c-1 1 -1 1 -2 1l-1 1c-1 3 -1 6 -2 8c-1 1 -1 1 -1 2c-1 3 -1 5 -2 8c-1 1 -1 1 -1 2c-1 2 -1 4 -2 5
c-1 4 -2 8 -3 11l-4 12h-1c0 1 0 2 -1 3v1c-1 1 -1 2 -1 3s0 1 -1 2v2c-1 5 -2 10 -2 15v9c0 2 0 4 -1 5v2c-1 3 -1 5 -1 6s0 1 -1 2v2l-1 2v2c-1 1 -1 2 -1 3l-1 2v1l-5 25l-2 1l-3 3c0 1 0 2 -1 3c-1 3 -2 5 -2 8v6v12l-8 5h1l1 1h1c1 1 1 2 2 3v2c1 2 1 4 1 6s-1 4 -2 6
c-1 1 -2 2 -4 2c-1 2 -1 4 -2 6v1c0 1 0 2 -1 3v3c0 3 0 6 -1 9s-1 5 -1 8v24v1c-2 3 -4 5 -6 7c-1 1 -1 2 -2 3l-4 4l-3 4c-5 7 -10 11 -13 13v30l-1 1c-1 1 -1 2 -1 3c-1 2 -1 4 -2 5v5v7c-8 7 -13 13 -16 18c-1 2 -1 4 -1 5v2v1h1c0 2 0 3 1 4v2c1 4 1 8 2 11v7
c0 3 0 6 -1 10v3c-1 3 -1 5 -2 8v2c0 1 0 2 -1 3l-1 4c-1 3 -1 6 -2 9v3c-1 1 -1 2 -1 3c-1 9 -3 16 -4 22v5v6l-5 8c-1 1 -1 2 -2 3l-1 1v2v1c-1 3 -2 8 -3 13c0 2 0 4 -1 5v7v9l-4 4c-3 5 -5 9 -6 13c-1 1 -1 2 -2 3c0 1 0 3 -1 4v3v2c0 1 0 3 -1 6c0 3 0 5 -1 7v2h-1v2
c-1 2 -1 3 -1 4v8l-13 8v2c1 2 1 6 1 11v6c-1 3 -1 7 -1 11c-1 1 -1 2 -1 3v4l-1 5c-1 1 -1 2 -1 3c-1 4 -1 8 -2 11v6c-1 2 -1 4 -1 6c0 1 0 2 -1 3v11l-2 4c-1 1 -1 3 -2 5c-1 3 -1 8 -1 13c-2 1 -4 2 -5 4c-1 1 -2 2 -3 4c-2 4 -4 6 -7 7l-1 1h-1c-1 1 -1 2 -2 4l-1 6
c0 1 0 3 -1 4c-3 7 -5 13 -8 17c-1 1 -2 3 -3 4c0 1 0 2 -1 3h-1l-6 1c-1 0 -2 0 -3 1h-2h-7c-4 1 -8 1 -12 1h-7l-1 -1c-3 -1 -5 -2 -7 -3c-1 -1 -3 -1 -4 -2s-3 -3 -5 -4l-2 -1l-1 -1l-1 -1c-1 -1 -3 -1 -4 -2l-4 -3c-1 -1 -2 -1 -3 -2v-3c-1 -1 -1 -3 -1 -4l-2 -3l-2 -2
c-1 -1 -1 -3 -2 -4s-1 -3 -1 -4v-1l-1 -2c0 -1 0 -2 -1 -3v-3c0 -1 0 -1 -1 -2v-2c-1 -3 -2 -7 -2 -9l-7 -8l-5 -49l-1 -4c-1 -2 -1 -4 -2 -5c0 -1 0 -1 -1 -2c-1 -6 -3 -11 -4 -15c0 -1 0 -3 -1 -4c-1 -5 -2 -9 -3 -12l-9 -4v-37l-1 -1l-1 -2v-1c-1 -2 -2 -5 -2 -10v-6
l-21 -22v-37l-1 -1v-1v-3c-1 -2 -1 -5 -2 -9v-7v-16c-1 -3 -2 -5 -3 -7v-1c-1 -2 -1 -4 -1 -5s0 -1 -1 -2v-9v-5l-8 -12l-9 -5c0 -1 0 -3 -1 -5c0 -1 0 -2 -1 -3v-3c-1 -3 -2 -7 -2 -10v-2l1 -1c-11 -11 -16 -19 -17 -25c0 -3 0 -6 -1 -10c0 -3 0 -7 -1 -11
c-1 -9 -2 -16 -2 -21l-8 -15c1 -2 2 -4 3 -5v-1c0 -2 -1 -4 -3 -6c-1 -1 -1 -2 -1 -3v-1v-1c-4 -3 -7 -7 -9 -13c-1 -5 -3 -9 -5 -10l-2 -2c2 -1 4 -4 5 -9v-2c0 -4 -1 -6 -4 -6h-1l-4 -12c-5 -9 -8 -18 -10 -29c-1 -2 -1 -6 -1 -13v-7v-5c0 -1 0 -2 1 -3v-2
c1 -7 1 -12 1 -15v-6l1 -1v-2c-2 -1 -4 -2 -5 -4c-1 -1 -1 -2 -1 -3c-1 -3 -2 -8 -2 -13c-9 -4 -9 -20 -13 -20v-17l-12 -9c-1 0 -1 -1 -1 -2l-1 -2c-1 -6 -3 -15 -5 -27c-1 -8 -3 -14 -6 -17c-1 -1 -2 -1 -3 -2h-1l5 -7c-4 0 -6 -5 -7 -8l-1 -2v-1c-2 -3 -3 -6 -5 -6
l-4 -13v-8l29 -29l1 -1c5 -2 11 -4 18 -5h3c11 -1 25 -2 40 -2c7 5 12 9 16 11l1 1c1 1 2 1 3 1l21 20v29c1 0 1 0 2 1c0 1 0 1 1 2s2 3 3 5c0 1 0 2 1 3v4v6v6c1 3 3 4 6 5c1 0 1 0 2 1h1v29c3 0 4 1 4 4v3c-1 1 -2 1 -2 2v1v1l-1 3c-1 1 -1 2 -1 3c0 3 1 5 3 8
c0 1 0 2 1 3l2 2c2 3 3 6 3 9v2l12 8h4c6 1 12 1 17 1c6 1 12 1 19 1c4 1 8 1 12 1h4c16 1 29 2 39 2l9 4c3 1 5 2 8 3c4 1 8 2 11 3c4 1 8 1 12 1c1 0 3 0 6 -1c2 0 4 0 7 -1l2 -1c3 0 6 0 9 -1c1 0 1 0 1 -1h7h2c3 -1 5 -1 8 -2h5l13 -9c-1 -1 -1 -1 -1 -2
c0 -5 1 -9 4 -13c1 -1 1 -2 2 -3c1 -3 3 -5 4 -6c1 -3 3 -4 3 -4v-33l-2 -6l-2 -6c-1 -3 -1 -5 -2 -6c0 -1 0 -2 -1 -3v-3c0 -1 0 -1 -1 -2v-2v-3v-4v-2v-1v-3c0 -1 0 -1 1 -2s1 -4 1 -7c1 -4 1 -8 1 -12v-7v-4c1 -1 1 -2 1 -3c1 -4 2 -7 3 -10l1 -1l8 -9l12 -8v-1l2 -1h1
c4 -2 9 -3 15 -4h13h7c7 0 12 -1 15 -2s5 -1 6 -2c1 0 2 0 3 -1zM289 281c-2 1 -4 1 -6 1c-2 1 -3 1 -4 2h-3c-5 1 -9 2 -13 3l-7 1c-1 0 -2 0 -3 1h-4h-6l-2 1c-4 3 -7 8 -9 17v4c-1 3 -1 5 -1 8v8l9 7v27c1 4 1 7 1 9c1 3 1 7 2 10l1 4c1 4 1 8 2 12l3 9c1 3 2 7 3 11l3 9
l9 17v24c1 5 1 9 1 12c1 7 1 13 2 19c0 2 0 3 1 4l2 9c0 1 0 3 1 4c1 7 3 13 6 19c0 1 0 1 1 2c1 2 1 3 1 4c2 4 4 8 5 11c0 1 0 2 1 2l3 8l1 2c0 7 1 14 3 21c1 3 3 5 4 8c1 1 1 2 1 3c1 1 3 3 4 5v1l-1 1c0 1 -1 3 -1 4v3c0 3 1 5 3 6l1 1l1 -1v-1c0 -1 0 -1 1 -2v-24
c1 0 1 0 2 -1l2 -2c1 -2 3 -4 4 -6l1 -2c1 -2 2 -4 3 -5s2 -4 3 -5h2c0 -7 1 -13 2 -17c1 -1 1 -3 1 -4h1l1 -1c1 -1 1 -3 2 -4s1 -3 2 -5v-2v-3c0 -1 0 -3 -1 -5c1 0 3 -1 4 -2s1 -2 2 -3v-2c0 -1 0 -3 -1 -4c0 -1 0 -1 -1 -2l-4 -4l8 -4l3 -12c1 -3 1 -4 2 -5v-3
c1 -2 1 -4 1 -6s0 -4 1 -6v-2v-9c1 -1 1 -2 1 -5v-6c1 -1 1 -1 1 -2v-9c1 -1 1 -3 1 -4v-3c1 -1 1 -3 1 -4c1 -2 1 -4 1 -5c1 -1 1 -3 1 -5l1 -2v-2c1 -1 2 -3 2 -5h1v-21l13 -17v-40l7 -9c0 -4 0 -8 1 -13c1 -3 3 -5 4 -7l-5 -13h-24c-1 -1 -3 -1 -4 -2s-2 -1 -3 -2
c-2 -1 -4 -1 -7 -2c-2 0 -4 0 -6 -1h-4h-7h-19c-5 -1 -9 -1 -10 -1h-2z" />
    <glyph glyph-name="c" unicode="c" 
d="M296 0c8 1 12 2 13 2c-3 -1 -4 -1 -4 -2c2 1 11 2 26 3c10 1 19 2 26 5l3 4c5 0 14 4 21 4c3 9 18 7 19 8l9 12l3 4l9 5v7c18 8 32 12 43 12v8c11 0 13 8 17 12c5 5 7 14 7 25l12 3l13 33c4 9 7 17 8 23c-3 6 -5 13 -5 20l9 9l1 12l2 7c6 11 9 28 9 49l-9 12l-3 3v9
l-9 12c-21 3 -38 4 -51 4s-22 -1 -29 -4l-8 -12c-8 -8 -4 -27 -12 -32c3 -3 5 -8 5 -17l-5 -7c3 -2 5 -8 5 -17l-5 -7c3 -2 5 -8 5 -17c-6 -11 -9 -21 -9 -31c-13 -15 -22 -24 -28 -28l-8 -5l-7 5c-5 -5 -14 -7 -26 -7c-11 0 -18 -1 -20 -3c-2 -1 -12 -3 -29 -6h-6
c-7 0 -13 1 -16 4c-4 0 -11 6 -15 6c-2 0 -4 -1 -5 -3c-7 3 -12 6 -15 9l-10 7l-3 12c-28 11 -41 18 -44 21c-3 11 -3 24 -12 24v31l7 12c-5 3 -8 12 -11 28v7c0 7 1 13 4 17c5 0 9 13 12 13c-7 13 -11 19 -12 20l7 4c-5 35 -11 61 -12 80v20l5 12c-3 2 -4 5 -4 10s1 7 4 7
c-3 5 -5 11 -5 19l5 12l-5 4c4 7 6 16 6 25c0 7 -2 18 -6 34c-2 11 -3 21 -3 31v7l3 12l5 3v12l16 17c-1 1 -2 3 -2 6c0 1 1 3 2 8c3 7 4 11 4 14l4 4c15 8 27 12 35 12l9 12c0 3 1 6 4 10v6v4c5 3 12 12 16 12c5 1 17 3 34 8c13 3 23 4 30 4l4 -8h36c14 -4 22 -8 24 -12
l12 -12l9 -12v-8l4 -4v-8h1c4 0 8 -2 12 -5l11 -11c-1 -1 -1 -2 -1 -3c0 -5 4 -12 4 -19v-2c3 -5 4 -18 4 -40c3 -5 12 -11 12 -16c1 -1 4 -1 9 -1c11 0 24 2 35 2c4 0 7 0 9 -1c2 3 7 5 15 8c5 2 8 6 8 11c0 25 -1 43 -3 53c-9 0 -8 16 -12 16c0 3 2 7 7 18c1 3 2 6 2 8
c0 3 -1 3 -1 6c-5 5 -8 16 -8 32l-13 8c-2 0 -7 4 -15 13l-4 3l-12 9c-15 11 -27 18 -36 23c-2 7 -21 9 -21 17c-27 13 -58 19 -92 19c-9 5 -16 7 -20 8c-33 -5 -53 -8 -60 -8l-13 -7c-9 -9 -15 -14 -19 -17c-15 0 -27 -3 -36 -8l-12 -4c-14 -18 -26 -29 -37 -32l-20 -20
c-12 -20 -14 -62 -23 -77c-3 -8 -5 -33 -5 -75l9 -9l-9 -11c-3 -4 -4 -18 -4 -41l4 -12l5 -4c3 -3 4 -13 4 -32c-10 -7 -15 -14 -16 -20v-24c2 -7 3 -21 3 -40l-3 -4c-6 -31 -9 -55 -9 -70v-6l-3 -4c2 -5 3 -20 3 -44c-4 -4 -1 -21 -8 -24c-3 -9 -4 -37 -4 -84l4 -13
c3 -1 6 -7 13 -15c5 -5 7 -9 7 -12c18 -19 29 -31 32 -37c16 -7 31 -16 47 -27c9 -5 21 -16 38 -29c11 0 28 -4 36 -4c8 -5 21 -6 38 -7c19 -1 30 -3 34 -5z" />
    <glyph glyph-name="d" unicode="d" 
d="M268 0h4h1h2c2 1 4 1 5 2s2 1 3 2c4 2 7 3 9 4l12 4l4 8l1 1c1 0 3 0 5 1h4c5 0 9 1 10 2c1 -1 3 -2 6 -3c4 -1 9 -2 10 -2s2 0 3 -1v-1l1 -1c1 -1 3 -1 4 -2h2c1 0 1 0 2 -1c1 0 3 0 5 -1h11c1 1 6 5 14 13c2 2 4 4 6 5c3 1 5 2 8 2v8c1 0 3 0 5 1c1 1 2 1 3 1h2
c8 2 17 3 26 3l16 11c1 1 3 1 5 2c1 1 3 2 4 3l5 5l10 10c1 2 3 4 4 6c3 2 5 4 7 7c0 1 0 2 1 3l4 5h1c3 3 5 5 6 8c1 1 1 3 1 4c5 14 10 27 13 40c1 5 2 9 3 14c2 8 4 15 5 22c1 3 1 7 2 11c1 2 1 4 1 5c1 5 1 10 1 15l3 12h1c1 0 2 1 3 2c1 2 2 5 3 8v2v3v2l1 2
c1 1 3 2 4 2c0 3 0 8 1 15c1 5 1 11 1 16v4c1 5 1 9 1 13c0 2 0 4 1 6c0 3 0 6 1 9v5l-1 1c-2 1 -4 3 -5 5c-3 5 -6 10 -8 14c0 1 0 1 -1 2s-1 2 -1 3l-1 3l17 16l4 24l-4 8l-1 1l-1 4c0 1 0 3 -1 4v3c0 1 0 3 -1 4c-1 8 -1 16 -1 25l-1 1l-3 6c-1 2 -1 4 -2 5s-1 2 -1 2
c0 1 0 1 -1 2l-1 4v6v4c0 1 0 1 1 2c0 1 0 2 1 3l-1 1c-1 3 -3 5 -5 6l-1 1v1l-2 3v5c0 1 0 2 1 3l8 4c1 1 1 3 1 5v4c0 1 0 3 1 4c1 2 1 4 1 5l2 2h1h1c-1 2 -1 4 -2 6s-1 4 -1 6v1c0 1 0 1 -1 2l-1 13c0 5 0 10 -1 14v2c0 3 0 6 -1 7v1c-3 0 -5 0 -7 1c0 1 0 1 -1 2
s-2 3 -3 5s-1 3 -2 4c-2 3 -3 4 -4 4v1l1 5c1 3 1 7 2 10c1 1 1 1 1 2l3 15c1 4 1 8 2 12l-1 1v2c-1 3 -1 6 -2 9s-1 5 -1 7v8v5c-14 13 -23 23 -28 28v1c1 1 2 1 2 2c2 3 4 5 5 6v1c0 2 -1 4 -2 7c-1 1 -1 2 -1 3l-4 12l-2 2c-2 1 -4 2 -5 3h-1l-11 7c-1 1 -3 1 -4 2
c-3 1 -5 3 -8 4l-2 2l-3 2v2c-2 1 -4 1 -5 2c-2 1 -3 3 -4 4c-2 3 -3 7 -3 11l-21 19h-3h-3c-1 1 -2 1 -3 1l-1 1c-3 1 -6 3 -7 6c-1 0 -1 0 -2 1c0 1 0 2 -1 3h-3c-2 0 -4 0 -5 1c-3 1 -7 1 -11 2c-3 1 -7 2 -12 3c-3 1 -6 1 -10 2s-9 2 -15 4l-8 4h-2h-2c-2 1 -4 1 -5 1
c-1 1 -2 1 -3 1c-2 1 -4 1 -5 1c-2 1 -4 1 -5 1c-4 1 -8 1 -11 2h-2h-6l-4 1c-2 1 -5 1 -8 2c-3 0 -4 1 -7 1c-2 0 -5 0 -8 1c-3 0 -6 1 -6 1h-2h-28l-4 8c-1 -1 -3 -1 -4 -1l-9 -1h-2c-1 -1 -2 -1 -3 -1h-1l-12 -3l-1 -1c-9 -3 -19 -5 -28 -7c-1 0 -3 -1 -4 -1s-3 0 -5 1
h-4c-9 1 -21 2 -36 2l-12 -8v-24c5 -9 10 -16 13 -23l1 -1c4 -7 7 -11 11 -16l8 -12l-2 -2c-3 -4 -4 -8 -5 -13c0 -1 -1 -3 -1 -4v-3c0 -1 1 -4 2 -8v-2c0 -2 0 -4 1 -5v-4v-7c-2 -7 -3 -18 -3 -32v-16c-1 -3 -1 -7 -2 -10c0 -1 0 -2 -1 -3v-11c0 -8 1 -16 3 -24l6 -9
c1 -3 1 -6 2 -9v-3c-5 -8 -7 -17 -7 -26v-5c1 -7 3 -14 7 -21h2c3 -1 4 -5 5 -12v-3l-3 -8c-1 -1 -1 -2 -2 -3l-3 -9v-3l-1 -1c-1 -3 -1 -7 -1 -11v-6v-8v-5v-2l1 -1v-3v-7c1 -8 2 -12 2 -16v-2c-7 -11 -11 -19 -12 -24c1 -2 1 -4 1 -6c0 -1 0 -2 1 -3c1 -7 1 -15 2 -25v-14
l-13 -16v-40c-3 -5 -6 -12 -8 -23v-2c-2 -10 -4 -17 -7 -20c1 -3 2 -6 2 -9v-3c0 -3 -1 -7 -2 -12c1 -1 2 -5 3 -13v-6c-1 -5 -1 -12 -1 -22v-9c-1 -6 -1 -11 -2 -14l-9 -16l-12 -8c-1 1 -3 1 -5 1c-5 0 -12 -2 -23 -5l-12 -15v-21c-7 -7 -11 -13 -12 -16l1 -1
c1 -2 3 -5 4 -8v-3c0 -1 -1 -2 -2 -3v-1h-2h-1v-3v-3c1 -2 1 -4 2 -5c1 -3 1 -6 2 -8v-1l10 -10l4 -4c6 -5 11 -8 15 -10h128v-1h17c1 0 2 0 3 -1c2 0 3 -1 4 -2c2 -1 3 -3 4 -4v-1h2h7h6c1 0 4 0 7 1h5c1 0 3 0 6 -1h2l1 -1c2 0 4 -1 6 -2h2zM288 124c-1 0 -2 0 -3 1l-6 2
c-1 1 -4 2 -7 2c-5 2 -11 4 -16 5l-1 1h-1c-3 1 -5 1 -8 1c0 1 -1 1 -2 1c-3 1 -5 1 -7 2l-5 1l-12 9v14v9c1 4 1 8 2 12v3c1 1 1 1 1 2l1 3v65c0 1 0 2 -1 3v2c-1 1 -1 1 -1 2c-1 2 -1 5 -2 8c-1 1 -1 2 -2 3v2v2v3v5c1 1 1 3 1 5h1c0 1 0 2 -1 3v5c0 1 0 3 -1 5
c0 5 0 10 -1 15v20c-1 6 -1 12 -1 19c0 6 0 12 -1 18v37c0 3 0 5 -1 8c1 5 1 9 0 14c0 17 0 33 -1 48v4c-1 19 -3 35 -5 50c0 20 2 36 7 48h-1c-2 0 -3 2 -4 5v2c0 5 1 8 4 9h1l-7 8c1 5 2 11 3 19c0 4 0 9 1 14v13v13v22c1 13 1 23 2 31c0 3 0 5 1 8l5 12h104l9 -6h1
c1 -1 3 -2 4 -2c1 -1 3 -1 4 -2c1 -2 3 -4 5 -5c1 -1 1 -1 2 -1v-1l3 -3l3 1c1 0 3 0 4 -1h1h2c3 -1 5 -1 8 -1h5l1 1l6 -5l3 -5c3 -3 5 -5 8 -7c1 -1 2 -3 3 -4c2 -3 4 -5 6 -7c4 -5 7 -9 10 -12v-2c0 -1 0 -1 1 -2c0 -1 0 -1 1 -2l3 -3c3 -2 5 -4 5 -6l1 -1v-1l1 -1v-2
c0 -1 0 -1 1 -2s1 -3 1 -5v-1l3 -9c0 -1 1 -2 4 -3v-15v-8c1 -1 1 -3 1 -5c1 -5 1 -9 2 -12v-4v-3c0 -1 0 -1 1 -2l3 -6c1 -2 3 -4 5 -6v-1l-1 -1c-1 -1 -2 -2 -3 -4l-1 -2c-3 -5 -4 -8 -4 -11c1 0 1 0 2 -1c2 -1 3 -3 4 -6l1 -1v-5c1 -1 1 -3 1 -4c1 -3 3 -6 4 -7l4 -12
v-25l-4 -12v-51v-9c-1 -5 -1 -9 -1 -12v-8c-1 -5 -1 -9 -1 -14c-1 -2 -1 -4 -1 -6v-4l-9 -4v-8l9 -4v-8c-4 0 -6 -2 -7 -6v-2v-3l1 -3l1 -1c1 -1 3 -1 5 -1l-12 -12l-5 -12v-20c-1 -10 -1 -18 -2 -25c-1 -5 -1 -8 -2 -10v-1v-44c-1 -1 -1 -1 -2 -1l-2 -1l-3 -3l-1 -2l-1 -1
v-2v-1l-3 -13c-3 -3 -5 -6 -8 -9c-3 -2 -6 -3 -8 -3c0 -1 0 -1 -1 -2s-2 -1 -3 -2l-5 -5l-11 -11l-2 -2c-2 -1 -3 -3 -4 -4c-3 -3 -5 -6 -8 -8l-2 -2l-2 -1c-1 -1 -1 -1 -1 -2c-3 -3 -6 -5 -9 -6c-1 0 -1 0 -2 -1h-2c-2 -1 -4 -1 -5 -1c-1 -1 -2 -1 -3 -1l-2 -1h-1h-2
c-3 -1 -5 -1 -7 -2c-1 0 -1 0 -2 -1c-3 0 -6 -1 -7 -2c-5 -1 -9 -2 -13 -3l-1 -1c-1 0 -1 0 -2 -1h-3c-3 -1 -5 -2 -7 -2h-1z" />
    <glyph glyph-name="e" unicode="e" 
d="M345 0c8 1 12 2 12 4c3 0 7 1 12 2c6 1 10 2 13 2l3 8c2 2 4 3 6 3c5 0 18 -11 18 -11c4 0 11 1 20 1c8 0 17 -1 32 -1h11c17 0 30 1 39 4l8 4c-1 3 -2 5 -2 6c0 7 14 11 14 18c3 12 4 22 4 29c-4 8 -9 17 -9 24v4c-9 15 -18 24 -27 28l-9 4h-16c-5 -3 -11 -4 -16 -4
c-15 -3 -31 -5 -49 -5c-3 0 -27 2 -70 3c-5 1 -10 1 -14 1h-12c-17 0 -31 -1 -40 -3l-5 -4c-11 0 -28 4 -36 4l-12 -8h-36l-4 4c-9 0 -18 3 -28 8l-8 12v28l4 12c1 7 1 16 1 28c0 11 1 19 3 24l8 9v32l4 4c-3 6 -4 13 -4 20l4 4c-11 23 -7 39 -11 64c0 3 -1 3 -1 6
c0 5 1 8 4 11v12c6 8 23 12 52 12l8 -8c13 5 26 7 39 7c11 0 26 -2 47 -6c21 -3 36 -4 45 -4s17 1 26 3c8 13 17 25 17 40v4l7 12c-8 5 -12 10 -12 17c-10 10 -18 16 -24 19c-17 3 -30 4 -43 4s-22 -1 -29 -4c-3 -5 -14 -7 -33 -7c-56 0 -89 1 -100 4l-12 8l-4 12l8 12l-8 8
c0 1 1 5 3 10l2 4l-1 2c3 13 4 25 5 38v6c0 11 -2 20 -5 29c0 18 4 83 4 96c4 1 6 5 6 12s2 12 6 13h36c15 5 36 8 61 8h11c11 -1 20 -1 28 -1h22c13 0 21 0 24 1c0 -5 5 -8 15 -8h45l12 -9c13 0 44 5 57 5l3 -5l3 -1c9 0 22 10 25 10l9 24c-2 1 -3 5 -3 12c0 5 1 8 3 8v4
l-4 8v4c-8 8 -12 16 -12 24c-3 1 -7 2 -14 5c-5 1 -7 2 -7 3c-23 -6 -52 -9 -87 -9h-19c-7 0 -16 0 -27 1c-21 1 -35 2 -46 2c-45 0 -82 -6 -111 -18h-16c0 6 -5 9 -16 9c-20 -8 -20 -9 -35 -11c-7 -1 -11 -1 -14 -1c-13 -11 -21 -17 -28 -21c-3 -4 -4 -15 -4 -32l-8 -4
c5 -3 7 -8 7 -15v-6c0 -8 3 -12 9 -12c1 -7 1 -13 1 -19v-31c0 -3 0 -7 -1 -10c0 -8 5 -24 5 -28l3 -4c-2 -15 -3 -29 -3 -42c0 -15 1 -28 3 -39c0 -17 -3 -50 -3 -61c-3 -7 -5 -29 -5 -64l-8 -8c-5 -16 -8 -39 -8 -69c5 -3 8 -8 8 -16l-8 -8v-88l-4 -5v-96l-8 -8
c0 -3 -1 -4 -1 -7c0 -8 1 -17 4 -26c3 -15 5 -24 5 -28c12 -16 22 -37 37 -44h72l16 8c13 -3 42 -4 82 -5c35 0 61 -4 79 -11z" />
    <glyph glyph-name="f" unicode="f" 
d="M97 0h9c11 0 33 4 44 4c11 17 20 27 25 32c1 1 2 4 5 9s5 7 6 8c-8 5 -7 25 -11 32v12l8 13l4 3v9l-12 12c0 8 -4 32 -4 41c3 0 5 1 5 2c0 3 -5 12 -5 13c1 1 1 4 1 7c0 9 -5 23 -5 26c1 1 2 3 2 4s-1 4 -2 8c-1 1 -1 2 -1 5s2 5 5 7l4 12v12c-7 7 -10 29 -16 29
c-3 9 -4 17 -4 24v4l16 25v16c8 8 13 12 16 12c8 0 28 -4 37 -4c3 5 16 11 19 16h13l12 -4c15 -7 23 -11 28 -12c15 0 29 4 41 12c9 7 16 12 20 16v53c-11 10 -16 17 -16 20c-37 6 -63 9 -76 9h-5c-9 0 -23 1 -43 1c-19 0 -33 1 -42 2l-4 9l-4 3l-5 9v3l-3 9l3 3l-3 5
c-5 11 -7 25 -8 42v28c0 7 0 12 -1 15l-3 3c0 5 1 11 3 19c1 3 1 6 1 10s0 7 -1 8c6 5 9 13 9 25l12 8l16 16h37c11 6 24 9 39 9c9 0 24 -2 43 -6c20 -1 34 -4 43 -4h8c3 0 5 0 8 1l12 -12h45l8 -9c0 -9 3 -18 8 -28c-4 -6 -6 -13 -6 -21c0 -5 1 -10 3 -16l7 -12l20 -19
c5 0 12 -1 25 -2c7 -1 12 -2 17 -2c3 0 2 1 5 1c8 1 14 3 18 6l9 16c0 11 2 23 3 40c3 17 4 30 4 37l5 9c-12 3 -13 16 -17 28c11 17 17 39 17 65l-5 12l-19 20l-25 8c-85 -4 -148 -7 -191 -8l-12 8c-4 0 -8 1 -13 1c-19 0 -45 -4 -80 -13c-19 2 -36 3 -52 3
c-17 0 -34 -1 -49 -3c-11 -5 -25 -11 -29 -20l-12 -36l5 -5c-3 -5 -5 -11 -5 -19l5 -5c5 -15 7 -34 7 -57c4 -11 6 -24 6 -39c0 -10 -1 -24 -3 -42c-2 -19 -3 -32 -3 -40l5 -4c3 -13 4 -29 4 -48c-15 -21 -23 -32 -24 -33c1 -21 3 -54 3 -97l5 -4c-7 0 -4 -17 -8 -17l3 -4
c-2 -4 -3 -13 -3 -28c1 -19 4 -58 8 -77c-6 -18 -12 -31 -17 -40c3 -7 4 -17 4 -28s-3 -26 -7 -47c-3 -19 -5 -34 -5 -43l-4 -4l12 -12c0 -5 2 -12 5 -23c5 -13 6 -21 7 -26l5 -12c7 -3 18 -4 31 -4z" />
    <glyph glyph-name="g" unicode="g" 
d="M443 -106c7 1 12 2 13 2c-1 0 -2 0 -3 -1c21 5 36 7 43 7c17 18 26 30 28 37c-11 5 -11 20 -12 32l8 4c-5 11 -7 28 -7 51s-2 40 -5 51v12l-5 12l5 4v8l-5 5c3 9 5 19 5 28c-3 1 -5 8 -5 20c6 11 9 19 9 24v70c-5 3 -8 19 -12 20c0 12 20 25 20 33l-8 8v69l-4 4
c3 1 5 2 5 5c0 4 -11 17 -10 20v28c-5 0 -7 5 -7 16c-9 0 -25 8 -34 9c-48 3 -108 3 -183 3c-9 -5 -15 -7 -20 -8c-8 -13 -13 -23 -16 -28c2 -2 4 -5 5 -9l4 -12c1 -8 5 -16 12 -20c-2 -3 -3 -5 -3 -6c0 -4 6 -8 6 -12v-2l5 -4c9 -5 16 -7 20 -8c1 -1 2 -2 4 -2c1 0 3 1 6 2
c4 3 7 4 10 4l13 8c17 0 29 -1 36 -4c5 4 21 9 24 16h5c3 0 7 0 12 -1c6 0 10 -2 12 -7v-33l-4 -4c5 -16 8 -46 8 -90c-5 -19 -8 -43 -8 -72c-8 -3 -18 -12 -25 -12l-12 -9v-8l-8 -4l-4 -8c-8 0 -19 -12 -24 -12c-11 -5 -18 -9 -20 -12c-5 -2 -10 -3 -15 -3
c-16 0 -45 10 -59 10c-3 9 -21 9 -24 12h-5l-12 5c-14 14 -23 25 -28 33c-5 11 -7 19 -8 24l-4 4v8l-16 16c-3 9 -4 20 -4 33c0 12 3 34 7 62c3 21 5 39 5 52v8l-8 12l-5 4v16l5 5c-3 24 -5 60 -5 109l5 12c-3 1 -4 5 -4 12v13c0 2 0 3 -1 4c8 15 15 24 21 28l4 13v16l12 37
c3 1 4 4 4 10s2 11 5 14l-5 4c5 3 8 8 8 17c12 4 34 11 45 15l8 9l-1 2c0 7 10 11 10 18c17 -7 29 -12 36 -17h4c9 4 21 7 25 12c4 -5 20 -11 20 -19c21 -11 39 -19 48 -20v-9c8 -8 14 -12 17 -12c16 -24 20 -33 20 -49c-3 -9 -4 -21 -4 -36l4 -5c5 -3 12 -4 21 -4
c3 1 8 2 14 2c5 0 10 1 14 2l12 8c0 7 5 15 5 22l-1 3l-4 8c2 0 3 3 4 8v3c0 4 -1 6 -4 6c5 10 10 15 13 15c-6 3 -9 10 -9 21c0 5 -8 10 -8 17c-7 0 -13 3 -19 8c-9 7 -13 11 -13 12v16c2 2 3 9 3 20l-3 12h-3c-11 0 -11 12 -18 12v9c-5 3 -18 12 -29 12h-7
c-13 7 -21 11 -25 12c-13 3 -29 4 -50 4s-44 -1 -72 -4l-3 -4c-5 -3 -15 -4 -29 -4l-12 -8c-13 -11 -22 -19 -29 -24c-5 0 -14 -5 -21 -5l-8 -8v-8c-7 -5 -24 -24 -32 -27c-8 -4 -16 -18 -25 -18c0 -3 -3 -13 -3 -16l-9 -12c0 -5 0 -14 -3 -29c-1 -5 -2 -11 -2 -15
s1 -8 2 -13l-9 -4c4 0 6 -3 6 -9c0 -5 2 -7 6 -7c0 -16 -3 -73 -3 -90l3 -4c3 -4 4 -18 4 -41l-4 -3c3 -5 4 -17 4 -37l5 -4l-5 -5c-5 -13 -7 -38 -7 -77l-9 -4c0 -5 9 -15 9 -20l7 -8c-8 -15 -13 -24 -16 -28c12 -31 18 -68 18 -110c0 -13 -1 -27 -2 -42l-4 -12l4 -3v-17
c20 -20 31 -33 33 -40v-8c9 -9 32 -16 37 -21l3 -8l21 -21h8c11 -3 16 -6 21 -7h12c13 0 31 -1 54 -4c21 -3 40 -4 53 -4h11c9 12 15 20 20 24c6 0 11 7 16 20l12 9h17l8 -5v-33c-5 -17 -7 -29 -8 -36l-4 -3c0 -7 -6 -18 -6 -26c0 -1 0 -2 1 -3l5 -12c5 -9 9 -14 12 -17
c10 -5 18 -11 24 -16h17zM450 -106c1 1 2 1 3 1c-1 -1 -2 -1 -3 -1z" />
    <glyph glyph-name="h" unicode="h" 
d="M463 0c9 3 15 4 18 4c-3 -1 -6 -3 -9 -4c31 10 51 20 58 29c3 5 4 14 4 29l8 13l-8 3c8 3 4 22 12 25c-4 11 -6 21 -6 29c0 3 1 7 2 12c-11 11 -17 20 -20 29l4 5l-9 8c3 8 4 18 4 30v11c-3 24 -4 38 -4 37h-8c0 8 -9 14 -9 19v2l-3 4c2 5 3 20 3 46l5 3c3 10 4 27 4 50
l-4 12l-8 9c-3 6 -5 13 -5 20l5 13l3 4v5c0 9 5 21 5 28v4c-8 3 -3 22 -8 25c-4 12 -6 26 -6 43c0 9 1 23 3 43c2 19 3 33 3 42l8 9v99c8 8 5 25 12 29c-5 12 -11 20 -12 24l-5 8c-11 0 -21 13 -28 13h-24l-9 -8c-3 -9 -4 -19 -4 -29c5 -9 7 -17 7 -26c0 -7 -1 -13 -3 -19
v-9c0 -8 9 -25 9 -33c-4 -47 -5 -85 -5 -113v-24l5 -12l-5 -8c3 -3 5 -9 5 -17l-5 -12l5 -8v-4l-5 -8v-13c-9 0 -20 -4 -25 -4c-3 1 -10 12 -21 12c-15 6 -28 12 -37 17h-25l-12 -4c-13 -3 -22 -5 -25 -5c-3 3 -7 5 -11 5c-5 0 -8 1 -9 4h-49c-11 0 -17 0 -20 1
c-26 1 -47 6 -63 16l-17 16v37l4 4c0 28 3 51 4 71c-5 11 1 21 -6 30c-2 4 -3 7 -3 9c0 1 0 1 1 2l4 8c3 9 3 36 4 45c7 4 11 17 12 17c0 11 2 17 5 17c0 8 -8 28 -8 32l-22 22c-9 2 -24 3 -45 3c-3 -7 -16 -12 -16 -20v-25l-5 -4c3 0 4 -3 4 -8c0 -6 -1 -9 -4 -9
c-5 -22 -8 -36 -8 -41c6 -9 10 -21 12 -37c1 -17 2 -28 5 -33l-4 -5c-4 -11 -6 -23 -6 -36s2 -24 6 -33l-5 -5c-5 -14 -8 -33 -8 -57l8 -13l5 -4c3 -5 4 -19 4 -42l-4 -12l-5 -8c3 0 4 -3 4 -9c0 -5 -1 -8 -4 -8v-8l5 -4c-1 -2 -1 -5 -1 -8c0 -4 1 -9 3 -14
c4 -11 6 -19 6 -24l-21 -20v-21c-8 -6 -3 -26 -8 -29c1 -1 1 -3 1 -7v-9c0 -3 1 -5 3 -5c-3 -4 -4 -16 -4 -37l-4 -4c8 -16 12 -35 12 -58l-4 -7c-5 -26 -8 -61 -8 -104c1 -4 12 -24 12 -33h8c17 -8 35 -12 52 -12c12 0 22 2 31 7c5 11 8 25 8 42l5 12c-3 13 -5 44 -5 95
c-8 4 -12 18 -16 21v9l4 3v9l12 8v25c-2 1 -3 6 -3 16l-13 13l4 4l-4 4c-6 8 -9 22 -9 41l5 12l4 5v17l4 12l12 8l21 4c7 1 36 2 95 9c28 3 52 4 73 4h19l12 8c1 -1 4 -1 10 -1c5 0 15 1 28 2h7c12 0 22 -2 29 -6c0 -1 -1 -4 -3 -11l-1 -2c0 -2 1 -3 4 -3
c-8 -5 -5 -29 -12 -33v-58l4 -4c-4 -5 -7 -13 -9 -24c-1 -12 -4 -19 -8 -21c3 -5 4 -17 4 -34l9 -12c-7 -5 -11 -12 -14 -22c-3 -12 -5 -20 -8 -23c10 -8 11 -36 13 -41c-5 -23 -8 -52 -8 -88l17 -12c5 -3 22 -1 29 -4z" />
    <glyph glyph-name="i" unicode="i" 
d="M240 0c29 0 52 1 68 4c7 4 12 7 17 8c12 5 20 11 24 20c5 13 8 32 8 57l-8 12l-5 4v16l5 4l-5 4l5 4c0 5 1 12 1 19c0 11 -1 20 -2 35c-3 27 -4 42 -4 47l5 7c-3 3 -5 9 -5 17c4 1 6 2 6 5c0 4 -6 12 -6 16v12c-2 1 -3 7 -3 19l3 5l-3 3c5 10 8 17 8 21
c-5 13 -3 47 -8 60c-9 3 -12 18 -16 21v7l19 21c4 11 6 24 6 39c0 9 -1 21 -3 38s-3 31 -3 40l5 3c5 12 8 34 8 65c5 13 8 24 8 32l-24 24l3 5l13 7c0 2 1 7 2 14c1 6 3 9 6 10c3 5 4 16 4 33l4 12l-4 4c0 10 -7 22 -20 37c-3 -1 -4 -2 -5 -2c-2 0 -4 1 -5 2c-3 2 -6 3 -7 3
c-15 4 -26 6 -31 9l-5 3c-3 -1 -8 -2 -14 -2c-5 0 -10 1 -14 2l-4 -3c-13 -6 -23 -9 -28 -9l-21 -20v-16c-2 -12 -3 -31 -3 -57l3 -3c6 -11 9 -25 9 -41l-9 -8c-3 -9 -4 -18 -4 -29c0 -15 4 -46 4 -60l-3 -3c1 -2 3 -5 4 -10v-2c0 -3 -1 -5 -4 -5l2 -6c1 -2 3 -5 4 -10
c2 -5 5 -8 9 -8v-28l5 -4c-4 -1 -5 -7 -5 -12l-1 -7c0 -3 -1 -4 -2 -5c-6 -9 -9 -19 -9 -32l-3 -9c4 -4 6 -11 6 -22c0 -9 2 -17 6 -22l3 -4c-5 -17 -7 -35 -7 -54c0 -15 1 -29 4 -46l-9 -9c-1 -16 -3 -37 -3 -65c8 -3 7 -19 12 -24c-8 -15 -12 -38 -12 -68
c8 -3 7 -24 12 -28l-9 -8c6 -3 9 -9 9 -17l-9 -8l9 -4c0 -2 -3 -9 -9 -20v-8l9 -4l-9 -4z" />
    <glyph glyph-name="j" unicode="j" 
d="M253 0c17 3 26 4 27 4l-14 -3c31 5 73 7 126 7c5 4 16 13 17 13c21 15 38 23 49 31c1 3 2 6 4 9l8 11c5 8 9 15 9 19c13 8 21 15 26 22l5 4l8 5v9c9 3 13 12 13 26c8 11 12 18 13 21l-8 5c5 3 8 10 8 21l-8 5l8 5c0 11 5 36 5 41c0 7 8 23 8 32c-1 3 -1 10 -2 19
c-1 6 -3 11 -6 16s-5 18 -5 39c3 3 5 9 5 18c-3 9 -6 21 -7 36c0 3 -1 6 -1 9c0 9 1 19 2 30c1 10 1 18 1 23v14c-9 0 -13 6 -13 18v13l-4 13l4 9c-3 9 -4 40 -4 91l4 13l5 5c0 13 -2 23 -5 29l-4 5v8c3 1 4 2 4 5c0 4 -4 10 -4 13s1 4 4 5v8c5 3 11 13 18 13l4 13
c-12 18 -19 31 -22 40l5 13l-5 8c-5 5 -21 8 -21 13h-49c-10 -5 -17 -7 -21 -8l-8 -9v-39l3 -13c7 -3 11 -23 18 -26c-5 -18 -8 -44 -8 -78c4 -18 6 -41 6 -68c0 -9 -1 -25 -2 -46c-1 -10 -1 -19 -1 -26v-19c0 -21 2 -39 5 -55c-14 -29 -21 -58 -21 -87l3 -13l5 -4
c0 -13 -18 -19 -21 -26c0 -5 1 -10 1 -17c0 -8 -1 -17 -2 -28c-3 -24 -4 -37 -4 -42l-8 -8v-18c-28 -33 -49 -52 -62 -57h-30l-13 -4l-5 -4c-7 -3 -14 -4 -20 -4c-12 0 -19 6 -52 23c-13 7 -22 13 -27 20l-5 8c-9 7 -16 13 -21 18l-9 44l4 3c-3 2 -4 10 -4 23l4 13v8
c-3 5 -4 18 -4 39l4 5c3 6 5 20 5 43c-7 9 -10 15 -13 18c-9 5 -18 8 -30 9c-3 1 -7 1 -10 1h-23c-20 -1 -31 -2 -34 -2c-3 -3 -7 -6 -16 -13c-5 -3 -8 -8 -10 -13v-35l-8 -4c5 -3 8 -10 8 -22l-8 -4c5 -3 8 -9 10 -16c2 -9 3 -14 3 -14v-10c-3 -8 -7 -30 -8 -39l8 -13v-8
l5 -5c2 -11 3 -28 3 -52c3 -1 5 -8 5 -21c13 -8 30 -32 39 -35c0 -7 9 -11 9 -18c13 -17 23 -31 30 -39c3 -9 22 -4 22 -13c39 -17 73 -26 100 -26z" />
    <glyph glyph-name="k" unicode="k" 
d="M499 0c8 1 13 2 16 2h3l-2 -2c14 4 22 8 24 12l9 8c2 8 3 19 3 34l5 13c-9 13 -17 22 -21 29l-9 4c-5 17 -11 29 -12 37c-8 4 -8 22 -13 25c0 1 1 3 1 4c0 9 -10 15 -13 22c-5 4 -13 15 -26 33c-11 15 -20 25 -28 30c3 6 4 12 4 18c0 8 -1 18 -4 27l-21 22h-4l-4 8l-17 4
l-8 21c0 17 -1 28 -4 33l-5 4v8l-8 5v8c-6 7 -12 16 -17 29c-11 0 -17 4 -17 12l-3 5v8l-5 4v8l-8 5v8c-6 6 -9 12 -9 17c-7 8 -12 14 -16 17v8c13 13 24 23 33 29l5 13l8 4c16 8 38 26 67 54c0 9 8 16 8 21c13 7 32 16 37 25v5c15 16 22 20 38 20c21 25 37 50 50 75v13
c-3 8 -22 8 -25 17c-3 0 -4 1 -7 1c-2 0 -6 -1 -12 -2c-9 -3 -15 -4 -18 -4c-9 -6 -38 -25 -46 -33c-11 -11 -21 -18 -30 -21c-10 -20 -27 -39 -52 -56l-60 -44v-8c-28 -23 -35 -29 -50 -37c-7 -4 -11 -8 -13 -13c-14 0 -21 -3 -21 -9c-19 -5 -33 -10 -41 -13l-9 13
c-3 5 -1 21 -4 34v42l4 12l4 8c-3 3 -4 8 -4 17l4 8c-3 1 -4 6 -4 17l4 8l-4 5v70c-7 8 -12 14 -16 17c-15 5 -30 8 -47 8c-5 -4 -21 -11 -25 -16v-17l-4 -12c-5 -3 -8 -9 -8 -17l8 -13l4 -8c3 -5 5 -19 5 -42c-6 -5 -9 -16 -9 -33v-9c3 -12 5 -25 5 -42v-12
c0 -3 0 -8 -1 -14v-26c0 -17 2 -31 5 -43l3 -5c3 -4 5 -16 5 -37c-7 -3 -10 -10 -11 -19c-2 -13 -4 -20 -6 -23c-1 -1 -1 -2 -1 -4c0 -5 1 -10 5 -21l-4 -8c-3 -11 -4 -21 -4 -32c0 -5 2 -20 3 -41c1 -9 2 -18 2 -26c0 -5 -1 -10 -1 -14c-6 -3 -5 -25 -13 -25
c-2 -5 -3 -21 -3 -50l3 -13l-3 -3v-9l-5 -4c3 -5 5 -17 5 -38l-5 -13l-4 -3c-5 -11 -8 -28 -8 -50c5 -3 8 -11 8 -22c-5 -3 -8 -9 -8 -20c9 -9 17 -14 20 -17c27 -13 48 -19 63 -19c11 0 19 2 26 6c9 7 15 12 20 17c3 15 5 35 5 58c3 1 5 3 5 6l-1 3c-1 3 -2 5 -2 6s0 1 1 2
c6 10 10 16 13 17v16l-4 5c-6 8 -9 19 -9 33l-3 4v42c-7 7 -4 26 -9 33c-11 11 -16 19 -16 22c21 27 25 31 25 54c-3 3 -5 10 -5 21l5 12c0 5 -1 13 -4 22c-1 7 -2 11 -2 13c0 3 0 6 1 7l-4 8l4 12l8 13h9c11 12 19 20 25 25v9l13 8l12 -8c3 -11 13 -25 13 -34l4 -4
c-1 -1 -1 -2 -1 -4c0 -1 0 -4 1 -8l4 -9c11 -11 17 -18 17 -20c3 -7 9 -14 17 -22l8 -12v-8l4 -5c0 -8 8 -25 8 -33l5 -4c-1 -1 -1 -2 -1 -3c0 -5 9 -11 9 -16v-2l12 -12l5 -13v-9c9 -10 15 -18 16 -25c0 -4 4 -18 4 -25l5 -3v-9c17 -22 25 -39 25 -50v-13l8 -4
c9 -17 16 -28 21 -33c8 -28 14 -50 21 -63h8l4 -9c28 -9 46 -15 59 -20zM516 0h-1h1z" />
    <glyph glyph-name="l" unicode="l" 
d="M504 0h5c8 0 16 8 20 8c4 9 8 13 12 13c1 0 2 0 2 -1h2c0 12 1 19 4 21c-3 19 -4 72 -4 165l4 13l4 4c-5 0 -3 16 -8 16v16l4 4c3 5 4 16 4 33c-11 16 -17 25 -20 28c-1 -1 -2 -1 -3 -1c-4 0 -8 3 -13 9c-11 2 -23 3 -36 3s-24 -1 -33 -3c-3 -5 -13 -15 -16 -20v-44
c2 -2 3 -6 3 -12v-1c0 -7 2 -11 5 -12l-5 -4c-3 -10 -5 -21 -6 -34v-14c0 -5 0 -11 1 -18c1 -15 2 -25 2 -32l3 -12c-1 0 -4 -1 -7 -1c-4 0 -8 1 -12 3c-16 7 -26 9 -29 10c-7 -1 -24 -1 -48 -1c-21 -1 -38 -3 -49 -6c-7 1 -18 2 -33 2h-30c-17 0 -30 2 -39 5
c-3 9 -5 16 -8 21c5 5 8 13 9 24c2 15 3 23 4 24l-5 5c0 14 -1 23 -3 28l-9 8v17c3 1 4 5 4 12s2 11 5 12v52l-5 4c0 3 6 13 6 18l-1 3l-5 12l5 4c-3 3 -5 9 -5 20c3 5 5 10 5 17c0 5 1 7 3 7c-5 11 -8 28 -8 49c3 0 4 1 4 4v3c-3 3 -2 5 -3 6s-1 2 -1 3v12l-4 12
c8 16 14 28 17 37v12l-5 13l-3 7c-1 3 -1 6 -1 9v23c0 4 0 9 1 14c2 23 3 37 3 44c0 12 -1 23 -3 32l-5 3c5 11 8 24 8 38l-3 7v5l-5 8c0 9 -4 19 -4 24c-9 12 -17 20 -24 24c-3 2 -8 4 -17 5c-6 1 -10 4 -12 7h-44l-20 -20c0 -20 -4 -40 -13 -60c7 -27 11 -67 12 -120
c2 -56 5 -96 9 -120l4 -4c-11 -38 -16 -65 -16 -80l4 -5c-1 -28 -4 -66 -4 -122l4 -12l-4 -4c3 -3 4 -9 4 -20l-4 -4v-77l-4 -12l4 -4c0 -21 -8 -38 -24 -49c0 -10 7 -38 20 -84c4 -3 19 -17 24 -17h93l12 8h25l12 -8h36l4 4c6 2 15 3 27 3s19 0 26 1c1 -3 6 -7 16 -10
c11 -2 16 -4 17 -6c11 0 30 2 58 5c16 3 30 4 42 4c8 0 14 0 17 -1h1l30 -8c5 -3 9 -4 13 -4zM487 6c1 -1 3 -1 4 -2l-30 8l12 8z" />
    <glyph glyph-name="m" unicode="m" 
d="M69 0l16 6h1l-2 -3c9 3 20 4 33 5c17 1 29 4 36 9l-1 2c0 8 10 14 10 27s-2 21 -5 22c-3 17 -4 40 -4 72l-4 9c-1 0 -1 1 -1 3c0 8 5 19 5 22v13c-3 3 -4 8 -4 16l4 13c-3 3 -4 8 -4 15c0 5 1 7 4 7c3 10 4 20 4 29c0 12 -3 22 -8 29c-5 12 -7 26 -8 43
c-1 19 -3 31 -5 37c-3 8 -5 15 -5 21c0 11 5 33 5 45v3l4 8c-5 0 -1 18 -8 18c1 1 1 2 1 4c0 3 0 5 -1 6c-3 4 -4 7 -4 10l-5 5v13l5 12l4 9l-4 4c-3 9 -5 24 -5 43c1 -1 2 -1 3 -1c4 0 9 3 14 9c15 0 24 -2 26 -5c-1 -1 -1 -2 -1 -3c0 -7 5 -10 5 -15v-3l5 -4v-8l3 -5v-8
l9 -4c3 -15 4 -35 4 -59l5 -13l4 -5c3 -12 5 -22 5 -30c0 -5 0 -9 -1 -12c11 -12 17 -19 17 -21l8 -5c6 -9 9 -27 9 -54c5 0 8 -6 8 -17c13 -9 23 -16 30 -22h38c12 11 19 17 26 22c3 5 12 14 12 17c6 13 9 29 9 48v6c-1 7 -1 14 -1 21v16c0 10 0 16 1 19l9 12v21
c11 11 16 38 21 43c3 5 4 17 4 38l8 4v21l5 5l16 4c6 7 10 12 13 13c3 5 4 14 4 29l18 -8v-55l-5 -4c3 -8 6 -18 7 -30v-18c0 -3 0 -7 -1 -12c-1 -7 -1 -12 -1 -17v-13l-10 -8c0 -35 -1 -56 -3 -63c-12 -5 -18 -12 -18 -19c0 -5 7 -14 20 -25c14 -11 21 -19 21 -25
c0 -7 -7 -12 -20 -16l-8 -9v-21l5 -9l-5 -3c0 -1 -1 -23 -3 -68c0 -7 -1 -13 -1 -20c0 -17 1 -35 4 -48c-5 -5 -7 -22 -12 -26c0 1 0 -1 -1 -6l-3 -21v-8c0 -9 1 -15 4 -20h4c0 -9 8 -16 8 -21h8v-8l10 -9c8 -3 18 -4 29 -4c12 0 25 1 42 4l9 4c-1 2 -2 4 -2 7c0 4 3 6 10 6
c1 2 2 7 3 14c1 5 3 7 6 7c2 12 3 24 3 37c0 20 -4 47 -12 82l9 4c-6 5 -9 10 -9 15v44l-8 13v153l-4 4c-3 11 -5 38 -5 80l9 13c-6 6 -9 16 -9 30c-5 7 -14 24 -17 25c3 28 4 70 4 127c5 2 7 6 7 13s2 11 6 13c-3 7 -5 18 -6 35c0 17 -2 30 -7 37v13c0 8 -17 8 -17 13
c-13 0 -32 16 -44 16h-15l-17 -4v-2c1 0 1 -1 1 -2c0 -7 -9 -14 -9 -17c-9 -22 -13 -43 -13 -64l-8 -8c0 -13 -13 -42 -13 -55c0 -7 -4 -18 -4 -21h-8c0 -12 -3 -18 -10 -18c-2 0 -3 0 -3 1c0 -9 -5 -21 -5 -26l-8 -12l4 -5c-5 -17 -8 -41 -8 -72l-9 -12l-4 -13
c-7 -3 -12 -19 -17 -22l-8 -3c-13 9 -26 16 -35 20l-3 13c-11 11 -17 38 -22 43c0 7 9 18 9 21l-9 12c-1 1 -4 8 -10 20c-4 8 -6 14 -6 18c-12 6 -18 13 -18 22l-8 8v43l-9 13v8l-4 4c1 1 1 4 1 7s0 6 -1 8c-3 5 -4 10 -4 15l-5 4v9c-11 11 -20 27 -25 46l-4 5
c-39 12 -61 18 -65 18c-7 0 -11 -1 -15 -2l-5 -4l-13 -9c0 -8 -4 -33 -4 -41l9 -9l13 -9c2 -5 3 -19 3 -42l-8 -13c-4 -12 -6 -25 -6 -39c1 0 5 -29 11 -88c-6 -11 -9 -35 -9 -72l-9 -13c5 -4 7 -11 7 -21s-2 -17 -7 -21c6 -3 9 -10 9 -22c-7 -7 -5 -30 -13 -33
c-3 -5 -4 -16 -4 -34c12 -17 18 -30 21 -38l-4 -4c0 -4 -3 -11 -9 -22l-4 -4c2 0 4 -3 5 -9v-2c0 -4 -2 -6 -5 -6c0 -3 1 -8 4 -15c1 -2 1 -5 1 -9c0 -3 0 -5 -1 -6l-4 -3c-5 -41 -8 -69 -8 -86c-6 -16 -9 -35 -10 -56l-3 -58c8 -3 12 -18 17 -21l8 -4c0 -7 18 -6 18 -13z
M77 0c2 1 4 2 7 3c-2 -1 -4 -2 -7 -3z" />
    <glyph glyph-name="n" unicode="n" 
d="M66 0h49l12 8c11 7 17 12 21 16l16 12l4 5c0 3 1 6 4 11c1 1 1 3 1 6c0 1 0 2 -1 3l-4 12l-4 4c-5 5 -8 12 -8 20c8 4 12 18 16 21c-3 3 -4 6 -4 10v3c0 3 1 4 4 4v15l-4 5v48l4 12l-4 5c0 9 1 15 4 20c-7 13 -15 30 -24 37c0 8 3 15 8 20l8 4c3 4 4 10 4 17s1 11 4 12
c-9 5 -11 21 -16 24c0 8 -4 25 -4 33c0 1 1 2 1 5s-1 4 -1 8v3c0 4 1 7 4 8c5 8 8 22 8 41c-5 2 -7 6 -7 13v6c0 6 -3 9 -9 9c0 5 -1 13 -4 25c-1 6 -2 10 -2 13c0 5 1 7 2 11l-5 12l9 9l-4 8c2 6 3 13 3 21v10l-3 29l4 5c-3 0 -5 1 -5 4c0 1 0 2 1 3c1 4 2 6 5 6
c0 0 2 -1 3 -1c7 0 14 -13 22 -13c1 0 1 0 2 1c3 -8 16 -22 16 -29v-44l21 -21c8 -15 13 -27 20 -32c0 -15 2 -29 7 -44l5 -17c2 -5 4 -11 5 -16l8 -9v-16c13 -13 23 -22 28 -28c-1 -1 -1 -2 -1 -4c0 -7 7 -12 7 -13s0 -3 -1 -4l7 -4v-8c7 -5 11 -10 13 -13v-16l12 -8
c3 -5 4 -13 4 -24l8 -12l29 -29c0 -11 -2 -17 -5 -20c8 -5 12 -10 12 -17c0 -13 2 -22 5 -28v-12c2 -7 8 -37 16 -45c3 -5 6 -19 11 -42c4 -15 10 -27 18 -36l20 -12c11 0 33 -3 45 -3l8 -5c5 5 21 7 24 12v8c13 11 21 20 24 25v16l5 12l8 4l-8 5c0 8 3 15 8 20
c-11 19 -16 48 -16 89l-4 5c0 3 4 10 4 17v3l-4 12l4 4c1 5 -1 18 3 21c-2 4 -3 15 -3 32l-4 12l4 5c-3 4 -5 10 -6 17c-1 5 -2 7 -3 7c6 55 9 93 9 114c-3 1 -4 8 -4 21c-3 3 -13 10 -13 15c3 7 5 15 5 24c0 3 -3 17 -9 41v9c1 4 3 19 8 40c1 16 4 26 4 37l5 4v78l-5 3
c0 26 2 45 5 58c-3 5 -25 8 -66 8l-12 -17c3 -17 4 -31 4 -40v-16c-5 -27 -8 -45 -8 -53c-3 -3 -4 -5 -4 -6l4 -11c3 -21 5 -38 5 -50c0 -7 0 -12 -1 -15l-8 -24l4 -8v-5l-4 -7c3 -5 4 -16 4 -33l4 -5l-4 -3c-6 -17 -9 -36 -9 -57c0 -9 1 -25 4 -50c1 -7 1 -14 1 -21v-27
l4 -4c0 -7 -4 -19 -4 -20l4 -4c0 -7 -4 -20 -4 -21c2 -2 4 -5 5 -10v-2c0 -3 -2 -4 -5 -4v-16h-16v20l-9 12l-3 8v13l-9 12c-5 13 -9 23 -12 28l-4 4c0 7 -9 11 -9 18l1 3c-13 13 -21 23 -24 32c-1 4 -4 9 -8 16c-3 6 -5 10 -5 12c-9 12 -13 22 -16 29v8l-17 12
c0 18 -2 39 -7 62h-8l2 5c0 4 -8 9 -8 13c0 1 0 1 1 2l-7 12l-43 43c-14 19 -23 37 -27 55v12l-8 12v29l-8 12l-4 4v7v7c-3 6 -4 11 -4 14h-9c0 7 -8 20 -8 21l-8 8c-61 13 -98 20 -110 20c-7 -4 -15 -16 -20 -16c-5 -5 -2 -16 -9 -16c3 -5 5 -18 5 -37l28 -28v-131l-8 -12
v-28l8 -8v-29c-8 -5 -12 -13 -12 -24c-5 -20 -8 -46 -8 -82l12 -16v-29l-4 -3c0 -9 -8 -29 -8 -37c3 -9 5 -19 5 -28c0 -7 -1 -18 -4 -35c-1 -8 -2 -16 -2 -23c0 -5 0 -9 1 -12l-8 -8v-29l4 -4c-3 -5 -4 -19 -4 -44l-8 -9v-20l8 -21v-27l-5 -13c0 -4 1 -11 4 -21
c1 -6 2 -10 2 -13s-1 -3 -1 -6c12 -5 21 -11 28 -17z" />
    <glyph glyph-name="o" unicode="o" 
d="M327 0c4 1 8 2 11 3c0 0 1 1 2 1l-9 -4c1 1 3 1 6 2c6 2 10 4 16 6c1 0 2 0 3 1l8 3c5 3 10 5 15 7c2 0 4 1 6 2c6 3 11 6 16 8c6 3 9 5 12 8c0 0 1 1 2 1l8 6c3 1 6 3 9 4c1 1 3 2 3 2c4 3 8 5 11 7c3 1 6 3 9 5c4 2 8 4 11 6c2 1 3 1 5 2l5 11c1 2 1 4 2 6c0 2 1 4 2 6
v2c0 1 1 1 1 2v1c0 1 1 3 1 4v3c1 4 1 6 1 10l8 33c1 0 2 1 3 1c2 2 4 5 6 7c0 1 1 1 2 2c2 1 4 3 5 3l5 12c-1 0 -1 1 -2 2h-1c0 1 -1 3 -1 4s-1 2 -1 3v2v4v4c1 2 3 4 5 6l-5 12l21 20s0 1 1 2c0 2 1 3 1 5c1 1 1 3 1 3s1 1 1 2v2c0 2 1 3 1 5v4c0 2 0 5 -1 9v4s-1 1 -1 2
c0 2 0 4 -1 6c0 2 0 4 -1 5v2c0 1 -1 2 -1 3v2l-1 1c0 2 0 4 -1 5c0 6 -1 11 -1 15c-1 5 -1 10 -1 13l4 13h-2l-2 3c-2 2 -3 5 -5 7c-1 1 -1 3 -2 4c-2 3 -4 6 -4 7h-1l3 12v8l9 4v5c0 3 0 6 1 8c0 2 1 4 1 5s1 2 2 3c-1 2 -2 5 -3 7c-1 1 -1 2 -2 3l-3 3s-2 3 -3 4
s-2 1 -2 2c-1 1 -1 1 -1 2c-1 2 -2 4 -2 7c0 0 0 1 1 2v3c0 3 1 6 1 11c0 3 1 5 1 8v18l9 8c-1 1 -2 2 -3 4l-3 6s0 1 -1 2c0 2 -1 5 -1 7c0 1 -1 2 -1 3v11l-8 16c1 2 1 6 1 11v5c-1 4 -1 9 -2 14c0 1 -1 1 -1 2v2l-1 1v3c-1 1 -1 3 -1 5c-1 5 -1 9 -1 14v5c0 1 1 2 1 3v1
v50c-1 0 -1 1 -1 1c-1 0 -1 1 -1 2c-1 1 -1 2 -1 3v2c0 1 -1 1 -1 2v2c-1 1 -1 2 -1 2c-1 2 -1 3 -1 5c-1 2 -1 3 -2 5c0 1 0 2 -1 3c0 0 -1 1 -1 2c-1 1 -2 2 -2 3l-4 21h-1l-1 1v1c0 1 -1 2 -1 3c0 2 -1 5 -1 8l-3 8c-1 4 -3 6 -6 7v1v2v2c-1 3 -2 6 -4 7c0 2 -1 3 -2 4
l-2 4v1c-3 2 -5 3 -6 5c0 1 -1 2 -1 2c-1 1 -1 2 -2 2c-1 2 -2 3 -2 4c-1 1 -1 2 -1 2v1l-8 9c-2 2 -3 4 -4 6l-3 6c0 2 -1 3 -1 4c-1 1 -1 3 -1 4l-15 17c-3 1 -5 3 -8 4c-1 0 -2 1 -3 1c-14 7 -25 12 -31 15c-4 -1 -7 -1 -10 -1h-16h-12h-11c-2 0 -4 1 -8 1h-7
c-5 1 -10 1 -14 1c-2 0 -3 1 -4 1c-3 0 -6 0 -7 1h-6c-12 2 -21 2 -30 3h-11h-9c-5 0 -9 -1 -13 -1c-8 -1 -16 -2 -22 -4c-2 -1 -4 -1 -6 -2c-3 0 -6 0 -7 -1c-2 -1 -3 -1 -4 -2c-3 -1 -5 -2 -8 -3c-1 -1 -2 -1 -4 -2c-1 -1 -3 -2 -4 -2c0 -1 -1 -1 -1 -1l-12 -13
c-5 -6 -8 -13 -12 -17c-1 -2 -2 -4 -4 -5c0 -1 -1 -2 -1 -2c-1 -1 -1 -3 -2 -4c-3 -2 -6 -5 -9 -7c0 -1 -1 -1 -1 -1v-4c0 -7 -5 -18 -5 -26v-1c0 -1 1 -1 1 -2l-21 -21c-8 -12 -16 -20 -20 -25l4 -57c-1 -3 -4 -9 -7 -17c-1 -2 -1 -3 -1 -4c-2 -4 -5 -7 -8 -8v-24
c4 0 6 -7 7 -12v-1c1 -4 3 -8 5 -8v-5c0 -2 -1 -3 -1 -4c0 -4 -1 -6 -3 -7l-8 -9v-43c1 -9 1 -18 2 -26c0 0 1 -2 1 -3v-6c-1 -4 -2 -9 -3 -15v-3c-2 -10 -3 -19 -3 -29c0 -4 -1 -7 -1 -11v-10c0 -7 1 -14 2 -23v-4c0 -13 1 -24 2 -31v-9c-7 -2 -10 -12 -13 -18
c-1 0 -1 -1 -1 -1l-2 -2h-1v-74l8 -17v-3c0 -3 1 -8 3 -13c0 -1 0 -1 1 -2c2 -7 4 -12 5 -16v-2l8 -17v-13c0 -10 2 -17 4 -20l12 -12c3 0 5 -1 7 -3c1 0 2 -1 3 -2l5 -5c1 -2 1 -2 2 -2c5 -9 10 -14 12 -17c2 -6 3 -11 4 -17v-3h1h3c4 0 7 -1 9 -4c1 -2 2 -4 2 -5
s1 -2 1 -2v-2s1 -1 2 -1c1 -1 2 -1 3 -2c1 0 1 0 2 -1s4 -1 6 -2c1 0 2 0 3 -1c4 -1 7 -3 9 -6c1 0 3 0 5 -1c5 -1 10 -3 16 -5c5 -1 10 -2 14 -4c1 0 3 0 4 -1c5 -1 9 -2 13 -2c5 -1 9 -1 14 -2c3 0 7 1 9 1c9 1 17 1 25 1h12c3 0 6 -1 10 -1l2 -1h2c3 -1 6 -2 10 -3
c1 -1 2 -1 3 -1c0 0 0 -1 1 -1c9 -4 14 -6 18 -8l2 -2c1 -1 1 -1 1 -2zM265 127h-1l-2 2c-3 2 -7 4 -12 7l-6 3c-7 4 -17 10 -28 16c-12 7 -22 13 -30 20c-6 4 -11 8 -15 13c0 0 -1 0 -1 1c-1 3 -1 7 -1 10c0 2 -1 4 -1 6v7c-1 5 -1 11 -2 16c-1 18 -2 35 -2 48v16
c0 13 -1 23 0 31c1 2 1 4 2 6l-8 13s0 1 1 2c0 0 0 1 1 2c2 4 6 10 6 11l-8 9v12v1c0 2 -1 4 -2 5c-1 4 -2 9 -2 12v3c-1 0 -2 0 -3 1c-2 1 -2 2 -2 4v3v2c1 4 2 6 5 6c0 0 -1 1 -1 2c-1 3 -2 5 -3 7v4v3v3c1 1 2 4 4 6c0 20 1 34 4 41v9c0 5 -1 10 -2 14v3
c-2 6 -3 10 -6 13c0 1 -1 1 -1 2v0v1v1v2c0 6 5 13 5 16c0 10 1 17 2 21c1 3 2 21 2 54l8 12v13l12 37l13 20v9c1 2 6 6 15 11c1 0 1 1 2 1h1c3 1 5 2 7 4c1 0 2 1 2 1c1 1 2 2 3 2l3 3c1 1 2 2 2 3c1 1 1 2 1 3l12 3c4 1 9 2 14 2c1 1 3 1 6 1c7 1 14 2 20 2h15
c8 0 15 0 23 -1h5c1 0 3 -1 4 -1c5 0 9 -1 13 -2l4 8h33c2 -3 4 -7 6 -9c1 -1 3 -2 6 -3h5c0 -1 1 -1 2 -2l1 -1l3 -3c2 -3 5 -7 7 -10c2 -2 3 -4 4 -6c3 -4 6 -8 10 -11c1 -1 2 -1 2 -2c1 -1 2 -2 3 -2c-1 -1 -1 -4 -1 -6v-5c0 -2 0 -4 1 -6c1 -3 2 -7 4 -12h1
c1 -1 3 -1 5 -2c2 -3 5 -8 8 -12l4 -4c0 -1 1 -2 1 -3s1 -1 2 -2s3 -2 4 -2v-20l8 -21v-91l-4 -20l-4 -12l4 -12l-4 -13l4 -12l-4 -12c0 -10 -1 -20 -2 -29c-1 -4 -2 -7 -2 -11c-1 -3 -1 -6 -2 -9c0 -2 -1 -6 -2 -9c-1 -4 -3 -8 -4 -12l8 -5l-8 -3v-10c0 -4 -1 -7 -1 -11
c0 -6 -1 -13 -1 -20c0 -4 -1 -7 -1 -9v-17v-7c0 -4 -1 -10 -1 -14v-1c0 -5 -1 -9 -1 -12v-31c-1 -1 -1 -1 -1 -2c-1 -1 -1 -2 -1 -3c-3 -4 -5 -7 -6 -11c-1 -1 -1 -2 -1 -3c-1 -2 -1 -2 -2 -3v-2s-1 -1 -1 -2v-2v-1l-8 -12c-1 -2 -2 -4 -4 -6s-4 -4 -6 -7
c-3 -4 -6 -7 -7 -12v-2v-2c0 -1 -1 -1 -1 -1c-1 -1 -2 -2 -3 -2c0 -1 -1 -1 -1 -1c-1 -1 -2 -1 -3 -2c-3 -2 -6 -3 -9 -5c-1 -1 -2 -2 -4 -3c-3 -2 -5 -3 -7 -5c-1 0 -1 -1 -1 -1h-7c-3 0 -7 -1 -11 -1c-2 0 -3 -1 -5 -1h-7c-7 -1 -13 -1 -22 -1c-6 -1 -13 -1 -18 -1
c-4 0 -7 -1 -10 -1h-13h-13z" />
    <glyph glyph-name="p" unicode="p" 
d="M100 0h4c8 0 21 1 34 4h5c1 1 1 1 2 1h3c1 1 1 1 2 1h1h6c1 0 2 0 3 1h2c3 1 5 1 8 1l13 12c0 2 0 5 1 8c0 1 1 3 2 5s1 4 2 6l1 5l1 1c0 1 0 3 1 4c2 5 3 9 4 12v1h-2c-1 1 -3 3 -4 6c-1 1 -1 2 -1 3v2c-2 7 -4 10 -5 10v25c-3 1 -4 1 -5 2s-1 3 -1 4v1c0 1 0 2 1 3
c0 1 1 2 2 3l3 2h-5c-1 1 -2 1 -3 2s-1 2 -2 3s-2 3 -3 5v7l-12 17v20c2 4 3 8 4 12c1 3 1 5 2 7c0 1 0 2 1 3c0 2 0 4 1 6v6l-4 12c-3 0 -6 1 -8 2l-1 1l-3 3l-1 3v4v4v8c2 1 3 2 4 4l1 1c1 2 1 4 2 6c1 5 3 9 6 9l-4 13v3c-1 1 -1 3 -1 5c-1 1 -1 1 -1 2s0 2 -1 3l-2 5
c-1 1 -1 3 -1 4c-1 1 -1 1 -1 2c-1 1 -1 3 -2 4v3v2c1 1 1 1 2 1c1 1 2 2 3 2c1 1 1 1 2 1v1c0 1 -1 2 -4 3l-2 1l-1 2v2v2v2c3 1 6 1 9 2l9 3c1 1 2 1 3 2h1l1 1h2c3 1 7 2 10 3c1 1 1 1 2 1h1h10l14 1h3h4c5 1 9 1 12 2c4 1 7 2 10 3s5 1 8 2c1 0 3 0 5 1c1 1 2 1 3 2l5 2
l6 -3l12 -3c6 -1 12 -2 19 -2c2 0 4 0 7 -1h11h15c1 -1 2 -1 3 -1l2 -1h2c1 0 1 0 2 -1h3h1c2 0 4 0 7 -1h1c1 0 1 0 2 -1h3h3c2 0 4 0 5 1h3c1 1 2 1 3 1c5 1 9 2 12 3h2h4l46 46c5 2 9 4 13 7c1 1 1 1 2 1c1 1 2 2 3 2c1 1 3 2 4 2c4 3 8 5 11 8l4 4c2 3 5 7 8 11
c1 1 2 3 3 5c4 5 8 10 11 15l3 5c3 5 6 10 8 14c1 1 3 1 5 2l1 1c1 2 3 4 5 6l2 2l3 3c2 1 4 1 5 2s3 1 4 1v61l4 8v54h-1l-1 1c-1 1 -1 2 -1 3s0 2 -1 3v14v1c1 6 2 12 3 19c0 1 0 1 1 2v6s0 1 1 2l1 6c0 1 0 3 1 5c0 1 0 3 1 6v7v6c-1 3 -1 5 -1 6v3c0 1 0 1 -1 2v2
c-1 1 -1 2 -1 3l-1 2v1l-12 12h-1h-1l-1 1c-4 1 -8 4 -13 7c-3 3 -4 3 -5 4c-4 2 -8 4 -13 6h-1c0 1 -1 1 -2 1c-2 1 -4 1 -6 2h-3c0 1 0 1 -1 2c0 1 0 2 -1 3s-2 3 -4 5l-4 4c-1 1 -1 1 -2 1l-3 4c-1 1 -3 3 -3 4c-1 2 -2 4 -2 6c0 1 0 2 -1 3s-2 3 -4 6l-1 1
c-1 3 -2 6 -2 8v2h-2c-1 0 -1 0 -2 1s-3 1 -4 2s-3 2 -4 3l-5 6l-1 -1h-8c-2 0 -5 0 -8 1h-1l-1 1c-6 3 -11 4 -14 5c-3 2 -5 3 -4 3h-13l-12 4l-12 -4c-7 1 -12 2 -17 3c-6 1 -11 2 -16 3c-1 1 -3 1 -4 1h-3c-4 1 -8 1 -11 1h-67c-15 1 -29 1 -42 2h-15c-3 1 -6 1 -9 1
l-13 1h-9c-15 1 -28 3 -39 4l-1 -1l-3 -3l-2 -2l-4 -2c-1 -1 -3 -1 -4 -2s-2 -1 -3 -1c-3 -2 -6 -4 -7 -5v-1l-1 -1c0 -1 0 -3 -1 -4c0 -2 0 -4 -1 -6c-1 -5 -1 -8 -1 -9c-7 -3 -10 -20 -13 -20c-3 -5 -5 -10 -6 -17c0 -1 0 -1 -1 -2c-1 -5 -1 -11 -1 -18l8 -5v-5l-1 -1
c-1 -2 -3 -5 -4 -10l-2 -2c-1 -1 -1 -1 -1 -2l3 -3c3 -3 6 -6 8 -9c1 -1 3 -2 4 -3s1 -2 2 -3c2 -3 3 -5 4 -7l1 -1c1 -1 1 -2 2 -3c0 -4 0 -7 -1 -10c0 -1 0 -2 -1 -3v-2l-1 -3v-2l-2 -2l-2 -3l-5 -29c3 -2 4 -7 5 -15v-5v-9l-1 -3l-1 -4c-4 -18 -6 -43 -7 -76v-6
c-1 -39 -6 -68 -13 -89l5 -8c-3 -12 -4 -27 -5 -45v-17l3 -3h1c1 -2 3 -4 4 -7c1 -1 1 -1 1 -2c1 -1 1 -2 2 -3s2 -1 2 -1c3 -5 4 -12 4 -21l-4 -13l-8 -4c-3 -22 -6 -40 -7 -54c0 -1 0 -3 -1 -5v-11c2 -10 3 -23 3 -39v-15c-2 -7 -4 -13 -6 -18v-2c-1 -3 -2 -7 -2 -10v-3
l-4 -95l4 -12l21 -21c4 0 9 -1 14 -4h1c1 -1 3 -1 4 -2c3 -1 6 -2 7 -2h3zM187 442c-1 0 -2 1 -3 2l-3 4c-2 3 -4 4 -7 5c-1 1 -3 1 -4 1h-16l4 13c0 2 0 4 1 7v1c1 1 1 3 2 4c1 2 1 4 1 7l2 2c1 3 3 7 6 12h-1l-3 3l-1 1c-1 4 -2 9 -3 16v2v1c-1 3 -1 5 -2 8v3
c-1 3 -2 5 -3 6l-1 1c-1 1 -1 3 -2 4v5v5c-1 11 -5 23 -5 35v6v8l-3 12v8l-9 4l-4 13v1c0 1 1 3 2 7c1 5 2 9 2 12l6 6c4 5 6 8 6 10c0 1 1 4 4 7l2 2c1 1 1 2 2 3l5 6v7l6 6c3 3 5 5 7 8c1 2 2 4 3 5s3 3 3 4l2 2l12 5h3c1 1 2 1 3 2c1 0 5 5 8 6c2 2 4 3 6 4l5 -1
c1 0 2 0 3 -1c5 -1 10 -1 14 -1c2 -1 4 -1 7 -1h9l4 -8h29l12 8c1 -1 3 -1 4 -2c1 0 2 0 3 -1c4 -1 8 -2 13 -3c13 -3 27 -6 43 -9c6 -1 12 -2 17 -3c3 0 5 0 6 -1c8 -1 17 -1 26 -2l12 -9l3 -2l1 -2c3 -4 5 -9 8 -15l3 -9l2 -5c1 -4 3 -7 5 -10c1 -1 2 -3 3 -4s1 -3 1 -4
c2 -2 4 -4 7 -6h1l16 -49c0 -9 0 -18 -1 -26v-6c-1 -5 -1 -10 -2 -15c-1 -1 -1 -3 -1 -4c-1 0 -2 0 -3 -1h-1c-1 -1 -1 -1 -2 -1l-2 -2c-1 -2 -3 -3 -5 -4s-4 -1 -6 -1h-1h-1l-2 -1c-1 0 -1 -1 -2 -2l-2 -2v-2c-1 -1 -1 -3 -2 -4v-1c-1 -3 -4 -3 -4 -3c-1 -1 -1 -1 -1 -2
c-1 -2 -1 -4 -2 -6c-3 -10 -6 -18 -9 -24c-1 -5 -2 -8 -3 -10l-1 -2l-1 -1c-1 -1 -2 -1 -3 -2c-1 0 -1 0 -2 -1c-4 -2 -8 -4 -11 -5c-2 -1 -4 -1 -5 -1s-3 -2 -8 -6l-1 -1l-2 -2l-3 -3c-2 -1 -4 -2 -7 -3c-1 -1 -1 -1 -2 -1h-1l-1 -1h-2c0 -1 -1 -1 -2 -1h-2
c-1 0 -1 0 -2 -1h-3c-8 -1 -17 -2 -27 -3h-12h-13h-14c-4 1 -8 1 -13 1h-10l-1 1h-8c-9 0 -14 -1 -18 -1l-5 -7c-1 0 -1 0 -2 -1c-11 -1 -20 -2 -29 -3h-2c-5 -1 -9 -1 -14 -1h-6z" />
    <glyph glyph-name="q" unicode="q" 
d="M392 -153h4h8c2 0 4 0 5 1c8 1 15 2 22 3c7 2 13 5 19 8l3 -1c4 0 8 2 13 5h1l1 1c4 2 8 3 11 3v9h1c1 1 3 1 4 1c2 2 3 6 3 12v3v1c1 1 1 2 2 3l3 3c3 3 5 6 8 9c8 8 18 18 29 30v21l1 25c1 1 1 3 1 4v12c1 5 1 10 1 15c1 9 1 15 1 18l-4 13h-2c-1 1 -1 2 -2 3l-11 10
l-1 2c-1 1 -1 1 -2 1l-3 2c-1 1 -2 1 -3 2c-2 1 -4 1 -5 1c-5 -1 -9 -3 -13 -5l-1 -1l-3 -2c-1 -1 -3 -1 -4 -1s-1 0 -2 -1c-3 -1 -5 -2 -6 -2l-12 -13v-21l-2 -2s0 -1 -1 -2s-1 -1 -1 -2l-1 -4v-5v-6l-4 -12l-13 -12c-2 -3 -4 -6 -7 -8h-1h-46h-7l-3 1c-2 1 -4 3 -5 4l-4 4
c0 1 0 2 -1 3s-3 2 -4 5c-1 2 -1 5 -1 8v3l4 4l2 1l1 1c1 1 1 2 2 2c1 1 1 2 2 2c1 1 1 2 1 3c1 1 1 2 2 3c2 3 4 5 6 6l1 1c2 1 3 1 4 2c3 0 6 2 8 7v2c1 2 2 4 3 5l1 2l1 1v4c1 1 1 2 1 3l1 1l2 4c1 3 3 5 5 8l3 3l5 6l1 1c2 1 4 3 6 4l9 10c7 5 13 13 17 14h8v8l5 5
c3 4 6 7 7 9c1 1 1 2 1 3l12 16v29l1 1c1 3 2 5 2 8c0 1 0 2 -1 3c-1 2 -1 3 -2 4v1l1 1c1 2 1 4 2 6l2 7l1 4c1 3 2 6 2 9c1 2 2 3 3 4l2 2l4 42c-1 1 -1 2 -1 3c-1 2 -1 4 -1 5s0 2 -1 3v5c0 2 0 4 -1 6v27v9c-3 1 -6 2 -7 3s-2 3 -3 5v3l-3 14l5 16c0 2 1 5 2 9
c1 3 1 5 2 7v2l-1 3l-8 17c0 1 0 3 -1 4c0 3 0 5 -1 7s-2 4 -3 5v2c-1 1 -1 3 -1 4c-1 3 -2 6 -2 7c1 2 2 4 3 7v4v1c1 6 2 12 2 19c0 3 0 7 -1 12v2c-2 5 -1 11 -1 17v1c0 1 0 2 -1 3c1 1 1 2 0 3c0 4 -1 7 -1 11v2c0 1 0 1 -1 2v4v8c0 1 0 2 1 3c1 2 2 4 2 5c1 1 1 3 2 5
s1 4 1 5l1 3c3 9 5 13 6 16l3 8c0 1 0 1 -1 2v2c0 1 0 1 -1 2v3c0 1 0 3 -1 4v21c-2 1 -4 1 -6 2l-3 3c-1 1 -1 3 -2 5c-1 4 -3 7 -4 8l-2 2c0 6 0 11 1 15c2 9 6 15 11 20l1 1l2 1h2v1c1 2 1 4 2 6l1 5v4v13l-3 13l-8 8l-3 3c-1 2 -3 4 -4 5s-1 2 -2 3l-1 2l-2 3
c-1 1 -1 2 -2 3v2c1 1 1 3 1 5v2c-1 1 -1 3 -1 4v2l-1 1v7v2l1 2c-1 0 -1 1 -2 4s-1 7 -1 13l-1 1l-1 1l-3 3c-1 1 -2 1 -3 2c-3 1 -5 6 -5 8v2c-9 2 -16 4 -21 6c-2 1 -3 1 -4 1c-2 1 -3 1 -4 1l-1 1c-1 1 -2 1 -3 1l-3 3c-1 0 -3 1 -4 2c-1 0 -1 0 -2 1l-3 3
c-3 1 -5 3 -6 4s-2 1 -3 2c-2 -1 -3 -2 -4 -2h-1h-2c-1 0 -1 0 -2 1l-1 1c-1 0 -2 0 -3 1h-2c-1 1 -2 1 -3 1l-2 1h-1l-13 9h-1c-2 1 -4 1 -6 2h-3h-3c-2 0 -4 0 -6 1l-1 1h-2l-2 -1h-1h-1h-2h-14c-1 1 -2 1 -3 1h-6c-1 1 -2 1 -3 1l-6 1h-2c-1 1 -1 1 -2 1h-6
c-1 1 -3 1 -4 1h-4c-1 1 -2 1 -3 1h-2c-1 0 -2 0 -3 1h-5c-1 0 -1 0 -2 1h-4c-2 0 -4 0 -6 1h-4c-5 0 -9 0 -12 -1h-3c-3 -1 -5 -1 -7 -2c-1 0 -2 0 -3 -1s-2 -1 -3 -2s-3 -1 -4 -2h-2l-1 -1c-1 -1 -4 -1 -7 -1s-6 0 -9 -1h-3h-3c-2 0 -4 0 -6 -1c-3 0 -7 0 -11 -1
c-1 0 -1 0 -2 -1c-1 0 -2 0 -3 -1c-1 0 -3 0 -4 -1c-5 -5 -16 -11 -33 -17v-8c-15 -5 -28 -15 -38 -30l-10 -13c-2 -3 -4 -6 -6 -7c-1 -9 -2 -17 -3 -24c-1 -5 -1 -9 -2 -13c-3 -31 -4 -54 -4 -71v-8v-3c1 -13 2 -25 3 -36v-4c0 -5 0 -10 1 -15v-11v-15l5 -12
c-6 -2 -9 -6 -10 -11l-3 -14c-1 -6 -3 -12 -4 -17v-3c-2 -9 -4 -17 -5 -24c-1 -12 -2 -22 -3 -30v-4c0 -3 0 -5 1 -7c1 -1 1 -2 1 -3c1 -3 2 -7 3 -10l5 -11c1 -1 1 -1 1 -2l1 -3v-2l-9 -5c5 -6 8 -10 9 -12v-1v-57l-9 -4c-1 -5 -2 -13 -3 -22v-11l3 -13l-3 -8v-42
c-1 -1 -1 -3 -2 -4l-1 -1c-1 -4 -1 -9 -2 -15v-8v-13l1 -1c3 -2 5 -6 7 -11c2 -3 4 -6 5 -8h1c1 -1 2 -1 3 -1c-1 -1 -1 -3 -1 -6v-4c1 -5 2 -9 4 -12l2 -4l3 -4c2 -2 4 -4 5 -7l3 -13c0 -3 0 -7 1 -10s2 -7 3 -10l3 -9c1 -1 1 -1 1 -2c1 -2 1 -4 1 -6c1 -1 1 -2 1 -3l2 -2
c5 -7 9 -12 14 -16c16 -4 28 -7 37 -8h3h5c4 -4 11 -9 20 -15l7 -4c1 0 1 0 2 -1c5 -3 10 -7 13 -10c3 -1 7 -3 12 -4h2c1 -1 2 -1 3 -1l1 -1h4l8 -1c6 -1 11 -1 16 -2h1h4c1 -1 3 -1 4 -1c1 -1 2 -1 3 -2l12 -12v-1c1 -1 1 -3 1 -4s0 -2 1 -3c0 -3 0 -7 1 -10
c0 -7 0 -14 1 -23v-22l5 -12c9 -9 16 -18 22 -25l4 -4c0 -1 1 -2 2 -3c1 0 1 0 1 -1c1 -3 3 -5 5 -6c3 -4 5 -7 7 -10l1 -1c3 -1 6 -2 10 -3h4c4 -1 8 -1 12 -1c5 0 9 0 14 1h4c2 0 4 0 5 1c2 0 5 0 8 1c1 0 1 0 2 1h3zM350 166v79h-1l-1 1c-1 1 -1 3 -2 5v15l-4 13l4 13
c-1 1 -1 2 -1 3c-1 7 -3 14 -5 20c-3 9 -5 17 -7 22c-1 1 -1 3 -2 4v2l-1 1v1l-2 1c-1 1 -3 2 -4 4l-1 2c-1 4 -2 10 -2 18l-3 13l-14 11c-4 2 -7 4 -10 7l-1 1c-1 2 -1 4 -1 6c-2 1 -4 1 -6 2c-4 3 -7 5 -10 6c-2 1 -4 3 -6 4c-1 0 -4 2 -5 2l-6 3c-1 1 -3 2 -4 3h-10
c-1 1 -3 1 -4 1h-3c-3 1 -6 1 -10 2s-8 1 -12 2h-4c-5 1 -8 1 -11 1c-11 0 -21 -2 -29 -6h-37c-2 7 -4 13 -5 18v7c2 0 4 0 5 1l1 2v2c0 -1 -1 3 -4 10l-1 2v2c0 2 1 4 4 6l-5 12c0 4 5 14 5 17l-5 8c0 12 1 39 4 86c1 21 2 40 2 57v9l-1 1v7v3v12c1 1 1 1 2 1l2 2
c13 6 21 9 24 9c13 5 27 15 42 30h9c1 0 3 0 6 1c1 1 1 1 2 1c2 1 4 2 6 4l1 1c5 4 10 7 14 8l4 1h9c2 1 4 1 7 1h5c5 1 10 1 15 2h4h2c3 0 7 0 10 1h10v-2c0 -1 0 -1 1 -2s3 -4 5 -7l6 -6c1 -1 1 -1 2 -1c4 0 7 -1 10 -2l2 -1c1 -1 3 -2 5 -3c3 -1 5 -1 8 -2
c4 -2 8 -3 11 -4h3h6c3 0 6 0 7 1c1 -1 2 -1 3 -2l2 -5c1 -1 1 -3 2 -4c1 -3 3 -4 6 -5v-13c3 -8 5 -16 7 -23c1 -1 1 -3 1 -5l2 -7v-2c1 -1 1 -1 1 -2c1 -1 1 -3 1 -5c1 -2 1 -4 2 -6c1 -1 1 -3 1 -6c1 -3 1 -5 2 -7l4 -12l-1 -2v-1c-1 -2 -1 -4 -1 -6v-3v-5
c0 -3 0 -7 1 -10c1 -1 1 -2 1 -3v-2c1 -1 1 -3 1 -5c1 -1 2 -3 3 -4l4 -9c0 -7 0 -14 -1 -21c0 -6 0 -13 -1 -20c-1 -1 -1 -3 -1 -4c-1 -7 -2 -16 -3 -25c-1 -3 -1 -7 -2 -10v-7l4 -58l-1 -1c-2 -3 -4 -7 -6 -10c0 -1 0 -2 -1 -3v-1v-1v-27c0 -7 0 -14 -1 -21
c0 -9 0 -18 -1 -27c-1 -3 -1 -6 -1 -9c-1 -12 -2 -23 -3 -33c0 -1 0 -2 -1 -3c-1 -7 -1 -14 -2 -21c-1 -3 -2 -7 -3 -10c-1 -1 -1 -3 -1 -4v-49l-4 -13h-2l-1 -1c-1 -1 -2 -1 -3 -2l-2 -2l-5 -5h-1c-1 -1 -2 -1 -3 -1l-1 -1c-1 -1 -1 -2 -2 -3l-3 -3c-2 -4 -5 -6 -9 -7h-3
h-3zM242 117c-5 0 -9 1 -14 2c-6 2 -11 5 -16 8c-1 1 -3 3 -4 3l-3 4c-3 0 -6 2 -9 5c-3 4 -6 6 -9 7h-2c-7 9 -12 16 -17 20l-1 1c-1 2 -1 4 -2 5c-1 2 -2 4 -3 7c-1 5 -2 10 -2 13v4h-1c-1 0 -3 2 -4 5h-1c0 1 0 2 -1 2c-2 3 -4 5 -6 5v6c-1 3 -1 6 -1 9c-1 1 -1 2 -1 3v1
c-1 1 -1 3 -1 4l-1 2c-1 1 -1 2 -2 3v2v2c0 1 1 3 2 5l-8 5c1 3 1 5 2 8c0 1 0 1 1 2c1 2 1 4 1 5l1 1l2 7l3 12v2c1 1 1 3 1 4l1 1c3 3 6 5 10 8c9 7 20 12 31 16c6 1 13 3 20 5c3 1 7 1 10 1c1 0 3 0 4 1h5c2 0 4 0 6 1h9l8 -8c2 -3 4 -5 5 -8l4 -4h2h1c3 -1 5 -3 6 -7
l1 -2c2 -2 5 -3 8 -3h2v-17c1 -2 1 -4 1 -5v-4c1 -1 1 -3 1 -4c1 -3 1 -6 2 -8l1 -1v-32c1 -16 1 -28 2 -36c1 -5 1 -9 2 -10v-2l-1 -2c-1 -1 -1 -2 -2 -3l-2 -2l-1 -1c-1 -1 -1 -2 -2 -3s-1 -3 -1 -4l-8 -4c0 -1 0 -3 -1 -4c0 -1 0 -1 -1 -2s-2 -3 -3 -5v-1
c0 -2 0 -4 -1 -5l-1 -1l-1 -4v-3l-1 -1c-1 -1 -4 -2 -7 -5c-2 -3 -4 -4 -7 -5c-1 -1 -1 -1 -2 -1h-4z" />
    <glyph glyph-name="r" unicode="r" 
d="M89 0h38h3h3c2 1 4 1 7 2l5 2c5 2 9 3 11 4h1l3 3c1 1 2 1 2 1c3 2 6 4 9 7c4 2 6 3 7 4v1v35c-1 0 -1 0 -2 1l-1 2v4c-1 1 -1 2 -1 3v4v8c2 2 4 5 5 8l1 3c0 2 0 4 1 5v4v4c0 1 0 3 -1 4v1c-1 2 -1 4 -1 5c-1 1 -1 1 -1 2v2v5c0 2 0 4 -1 5v3c0 1 0 2 -1 2v2
c-1 2 -1 3 -2 4l-3 9c-1 5 -2 9 -3 13c-1 1 -1 3 -1 4v5c-1 5 -1 10 -2 15v22l-8 12l-5 8v30l5 13l8 13l-8 8v13l8 4c1 3 1 7 2 10v4c1 1 1 3 1 4l1 7v7c1 6 1 12 1 19l8 9c20 -5 37 -10 50 -13c5 -1 10 -2 14 -3c2 -1 4 -1 6 -2c2 0 4 0 5 -1c3 -1 6 -1 8 -2c2 0 4 0 5 -1
c4 -1 7 -2 10 -3h3h4h1l13 -9c7 -9 12 -15 17 -18c1 -1 3 -2 4 -3l4 -13v-9h1c1 -1 1 -3 2 -4c4 -5 6 -10 6 -13v-4c0 -3 1 -6 2 -8c1 -1 1 -3 1 -4c1 -1 2 -3 3 -6c2 -4 4 -8 6 -13l3 -6l1 -1v-38c1 -1 1 -3 2 -4l2 -2l4 -2c1 -1 1 -1 2 -1c1 -1 1 -3 2 -4c0 -1 0 -2 1 -3
v-1h9v-5l1 -4l2 -1c2 -3 3 -5 4 -6v-1c-1 -1 -2 -3 -3 -4l3 -4l4 -4c1 0 1 0 1 -1l2 -2c0 -1 1 -3 2 -4s2 -3 3 -5c1 -1 1 -2 2 -4s3 -4 4 -7c0 -1 0 -2 1 -3s1 -1 1 -2s0 -3 1 -4l1 -3v-46l13 -22l1 -1c1 0 1 -1 1 -2c1 -1 1 -3 1 -5s0 -4 1 -6v-7l18 -12h39h15h5l2 1
c3 0 6 0 8 1s4 1 6 1c1 1 3 1 5 1c1 1 3 1 5 2c4 1 7 2 9 3c3 2 5 4 8 5c1 1 3 2 4 3c0 1 0 1 1 1c1 1 3 2 4 3s2 3 3 4v4c0 4 1 7 2 9l2 2c1 1 2 2 4 2c-1 2 -2 4 -3 7c0 2 -1 4 -2 5l-3 9v1c-1 1 -1 1 -1 2c-1 2 -1 4 -2 5c-1 3 -1 5 -2 8v1c-2 3 -4 5 -7 7
c-5 6 -9 11 -12 15c0 1 0 1 -1 2l-2 2l-2 3c-2 3 -4 5 -5 8v1c-2 2 -5 4 -8 7l-5 4l-2 2c-1 1 -2 1 -3 2c-5 3 -8 5 -10 8c-1 1 -1 2 -2 3v43c-1 1 -1 1 -2 1c-5 5 -9 10 -12 13c-3 4 -6 7 -9 10s-7 6 -10 9s-6 6 -9 8l-5 5v8l-13 13c0 4 0 9 -1 14c-1 4 -2 8 -2 11v4l-9 5
c0 3 0 6 -1 9v3l-1 6c0 3 0 5 -1 8s-3 7 -4 12c-1 2 -1 4 -1 5c-3 1 -7 9 -15 14c-1 1 -1 1 -2 1l-2 2c-1 1 -1 2 -2 3c0 1 0 1 -1 2c-1 3 -3 5 -4 7l5 12c7 5 13 8 19 11h4h2c2 1 4 1 7 2h6l13 9l16 4l7 7c3 3 6 7 9 10l1 1l2 2l4 4c1 2 3 4 4 6c1 1 2 3 3 4l8 4l13 22v38
l4 12l22 13l-5 43c0 1 0 2 1 4c1 1 1 1 1 2c0 2 0 4 1 6v2c0 1 0 3 1 4v6c0 2 0 4 1 6v11c-1 1 -3 3 -4 5l-3 6l-2 2l-1 2c-2 4 -3 7 -4 10c-1 1 -1 3 -2 5v1l-1 5v2l-5 13v1v2c0 1 0 1 -1 2v3c-1 1 -1 3 -2 5l-1 1c0 2 -1 4 -2 7c0 1 0 2 -1 3s-1 1 -1 2v9h-1l-3 2
c-2 1 -4 3 -5 4c-3 3 -6 7 -9 11c-3 5 -5 10 -7 16v13l-5 5c-8 7 -16 14 -23 20l-3 3l-7 6l-5 8l-2 -1h-5h-6h-6h-2v1l-9 9h-13c-1 0 -2 0 -3 1h-4c-7 1 -15 3 -22 6s-15 5 -22 8c-1 1 -1 1 -2 1c-1 2 -3 4 -6 5h-7c-1 1 -4 1 -8 2c-1 1 -3 1 -4 1h-2h-3c-2 1 -4 1 -5 1
c-3 0 -7 0 -10 1l-8 1c-1 0 -2 0 -3 1c-5 1 -9 1 -13 1l-10 1c-1 0 -2 0 -4 1c-5 1 -9 1 -13 1h-2c-14 1 -27 2 -40 3h-13h-16l-17 -1c-6 -1 -12 -1 -17 -2c-3 0 -5 0 -8 -1c-2 -1 -5 -1 -8 -1c-2 -1 -4 -1 -7 -2s-7 -1 -10 -2c-2 -1 -4 -1 -7 -1c-5 -1 -10 -3 -15 -4
l-12 -9c-6 -12 -18 -24 -28 -36c-3 -1 -4 -4 -4 -4l-2 -4v-2v-21l8 -9c7 -9 13 -14 17 -16l4 -60c3 -13 5 -25 6 -35c0 -1 0 -2 1 -3c1 -7 1 -14 2 -19v-6c-1 -2 -2 -4 -3 -7v-2v-4v-7c1 -1 2 -1 3 -1c2 -7 4 -14 5 -19c1 -1 1 -2 2 -3v-1c3 -6 5 -11 6 -15l-1 -1v-1
c0 -1 0 -2 -1 -3c-2 -7 -3 -20 -3 -38l5 -13c-8 -5 -14 -30 -22 -30v-38l9 -8v-38l-9 -13c0 -2 0 -5 1 -9v-9v-19c0 -6 0 -11 1 -15c1 -3 2 -6 3 -8c-1 -3 -2 -7 -3 -11v-3c0 -1 0 -2 -1 -3v-1c-1 -8 -2 -16 -3 -23c-1 -11 -2 -20 -2 -27c-1 -9 -2 -21 -3 -34v-6
c0 -1 0 -3 -1 -4v-48c-6 -2 -6 -14 -8 -21v-2c-1 -1 -1 -1 -1 -2h-1c-1 -1 -1 -3 -2 -7c0 -1 0 -3 -1 -6v-30v-17v-7c1 -2 1 -5 2 -8c1 -5 2 -8 3 -10v-1l12 -12c1 -1 2 -1 3 -1s1 0 2 -1c5 -1 9 -1 13 -2c1 0 3 -1 6 -2s6 -3 9 -6zM203 449c-2 3 -6 5 -11 7l-5 2
c-1 0 -3 0 -5 1l-6 1c-1 0 -2 0 -3 1h-5h-6h-10l-12 10v3c0 1 0 3 -1 4c0 4 -1 7 -2 8l-1 1v16v10v7c0 4 0 7 1 10v4c1 2 1 4 1 5c1 2 1 4 1 6l1 2c5 3 8 18 17 25l-5 13c0 13 1 23 4 31l1 1c1 2 3 4 4 6c1 3 1 7 1 14v8v3l-1 6v2c-1 7 -2 13 -3 18v3c-1 6 -1 11 -1 14l13 8
l5 -2c1 -1 3 -1 5 -2c3 -1 6 -1 9 -2h2c2 -1 4 -1 5 -1s2 0 3 -1h3h6c0 2 1 4 4 6l3 3c1 1 1 1 2 1l4 4c2 2 3 4 4 7l8 -4c1 -1 2 -1 3 -2l3 -1h1c1 0 2 0 3 -1c2 0 4 0 6 -1h5h8h8c7 1 13 1 19 1h20l7 3c3 1 7 3 11 4l1 1c3 1 5 2 7 3c1 0 3 0 4 1c1 0 3 0 5 -1
c1 0 3 0 5 -1c3 -1 4 -1 5 -2h6l13 -8l22 -22l1 -1c1 -1 2 -1 3 -2s3 -1 5 -2c7 -3 10 -5 11 -8h21c1 -3 3 -6 4 -9c0 -1 0 -3 1 -4s1 -2 2 -3v-2l1 -5c1 -2 1 -4 1 -6l13 -13v-25l13 -9c0 -1 0 -2 -1 -3c-1 -5 -7 -14 -8 -22v-3v-1c-1 -1 -1 -2 -1 -3s0 -2 -1 -3
c-5 -9 -10 -17 -13 -25c-1 -2 -3 -4 -4 -6c-3 -5 -6 -9 -8 -14c-3 -5 -5 -9 -7 -13c-1 0 -1 0 -1 -1l-1 -2c-1 -1 -2 -3 -3 -4c-2 -2 -5 -4 -10 -6h-3c-4 -1 -9 -3 -14 -6c-1 -1 -3 -1 -6 -2c0 -3 -2 -6 -5 -9l-1 -1c-1 -1 -1 -1 -1 -2v-1l-1 -1v-2v-2h-1c-3 0 -10 0 -19 -1
h-4c-1 -1 -3 -1 -5 -1c-3 0 -5 0 -7 -1c-1 0 -2 0 -3 -1l-4 -1l-3 -1h-2l-1 -1c-1 -1 -1 -1 -2 -1s-2 0 -3 -1c-1 1 -3 1 -5 0c-2 0 -4 0 -7 -1h-12h-38h-19l-2 -1h-16h-14c-3 -1 -5 -1 -8 -1h-4z" />
    <glyph glyph-name="s" unicode="s" 
d="M223 0h78l4 8c8 0 15 -3 20 -8h37c14 5 21 7 21 8c3 1 7 2 12 2c4 0 7 1 8 2l13 8c15 15 27 24 32 29c8 3 19 12 26 12c13 21 20 35 21 36c1 5 3 11 6 16c5 7 8 11 9 14l8 5l5 12c2 5 3 21 3 49l5 5c-3 3 -5 9 -5 20l5 4c-1 3 -2 9 -2 18c0 4 1 9 1 13v7
c0 11 -1 17 -4 24l-8 8l-8 4v9l-8 12c-8 8 -13 12 -16 12c-3 6 -5 13 -5 20c-21 21 -34 35 -45 46c-14 0 -35 20 -45 20l-4 5c-3 2 -7 3 -14 3h-1c-7 0 -12 1 -15 3l-14 10c-7 5 -13 8 -18 8c-33 19 -58 32 -73 41c-15 13 -25 24 -34 28l-12 9v3c0 7 -12 9 -12 14
c-5 6 -7 11 -8 16v9l3 3c-8 8 -12 15 -12 21c3 7 4 20 4 37l5 12l3 5l-3 12l2 2l4 6c1 1 2 3 2 6v2c7 1 17 18 36 25l17 16h8l12 4c7 3 14 5 21 5c19 7 32 11 37 11s11 -1 17 -3c3 -5 20 -10 20 -17h21c8 -8 17 -12 28 -12c10 -11 16 -21 17 -29v-8c9 -10 16 -17 20 -20
l13 -5c7 -3 16 -4 25 -4c4 3 11 12 16 12c0 3 1 7 4 12c1 1 1 3 1 6c0 1 0 2 -1 3l-4 13l4 3l-8 17v9l-4 3v9c-9 9 -13 14 -13 16c-30 33 -60 55 -90 65c0 6 -6 9 -17 9c-9 4 -34 6 -41 13c-28 3 -49 4 -68 4h-12c-3 0 -7 0 -10 -1l-13 -3c-3 -9 -9 -13 -16 -13l-4 -9
c-12 -3 -29 -4 -33 -12c-3 0 -7 -1 -12 -3c-2 -1 -4 -2 -6 -2s-4 1 -7 2c-3 -7 -12 -14 -12 -17v-9c-5 -1 -14 -12 -17 -12c-9 -16 -17 -27 -24 -33c-5 -27 -11 -48 -16 -61l-4 -4c0 -18 -2 -28 -5 -29c3 -6 5 -20 5 -42l16 -36c5 -10 9 -18 13 -25c-1 -1 -1 -3 -1 -5
c0 -3 1 -5 3 -7c6 -7 9 -11 10 -13c23 -20 40 -34 49 -45c11 -5 18 -8 20 -8c15 -11 24 -18 29 -25h9v-8c7 0 13 -2 19 -7c5 -3 8 -6 13 -9c11 -5 18 -8 21 -8c20 -12 33 -19 41 -26c10 -10 24 -19 42 -27c7 -3 15 -7 22 -11l23 -11l3 -8c9 -3 12 -14 17 -29v-4l-4 -8v-54
l4 -12l-4 -4v-8c-5 -7 -22 -40 -33 -45c-5 -3 -16 -1 -21 -4c-11 -7 -19 -11 -25 -13h-90c-1 0 -5 3 -13 10c-5 5 -10 7 -15 7c-27 27 -44 48 -50 65v17h-8c0 5 -12 11 -12 16c-8 4 -19 6 -34 6c-9 0 -27 -1 -52 -6l-13 -12l-4 -12c3 -8 12 -22 12 -29l5 -8v-12l-5 -5
c3 -1 5 -5 5 -11s1 -9 3 -9v-4c11 -6 17 -12 17 -17c1 -4 12 -15 12 -20c17 -20 28 -35 33 -46c24 -13 41 -22 53 -29l5 -8c7 -3 12 -6 17 -7z" />
    <glyph glyph-name="t" unicode="t" 
d="M291 0h24c23 9 39 19 48 20c0 5 12 11 12 16c0 13 1 20 3 21c-5 6 -7 19 -8 40c-1 20 -4 33 -7 40l-4 4c-9 27 -14 60 -16 100l-6 73c-1 16 -2 24 -2 25l12 12c0 8 1 13 4 16c-9 3 -4 20 -12 20c-1 0 -1 1 -1 2s0 3 1 4l2 5c-1 1 -2 2 -3 2l-3 -1c-5 5 -3 17 -8 21
c5 16 7 35 7 58c0 17 -2 37 -3 58c-9 21 -13 37 -16 49l8 12l4 7c-3 3 -4 9 -4 18s1 19 4 31c0 12 1 19 3 20c-2 1 -3 8 -3 21l12 7c5 2 14 3 26 3c10 0 17 1 22 2l12 12h12c10 -5 18 -8 24 -9c9 -8 13 -13 13 -15c0 -9 12 -24 12 -29c0 -13 1 -22 4 -28v-16c5 0 8 -6 8 -17
c8 0 27 -7 32 -7l12 7c3 5 12 12 12 17l4 12c-3 9 -4 23 -4 40c4 5 6 11 6 20c0 8 2 12 6 13c-5 19 -8 47 -8 84l-4 12l-8 12c-5 0 -11 2 -18 5c-8 4 -14 6 -18 7h-4c-7 -5 -22 -2 -24 -8c-44 3 -169 5 -384 5c-5 -6 -11 -9 -19 -9l-8 -12c0 -10 2 -24 7 -42s8 -32 8 -42
c6 -9 9 -20 9 -33c2 -2 3 -9 3 -20c-2 -1 -3 -7 -3 -20c2 -2 3 -7 3 -16c11 -15 18 -28 21 -37c5 0 15 -3 20 -3l12 8l9 7c-3 17 -5 42 -5 73c0 7 8 19 8 22h1l2 1c4 0 9 -1 17 -2c3 0 4 -1 5 -1c5 0 9 1 12 4c13 -4 27 -6 40 -6c11 0 23 2 36 6v-28l4 -4l-4 -4
c3 -3 4 -10 4 -20c-3 -3 -4 -9 -4 -20l4 -4l-4 -4c3 -3 4 -10 4 -20v-37c0 -7 -1 -13 -4 -16l4 -8c0 -7 -1 -13 -4 -16c3 -3 4 -10 4 -20l-4 -4c-3 -21 -4 -53 -4 -97c0 -43 -1 -76 -4 -96c-8 -4 -12 -21 -16 -21c-3 -13 -5 -26 -5 -39c0 -8 1 -21 2 -38c1 -16 3 -28 3 -36
c-3 -9 -6 -18 -8 -25l-4 -19c5 -8 7 -32 12 -41c-5 -4 -7 -21 -12 -24v-20l-8 -4l8 -12c5 -9 11 -15 20 -20h52z" />
    <glyph glyph-name="u" unicode="u" 
d="M312 0l12 4c32 11 57 17 73 20c15 10 25 17 28 21l12 8c8 14 15 23 21 28h16c3 8 16 15 16 20v17c11 9 18 17 21 24c-1 1 -1 2 -1 5c0 8 4 16 4 23l5 5l-5 3c0 7 5 18 5 21c-3 9 -5 20 -5 32l5 8c-3 12 -5 30 -5 53l5 8c5 17 7 30 7 40l-7 4c-3 19 -5 45 -5 78l5 12l7 3
c-3 3 -5 8 -5 16c0 5 -2 8 -7 8c-2 13 -3 29 -3 50l3 12c-2 2 -3 9 -3 20c-1 1 -3 5 -8 9c-1 3 -2 4 -2 5c0 4 13 14 13 19l5 7c-3 11 -7 25 -12 41c9 17 15 27 19 32l-7 8c5 10 7 30 7 61l5 4c-3 7 -5 24 -5 49c-8 8 -12 13 -12 16c-7 6 -16 12 -27 17h-45
c-8 -11 -15 -18 -20 -21l-13 -17v-48c7 -3 10 -17 13 -17l3 -15l-3 -4c9 -81 15 -142 20 -183c-5 -9 -7 -20 -7 -31c0 -12 2 -25 7 -38c-1 -3 -2 -6 -2 -7c0 -2 1 -4 2 -7c3 -4 4 -7 4 -10l-4 -4c-1 -1 -2 -6 -3 -13c-1 -5 -2 -7 -5 -7c0 -30 3 -52 8 -65c0 -14 1 -24 4 -29
c-3 -1 -4 -7 -4 -19l-8 -9c1 -1 1 -4 1 -8s0 -7 -1 -9c-3 -7 -4 -12 -4 -15l-8 -4c-3 -4 -4 -18 -4 -41l-9 -12h-8l-4 -8c-8 -3 -20 -17 -28 -21c-13 -5 -31 -7 -55 -8c-23 0 -42 -2 -55 -7c-16 9 -25 17 -28 20c-3 1 -7 2 -12 2c-4 0 -7 1 -8 2l-16 17v7l-24 24
c0 3 1 2 1 5c0 8 -6 17 -6 20l-4 8c-11 35 -16 76 -16 121c-3 1 -4 8 -4 21c3 1 4 4 4 11c0 5 1 10 4 13l-4 4c-5 14 -7 33 -7 58v15c0 15 1 28 1 39c0 15 -1 27 -2 34l4 12h8c3 3 4 13 4 28c-3 6 -4 26 -4 61c3 8 4 17 4 28c11 11 19 25 24 41l-3 4c2 1 3 7 3 20
c0 3 9 13 9 17v12l-9 12l-24 24c-24 7 -44 11 -57 12c-10 -5 -17 -8 -20 -8l-12 -7l-4 -13c-3 -5 -4 -14 -4 -25l-4 -12c5 -29 8 -70 8 -121l4 -12l-4 -4c5 -31 8 -54 8 -69c5 -9 8 -21 8 -37l-8 -4c-3 -12 -4 -33 -4 -62c0 -28 -1 -50 -4 -63l-4 -5c0 -5 0 -16 3 -33
c1 -8 2 -15 2 -20c0 -4 -1 -8 -1 -11l-4 -12v-44l8 -13v-20l-4 -4c-4 -11 -6 -23 -6 -36s2 -24 6 -33l4 -4v-8l4 -4v-8c8 -7 13 -12 16 -16v-8c5 0 11 -13 16 -13c0 -12 16 -32 17 -37h16c11 -10 20 -16 28 -19c3 -7 13 -10 16 -17c7 0 16 -4 21 -4l3 -8c1 0 2 -1 5 -1
c5 0 13 1 24 2h8c8 0 13 -2 16 -5c12 0 29 4 37 4l12 -5c5 -1 8 -4 8 -7z" />
    <glyph glyph-name="v" unicode="v" 
d="M267 0c7 1 12 2 12 2l-5 -2c3 1 6 1 9 1c17 2 34 1 47 3l12 8c8 13 15 21 20 25c3 17 5 42 5 75c9 22 15 43 20 63c2 1 5 5 8 13c1 6 4 10 9 12c-3 1 -5 2 -5 5c0 4 3 9 10 15v25l3 12l5 5l-5 12v13c-2 3 -3 9 -3 20v12c11 27 17 49 17 65c0 9 -2 18 -5 27
c22 23 33 46 33 71c3 7 4 17 4 29l4 13l4 3c-3 5 -4 12 -4 21l9 8c-4 12 -5 20 -5 25v5c9 12 13 26 13 41c0 5 4 18 4 21c5 3 8 16 8 41c8 3 9 14 9 21c5 0 9 4 10 11c1 9 3 13 6 14l12 9l-12 12v12l4 5c-3 7 -4 14 -4 20v5c-8 8 -15 12 -20 12l-5 8l-3 -1c-7 0 -22 9 -38 9
h-4c-9 0 -12 -8 -17 -8l-8 5c-7 -12 -13 -19 -17 -22v-16l5 -4l-5 -5v-45c-5 -5 -3 -27 -8 -34c14 -7 21 -16 21 -28l-8 -4c0 -7 -3 -19 -8 -34c-7 -19 -8 -29 -9 -33l4 -4c-1 -1 -1 -3 -1 -4c0 -11 5 -18 5 -21l-21 -21c0 -11 -3 -17 -9 -17l5 -7c-3 -3 -6 -17 -7 -17
s-2 -4 -4 -13c0 -1 -1 -3 -1 -4c0 -3 1 -5 4 -8l-9 -13l-12 -12c-3 -5 -4 -18 -4 -37l4 -5v-33c-3 -5 -4 -14 -4 -25c-7 -20 -11 -36 -12 -41c-8 -3 -14 -12 -18 -25c-7 -18 -11 -28 -12 -29s-1 -2 -1 -4c0 -3 0 -5 1 -6v-3c0 -3 -1 -4 -4 -4h-8c0 5 -1 9 -4 14
c-1 3 -2 5 -2 7c0 0 1 1 2 4c-19 28 -32 47 -38 58v8l-12 13v17l4 12l8 4c-5 34 -8 55 -8 64v2l4 9l-4 12l-25 25c-3 4 -4 15 -4 33c-3 1 -4 8 -4 21c-15 11 -26 18 -33 21v25l8 4c5 8 3 34 8 42c-5 53 -8 91 -8 116l-8 12l8 5v12l-8 13c-4 9 -9 11 -37 20l-5 5
c-9 0 -31 5 -39 5c-7 0 -13 -2 -20 -5l-12 -9c-1 -9 -2 -17 -2 -24c0 -19 5 -37 14 -55c6 -10 9 -28 9 -54c4 -15 6 -24 6 -29c0 -3 -1 -6 -2 -9c5 0 7 -4 7 -12c0 -5 2 -8 6 -8v-5l4 -8v-4c9 -9 14 -16 17 -20v-50c3 -21 6 -39 7 -54l5 -37v-13c8 -15 12 -26 12 -34l5 -3
v-9c5 -2 8 -6 9 -11l3 -14c5 -17 8 -31 8 -42l5 -3c6 -13 9 -30 9 -49c0 -14 -5 -50 -5 -66c0 -13 3 -26 8 -39l8 -4v-9l5 -3v-9l4 -4c0 -5 -4 -16 -4 -21c2 0 3 -3 4 -8v-3c0 -3 -1 -5 -4 -5v-9l4 -4c0 -12 8 -30 8 -38l8 -8v-4c11 -11 17 -18 22 -25c4 -5 13 -8 28 -8z
M271 0h3h-3z" />
    <glyph glyph-name="w" unicode="w" 
d="M391 0c8 4 13 6 15 6c11 9 18 17 21 22l-1 1v3c0 9 9 21 9 25l4 7c1 2 2 7 3 14c1 4 3 6 6 6c4 15 7 26 8 33c3 1 4 4 4 9s1 7 3 7v16l9 13c3 3 6 11 7 22c1 12 3 19 5 21c3 15 4 29 4 38s-1 17 -4 23c2 0 3 3 4 8v3c0 3 -1 5 -4 5c1 2 3 8 6 17c2 6 5 10 10 11l-4 5
c3 1 4 4 4 9s1 7 4 7v8l-4 4v8l4 4v8c-3 2 -5 4 -5 7c0 2 2 5 5 9c-5 3 -1 20 -8 20l4 4v69l4 3c-3 5 -4 12 -4 21l4 12l4 4c0 27 -3 58 -8 97c5 17 10 31 13 36c5 17 7 39 7 68c-5 1 -7 3 -7 7c0 1 3 8 3 9c0 3 -1 4 -3 5c8 3 7 20 12 24l3 4c-2 5 -3 11 -3 20l3 4
c-7 1 -19 16 -28 16c-11 6 -17 9 -20 9h-4c-17 -3 -28 -4 -37 -5l-12 -7l-7 -21c0 -33 1 -56 3 -69l-3 -3c6 -9 9 -39 15 -45c0 -11 -12 -37 -12 -44c3 -6 4 -22 4 -49l8 -8c-5 0 -4 -16 -12 -16c-2 -7 -3 -30 -3 -69l-5 -12c5 -10 8 -38 8 -84l-3 -12l3 -4
c-8 -20 -12 -35 -12 -45l-8 -3l8 -12c-8 -15 -15 -25 -20 -29l5 -12c-6 -11 -9 -18 -9 -21l-8 5c0 9 -12 16 -12 20l-8 13v36c-5 8 -8 18 -8 31l-8 5c-3 9 -4 23 -4 40l4 8c-5 11 -7 27 -8 48s-3 37 -4 45v16l-4 12l-9 8c-12 9 -22 13 -27 16c-10 0 -18 -7 -25 -20
c0 0 -3 -20 -16 -32v-29l-4 -3c4 -9 6 -22 6 -38v-11c-2 -19 -3 -32 -3 -41c0 -3 1 -4 1 -7c-8 -7 -8 -25 -16 -29v-19l-8 -12c0 -19 -8 -34 -25 -45h-7c-5 18 -7 31 -8 40c-9 4 -12 19 -16 20v5c0 6 -1 12 -4 17s-5 10 -8 15c2 8 3 17 3 28v12l-3 37l-9 3c4 1 6 4 6 10
c0 10 -3 15 -9 15c3 20 3 37 3 48l9 12c-1 3 -2 5 -2 6s1 4 2 8c3 5 4 8 4 10l3 4c-3 21 -3 50 -3 89l-4 4c0 11 1 17 4 20c-3 3 -5 7 -5 11c0 3 2 5 5 5v8l-4 4c0 11 1 18 4 20l-4 12c10 14 15 27 15 39c0 5 -1 9 -3 14v16c-9 12 -18 21 -29 28c-5 -1 -9 -1 -14 -1h-10
c-8 0 -13 0 -16 1l-12 8c-8 -8 -16 -12 -24 -12c-4 -10 -6 -21 -6 -34c0 -15 6 -48 6 -62l7 -5l-15 -7l12 -5c0 -20 -1 -32 -4 -36c5 -11 7 -18 7 -20l-7 -12l7 -4c4 -37 5 -68 5 -91v-18l7 -16v-125l-3 -4c-3 -11 -4 -24 -4 -39c0 -13 1 -35 6 -63c4 -28 6 -50 6 -63
c8 -3 7 -21 16 -21c1 -1 2 -3 3 -6l2 -9c0 -7 3 -12 7 -12c5 -17 8 -26 8 -29l4 -4c5 -14 8 -32 8 -53l9 -12c2 -2 4 -5 5 -8l6 -12c5 -9 9 -16 13 -20v-8l7 -8c9 -3 22 -4 37 -4c3 12 21 17 24 24v24c8 4 12 19 16 20v9l4 3v9l4 4v8c-2 1 -4 3 -6 5c0 1 8 5 8 8
c0 1 -1 2 -2 3c11 12 19 20 24 24l-1 1v3c0 9 9 21 9 25h9c8 -16 7 -44 12 -53l3 -8c7 -20 12 -32 13 -41c10 -18 17 -33 20 -44c9 -12 17 -20 24 -24zM404 5c1 1 1 1 2 1h1c-1 0 -1 0 -2 -1h-1z" />
    <glyph glyph-name="x" unicode="x" 
d="M483 0c13 5 22 7 25 7l2 -1h1l-1 -1c3 1 29 13 29 15c1 3 2 9 5 16c1 5 2 8 3 8s2 7 2 21l-10 13v9l-3 4c0 12 -4 22 -13 31l-5 17c-9 9 -17 15 -21 22v4l-5 5l-13 26v21c-17 17 -30 31 -35 39v10l-4 3v5c0 9 -5 23 -5 31v2v2c-1 1 -12 3 -12 4c1 1 1 2 4 5
c-11 0 -14 8 -18 13v4c-5 9 -13 18 -22 26l-8 4v9c-13 13 -21 26 -26 35c-3 5 -5 16 -5 35l5 13l4 4v9l4 4v9l18 17c0 5 8 12 8 17c20 15 33 27 40 35c0 9 17 31 17 39c10 3 7 26 13 26v23c6 0 9 5 9 16c11 13 20 20 26 23l13 3l5 13c2 5 3 19 3 44l10 13l2 -1
c5 0 14 10 14 10v5c0 9 5 22 5 31v3c-8 0 -18 19 -26 22h-39c-9 -13 -16 -25 -23 -36l-16 -25c-9 0 -17 -13 -22 -13v-9c-3 -10 -4 -20 -4 -30v-2c0 -8 -10 -11 -10 -18l1 -2l-5 -13h-8l-22 -21c-8 -15 -14 -24 -17 -31c-11 -38 -19 -66 -26 -83l-9 -9h-9c0 1 1 2 1 5
c0 8 -6 17 -6 24l1 2l4 4l-8 18c-3 6 -5 13 -5 21h-8c-6 23 -12 36 -18 39c0 9 -8 23 -8 31c-9 0 -19 13 -27 13c-3 7 -13 14 -13 18l-4 13v8c-4 0 -7 3 -9 8c-1 2 -2 4 -2 5s1 2 2 5v4l-4 4c-3 14 -10 30 -22 48c-12 8 -21 15 -26 22c-12 3 -28 4 -52 4c-3 0 -9 -4 -18 -13
l-8 -8l-5 -13v-9l5 -5v-8l5 -5c18 -37 34 -63 47 -78c-1 -3 -2 -5 -2 -6c0 -3 1 -6 3 -9c3 -5 4 -11 4 -16l3 -3v-10c9 -9 15 -13 18 -13c0 -5 7 -18 22 -39v-8l4 -5c-1 0 -1 -1 -1 -3c0 -7 6 -15 6 -18c9 -9 16 -19 21 -27v-17l13 -13l9 -13c3 -10 4 -26 4 -48l5 -4
c3 -5 4 -17 4 -35l-13 -13c0 -8 -9 -17 -9 -26l-13 -13c-7 -24 -12 -36 -13 -36v1c-9 -17 -16 -28 -21 -34l-9 -5v-3c0 -9 -10 -16 -10 -21l1 -2c-12 -12 -18 -25 -18 -39l-13 -9c-11 -7 -18 -13 -21 -17v-3c0 -7 -7 -10 -7 -13c0 -1 1 -3 2 -6c-7 -7 -11 -13 -13 -17
l-21 -22c1 -3 2 -5 2 -6c0 -4 -12 -10 -12 -19l1 -1c-11 -18 -17 -31 -17 -39l-5 -13l31 -31c17 -4 33 -6 48 -6c23 0 45 5 65 14h4v10c10 3 15 26 22 26c3 3 5 8 7 17c1 6 3 9 6 9c3 10 4 27 4 52l5 13l17 17l5 13v9c9 3 13 13 13 30c5 4 14 13 17 13c-1 1 -1 3 -1 6
c0 9 5 22 5 25l13 8v18c7 15 13 22 18 22c5 -11 8 -20 8 -27v-13c5 -3 8 -12 9 -25c1 -11 4 -17 9 -17l4 -18l9 -5c9 -13 15 -22 17 -29c3 -5 4 -17 4 -36c9 -16 13 -28 13 -35h5l13 -26v-21c9 -7 13 -25 17 -26v-10c7 -7 17 -11 31 -14c17 -2 27 -4 30 -7z" />
    <glyph glyph-name="y" unicode="y" 
d="M271 0c11 1 17 2 17 4h45c13 9 20 13 22 13c2 4 3 15 3 33l4 12l8 5c-3 3 -5 6 -5 9c0 4 5 11 5 15h-8c-3 9 -8 17 -8 25c0 2 0 4 1 5c2 1 3 7 3 20l-3 5l3 3c-4 3 -1 17 -8 17c5 17 8 29 8 37l-3 5c-3 4 -5 15 -5 32c-3 3 -4 10 -4 22c6 22 9 36 9 41c-6 7 -9 13 -9 16
c-3 7 -21 12 -21 13c-1 1 -1 2 -1 5c0 9 6 19 6 24l16 17c6 15 9 26 9 33l3 4c5 9 8 28 12 33c7 5 8 23 13 26c0 1 4 13 4 16c20 27 33 46 38 58v8l24 25v9h9l-4 8c3 8 12 16 12 25h8v17c7 0 12 12 13 12v17l13 8c-3 3 -4 9 -4 20l4 5l-4 8l12 12l4 9l8 4l5 12
c0 9 -5 22 -5 29c-9 4 -7 22 -12 25h-8l-13 9c-5 0 -14 -4 -21 -4c-1 -3 -8 -5 -20 -5c0 -10 -21 -13 -21 -20v-21l-4 -9c6 -6 11 -16 16 -29c-10 -5 -17 -7 -20 -8v-8c-7 -4 -13 -10 -17 -17l-4 -12l4 -4c-7 -8 -12 -12 -17 -13l-8 -4c0 -7 -5 -13 -14 -19s-14 -11 -15 -14
l-4 -13c0 -3 -1 -10 -4 -19c-1 -5 -2 -8 -2 -10c0 -3 1 -5 2 -8c-9 -3 -12 -21 -17 -21c-5 -17 -10 -28 -13 -37h-8v12c-13 19 -21 33 -24 42v9l3 3c-5 3 -8 8 -8 17l5 4c-12 7 -14 21 -17 33c3 3 4 5 4 7c0 1 -10 5 -10 12l1 2c-5 0 -17 4 -20 4l-13 13l-8 12v12
c-5 17 -8 28 -8 34l-8 8v34l-9 12c-9 9 -14 13 -16 13l-25 25c-17 0 -30 1 -37 3l-9 -3c-5 0 -23 -5 -30 -5c-8 -8 -12 -14 -12 -17c3 -2 4 -7 4 -16l-4 -9l9 -8c-1 -3 -2 -5 -2 -7s1 -4 3 -7c1 -7 2 -12 2 -15l5 -4v-8c8 -4 12 -10 12 -17l22 -21c-1 -1 -2 -3 -2 -4
c0 -2 2 -6 5 -12c12 -25 19 -41 22 -50v-17l7 -8c3 -6 5 -13 5 -20c20 -32 36 -54 45 -67v-17l9 -4c5 -13 11 -24 12 -29l4 -9v-4c1 0 2 -1 3 -4l7 -9c4 -5 8 -7 11 -7c4 -18 7 -32 8 -42c9 0 13 -5 13 -16c-5 -34 -8 -81 -8 -142c-8 -3 -7 -25 -13 -28v-25l4 -5v-2
c0 -7 -5 -15 -5 -20c0 -1 0 -1 1 -2c-5 -7 -7 -19 -12 -22c-9 -36 -14 -57 -14 -63c0 -9 2 -17 5 -24l-4 -8l13 -12c3 -2 6 -4 11 -6l27 -8c3 -1 6 -2 7 -3z" />
    <glyph glyph-name="z" unicode="z" 
d="M91 0c3 0 6 0 9 1l-3 -1c1 1 3 1 4 1c7 1 13 1 16 2c10 1 20 1 29 2c17 1 32 1 47 1c29 0 55 -1 80 -6l12 8c5 1 9 2 14 2h31c5 0 10 0 15 -1c16 -1 30 -2 39 -2h11c3 0 5 0 8 1l16 16h8c16 -9 27 -17 35 -20c11 -3 21 -4 32 -4c9 0 15 1 19 4l9 8c8 18 12 44 12 79l4 7
c-3 2 -4 7 -4 16c-4 13 -16 19 -24 24c-5 3 -13 12 -16 12c-93 0 -171 -6 -233 -19l-4 -5c-7 3 -26 5 -56 5l-12 7v9l9 3c-1 3 -2 5 -2 7s1 5 2 8c2 6 3 10 3 13c9 11 20 21 20 32c13 13 23 27 28 43c8 8 12 13 12 16c9 12 35 61 40 63c-1 3 -2 5 -2 7c0 1 1 4 2 7
c3 6 4 11 4 14l3 4v7c13 16 25 28 32 37h8l8 11v4c19 29 26 75 35 115l8 8c9 0 15 16 16 16c11 5 18 7 20 7l-2 6c0 3 6 4 6 11v3l4 4v16l7 8c11 40 19 71 24 91c5 0 7 2 7 7v5c0 5 3 8 9 8v27l4 8l-4 4c2 0 3 1 3 4v2c-1 4 -2 6 -2 7c-1 1 -1 2 -1 3v16l-3 3
c-48 9 -84 12 -107 12l-12 9c-9 0 -25 -1 -49 -2c-10 -1 -19 -1 -27 -1h-21c-19 1 -34 3 -45 6c-33 -1 -75 -3 -135 -3l-20 -21v-27l4 -12c6 -7 11 -15 14 -25l6 -22c3 -5 12 -13 12 -16c9 -5 16 -7 19 -8h9l3 8c7 1 15 10 19 10c2 0 4 -1 5 -2c4 0 8 1 13 1
c11 0 38 -7 47 -7c3 0 7 1 11 2l4 4c15 5 26 8 31 8l5 4c39 0 66 5 83 15c8 0 14 -2 19 -7c3 -6 5 -13 5 -20c-4 -3 -7 -10 -9 -22c-1 -11 -5 -17 -12 -17c0 -7 -3 -14 -3 -21l-4 -11c-5 -4 -13 -12 -16 -12v-2c0 -5 -3 -9 -8 -14c0 -7 -8 -17 -8 -20c-3 -9 -8 -16 -13 -21
l-11 -11l-7 -4l-21 -39c-5 -4 -10 -13 -15 -26c-5 -12 -9 -19 -12 -22v-3c0 -7 -5 -15 -5 -22c0 -1 0 -1 1 -2l-16 -16c0 -5 -4 -12 -11 -20c-6 -13 -11 -22 -16 -27v-8c-8 -3 -12 -17 -16 -20c-3 -8 -7 -21 -15 -34c-8 -15 -12 -26 -13 -34l-12 -11l-8 -12v-24
c-11 -5 -16 -10 -16 -16v-31l-7 -4c-7 -23 -12 -38 -16 -47l-12 -9c0 -12 -11 -20 -20 -28v-7h-8l5 -4c0 -17 -3 -27 -9 -31c6 -9 9 -19 9 -32c8 -11 14 -18 19 -20z" />
    <glyph glyph-name="braceleft" unicode="{" 
d="M148 279c1 -7 1 -13 1 -16v-30c-1 -4 -1 -8 -1 -11v-15c0 -14 2 -26 5 -37c11 -28 18 -54 26 -82l3 -10c2 -3 5 -6 8 -9l11 -9c8 -4 14 -12 14 -17c3 -20 10 -41 19 -65l28 -67c1 -6 2 -10 2 -11c0 -7 -2 -20 -2 -25c0 -8 2 -15 5 -21c6 -11 14 -16 25 -16
c10 0 26 -3 48 -9c20 -6 36 -9 48 -9c7 3 19 13 34 29c1 3 2 5 2 6c0 5 -7 13 -7 17c-32 43 -69 91 -109 143c-2 3 -3 9 -3 19c0 13 -8 28 -23 44c-8 8 -13 15 -15 22c0 19 -2 34 -5 47c0 3 -11 7 -11 12c-1 11 -1 21 -1 30v30c-1 25 -4 45 -11 60c0 5 4 15 12 28
c0 34 -10 74 -30 121c3 7 11 19 23 40c10 15 16 28 18 40c13 17 24 31 34 40c0 4 6 14 6 17c2 7 11 19 26 34c13 13 19 27 19 41l67 63c25 25 37 51 37 80c-11 17 -26 26 -43 26c-21 0 -53 -18 -94 -54h-12c-16 -14 -31 -34 -45 -59c-20 -37 -32 -58 -36 -63v-16
c-16 -35 -26 -57 -29 -69c0 -4 -10 -8 -10 -11c-7 -47 -17 -79 -29 -98c-1 -3 -2 -6 -2 -9c0 -7 3 -22 3 -29c0 -3 0 -6 -1 -8c-13 -24 -19 -38 -19 -41c0 -5 5 -17 14 -34c1 -1 1 -4 1 -10v-13c-1 -4 -1 -8 -1 -11v-5z" />
    <glyph glyph-name="bar" unicode="|" 
d="M279 188c-4 -29 -6 -44 -7 -44c0 -6 2 -14 6 -23c3 -11 5 -19 5 -24c0 -7 -3 -20 -10 -39c-1 -1 -1 -4 -1 -8c0 -8 2 -16 7 -25c9 -21 16 -32 23 -32l2 1c1 3 1 5 1 8v14c11 24 13 42 13 55v4c-5 13 -9 24 -10 33c5 16 10 27 13 34l-5 10c3 9 3 14 4 19
c-4 15 -8 26 -13 35v3c-1 9 3 22 10 35c9 23 13 37 13 42c0 6 -3 15 -10 28c-6 13 -10 23 -11 30c1 5 4 13 9 26c3 11 4 17 4 22v14c0 24 3 49 7 74c-1 25 -3 60 -10 108c8 15 12 32 12 50c0 23 -6 42 -17 58c-17 0 -32 -5 -46 -16c-1 -1 -1 -2 -1 -5c0 -2 1 -5 2 -8
c3 -7 4 -12 4 -15c-1 -4 -5 -14 -12 -27c-5 -11 -8 -20 -8 -27l16 -36l3 -13c1 -4 2 -8 2 -11c0 -5 -1 -10 -3 -14c-9 -15 -14 -25 -14 -32v-3l1 -1c5 -17 8 -29 9 -36c1 -1 1 -4 1 -7c0 -5 -1 -13 -4 -23c-5 -17 -8 -28 -9 -33c1 -5 12 -24 12 -33v-28c7 -15 11 -25 11 -30
v-3c-5 -10 -8 -20 -9 -31c-1 -3 -1 -14 -2 -35c8 -21 12 -35 12 -40v-1z" />
    <glyph glyph-name="braceright" unicode="}" 
d="M340 272c0 -9 6 -37 6 -46c0 -5 0 -9 -1 -12c-7 -12 -10 -29 -10 -52v-27c0 -11 -1 -21 -2 -29c-15 -21 -28 -36 -40 -47c-1 -3 -2 -12 -3 -27s-4 -25 -9 -29c-19 -22 -34 -38 -44 -48c-16 -17 -28 -36 -36 -56c-1 -3 -9 -9 -23 -18c-9 -7 -15 -14 -16 -22v-4
c0 -2 0 -4 -1 -7v-12c0 -16 4 -25 12 -28c14 0 49 11 63 11c37 59 68 100 92 121c11 17 18 28 23 34c0 23 2 38 6 45c13 25 27 47 39 64c2 7 3 18 3 33v1c0 13 1 23 3 29c12 11 18 29 18 52c-1 7 -2 13 -2 16c0 13 4 31 12 54c8 25 12 43 12 56c0 14 -4 27 -11 40
c-6 7 -9 17 -9 29v4c0 3 0 6 1 9v14c0 6 0 12 -1 18c-13 29 -24 50 -32 63c-1 3 -1 6 -1 9v12c0 3 0 5 1 8v13c0 7 -2 15 -6 22c-34 28 -51 68 -51 120c-15 21 -29 36 -40 46v11c-10 13 -25 25 -44 36c-17 9 -29 15 -38 20l-15 7h-17c-24 -14 -36 -34 -36 -60
c0 -21 10 -41 29 -61c17 -16 35 -30 52 -46c23 -23 42 -44 57 -68c5 -15 7 -29 7 -40c23 -57 40 -99 45 -126c5 -21 8 -44 8 -68v-31c-1 -7 -1 -12 -1 -16v-17z" />
    <glyph glyph-name="asciitilde" unicode="~" 
d="M521 708c-18 9 -33 14 -44 16h-1c-3 0 -7 -2 -14 -7c-8 -6 -13 -9 -15 -9c-1 0 -8 -4 -20 -11s-22 -10 -31 -10h-2c-4 0 -10 -3 -19 -10c-11 -9 -17 -13 -19 -13c-15 0 -30 -2 -50 -7h-2c-7 0 -18 2 -34 9c-19 7 -30 11 -35 11c-10 0 -23 4 -39 13s-29 13 -39 13
c-6 0 -16 -5 -31 -16c-16 -12 -26 -19 -31 -20c-38 -14 -57 -35 -57 -63c0 -47 11 -72 33 -75h3c11 0 28 8 51 25c25 19 42 28 51 28c17 0 42 -8 76 -23c32 -15 57 -22 76 -22c4 0 17 6 42 22c25 15 38 23 41 23c13 0 26 3 41 8c45 17 71 28 79 34c11 9 16 19 16 32
c0 12 -4 23 -12 34c-5 7 -9 11 -14 18z" />
    <glyph glyph-name="exclamdown" unicode="&#xa1;" 
d="M362 275c0 20 -12 56 -36 109c-7 17 -21 25 -42 25c-1 0 -4 -1 -9 -2c-15 -12 -23 -31 -23 -58v-15c1 -5 1 -12 1 -15c-3 -13 -5 -27 -5 -40c0 -10 1 -26 3 -47c3 -21 3 -37 3 -46c0 -23 -3 -42 -9 -57c-17 -42 -25 -68 -25 -79c0 -16 6 -29 19 -38c16 -9 35 -13 56 -13
c49 0 79 17 89 50c0 9 -7 31 -22 66c-2 17 -3 35 -3 52c0 12 0 29 1 54s2 42 2 54zM311 539c1 0 12 8 33 24c13 10 24 16 33 19c13 9 19 20 19 35c0 31 -27 70 -55 83c-17 3 -33 4 -42 4c-39 0 -67 -11 -83 -34c-18 -25 -27 -44 -27 -57c0 -5 2 -10 5 -15
c17 -17 45 -39 81 -66c17 0 29 2 36 7z" />
    <glyph glyph-name="sterling" unicode="&#xa3;" 
d="M547 43c-1 1 -1 2 -1 3c0 7 6 20 19 38c9 12 13 23 13 34c0 13 -5 29 -15 47c-8 5 -16 7 -24 7c-24 0 -43 -16 -56 -49c-20 -41 -37 -61 -50 -61c-3 0 -11 -1 -24 -2c-3 -1 -7 -1 -12 -1s-8 0 -10 1c-9 1 -23 7 -41 20c-4 3 -17 12 -38 28s-31 24 -32 24
c21 41 31 77 31 108c0 9 -5 29 -15 59c-9 30 -15 50 -16 59c-1 1 -1 3 -1 6c0 6 3 12 10 17c8 5 12 9 12 12c0 2 -1 5 -3 8l32 15l46 -15c1 -1 3 -1 6 -1c9 0 16 6 22 18c6 11 9 24 9 37c0 20 -12 51 -30 51c-3 0 -6 0 -7 -1l-43 -18h-89v10c0 3 0 11 3 23c1 7 2 11 2 15
c0 3 -1 4 -1 7c-8 31 -14 49 -15 54c11 35 17 57 22 66c1 2 2 6 2 11v9c-1 1 -1 3 -1 5c0 12 11 22 24 22c7 0 30 -9 41 -9h40c4 -1 15 -2 35 -5c14 -1 23 -6 27 -16c-7 -5 -10 -12 -10 -21c0 -8 7 -30 7 -39c0 -20 -1 -37 -1 -46v-8c2 -9 6 -13 13 -13c5 0 13 3 25 8
c19 9 28 21 28 35c0 11 -5 37 -5 48c0 59 -19 104 -57 133c-1 2 -4 3 -7 3c-2 0 -8 -2 -19 -5c-7 -1 -12 -2 -16 -2c-3 0 -4 1 -5 1c-12 9 -21 18 -28 25c-9 9 -18 14 -27 14c-16 0 -50 11 -65 11c-16 0 -28 -10 -35 -29c-5 -16 -10 -26 -14 -31c-3 -3 -12 -8 -27 -16
c-14 -8 -22 -16 -25 -24c-5 -24 -10 -45 -13 -61v-4c0 -5 2 -13 5 -26c4 -14 6 -23 6 -28c0 -25 6 -64 18 -117l-47 25l-39 -25c-22 -14 -33 -26 -33 -35c0 -24 11 -36 33 -36h54l51 -35c3 -9 15 -22 36 -40c21 -17 32 -31 34 -40c9 -30 13 -57 13 -80c0 -4 -5 -8 -14 -12
c-8 -3 -13 -6 -15 -8c-2 3 -5 4 -9 4c-5 0 -19 -6 -24 -6c-4 0 -12 5 -25 16c-12 12 -20 19 -25 21c-5 1 -10 2 -13 2c-5 0 -8 -1 -15 -2c-15 -3 -22 -5 -25 -5h-12c-4 0 -8 0 -12 1c-4 0 -8 1 -9 1c-3 0 -5 -1 -6 -1c-5 -1 -11 -4 -18 -11c-27 -25 -40 -62 -40 -112v-29
c0 -6 0 -13 -1 -20c2 -35 22 -53 59 -56c1 1 8 1 21 2h37c9 0 36 11 81 33c5 3 15 6 28 7c4 1 9 9 15 24c6 -7 15 -10 26 -10h36c17 0 29 -2 35 -5c49 -33 81 -49 96 -49c9 0 34 -9 46 -9c3 0 7 1 11 2c33 17 50 30 50 41v3zM213 114c-11 -15 -30 -28 -59 -39
s-53 -16 -72 -16c-15 0 -23 5 -25 15c-3 7 -5 23 -6 49v1c0 29 16 44 48 44c5 0 31 -9 36 -9c33 0 59 -15 78 -45zM414 571c0 -3 0 -5 1 -6v-7c-1 1 -1 2 -1 4v9z" />
    <glyph glyph-name="yen" unicode="&#xa5;" 
 />
    <glyph glyph-name="brokenbar" unicode="&#xa6;" 
 />
    <glyph glyph-name="section" unicode="&#xa7;" 
d="M172 -21c26 -10 49 -15 70 -15l42 -1c12 -1 22 -2 33 -2c12 0 20 1 27 2l45 10c23 5 42 13 55 22l33 33c17 12 29 21 34 26c4 7 9 23 14 47c8 44 12 71 12 83c0 3 -1 5 -2 7l-23 62l-29 37c-2 4 -3 8 -3 13s1 10 3 15c1 0 12 15 33 45c14 16 21 35 21 57
c0 27 -6 58 -19 91c-4 12 -14 21 -31 26c-15 5 -33 15 -52 30c-13 12 -31 18 -54 18l-5 -1h-6l-81 23l-61 10c-27 9 -45 16 -56 23c-7 3 -16 15 -27 35l-22 42c-2 3 -3 6 -3 10c0 9 5 18 14 29c5 6 13 22 25 48c5 11 13 19 26 24c25 11 39 25 42 42c0 11 -3 18 -9 21h-1
l-2 1c-5 0 -11 -2 -19 -7c-3 -1 -19 -10 -50 -23c-20 -9 -33 -19 -40 -32l-26 -40c-9 -13 -14 -27 -15 -41l-1 -47c0 -3 0 -5 -1 -6v-4c0 -13 3 -23 8 -30l36 -33c2 -3 3 -6 3 -11s-3 -12 -8 -19l-29 -35c-17 -25 -26 -54 -26 -86c0 -46 8 -80 25 -101l31 -33
c9 -7 18 -13 29 -17l36 -14c17 -10 31 -16 40 -17l62 -1c12 -3 26 -7 41 -14c23 -10 42 -15 59 -15c7 0 12 1 19 1c11 0 18 -1 23 -4c15 -10 27 -22 36 -35c13 -19 19 -50 19 -91c0 -13 -2 -25 -5 -34c-9 -27 -35 -48 -77 -64c-10 -4 -31 -6 -63 -6c-27 0 -50 1 -69 3
c-22 1 -39 9 -52 22l-29 29l-38 41c-16 13 -32 20 -48 20c-1 0 -2 0 -3 -1h-4c-14 -4 -24 -13 -30 -26c-1 -7 -2 -12 -2 -16c0 -17 6 -33 17 -46l37 -42c11 -11 20 -20 33 -25zM454 493c10 -5 16 -15 17 -31l3 -58v-3c0 -12 -7 -22 -20 -31l-40 -28c-7 -3 -14 -5 -20 -5
c-7 0 -15 1 -22 4l-42 12l-45 10l-71 12c-15 3 -29 7 -40 13c-25 13 -39 30 -41 53l-6 52c0 23 14 47 41 71c5 4 11 6 20 6c4 0 11 -2 20 -5l60 -21c13 -5 23 -7 29 -7h4c1 1 2 1 4 1l23 10c2 2 5 3 9 3c9 0 35 -14 50 -14c5 0 10 1 15 2s8 3 11 8v-3c0 -3 0 -6 1 -9
c5 -18 19 -32 40 -42zM438 787c11 -24 25 -38 44 -42c1 0 3 0 4 -1h2c7 0 11 2 13 6c1 4 2 7 2 8c0 14 -11 34 -32 61l-31 36c-19 17 -37 25 -54 26c-9 -1 -14 -4 -16 -8c0 -6 2 -11 6 -16l40 -32c6 -4 13 -17 22 -38z" />
    <glyph glyph-name="dieresis" unicode="&#xa8;" 
d="M250 630c-7 -13 -11 -22 -14 -27c-2 -3 -3 -5 -3 -6c-13 -12 -26 -18 -37 -18c-28 9 -51 35 -51 64c0 10 3 20 10 31c11 16 25 24 42 24c10 0 18 -4 24 -12c3 0 7 -3 10 -3c6 -6 10 -11 12 -15c0 -8 7 -30 7 -38zM342 627c0 3 -2 8 -5 16c0 3 5 12 5 15c-3 5 -4 11 -4 19
c12 13 27 20 46 20c17 0 41 -11 46 -27l5 -19c3 -7 4 -14 4 -21c-1 -1 -4 -7 -8 -17c-3 -7 -6 -12 -10 -15c-17 -7 -28 -9 -32 -10c-28 5 -44 15 -47 29v10z" />
    <glyph glyph-name="copyright" unicode="&#xa9;" 
d="M255 683c-49 -7 -81 -13 -94 -16c-37 -10 -64 -27 -79 -50c-25 -29 -43 -50 -54 -61c-11 -57 -24 -96 -39 -117c1 -13 2 -24 2 -32c0 -21 -4 -81 -4 -101c0 -28 3 -52 10 -73c3 -16 9 -35 20 -56c13 -28 23 -45 27 -52c19 -30 38 -55 59 -75c29 -17 51 -25 66 -25
c13 0 27 4 43 11c13 0 27 -6 40 -17h2h6c15 0 45 10 59 10c11 -5 25 -8 42 -8c23 7 39 10 51 13c30 17 52 28 65 34c22 13 36 27 41 42c19 26 32 48 39 67c3 14 10 33 20 58c10 27 16 46 19 59c0 7 3 23 3 30c0 12 -16 36 -16 53c0 8 1 22 6 39c4 17 6 30 6 39
c0 11 -2 21 -6 30c-7 14 -12 27 -17 38l-11 28c-11 24 -27 42 -47 54c-50 29 -84 48 -101 56c-41 18 -78 27 -111 27c-11 0 -26 -2 -47 -5zM79 448c20 43 34 72 46 88c8 10 22 22 42 36c21 13 34 24 42 32h34c2 -2 4 -3 6 -3h1c11 6 20 9 26 9c9 -1 25 -4 25 -5
c7 8 15 12 23 12s17 -6 21 -9c15 -3 23 -4 31 -4c19 -12 36 -27 51 -45c25 -29 39 -46 44 -49v-15c11 -10 21 -26 28 -47c9 -28 15 -46 18 -51c0 -7 -2 -12 -7 -17v-54c2 -7 3 -15 3 -24c0 -16 -5 -35 -14 -58c-12 -26 -19 -44 -21 -55c-1 -37 -35 -73 -74 -74
c-44 -8 -76 -21 -97 -37c-12 -9 -25 -14 -38 -14c-15 0 -31 6 -49 18l-43 33c-3 1 -15 8 -22 8c-35 23 -69 68 -102 134c-2 6 -3 11 -3 14c0 5 2 15 2 20c0 3 0 5 -1 6c-7 9 -12 20 -17 31c-1 2 -3 4 -5 7v34c17 17 34 44 50 79zM253 540c-11 -1 -21 -5 -31 -11
c-7 -3 -16 -8 -29 -16c-6 -4 -15 -13 -26 -26c-9 -15 -19 -25 -26 -30c0 -33 -4 -55 -11 -66c-5 -12 -7 -25 -7 -38c0 -9 1 -19 3 -28l6 -11c3 -11 4 -19 4 -22c7 -9 13 -23 17 -40c10 -13 17 -21 22 -25v-4c5 -11 14 -19 28 -25c25 -7 43 -11 52 -16c27 -7 44 -11 52 -11
c21 0 37 6 50 18c19 1 37 5 55 14c7 5 14 13 21 22c16 19 24 37 24 54c0 11 -5 20 -14 27c-5 2 -11 3 -16 3c-14 0 -25 -5 -33 -14c-25 -28 -50 -45 -77 -51c-5 -3 -11 -4 -18 -4c-13 0 -25 5 -36 16c-17 0 -30 7 -41 22c-5 6 -12 20 -21 43c-4 5 -7 9 -8 10h-2v-3
c-1 3 -1 8 -1 13v29c0 22 7 36 22 43l3 20c0 -3 1 -5 3 -7c-1 -1 -1 -1 -1 -2l1 -1c2 3 3 5 4 8c7 9 19 17 36 24c18 8 33 12 46 12c21 0 35 -10 42 -29c3 -5 6 -25 11 -54c24 -9 38 -14 42 -14c7 0 16 3 26 10c19 19 29 37 29 55c0 24 -20 50 -59 78h-9c-7 5 -12 10 -17 13
l-12 10c-29 8 -53 13 -70 16c-9 0 -20 -4 -34 -12z" />
    <glyph glyph-name="ordfeminine" unicode="&#xaa;" 
 />
    <glyph glyph-name="guillemotleft" unicode="&#xab;" 
d="M479 108c-10 -22 -15 -34 -16 -37l-1 -1c-17 20 -30 35 -40 44c-8 0 -17 5 -27 15c-11 10 -20 16 -25 17c-7 9 -12 16 -14 19c-9 3 -16 5 -19 5c-7 0 -18 -3 -25 -3c-5 0 -9 2 -13 5c-33 27 -51 41 -56 44c-4 24 -7 44 -7 61c5 41 10 61 15 61c9 2 31 17 66 45
c42 33 67 60 76 81c27 19 54 29 83 29l2 -4c3 -3 6 -13 9 -30c5 -15 9 -25 13 -30c-3 -5 -7 -8 -11 -8s-12 5 -23 16c-12 -27 -25 -43 -40 -47c-19 -2 -30 -9 -31 -20l-2 3c-25 -25 -37 -42 -37 -51v-2c0 -3 -5 -12 -12 -25c-9 -14 -13 -25 -13 -32c0 -6 2 -12 6 -18
c7 -8 10 -14 11 -15c24 -32 37 -53 44 -58c13 -15 31 -30 52 -43c13 -8 25 -15 32 -19zM329 113c-10 -20 -15 -32 -16 -36l-1 -1c-17 21 -30 34 -41 45c-7 0 -16 5 -27 15c-11 9 -20 15 -25 16l-14 20c-9 3 -15 4 -18 4c-7 0 -20 -2 -25 -2s-9 1 -13 4c-33 27 -52 42 -56 45
c-5 23 -8 42 -8 59c6 41 11 62 15 62c9 3 31 18 66 45c42 33 67 60 76 82c27 19 55 29 84 29l2 -6c4 -11 6 -21 9 -30c3 -12 7 -21 12 -29c-3 -5 -7 -8 -10 -8c-4 0 -12 5 -23 16c-11 -27 -25 -43 -40 -47c-21 -5 -31 -11 -32 -19l-2 3c-25 -25 -37 -42 -37 -51v-2
c0 -4 -4 -12 -12 -25c-9 -15 -13 -26 -13 -33c0 -11 10 -23 18 -32c23 -32 37 -52 42 -59c15 -17 32 -32 53 -43c20 -12 30 -17 33 -20z" />
    <glyph glyph-name="logicalnot" unicode="&#xac;" 
 />
    <glyph glyph-name="registered" unicode="&#xae;" 
d="M255 687c-52 -7 -84 -13 -95 -17c-37 -11 -64 -27 -79 -49c-24 -28 -42 -49 -55 -62c-11 -57 -24 -96 -39 -117c1 -13 2 -25 2 -33c0 -18 -4 -83 -4 -102c0 -28 3 -52 10 -73c2 -16 9 -35 20 -56c15 -29 24 -46 27 -53c18 -29 38 -54 60 -75c29 -17 51 -25 66 -25
c13 0 27 4 43 11c14 0 28 -6 41 -17h2h6c5 0 14 1 29 4s25 5 30 5c11 -5 25 -8 42 -8c24 7 40 11 52 14c31 16 53 27 65 34c21 11 35 25 42 42c19 27 32 49 39 68c16 53 29 93 40 118c0 7 2 22 2 29c0 13 -16 37 -16 54c0 8 1 22 6 39c4 17 6 30 6 39c0 11 -2 21 -6 30
l-28 67c-10 24 -26 42 -47 54c-49 29 -82 48 -102 57c-41 19 -78 28 -112 28c-7 0 -22 -2 -47 -6zM78 451c20 44 35 73 46 88c7 9 16 18 29 27l35 24c5 3 12 9 21 17h34c2 -2 4 -3 5 -3c3 0 5 6 8 6c1 0 4 -4 8 -4s17 11 18 11c2 0 6 -4 13 -11c7 -5 10 -8 11 -8h1
c7 6 12 10 17 12h32c4 0 11 -1 20 -3c19 -12 37 -27 52 -44c21 -25 35 -41 44 -50v-15c11 -10 21 -26 28 -47c13 -32 18 -49 19 -52c0 -7 -2 -12 -7 -17v-54c1 -9 2 -17 2 -24c0 -17 -5 -36 -14 -58c-12 -26 -19 -45 -21 -56c0 -37 -36 -75 -74 -75c-46 -9 -79 -21 -98 -36
c-12 -10 -25 -15 -38 -15c-17 0 -33 6 -49 19c-1 1 -16 12 -43 33c-3 1 -6 2 -13 5c-3 1 -6 2 -10 2c-35 24 -69 69 -102 135c-2 6 -3 11 -3 15c0 5 2 15 2 19c0 2 -1 4 -2 7c-5 8 -11 18 -17 31c-1 2 -2 4 -5 7v33c19 19 36 46 51 81zM189 210l-2 -2c-1 0 -1 0 -2 -1
c-18 -3 -31 -6 -38 -10c-11 -7 -17 -19 -17 -36c20 -13 41 -19 63 -19c11 0 31 3 63 7c14 1 21 8 21 23c0 7 -3 12 -8 17c-15 7 -28 7 -28 22v15c1 3 1 5 1 8v6c0 8 -4 27 -4 35l5 8c2 5 3 9 3 13s-2 12 -6 24c13 7 25 10 37 10c20 0 25 -3 37 -20c4 -5 9 -8 15 -10l2 -6
c8 -41 12 -72 13 -89c1 -19 8 -33 21 -43c10 -9 17 -16 21 -22c8 5 14 7 17 7c11 0 38 -7 49 -7c9 5 13 13 13 22c0 1 0 3 -1 6v8c-13 11 -29 19 -50 27c-9 7 -13 15 -13 24c0 4 2 19 2 24c0 3 -1 5 -2 12c-9 9 -17 18 -21 23c0 11 -1 20 -4 25c-1 5 -3 8 -6 10
c-1 4 -2 7 -2 9c0 9 5 16 14 21c11 4 18 10 21 17c19 30 29 52 29 67c0 11 -3 21 -10 32c-20 31 -36 50 -49 59c-20 8 -43 12 -68 12c-15 0 -31 -2 -48 -5h-15c-10 5 -17 7 -21 7c-5 0 -18 -4 -22 -4c-8 0 -23 3 -31 3c-5 0 -11 -1 -18 -3c-16 -9 -24 -18 -24 -27
c0 -14 7 -24 22 -31c27 -4 41 -8 42 -11c0 -5 -6 -19 -6 -24c-2 -5 -3 -9 -3 -11c0 -10 4 -19 12 -28c-3 -5 -4 -11 -4 -17c0 -5 2 -15 7 -30c-2 -3 -3 -7 -3 -10c1 0 3 -9 7 -28c-3 -5 -7 -13 -12 -21c-1 -6 -2 -9 -2 -10c0 -7 4 -17 11 -29c0 -4 -3 -11 -9 -21
c-1 -5 -2 -8 -2 -11c0 -9 1 -14 3 -17zM245 376l1 10c0 8 -6 19 -6 23c0 5 3 12 8 21c0 8 -7 30 -7 35c2 2 9 3 21 4c7 0 27 8 35 8c33 0 63 -34 63 -68c0 -9 -1 -17 -3 -24c-9 -7 -17 -12 -24 -15h-14c-24 -1 -39 -4 -44 -4c-12 0 -22 3 -30 10z" />
    <glyph glyph-name="overscore" unicode="&#xaf;" horiz-adv-x="557" 
 />
    <glyph glyph-name="overscore" unicode="&#x2c9;" horiz-adv-x="557" 
 />
    <glyph glyph-name="degree" unicode="&#xb0;" 
d="M281 716c-30 -5 -52 -17 -66 -38c-3 -17 -6 -28 -11 -33c1 -4 1 -7 1 -10c0 -7 -2 -21 -2 -28c0 -10 1 -17 4 -21c6 -23 16 -41 31 -53c8 -5 15 -8 20 -8c4 0 8 1 12 3c3 0 6 -1 9 -4c1 -1 2 -1 4 -1c4 0 12 3 16 3c4 -1 8 -2 13 -2c7 3 12 3 16 4c19 10 29 18 30 23
c6 8 10 14 12 19c4 15 8 27 11 34v3c1 1 1 3 1 5c0 5 -5 11 -5 15s4 16 4 21c0 4 -1 7 -3 10c-11 22 -18 34 -21 36c-27 15 -47 23 -62 23c-6 0 -11 0 -14 -1zM249 669c9 9 16 15 21 18h7c7 -7 11 -10 12 -10c2 0 3 0 3 1c7 6 13 9 18 9h5c12 -9 19 -18 24 -25v-4
c8 -11 12 -20 13 -27c0 -1 -2 -2 -2 -3v-16c1 -1 1 -4 1 -7c0 -2 -2 -7 -5 -14c-3 -9 -4 -13 -5 -16c0 -12 -6 -18 -18 -18c-12 -3 -22 -6 -29 -11c-2 -3 -5 -4 -8 -4c-5 0 -13 5 -24 15c-1 0 -5 2 -8 2c-8 7 -17 18 -26 35v9c0 1 0 3 -1 4c-2 3 -4 6 -5 10v6
c13 21 22 36 27 46z" />
    <glyph glyph-name="plusminus" unicode="&#xb1;" 
d="M231 464c0 -24 -16 -45 -41 -45c-9 0 -22 4 -41 13c-18 9 -29 14 -33 14c-9 0 -20 -6 -32 -19h-18c-21 -9 -31 -27 -31 -55c0 -7 1 -13 2 -19c6 -11 14 -19 23 -23c7 -2 14 -3 22 -3c13 0 45 5 58 5c9 0 16 -1 23 -2c11 0 35 3 43 3c25 0 44 -30 44 -55
c-9 -57 -14 -97 -18 -120c3 -1 13 -6 31 -14c11 -6 22 -9 32 -9c13 3 23 17 29 40c2 6 3 13 3 22c0 21 -5 40 -15 57c-2 5 -3 9 -3 14c0 11 8 24 23 37c21 19 33 30 38 37c3 1 9 1 18 1c15 0 54 -4 69 -4c27 0 50 6 68 19c0 29 -21 48 -64 57c-3 0 -7 -6 -12 -6
c-11 0 -39 -3 -51 -3c-10 0 -18 1 -23 3c-14 5 -28 18 -43 39c-14 21 -21 38 -21 53c0 13 4 25 13 36c0 12 4 44 4 56c0 18 -9 30 -27 35c-39 0 -66 -25 -80 -75c0 -7 -2 -13 -6 -16v-18c11 -18 16 -36 16 -55zM526 97c-18 9 -33 16 -46 21c-5 2 -10 3 -15 3
c-13 0 -47 -7 -60 -7c-9 3 -20 5 -32 5c-11 0 -28 -2 -49 -5s-38 -4 -49 -4c-13 0 -31 1 -56 2c-24 2 -42 3 -55 3c-23 0 -42 -2 -57 -6c-39 -11 -58 -26 -58 -47c0 -33 15 -52 45 -58c2 -1 31 -1 86 -1c35 0 157 3 190 3c11 0 22 -1 33 -1c31 0 61 3 88 10
c39 11 58 28 58 52c0 9 -4 18 -12 26c-5 3 -9 4 -11 4z" />
    <glyph glyph-name="twosuperior" unicode="&#xb2;" 
 />
    <glyph glyph-name="threesuperior" unicode="&#xb3;" 
 />
    <glyph glyph-name="acute" unicode="&#xb4;" 
d="M215 526c-1 4 -2 8 -2 11s1 2 1 3c17 37 33 72 36 97c5 39 11 66 16 86c5 1 12 6 22 13c12 9 21 13 26 13s11 -5 16 -14c15 -7 26 -16 33 -27c6 -17 9 -30 9 -37c0 -5 -1 -9 -2 -14c-9 -4 -14 -7 -17 -9l-9 -17c-9 -5 -16 -13 -23 -14c-7 -20 -13 -35 -16 -44
c-11 -8 -17 -15 -18 -21v-4c0 -11 -3 -22 -9 -33c-8 -11 -17 -16 -28 -16c-1 0 -2 1 -5 1c-15 5 -25 13 -30 26z" />
    <glyph glyph-name="mu1" unicode="&#xb5;" 
 />
    <glyph glyph-name="paragraph" unicode="&#xb6;" 
 />
    <glyph glyph-name="middot" unicode="&#xb7;" 
 />
    <glyph glyph-name="middot" unicode="&#x2219;" 
 />
    <glyph glyph-name="cedilla" unicode="&#xb8;" 
d="M362 27l-1 1c-4 0 -20 -8 -25 -8c-2 0 -3 0 -3 1c1 -37 5 -56 11 -56c1 -8 2 -15 3 -22c0 -1 -2 -5 -2 -6c-3 -7 -7 -13 -13 -17c-1 -2 -7 -6 -16 -12c-13 -7 -23 -11 -32 -11c-3 0 -6 0 -7 1c-11 3 -19 9 -24 18c-1 1 -4 11 -11 28c-13 2 -21 3 -22 4
c-3 -1 -7 -4 -10 -7c-7 -11 -10 -19 -10 -24v-1c1 -17 14 -32 40 -43l5 1c11 -5 19 -10 23 -11c15 -1 23 -2 34 -2c4 0 7 1 10 1c8 4 13 7 16 10c17 11 28 19 33 24c12 16 19 29 23 38c-9 53 -17 84 -22 93z" />
    <glyph glyph-name="onesuperior" unicode="&#xb9;" 
 />
    <glyph glyph-name="ordmasculine" unicode="&#xba;" 
 />
    </font>
</defs>
</svg>
